<?xml version="1.0" encoding="utf-8"?>
<!-- Generator: Adobe Illustrator 24.1.0, SVG Export Plug-In . SVG Version: 6.00 Build 0)  -->
<svg version="1.1" id="Layer_1" xmlns="http://www.w3.org/2000/svg" xmlns:xlink="http://www.w3.org/1999/xlink" x="0px" y="0px"
	 viewBox="0 0 100 100" style="enable-background:new 0 0 100 100;" xml:space="preserve">
<path d="M46.23,77.94c-2.76,0-5,2.24-5,5s2.24,5,5,5s5-2.24,5-5S48.99,77.94,46.23,77.94z M46.23,84.94c-1.1,0-2-0.9-2-2s0.9-2,2-2
	s2,0.9,2,2S47.34,84.94,46.23,84.94z M59,16.43c2.76,0,5-2.24,5-5s-2.24-5-5-5s-5,2.24-5,5S56.24,16.43,59,16.43z M59,9.43
	c1.1,0,2,0.9,2,2s-0.9,2-2,2s-2-0.9-2-2S57.9,9.43,59,9.43z M16.5,73.64c0,1.38-1.12,2.5-2.5,2.5s-2.5-1.12-2.5-2.5
	s1.12-2.5,2.5-2.5S16.5,72.26,16.5,73.64z M18.87,14.93c0-1.38,1.12-2.5,2.5-2.5c1.38,0,2.5,1.12,2.5,2.5c0,1.38-1.12,2.5-2.5,2.5
	C19.99,17.43,18.87,16.31,18.87,14.93z M81,87.44c0,1.38-1.12,2.5-2.5,2.5s-2.5-1.12-2.5-2.5c0-1.38,1.12-2.5,2.5-2.5
	S81,86.06,81,87.44z M74.5,12.43c0-1.38,1.12-2.5,2.5-2.5s2.5,1.12,2.5,2.5c0,1.38-1.12,2.5-2.5,2.5S74.5,13.81,74.5,12.43z
	 M30.37,84.44c0,0.83-0.67,1.5-1.5,1.5h-3.5v3.5c0,0.83-0.67,1.5-1.5,1.5s-1.5-0.67-1.5-1.5v-3.5h-3.5c-0.83,0-1.5-0.67-1.5-1.5
	s0.67-1.5,1.5-1.5h3.5v-3.5c0-0.83,0.67-1.5,1.5-1.5s1.5,0.67,1.5,1.5v3.5h3.5C29.7,82.94,30.37,83.61,30.37,84.44z M91.43,74.44
	c0,0.83-0.67,1.5-1.5,1.5h-3.5v3.5c0,0.83-0.67,1.5-1.5,1.5s-1.5-0.67-1.5-1.5v-3.5h-3.5c-0.83,0-1.5-0.67-1.5-1.5s0.67-1.5,1.5-1.5
	h3.5v-3.5c0-0.83,0.67-1.5,1.5-1.5s1.5,0.67,1.5,1.5v3.5h3.5C90.75,72.94,91.43,73.61,91.43,74.44z M28.67,9.93
	c0-0.83,0.67-1.5,1.5-1.5h3.5v-3.5c0-0.83,0.67-1.5,1.5-1.5s1.5,0.67,1.5,1.5v3.5h3.5c0.83,0,1.5,0.67,1.5,1.5s-0.67,1.5-1.5,1.5
	h-3.5v3.5c0,0.83-0.67,1.5-1.5,1.5s-1.5-0.67-1.5-1.5v-3.5h-3.5C29.34,11.43,28.67,10.76,28.67,9.93z M5,45.76h71.07
	c0.33,0,0.66-0.11,0.92-0.32l3.45-2.68H96c0.83,0,1.5-0.67,1.5-1.5s-0.67-1.5-1.5-1.5H84.29l0.22-0.17H88c0.1,0,0.2-0.01,0.3-0.03
	c0.07-0.01,0.13-0.04,0.2-0.06c0.03-0.01,0.06-0.01,0.08-0.03c0.07-0.03,0.14-0.07,0.2-0.11c0.02-0.01,0.04-0.02,0.05-0.03
	c0.08-0.05,0.16-0.12,0.23-0.19l4-4c0.33-0.33,0.48-0.79,0.43-1.24c-0.06-0.46-0.32-0.87-0.72-1.1l-17-10.2
	c-0.02-0.01-0.04-0.01-0.05-0.02c-0.08-0.05-0.17-0.08-0.27-0.11c-0.03-0.01-0.06-0.02-0.09-0.03c-0.12-0.03-0.24-0.05-0.36-0.05H65
	c-0.83,0-1.5,0.67-1.5,1.5s0.67,1.5,1.5,1.5h2.5v6.35c0,0.83,0.67,1.5,1.5,1.5s1.5-0.67,1.5-1.5v-6.35h3v6.35
	c0,0.83,0.67,1.5,1.5,1.5h12.68l1.9,1.14l-2.2,2.2H84H58.38c-0.83,0-1.5,0.67-1.5,1.5s0.67,1.5,1.5,1.5h21.25l-4.07,3.17H5
	c-0.83,0-1.5,0.67-1.5,1.5S4.17,45.76,5,45.76z M76.5,30.25v-3.71l6.18,3.71H76.5z M3.5,38.09c0-0.83,0.67-1.5,1.5-1.5h47.38
	c0.83,0,1.5,0.67,1.5,1.5s-0.67,1.5-1.5,1.5H5C4.17,39.59,3.5,38.92,3.5,38.09z M3.5,50.26c0-0.83,0.67-1.5,1.5-1.5h20.99
	c0.83,0,1.5,0.67,1.5,1.5s-0.67,1.5-1.5,1.5H5C4.17,51.76,3.5,51.09,3.5,50.26z M70.5,51.76v12.1c8.24-2.48,16.74-4.28,25.31-5.36
	c0.83-0.1,1.57,0.48,1.67,1.3c0.1,0.82-0.48,1.57-1.3,1.67c-8.7,1.09-17.34,2.95-25.69,5.51v12.45c0,0.83-0.67,1.5-1.5,1.5
	s-1.5-0.67-1.5-1.5V51.76H31.99c-0.83,0-1.5-0.67-1.5-1.5s0.67-1.5,1.5-1.5H96c0.83,0,1.5,0.67,1.5,1.5s-0.67,1.5-1.5,1.5H70.5z
	 M5,33.25h2c0.43,0,0.84-0.18,1.12-0.5l6.55-7.35h8.93l6.55,7.35c0.28,0.32,0.69,0.5,1.12,0.5h2c0.83,0,1.5-0.67,1.5-1.5v-6.35h2.54
	v6.35c0,0.83,0.67,1.5,1.5,1.5s1.5-0.67,1.5-1.5v-6.35h2.66v6.35c0,0.83,0.67,1.5,1.5,1.5s1.5-0.67,1.5-1.5v-6.35h2.54v6.35
	c0,0.83,0.67,1.5,1.5,1.5h2c0.43,0,0.83-0.18,1.12-0.5l7-7.85c0.01-0.01,0.02-0.03,0.03-0.05c0.07-0.08,0.13-0.18,0.18-0.27
	c0.01-0.02,0.02-0.04,0.03-0.06c0.05-0.11,0.09-0.23,0.11-0.36c0.01-0.03,0.01-0.06,0.01-0.09c0.01-0.06,0.02-0.11,0.02-0.17
	c0-0.05-0.01-0.09-0.01-0.13c0-0.03,0-0.07-0.01-0.1c-0.02-0.13-0.05-0.25-0.1-0.37c0,0,0-0.01,0-0.01
	c-0.01-0.01-0.02-0.02-0.02-0.03c-0.05-0.1-0.11-0.2-0.18-0.29c-0.02-0.02-0.04-0.05-0.06-0.07c-0.08-0.09-0.18-0.18-0.28-0.25
	c-0.01-0.01-0.03-0.01-0.04-0.02c-0.1-0.06-0.2-0.11-0.31-0.14c-0.03-0.01-0.06-0.02-0.09-0.03c-0.12-0.03-0.25-0.06-0.39-0.06
	H24.27H14H5c-0.83,0-1.5,0.67-1.5,1.5v7.85C3.5,32.57,4.17,33.25,5,33.25z M55.65,25.39l-4.15,4.66v-4.66H55.65z M31.77,25.39v4.66
	l-4.15-4.66H31.77z M10.65,25.39L6.5,30.05v-4.66H10.65z M70.5,85.44V95c0,0.83-0.67,1.5-1.5,1.5s-1.5-0.67-1.5-1.5v-9.56
	c0-0.83,0.67-1.5,1.5-1.5S70.5,84.61,70.5,85.44z M63.5,56.26V95c0,0.83-0.67,1.5-1.5,1.5s-1.5-0.67-1.5-1.5V67
	c-2.21-0.68-4.44-1.32-6.66-1.89c-0.8-0.21-1.29-1.02-1.08-1.83c0.21-0.8,1.02-1.29,1.83-1.08c1.96,0.51,3.94,1.07,5.91,1.66v-7.61
	c0-0.83,0.67-1.5,1.5-1.5S63.5,55.43,63.5,56.26z M47.42,63.36c-0.15-0.14-0.26-0.31-0.33-0.49c-0.08-0.18-0.11-0.37-0.11-0.57
	c0-0.1,0.01-0.2,0.03-0.3c0.01-0.09,0.04-0.19,0.08-0.28s0.08-0.17,0.14-0.26c0.05-0.08,0.12-0.15,0.19-0.22
	c0.06-0.07,0.14-0.14,0.22-0.19c0.08-0.05,0.17-0.1,0.26-0.14c0.09-0.03,0.19-0.06,0.28-0.08c0.49-0.1,1.01,0.06,1.36,0.41
	c0.28,0.28,0.44,0.66,0.44,1.06c0,0.2-0.04,0.39-0.12,0.57c-0.07,0.18-0.18,0.35-0.32,0.49c-0.29,0.28-0.66,0.44-1.06,0.44
	c-0.2,0-0.4-0.04-0.58-0.12C47.72,63.61,47.56,63.5,47.42,63.36z M5.1,60.63c-0.82,0.04-1.54-0.57-1.6-1.4
	c-0.06-0.83,0.57-1.54,1.4-1.6c12.66-0.84,25.65-0.15,38.09,2.05c0.82,0.14,1.36,0.92,1.22,1.74c-0.13,0.73-0.76,1.24-1.48,1.24
	c-0.09,0-0.18-0.01-0.26-0.02C30.26,60.48,17.52,59.8,5.1,60.63z"/>
</svg>
