<?xml version="1.0" encoding="utf-8"?>
<!-- Generator: Adobe Illustrator 24.2.0, SVG Export Plug-In . SVG Version: 6.00 Build 0)  -->
<svg version="1.1" id="Layer_1" xmlns="http://www.w3.org/2000/svg" xmlns:xlink="http://www.w3.org/1999/xlink" x="0px" y="0px"
	 viewBox="0 0 100 100" style="enable-background:new 0 0 100 100;" xml:space="preserve">
<path d="M72.11,48.68c0.03,0.09,0.06,0.18,0.08,0.28c0.02,0.09,0.03,0.19,0.03,0.29c0,0.1-0.01,0.2-0.03,0.29
	c-0.02,0.1-0.05,0.19-0.08,0.28c-0.04,0.09-0.09,0.18-0.14,0.26c-0.06,0.08-0.12,0.16-0.19,0.23c-0.07,0.07-0.14,0.13-0.22,0.19
	c-0.09,0.05-0.17,0.1-0.26,0.14c-0.09,0.03-0.19,0.06-0.28,0.08c-0.1,0.02-0.2,0.03-0.3,0.03c-0.1,0-0.19-0.01-0.29-0.03
	c-0.1-0.02-0.19-0.05-0.28-0.08c-0.09-0.04-0.18-0.09-0.26-0.14c-0.08-0.06-0.16-0.12-0.23-0.19c-0.07-0.07-0.13-0.15-0.19-0.23
	c-0.05-0.08-0.1-0.17-0.13-0.26c-0.04-0.09-0.07-0.18-0.09-0.28c-0.02-0.09-0.03-0.19-0.03-0.29c0-0.1,0.01-0.2,0.03-0.29
	c0.02-0.1,0.05-0.19,0.09-0.28c0.03-0.09,0.08-0.18,0.13-0.26c0.06-0.08,0.12-0.16,0.19-0.23c0.35-0.35,0.87-0.51,1.36-0.41
	c0.09,0.02,0.19,0.05,0.28,0.08c0.09,0.04,0.17,0.09,0.26,0.14c0.08,0.06,0.15,0.12,0.22,0.19c0.07,0.07,0.13,0.15,0.19,0.23
	C72.02,48.5,72.07,48.59,72.11,48.68z M96.06,83.61c-0.07-0.07-0.14-0.13-0.23-0.18c-0.08-0.06-0.16-0.1-0.25-0.14
	c-0.09-0.04-0.19-0.07-0.28-0.09c-0.49-0.1-1.01,0.06-1.36,0.41c-0.28,0.28-0.44,0.67-0.44,1.06c0,0.1,0.01,0.2,0.03,0.3
	c0.02,0.09,0.05,0.19,0.09,0.28c0.04,0.09,0.08,0.17,0.14,0.26c0.05,0.08,0.11,0.16,0.18,0.22c0.28,0.28,0.67,0.44,1.06,0.44
	c0.1,0,0.2-0.01,0.3-0.03c0.09-0.02,0.19-0.04,0.28-0.08c0.09-0.04,0.17-0.09,0.25-0.14c0.09-0.05,0.16-0.12,0.23-0.19
	c0.07-0.06,0.13-0.14,0.19-0.22c0.05-0.09,0.1-0.17,0.14-0.26c0.04-0.09,0.06-0.19,0.08-0.28c0.02-0.1,0.03-0.2,0.03-0.3
	C96.5,84.28,96.34,83.89,96.06,83.61z M48.66,71.17h2.71c0.04,1.58,1.34,2.85,2.93,2.85h1.43c0.83,0,1.5-0.67,1.5-1.5
	s-0.67-1.5-1.5-1.5h-1.35c-0.04-1.58-1.34-2.85-2.93-2.85h-2.85c-1.59,0-2.89,1.27-2.93,2.85H44.3c-0.83,0-1.5,0.67-1.5,1.5
	s0.67,1.5,1.5,1.5h1.43C47.32,74.03,48.62,72.75,48.66,71.17z M91.5,84.67c0,0.83-0.67,1.5-1.5,1.5h-1.78v4.04
	c0,0.83-0.67,1.5-1.5,1.5h-13c-0.83,0-1.5-0.67-1.5-1.5s0.67-1.5,1.5-1.5h3.5V71.17h-7v21.04c0,0.83-0.67,1.5-1.5,1.5h-7.99
	c0,0-0.01,0-0.01,0s-0.01,0-0.01,0h-4.98c0,0-0.01,0-0.01,0s-0.01,0-0.01,0h-2.42c-0.83,0-1.5-0.67-1.5-1.5s0.67-1.5,1.5-1.5h0.93
	v-8.52c0-2.32-1.89-4.21-4.21-4.21c-0.88,0-1.72,0.27-2.43,0.77c-0.68,0.48-1.61,0.32-2.09-0.35c-0.48-0.68-0.32-1.61,0.35-2.09
	c1.22-0.87,2.66-1.33,4.17-1.33c3.98,0,7.21,3.23,7.21,7.21v8.52h2V76.88c0-0.83,0.67-1.5,1.5-1.5s1.5,0.67,1.5,1.5v13.83h5V71.17
	h-5v0.76c0,0.83-0.67,1.5-1.5,1.5s-1.5-0.67-1.5-1.5v-1.97l-1.51-3.79H42.3l-1.52,3.79v20.75h2.02v-8.52c0-0.19,0.01-0.39,0.02-0.57
	c0.06-0.83,0.76-1.45,1.6-1.39c0.83,0.06,1.45,0.77,1.39,1.6c-0.01,0.12-0.02,0.24-0.02,0.37v8.52h2.49c0.83,0,1.5,0.67,1.5,1.5
	s-0.67,1.5-1.5,1.5h-3.98c0,0-0.01,0-0.01,0s-0.01,0-0.01,0H31.28c-0.83,0-1.5-0.67-1.5-1.5v-0.5h-16.5c-0.83,0-1.5-0.67-1.5-1.5
	v-4.04H5c-0.83,0-1.5-0.67-1.5-1.5s0.67-1.5,1.5-1.5h6.78V77.4c0-0.83,0.67-1.5,1.5-1.5s1.5,0.67,1.5,1.5v7.25c0,0.01,0,0.02,0,0.02
	s0,0.02,0,0.02v4.01h5v-4.42c0-0.83,0.67-1.5,1.5-1.5s1.5,0.67,1.5,1.5v4.42h7V71.17h-7v7.11c0,0.83-0.67,1.5-1.5,1.5
	s-1.5-0.67-1.5-1.5v-7.11h-5v1.39c0,0.83-0.67,1.5-1.5,1.5s-1.5-0.67-1.5-1.5v-2.6l-1.89-4.73c-0.19-0.46-0.13-0.99,0.15-1.4
	c0.28-0.41,0.74-0.66,1.24-0.66h1.13l3.37-5.89v-2.61c0-0.83,0.67-1.5,1.5-1.5s1.5,0.67,1.5,1.5v2.6l3,5.25v-3.13
	c-0.5-0.18-0.89-0.61-0.98-1.16l-1-6c-0.07-0.44,0.05-0.88,0.33-1.22s0.7-0.53,1.14-0.53h0.13l3.37-5.89v-2.61
	c0-0.83,0.67-1.5,1.5-1.5s1.5,0.67,1.5,1.5v2.6l3.37,5.9h0.13h3v-3.69c-0.53,0-1.03-0.28-1.3-0.75s-0.27-1.03,0-1.5l3.8-6.65v-2.61
	c0-0.83,0.67-1.5,1.5-1.5s1.5,0.67,1.5,1.5v2.6l1.46,2.56l2.79-4.88c0.41-0.72,1.33-0.97,2.05-0.56c0.72,0.41,0.97,1.33,0.56,2.05
	l-3.66,6.41l0.62,1.08c0.27,0.46,0.26,1.03,0,1.5s-0.76,0.75-1.3,0.75v3.69h3.22v-4.81c0-0.03,0.01-0.05,0.01-0.08
	c0-0.05,0.01-0.11,0.02-0.16c0.01-0.05,0.02-0.1,0.03-0.14c0.01-0.05,0.03-0.09,0.04-0.13c0.02-0.05,0.04-0.1,0.07-0.15
	c0.01-0.02,0.02-0.05,0.03-0.07l3-5.25c0.27-0.47,0.76-0.76,1.3-0.76s1.04,0.29,1.3,0.76l3,5.25c0.01,0.02,0.02,0.05,0.03,0.07
	c0.02,0.05,0.05,0.1,0.07,0.15c0.02,0.04,0.03,0.09,0.04,0.13c0.01,0.05,0.02,0.09,0.03,0.14c0.01,0.05,0.01,0.11,0.02,0.16
	c0,0.03,0.01,0.05,0.01,0.08v4.81h3.22v-3.69c-0.53,0-1.03-0.28-1.3-0.75s-0.27-1.03,0-1.5l0.63-1.1l-7.03-12.31l-0.94,1.64
	c-0.41,0.72-1.33,0.97-2.05,0.56c-0.72-0.41-0.97-1.33-0.56-2.05l1.55-2.7c-0.72-0.58-1.19-1.47-1.19-2.47
	c0-1.21,0.69-2.26,1.69-2.8v-3.03c0-0.83,0.67-1.5,1.5-1.5s1.5,0.67,1.5,1.5v3.03c1,0.54,1.69,1.58,1.69,2.8
	c0,1-0.47,1.88-1.19,2.47l6.77,11.84l1.45-2.53V36.7c-0.49-0.17-0.86-0.59-0.97-1.12l-1-5c-0.09-0.44,0.03-0.9,0.31-1.25
	c0.29-0.35,0.71-0.55,1.16-0.55h1.5V26.7c-0.49-0.17-0.86-0.59-0.97-1.12l-1-5c-0.09-0.44,0.03-0.9,0.31-1.25
	c0.29-0.35,0.71-0.55,1.16-0.55h0.63l3.37-5.9v-2.6c0-0.83,0.67-1.5,1.5-1.5s1.5,0.67,1.5,1.5v2.61l3.37,5.89h0.63
	c0.45,0,0.88,0.2,1.16,0.55c0.28,0.35,0.4,0.8,0.31,1.25l-1,5c-0.11,0.53-0.48,0.95-0.97,1.12v2.09h1.5c0.45,0,0.88,0.2,1.16,0.55
	c0.28,0.35,0.4,0.8,0.31,1.25l-1,5c-0.11,0.53-0.48,0.94-0.97,1.12v7.63c0,0.83-0.67,1.5-1.5,1.5s-1.5-0.67-1.5-1.5v-7.54h-6v1.1
	l3.8,6.65c0.27,0.46,0.26,1.03,0,1.5s-0.76,0.75-1.3,0.75v8.69c0,1.67-1.04,3.11-2.5,3.7v3.99h0.53c0.83,0,1.5,0.67,1.5,1.5
	s-0.67,1.5-1.5,1.5h-2c-0.01,0-0.02,0-0.03,0s-0.02,0-0.03,0h-0.75l0.8,2h5.97l0.8-2.01c-0.74-0.09-1.32-0.72-1.32-1.49
	c0-0.83,0.67-1.5,1.5-1.5h0.53v-8.92c0-0.83,0.67-1.5,1.5-1.5s1.5,0.67,1.5,1.5v1.92h2.09l0.91-14.59c0-0.02,0.01-0.04,0.01-0.06
	c0.01-0.05,0.02-0.11,0.03-0.16c0.01-0.05,0.02-0.09,0.03-0.13c0.02-0.05,0.04-0.1,0.06-0.15c0.02-0.04,0.03-0.08,0.06-0.12
	c0.03-0.05,0.06-0.09,0.09-0.14c0.02-0.03,0.04-0.06,0.07-0.1c0.04-0.05,0.08-0.09,0.12-0.13c0.02-0.02,0.05-0.05,0.07-0.07
	c0.05-0.04,0.1-0.08,0.16-0.12c0.02-0.02,0.05-0.03,0.07-0.05c0.06-0.03,0.12-0.06,0.18-0.08c0.03-0.01,0.06-0.02,0.09-0.03
	c0.06-0.02,0.12-0.03,0.18-0.04c0.04-0.01,0.08-0.02,0.12-0.02c0.02,0,0.04-0.01,0.07-0.01c0.03,0,0.06,0,0.09,0
	c0.03,0,0.06-0.01,0.09,0c0.02,0,0.04,0.01,0.06,0.01c0.05,0.01,0.09,0.01,0.14,0.02c0.05,0.01,0.11,0.02,0.16,0.04
	c0.04,0.01,0.08,0.03,0.12,0.05c0.05,0.02,0.1,0.04,0.15,0.07c0.04,0.02,0.08,0.05,0.11,0.07c0.04,0.03,0.08,0.06,0.12,0.09
	c0.04,0.03,0.07,0.07,0.11,0.1c0.03,0.03,0.06,0.06,0.09,0.1c0.03,0.04,0.06,0.08,0.09,0.12c0.02,0.04,0.05,0.07,0.07,0.11
	c0.02,0.04,0.04,0.09,0.06,0.14c0.02,0.04,0.04,0.09,0.05,0.13s0.02,0.09,0.03,0.14c0.01,0.05,0.02,0.1,0.03,0.15
	c0,0.02,0.01,0.04,0.01,0.06l0.92,14.65c0.02,0.01,0.05,0.02,0.07,0.03c0.05,0.02,0.09,0.03,0.14,0.05
	c0.04,0.02,0.08,0.04,0.12,0.07c0.04,0.02,0.09,0.05,0.13,0.08c0.04,0.03,0.07,0.06,0.11,0.09c0.04,0.03,0.08,0.07,0.11,0.1
	c0.03,0.03,0.06,0.07,0.08,0.1c0.03,0.04,0.07,0.09,0.1,0.14c0.01,0.01,0.02,0.03,0.03,0.04l0.7,1.22l0.5-0.88v-2.6
	c0-0.83,0.67-1.5,1.5-1.5s1.5,0.67,1.5,1.5v2.61l3.37,5.89h1.13c0.5,0,0.96,0.25,1.24,0.66c0.28,0.41,0.34,0.94,0.15,1.4l-1.89,4.73
	v7.98c0,0.83-0.67,1.5-1.5,1.5s-1.5-0.67-1.5-1.5v-6.77h-5v17.54h5v-5.77c0-0.83,0.67-1.5,1.5-1.5s1.5,0.67,1.5,1.5v0.23H90
	C90.83,83.17,91.5,83.84,91.5,84.67z M15.87,63.17h2.83l-1.42-2.48L15.87,63.17z M21.07,66.17H13.5l0.8,2h5.97L21.07,66.17z
	 M24.87,50.48h2.83l-1.42-2.48L24.87,50.48z M27.78,59.48h-3v8.69h3V59.48z M29.51,53.48h-6.46l0.5,3h5.46L29.51,53.48z
	 M32.12,56.11c0.5-0.09,1.02-0.14,1.56-0.15c0.22,0,0.44,0.01,0.66,0.02c-0.02-0.17-0.05-0.33-0.05-0.5v-2h-1.73L32.12,56.11z
	 M36.78,63.17V59.8c-0.77-0.54-1.85-0.86-3.07-0.83c-1.14,0.01-2.22,0.32-2.93,0.8v3.41H36.78z M37.78,71.17h-5v19.54h5V71.17z
	 M39.07,66.17H31.5l0.8,2h5.97L39.07,66.17z M39.28,46.79h-2v8.69c0,0.55,0.45,1,1,1s1-0.45,1-1V46.79z M39.7,43.79l-1.42-2.48
	l-1.42,2.48H39.7z M48.5,54.48h3v-8.41L50,43.45l-1.5,2.62V54.48z M51.5,61.83h-3v1.35h3V61.83z M60.22,59.18
	c-1.46-0.6-2.5-2.03-2.5-3.7v-2H54.5v1h0.72c0.83,0,1.5,0.67,1.5,1.5s-0.67,1.5-1.5,1.5H44.78c-0.83,0-1.5-0.67-1.5-1.5
	s0.67-1.5,1.5-1.5h0.72v-1h-3.22v2c0,1.67-1.04,3.11-2.5,3.7v3.99h1.5h4.22v-1.35h-1.72c-0.83,0-1.5-0.67-1.5-1.5s0.67-1.5,1.5-1.5
	H47h6h3.22c0.83,0,1.5,0.67,1.5,1.5s-0.67,1.5-1.5,1.5H54.5v1.35h4.19c0.01,0,0.02,0,0.03,0h1.5V59.18z M64.8,18.79h2.83l-1.42-2.48
	L64.8,18.79z M62.55,21.79l0.4,2h6.54l0.4-2H62.55z M64.22,26.79v2h4v-2H64.22z M61.55,31.79l0.4,2h8.54l0.4-2H61.55z M60.3,43.79
	h2.83l-1.42-2.48L60.3,43.79z M61.72,56.48c0.55,0,1-0.45,1-1v-8.69h-2v8.69C60.72,56.03,61.17,56.48,61.72,56.48z M81.3,63.17h2.83
	l-1.42-2.48L81.3,63.17z M77.85,63.17l1.14-2l-1.14-2h-5.63v9h4.28l-1.18-2.94c-0.19-0.46-0.13-0.99,0.15-1.4
	c0.28-0.41,0.74-0.66,1.24-0.66H77.85z M79.73,68.17h5.97l0.8-2h-7.57L79.73,68.17z M18.05,22.79c0-2.76,2.24-5,5-5s5,2.24,5,5
	s-2.24,5-5,5S18.05,25.55,18.05,22.79z M21.05,22.79c0,1.1,0.9,2,2,2s2-0.9,2-2s-0.9-2-2-2S21.05,21.69,21.05,22.79z M9.2,30.29
	c1.38,0,2.5-1.12,2.5-2.5c0-1.38-1.12-2.5-2.5-2.5c-1.38,0-2.5,1.12-2.5,2.5C6.7,29.17,7.82,30.29,9.2,30.29z M91.5,46.46
	c-1.38,0-2.5,1.12-2.5,2.5c0,1.38,1.12,2.5,2.5,2.5s2.5-1.12,2.5-2.5C94,47.58,92.88,46.46,91.5,46.46z M37.78,18.82
	c1.38,0,2.5-1.12,2.5-2.5c0-1.38-1.12-2.5-2.5-2.5s-2.5,1.12-2.5,2.5C35.28,17.7,36.4,18.82,37.78,18.82z M28.78,11.29
	c1.38,0,2.5-1.12,2.5-2.5c0-1.38-1.12-2.5-2.5-2.5s-2.5,1.12-2.5,2.5C26.28,10.17,27.4,11.29,28.78,11.29z M81.3,17.55
	c1.38,0,2.5-1.12,2.5-2.5c0-1.38-1.12-2.5-2.5-2.5c-1.38,0-2.5,1.12-2.5,2.5C78.8,16.43,79.92,17.55,81.3,17.55z M85.5,36.19H88v2.5
	c0,0.83,0.67,1.5,1.5,1.5s1.5-0.67,1.5-1.5v-2.5h2.5c0.83,0,1.5-0.67,1.5-1.5s-0.67-1.5-1.5-1.5H91v-2.5c0-0.83-0.67-1.5-1.5-1.5
	s-1.5,0.67-1.5,1.5v2.5h-2.5c-0.83,0-1.5,0.67-1.5,1.5S84.67,36.19,85.5,36.19z M6.7,45.19h2.5v2.5c0,0.83,0.67,1.5,1.5,1.5
	s1.5-0.67,1.5-1.5v-2.5h2.5c0.83,0,1.5-0.67,1.5-1.5s-0.67-1.5-1.5-1.5h-2.5v-2.5c0-0.83-0.67-1.5-1.5-1.5s-1.5,0.67-1.5,1.5v2.5
	H6.7c-0.83,0-1.5,0.67-1.5,1.5S5.87,45.19,6.7,45.19z"/>
</svg>
