<?xml version="1.0" encoding="utf-8"?>
<!-- Generator: Adobe Illustrator 24.2.0, SVG Export Plug-In . SVG Version: 6.00 Build 0)  -->
<svg version="1.1" id="Layer_1" xmlns="http://www.w3.org/2000/svg" xmlns:xlink="http://www.w3.org/1999/xlink" x="0px" y="0px"
	 viewBox="0 0 100 100" style="enable-background:new 0 0 100 100;" xml:space="preserve">
<g>
	<path d="M6.25,66.29c0,2.76,2.24,5,5,5s5-2.24,5-5s-2.24-5-5-5S6.25,63.54,6.25,66.29z M13.25,66.29c0,1.1-0.9,2-2,2s-2-0.9-2-2
		s0.9-2,2-2S13.25,65.19,13.25,66.29z M21.22,14.19c2.76,0,5-2.24,5-5s-2.24-5-5-5s-5,2.24-5,5S18.46,14.19,21.22,14.19z
		 M21.22,7.19c1.1,0,2,0.9,2,2s-0.9,2-2,2s-2-0.9-2-2S20.12,7.19,21.22,7.19z M3.21,51.05c0-1.38,1.12-2.5,2.5-2.5s2.5,1.12,2.5,2.5
		c0,1.38-1.12,2.5-2.5,2.5S3.21,52.43,3.21,51.05z M30.14,7.69c0-1.38,1.12-2.5,2.5-2.5c1.38,0,2.5,1.12,2.5,2.5s-1.12,2.5-2.5,2.5
		C31.26,10.19,30.14,9.07,30.14,7.69z M91.44,22.36c1.38,0,2.5,1.12,2.5,2.5c0,1.38-1.12,2.5-2.5,2.5c-1.38,0-2.5-1.12-2.5-2.5
		C88.94,23.48,90.06,22.36,91.44,22.36z M80.92,9.19c0-0.83,0.67-1.5,1.5-1.5h2.5v-2.5c0-0.83,0.67-1.5,1.5-1.5s1.5,0.67,1.5,1.5
		v2.5h2.5c0.83,0,1.5,0.67,1.5,1.5s-0.67,1.5-1.5,1.5h-2.5v2.5c0,0.83-0.67,1.5-1.5,1.5s-1.5-0.67-1.5-1.5v-2.5h-2.5
		C81.59,10.69,80.92,10.02,80.92,9.19z M5.75,30.08c0-0.83,0.67-1.5,1.5-1.5h2.5v-2.5c0-0.83,0.67-1.5,1.5-1.5s1.5,0.67,1.5,1.5v2.5
		h2.5c0.83,0,1.5,0.67,1.5,1.5s-0.67,1.5-1.5,1.5h-2.5v2.5c0,0.83-0.67,1.5-1.5,1.5s-1.5-0.67-1.5-1.5v-2.5h-2.5
		C6.42,31.58,5.75,30.91,5.75,30.08z M24.97,84.77c-1.48,0.11-2.92,0.62-4.19,1.48c-0.64,0.44-1.37,0.72-2.13,0.86l-1.84-5.54
		c8.49,0.94,15.94,1.31,22.3,1.14c0.03,0,0.05,0.01,0.08,0.01c0.06,0,0.11-0.01,0.17-0.02c2.69-0.08,5.2-0.25,7.48-0.53
		c0.82-0.1,1.41-0.85,1.3-1.67c-0.1-0.82-0.85-1.41-1.67-1.3c-1.89,0.23-3.93,0.39-6.11,0.48l-1.03-4.32
		c-0.27-1.13-1.27-1.92-2.43-1.92H22.26c-1.16,0-2.16,0.79-2.43,1.92l-0.81,3.42c-0.88-0.09-1.76-0.18-2.66-0.29
		c-0.85-0.09-1.67,0.25-2.21,0.91c-0.54,0.67-0.7,1.55-0.43,2.36l1.66,5c-0.35-0.14-0.69-0.31-1-0.52c-2.97-2.03-6.82-2.04-9.8,0
		c-0.68,0.47-0.86,1.4-0.39,2.08c0.47,0.69,1.4,0.86,2.08,0.39c1.92-1.31,4.5-1.31,6.41,0c1.44,0.99,3.13,1.51,4.9,1.51
		c0.01,0,0.01,0,0.02,0c0,0,0.01,0,0.01,0c0.01,0,0.02,0,0.03,0c1.75-0.01,3.42-0.53,4.84-1.5c0.84-0.57,1.75-0.89,2.72-0.96
		c0.83-0.06,1.45-0.78,1.38-1.61C26.51,85.33,25.79,84.71,24.97,84.77z M22.65,76.43h13.85l0.79,3.31
		c-4.54,0.05-9.64-0.18-15.27-0.68L22.65,76.43z M95.82,88.33c-0.47,0.69-1.4,0.86-2.08,0.39c-1.95-1.33-4.47-1.33-6.42,0
		c-1.46,1-3.18,1.5-4.89,1.5s-3.43-0.5-4.9-1.5c-1.9-1.3-4.55-1.28-6.41,0c0,0,0,0,0,0c0,0,0,0,0,0c-2.93,2-6.87,2-9.79,0
		c-1.95-1.33-4.47-1.33-6.42,0c-2.93,2-6.86,2-9.79,0c-1.95-1.33-4.47-1.33-6.42,0c-1.46,1-3.16,1.52-4.88,1.52
		c-0.84,0-1.68-0.12-2.51-0.37c-0.79-0.24-1.25-1.07-1.01-1.87c0.24-0.79,1.07-1.24,1.87-1.01c1.66,0.5,3.42,0.22,4.84-0.75
		c2.98-2.03,6.83-2.03,9.8,0c1.92,1.31,4.49,1.31,6.41,0c0.69-0.47,1.42-0.81,2.18-1.07l2.08-5.67c-1.09,0.48-2.28,0.91-3.57,1.27
		c-0.8,0.22-1.63-0.23-1.85-1.03s0.23-1.63,1.03-1.85c1.55-0.44,2.94-0.98,4.13-1.58c0.93-0.48,2.04-0.34,2.82,0.36
		c0.77,0.69,1.04,1.75,0.67,2.72l-1.97,5.38c1.5,0.11,2.97,0.58,4.28,1.48c1.92,1.31,4.49,1.31,6.41,0c0.01,0,0.01-0.01,0.02-0.01
		c2.86-1.96,6.88-1.97,9.78,0.01c1.92,1.31,4.49,1.31,6.41,0c2.98-2.03,6.83-2.03,9.8,0C96.11,86.71,96.28,87.64,95.82,88.33z
		 M80.53,81.57c-0.41,0.62-0.52,1.38-0.3,2.09c0.22,0.71,0.75,1.28,1.45,1.56c0.3,0.12,0.61,0.18,0.92,0.18
		c0.7,0,1.38-0.29,1.86-0.84c1.47-1.67,2.79-3.52,3.91-5.49c2.86-5.03,4.37-10.75,4.37-16.53c0-6.16-2.67-12.06-7.32-16.18
		c-0.62-0.55-1.57-0.49-2.12,0.13c-0.55,0.62-0.49,1.57,0.13,2.12c4.01,3.56,6.31,8.64,6.31,13.94c0,4.99-1.23,9.92-3.57,14.31
		c1.03-2.99,1.57-6.14,1.57-9.31c0-7.34-4.92-13.89-11.97-15.92c-0.44-0.13-0.9-0.24-1.35-0.36c-0.07-0.02-0.14-0.04-0.22-0.06
		c-0.03-0.01-0.05-0.01-0.08-0.02c-0.02,0-0.04-0.01-0.05-0.02c-0.01,0-0.01,0-0.02,0c-2.4-0.63-4.94-1.15-7.59-1.57
		c-0.08-0.02-0.17-0.03-0.25-0.04c-0.33-0.05-0.67-0.1-1.01-0.15c-0.01,0-0.02-0.01-0.03-0.01c-0.06-0.01-0.11-0.01-0.17-0.02
		c-2.51-0.35-5.1-0.62-7.76-0.78c-0.04,0-0.07-0.01-0.11-0.01c-0.69-0.04-1.39-0.07-2.09-0.1c-0.07-0.01-0.15-0.01-0.22-0.01
		c-1.38-0.05-2.77-0.09-4.18-0.09c-1.11,0-2.22,0.02-3.33,0.05c-0.04,0-0.09,0-0.13,0.01c-0.74,0.02-1.47,0.05-2.2,0.09
		c-0.03,0-0.05,0-0.08,0c-2.57,0.14-5.08,0.37-7.52,0.68c-0.11,0-0.22,0.01-0.33,0.03c-0.03,0.01-0.05,0.02-0.07,0.02
		c-3.07,0.41-6.01,0.95-8.77,1.63c-0.02,0-0.04,0-0.07,0.01c-0.03,0.01-0.06,0.02-0.09,0.03c-0.09,0.02-0.18,0.04-0.27,0.06v0
		c-0.03,0.01-0.06,0.01-0.08,0.02c-0.06,0.01-0.12,0.03-0.13,0.03c-0.68,0.17-1.35,0.36-2.03,0.54c-1.44,0.42-2.8,1.01-4.02,1.77
		c-1.04,0.63-1.7,1.69-1.85,2.86c-1.29-1.11-2.03-2.72-2.03-4.49c0-2.1,1.07-4,2.85-5.09c1.39-0.85,2.9-1.51,4.49-1.97
		c0.78-0.23,1.56-0.43,2.34-0.63L27.65,44c6.86-1.69,14.81-2.59,23.01-2.59c9.34,0,18.21,1.14,25.67,3.29
		c0.5,0.14,1.03,0.32,1.64,0.56c0.77,0.3,1.64-0.09,1.94-0.86c0.3-0.77-0.09-1.64-0.86-1.94c-0.69-0.27-1.31-0.48-1.89-0.64
		c-7.72-2.23-16.88-3.41-26.5-3.41c-7.59,0-14.99,0.76-21.56,2.18l2.09-7.13c1.12-3.81,3.17-7.35,5.95-10.22
		c0.58-0.6,0.56-1.55-0.04-2.12c-0.59-0.58-1.54-0.56-2.12,0.04c-3.11,3.22-5.42,7.19-6.67,11.46l-2.57,8.78
		c-0.52,0.14-1.04,0.27-1.57,0.42c-0.24,0.07-0.47,0.15-0.71,0.23l2.86-9.77c0.23-0.79-0.22-1.63-1.02-1.86
		c-0.79-0.23-1.63,0.22-1.86,1.02l-3.55,12.14c-0.32,0.17-0.64,0.35-0.95,0.54c-2.69,1.63-4.29,4.49-4.29,7.65
		c0,3.16,1.59,6,4.25,7.62c0.61,0.38,1.25,0.72,1.94,1.04c0.17,0.2,0.35,0.38,0.54,0.53c0.75,0.62,1.7,0.97,2.68,0.97
		c0.33,0,0.65-0.05,0.97-0.13c0.1,0.05,0.19,0.1,0.29,0.14c3.22,1.43,6.83,2.7,10.72,3.77c1.69,0.47,2.8,2.06,2.58,3.73
		c-0.05,0.36-0.11,0.73-0.17,1.09c-0.15,0.82,0.4,1.59,1.21,1.74c0.09,0.02,0.18,0.02,0.27,0.02c0.71,0,1.34-0.51,1.47-1.23
		c0.07-0.4,0.14-0.8,0.2-1.26c0.41-3.11-1.63-6.11-4.76-6.98c-3.27-0.9-6.3-1.95-9.08-3.11c0.19-0.36,0.34-0.74,0.44-1.16l0.09-0.43
		c0.27,0.58,0.66,1.1,1.16,1.5c0.74,0.61,1.68,0.94,2.66,0.94c1.96,0,3.69-1.39,4.11-3.31c0.18-0.81-0.34-1.61-1.15-1.78
		c-0.81-0.17-1.61,0.34-1.78,1.15c-0.12,0.55-0.61,0.95-1.17,0.95c-0.28,0-0.54-0.09-0.76-0.27c-0.22-0.18-0.37-0.42-0.43-0.68
		l-0.67-3.08c1.91-0.43,3.9-0.81,5.96-1.11l0.78,3.61c0.21,0.92,0.73,1.76,1.47,2.37c0.74,0.6,1.68,0.93,2.64,0.93
		c1.97,0,3.7-1.4,4.12-3.32l0.93-4.3l0.84,3.88c0.21,0.93,0.73,1.77,1.47,2.37c0.74,0.6,1.68,0.93,2.64,0.93
		c1.97,0,3.7-1.39,4.12-3.31l0.81-3.74l0.96,4.47c0.21,0.91,0.73,1.75,1.47,2.36c0.75,0.6,1.68,0.93,2.64,0.93
		c1.97,0,3.7-1.39,4.12-3.31l0.25-1.14l0.52,2.42c0.21,0.91,0.72,1.75,1.47,2.36c0.74,0.6,1.68,0.93,2.64,0.93
		c1.52,0,2.89-0.84,3.63-2.1l0.25,1.17c0.21,0.91,0.72,1.75,1.47,2.36c0.75,0.6,1.68,0.93,2.64,0.93c1.02,0,2.01-0.37,2.78-1.05
		c0.62-0.55,0.68-1.49,0.14-2.12c-0.55-0.62-1.49-0.68-2.12-0.14c-0.43,0.38-1.13,0.38-1.54,0.05c-0.22-0.19-0.38-0.44-0.44-0.69
		l-0.96-4.45c5.22,1.97,8.79,7.05,8.79,12.7c0,4.4-1.15,8.75-3.33,12.58C81.14,80.62,80.84,81.1,80.53,81.57z M22.97,58.28
		c-0.06-0.09-0.1-0.21-0.12-0.31l-0.16-0.87c0-0.02-0.01-0.04-0.02-0.05c0-0.01,0-0.02,0-0.03c-0.08-0.32-0.02-0.79,0.42-1.06
		c0.88-0.54,1.85-0.97,2.86-1.29l-0.69,3.24c-0.06,0.25-0.17,0.47-0.33,0.64c-0.1,0.11-0.21,0.19-0.32,0.24
		c-0.05,0.02-0.09,0.04-0.14,0.06c-0.12,0.06-0.27,0.09-0.42,0.09c-0.36,0-0.61-0.15-0.78-0.29C23.16,58.54,23.06,58.42,22.97,58.28
		z M41.1,56.34c-0.28,0-0.54-0.09-0.74-0.25c-0.22-0.19-0.38-0.44-0.44-0.7l-0.72-3.34c1.28-0.14,2.58-0.26,3.89-0.35l-0.8,3.69
		C42.16,55.94,41.67,56.34,41.1,56.34z M51.1,55.9c-0.28,0-0.54-0.09-0.76-0.27c-0.21-0.17-0.37-0.42-0.42-0.68l-0.76-3.52
		c0.5-0.01,1-0.02,1.51-0.02c0.8,0,1.59,0.02,2.38,0.04l-0.76,3.51C52.16,55.5,51.67,55.9,51.1,55.9z M61.1,56.62
		c-0.28,0-0.54-0.09-0.75-0.26c-0.22-0.19-0.38-0.44-0.44-0.69l-0.85-3.92c1.35,0.11,2.67,0.24,3.98,0.39l-0.76,3.52
		C62.16,56.22,61.67,56.62,61.1,56.62z M70.1,57.88c-0.28,0-0.54-0.09-0.74-0.25c-0.23-0.19-0.38-0.44-0.44-0.69l-0.87-4.02
		c1.34,0.25,2.66,0.51,3.93,0.82l-0.69,3.2C71.16,57.48,70.67,57.88,70.1,57.88z M50.66,42.91c0.83,0,1.5,0.67,1.5,1.5
		s-0.67,1.5-1.5,1.5c-2.85,0-5.69,0.11-8.45,0.34c-0.04,0-0.08,0-0.12,0c-0.77,0-1.43-0.59-1.49-1.38
		c-0.07-0.83,0.55-1.55,1.38-1.62C44.81,43.03,47.73,42.91,50.66,42.91z M38.77,44.67c0.04,0.09,0.06,0.19,0.08,0.28
		c0.02,0.1,0.03,0.2,0.03,0.3c0,0.4-0.15,0.77-0.44,1.05c-0.28,0.29-0.66,0.45-1.06,0.45c-0.4,0-0.78-0.16-1.06-0.45
		c-0.14-0.14-0.25-0.3-0.32-0.48c-0.08-0.18-0.12-0.37-0.12-0.57c0-0.1,0.01-0.2,0.03-0.3c0.02-0.09,0.05-0.19,0.09-0.28
		c0.03-0.09,0.08-0.17,0.14-0.26c0.05-0.08,0.11-0.15,0.18-0.22c0.35-0.35,0.87-0.51,1.35-0.42c0.1,0.02,0.19,0.05,0.29,0.09
		c0.09,0.04,0.17,0.09,0.25,0.14c0.09,0.05,0.16,0.12,0.23,0.19c0.07,0.07,0.13,0.14,0.19,0.22C38.68,44.5,38.73,44.58,38.77,44.67z
		 M61.33,16.63c-0.8-0.23-1.26-1.06-1.03-1.86c0.23-0.8,1.06-1.26,1.86-1.03c2.13,0.61,4.19,1.49,6.12,2.6
		c0.72,0.41,0.96,1.33,0.55,2.05c-0.28,0.48-0.78,0.75-1.3,0.75c-0.25,0-0.51-0.06-0.75-0.2C65.06,17.96,63.22,17.18,61.33,16.63z
		 M71.22,22.2c-0.14-0.14-0.25-0.31-0.33-0.49c-0.07-0.18-0.11-0.37-0.11-0.57c0-0.39,0.16-0.78,0.44-1.06
		c0.07-0.07,0.14-0.13,0.23-0.19c0.08-0.05,0.17-0.1,0.26-0.14c0.09-0.03,0.18-0.06,0.28-0.08c0.19-0.04,0.39-0.04,0.58,0
		c0.1,0.02,0.19,0.05,0.28,0.08c0.09,0.04,0.18,0.09,0.26,0.14c0.08,0.06,0.16,0.12,0.23,0.19c0.07,0.07,0.13,0.14,0.19,0.23
		c0.05,0.08,0.1,0.17,0.14,0.25c0.03,0.1,0.06,0.19,0.08,0.29c0.02,0.09,0.03,0.19,0.03,0.29c0,0.4-0.15,0.77-0.44,1.06
		c-0.14,0.14-0.3,0.25-0.48,0.32c-0.19,0.08-0.38,0.12-0.58,0.12C71.88,22.64,71.5,22.48,71.22,22.2z M76.68,29.52
		c-0.64-1.32-1.41-2.59-2.28-3.77c-0.49-0.67-0.35-1.61,0.32-2.1c0.67-0.49,1.61-0.35,2.1,0.32c0.99,1.34,1.86,2.78,2.58,4.29
		c0.02,0.03,0.03,0.06,0.04,0.09c0.89,2.21,1.97,4.26,3.22,6.11c0.46,0.69,0.28,1.62-0.4,2.08c-0.26,0.17-0.55,0.26-0.84,0.26
		c-0.48,0-0.95-0.23-1.24-0.66C78.82,34.13,77.64,31.91,76.68,29.52z M54.69,7.69c6.17,0,12.18,1.76,17.39,5.09
		c5.15,3.29,9.26,7.95,11.91,13.48c0.01,0.03,0.03,0.06,0.04,0.09c3.08,7.77,7.91,10.61,7.96,10.64c0.72,0.41,0.97,1.33,0.56,2.04
		c-0.28,0.49-0.78,0.76-1.3,0.76c-0.25,0-0.5-0.06-0.73-0.19c-0.23-0.13-5.75-3.31-9.25-12.1c-2.4-5-6.13-9.22-10.79-12.2
		c-4.72-3.02-10.18-4.62-15.77-4.62c-10.87,0-20.83,6.01-26,15.69c-0.39,0.73-1.3,1.01-2.03,0.62s-1.01-1.3-0.62-2.03
		C31.73,14.31,42.71,7.69,54.69,7.69z"/>
</g>
</svg>
