<?xml version="1.0" encoding="utf-8"?>
<!-- Generator: Adobe Illustrator 24.2.0, SVG Export Plug-In . SVG Version: 6.00 Build 0)  -->
<svg version="1.1" id="Layer_1" xmlns="http://www.w3.org/2000/svg" xmlns:xlink="http://www.w3.org/1999/xlink" x="0px" y="0px"
	 viewBox="0 0 100 100" style="enable-background:new 0 0 100 100;" xml:space="preserve">
<g>
	<path d="M15.02,26.58c-0.61-0.57-0.64-1.51-0.08-2.12c2.52-2.71,7.28-5.08,13.4-6.68c1.3-0.34,2.67-0.65,4.08-0.92
		c0.81-0.15,1.6,0.38,1.75,1.19c0.15,0.81-0.38,1.6-1.19,1.75c-1.34,0.25-2.64,0.55-3.88,0.87c-5.58,1.46-9.83,3.52-11.97,5.82
		c-0.3,0.32-0.7,0.48-1.1,0.48C15.67,26.99,15.31,26.85,15.02,26.58z M85.81,20.99c0.84,0.52,1.65,1.08,2.42,1.65
		c0.27,0.2,0.59,0.3,0.9,0.3c0.46,0,0.9-0.21,1.2-0.6c0.5-0.66,0.37-1.6-0.29-2.1c-0.84-0.63-1.73-1.24-2.64-1.81
		c-0.7-0.44-1.63-0.22-2.06,0.48C84.88,19.63,85.1,20.56,85.81,20.99z M67.32,13.98c4.9,1.07,9.62,2.61,13.67,4.45
		c0.2,0.1,0.43,0.15,0.66,0.15c0.83,0,1.5-0.67,1.5-1.5c0-0.61-0.37-1.14-0.9-1.37c0,0,0,0,0,0c-4.24-1.93-9.17-3.54-14.28-4.66
		c-0.81-0.18-1.61,0.33-1.79,1.14C66,13.01,66.52,13.81,67.32,13.98z M88.48,41.42c-0.72,0.42-0.96,1.33-0.55,2.05
		c0.28,0.48,0.78,0.75,1.3,0.75c0.26,0,0.51-0.07,0.75-0.2c1.52-0.88,2.56-2.04,3.08-3.45c1.68-4.52-2.51-10.53-11.19-16.09
		c-2.18-1.39-4.57-2.7-7.12-3.91c-0.75-0.35-1.64-0.04-2,0.71c-0.36,0.75-0.04,1.64,0.71,2c2.44,1.16,4.73,2.42,6.8,3.73
		c7.08,4.53,11.09,9.56,9.99,12.52C89.98,40.26,89.38,40.9,88.48,41.42z M79,85.17c-0.13,0.04-0.27,0.06-0.41,0.06
		c-0.66,0-1.26-0.43-1.44-1.09c-0.22-0.8,0.24-1.62,1.04-1.85c6.82-1.92,10.96-4.94,11.37-8.29c0.49-4.16-4.75-9.09-13.73-13.01
		c-3.87,5.81-9.03,10.48-15.08,13.4c-0.03,0.01-0.05,0.03-0.07,0.05c-2.08,1.04-5.17,1.59-8.67,1.59c-1.39,0-2.84-0.09-4.32-0.26
		c-5.23-0.62-9.83-2.25-12.32-4.34c-0.03-0.02-0.1-0.08-0.17-0.15c-0.46-0.38-0.93-0.79-1.41-1.24c-0.6-0.57-0.63-1.52-0.07-2.12
		c0.57-0.6,1.52-0.63,2.12-0.07c0.5,0.46,0.98,0.89,1.44,1.26c0,0,0,0,0.01,0.01c2.1,1.74,6.19,3.13,10.76,3.68
		c4.58,0.54,8.9,0.15,11.27-1.02c0.01-0.01,0.03-0.02,0.04-0.02c6.5-3.11,11.99-8.65,15.73-15.45c-1.32,0.52-2.79,0.98-4.41,1.34
		c-0.11,0.03-0.22,0.04-0.33,0.04c-0.69,0-1.3-0.47-1.46-1.17c-0.18-0.81,0.33-1.61,1.13-1.79c3.17-0.72,5.65-1.75,7.24-2.99
		c0.68-1.69,1.26-3.44,1.73-5.22c-0.5,0.31-1.03,0.6-1.61,0.88c-0.03,0.01-0.05,0.03-0.08,0.04c-3.4,1.61-8.16,2.64-13.92,2.95
		l-1.56,5.39c0.96-0.05,1.93-0.11,2.88-0.2c0.82-0.09,1.56,0.52,1.64,1.34c0.08,0.82-0.52,1.56-1.34,1.64
		c-1.34,0.13-2.69,0.21-4.05,0.25l-1.91,6.59c-0.62,2.12-2.45,3.71-4.66,4.07c-1.15,0.18-2.29,0.27-3.42,0.27
		c-2.83,0-5.61-0.55-8.3-1.66c-2.08-0.87-3.48-2.85-3.57-5.05l-0.31-6.85c-5.47-1.5-10.02-3.51-13.22-5.78
		c0.2,0.74,0.42,1.46,0.66,2.18c0.01,0.03,0.02,0.05,0.03,0.08c1.37,4.11,3.37,7.93,5.96,11.27c0.51,0.65,0.39,1.6-0.26,2.1
		c-0.27,0.21-0.6,0.32-0.92,0.32c-0.45,0-0.89-0.2-1.18-0.58c-2.55-3.28-4.57-6.98-6.03-10.95c-0.52,0.09-1.03,0.19-1.52,0.29
		c-0.1,0.02-0.2,0.03-0.3,0.03c-0.7,0-1.32-0.49-1.47-1.2c-0.17-0.81,0.36-1.6,1.17-1.77c0.39-0.08,0.79-0.15,1.19-0.23
		c-0.59-2.03-1.03-4.11-1.33-6.23c-0.68-1.05-1.7-1.8-2.92-2.11c-1.29-0.33-2.64-0.14-3.79,0.54c-1.62,0.96-2.54,2.66-2.45,4.54
		c0.09,1.88,1.16,3.49,2.87,4.29l8.49,3.98c1.08,0.51,1.81,1.52,1.96,2.7s-0.32,2.34-1.24,3.1c-0.28,0.23-0.62,0.34-0.95,0.34
		c-0.43,0-0.86-0.19-1.16-0.55c-0.53-0.64-0.43-1.59,0.21-2.11c0.17-0.14,0.17-0.32,0.16-0.41s-0.06-0.26-0.26-0.36l-8.49-3.98
		c-2.73-1.28-4.45-3.85-4.59-6.86c-0.14-3.01,1.32-5.73,3.92-7.27c1.84-1.08,3.99-1.39,6.06-0.86c0.63,0.16,1.22,0.4,1.77,0.7
		c-0.12-2.55-0.03-5.13,0.28-7.72c0.01-0.11,0.04-0.21,0.07-0.31c0.81-4.63,7.19-7.95,17.23-8.9c4.61-0.44,9.8-0.35,15.03,0.26
		c4.82,0.57,9.41,1.56,13.67,2.93c0.79,0.25,1.22,1.1,0.97,1.89c-0.25,0.79-1.1,1.22-1.89,0.97c-4.07-1.31-8.47-2.26-13.1-2.81
		c-5.01-0.59-9.99-0.68-14.39-0.26c-8.36,0.79-14.22,3.43-14.59,6.57c-0.16,1.37,0.66,2.85,2.27,4.32c2.2-0.92,4.88-1.62,7.96-2.07
		c0.81-0.13,1.58,0.44,1.7,1.26c0.12,0.82-0.44,1.58-1.26,1.7c-2.02,0.3-3.87,0.72-5.48,1.24c2.71,1.64,6.36,3.17,10.62,4.36
		c0.03,0.01,0.05,0.02,0.07,0.03c0.05,0.02,0.09,0.03,0.14,0.05c0.04,0.02,0.08,0.03,0.11,0.05c0.06,0.03,0.11,0.07,0.17,0.11
		c0.02,0.01,0.04,0.03,0.06,0.04c0.06,0.05,0.11,0.1,0.16,0.16c0.01,0.01,0.03,0.03,0.04,0.04c0.04,0.05,0.08,0.11,0.12,0.17
		c0.02,0.03,0.03,0.05,0.05,0.08c0.02,0.05,0.04,0.09,0.06,0.14c0.02,0.05,0.04,0.1,0.05,0.16c0.01,0.03,0.01,0.05,0.02,0.08
		c0.02,0.08,0.03,0.15,0.03,0.23c0,0.01,0,0.01,0,0.02l0.76,16.68c0.04,1.05,0.72,1.99,1.72,2.41c3.24,1.33,6.64,1.74,10.11,1.2
		c1.08-0.17,1.94-0.92,2.24-1.94l4.64-16.03c0-0.01,0.01-0.02,0.02-0.04c0.02-0.06,0.05-0.13,0.08-0.19
		c0.01-0.03,0.03-0.06,0.05-0.09c0.03-0.05,0.06-0.1,0.1-0.15c0.02-0.03,0.04-0.06,0.07-0.09c0.04-0.04,0.08-0.08,0.12-0.12
		c0.03-0.03,0.06-0.05,0.09-0.08c0.04-0.03,0.09-0.06,0.13-0.09c0.04-0.02,0.07-0.05,0.11-0.07c0.04-0.02,0.09-0.04,0.13-0.06
		c0.05-0.02,0.09-0.04,0.14-0.05c0.04-0.01,0.08-0.02,0.12-0.03c0.06-0.01,0.12-0.02,0.18-0.02c0.02,0,0.03-0.01,0.05-0.01
		c4.43-0.16,8.34-0.79,11.36-1.74c-1.45-0.88-3.15-1.73-5.05-2.49c-0.77-0.31-1.14-1.18-0.83-1.95c0.31-0.77,1.18-1.14,1.95-0.83
		c2.9,1.17,5.33,2.48,7.26,3.89c1.9-1.04,3.05-2.29,3.22-3.65c0,0,0-0.01,0-0.01c0,0,0-0.01,0-0.01c0.29-2.53-3.03-5.69-8.68-8.25
		c-0.75-0.34-1.09-1.23-0.75-1.98c0.34-0.76,1.23-1.09,1.98-0.75c7.2,3.26,10.9,7.29,10.42,11.34c0,0.01,0,0.01,0,0.02
		c-0.73,6.3-2.72,12.22-5.67,17.41c10.3,4.56,15.8,10.32,15.13,15.95C91.97,79.04,87.16,82.88,79,85.17z M38.63,52.99l-0.25-5.61
		c-5.59-1.67-10-3.82-12.92-6.22c-0.04-0.03-0.08-0.06-0.12-0.1c-0.45-0.37-0.86-0.75-1.24-1.14c0.03,1.84,0.18,3.67,0.44,5.46
		C26.75,48.25,31.91,51.02,38.63,52.99z M84.22,71.78c0.38,0,0.76-0.14,1.05-0.43c0.59-0.58,0.59-1.53,0.01-2.12
		c-1.72-1.74-4.32-3.51-7.51-5.12c-0.73-0.37-1.64-0.08-2.01,0.67c-0.37,0.74-0.08,1.64,0.67,2.01c3.67,1.85,5.69,3.5,6.73,4.55
		C83.44,71.63,83.83,71.78,84.22,71.78z M74.52,84.38c-0.03-0.09-0.08-0.18-0.13-0.26c-0.06-0.08-0.12-0.16-0.19-0.23
		c-0.07-0.07-0.15-0.13-0.23-0.19c-0.08-0.05-0.17-0.1-0.26-0.14c-0.09-0.03-0.18-0.06-0.28-0.08c-0.19-0.04-0.39-0.04-0.58,0
		c-0.1,0.02-0.2,0.05-0.29,0.08c-0.09,0.04-0.17,0.09-0.25,0.14c-0.09,0.06-0.16,0.12-0.23,0.19s-0.13,0.15-0.19,0.23
		c-0.05,0.08-0.1,0.17-0.14,0.26c-0.03,0.09-0.06,0.18-0.08,0.28c-0.02,0.09-0.03,0.19-0.03,0.29c0,0.2,0.04,0.39,0.11,0.57
		c0.08,0.19,0.19,0.35,0.33,0.49s0.3,0.25,0.48,0.33c0.18,0.07,0.38,0.11,0.58,0.11c0.2,0,0.39-0.04,0.57-0.11
		c0.18-0.08,0.35-0.19,0.49-0.33c0.14-0.14,0.25-0.3,0.33-0.49c0.07-0.18,0.11-0.37,0.11-0.57c0-0.1-0.01-0.2-0.03-0.29
		C74.59,84.56,74.56,84.47,74.52,84.38z M67.41,84.18c-6.38,0.58-13.54,0.44-20.69-0.42C22.15,80.83,6.54,71.29,7.39,64.22
		c0.31-2.62,2.81-4.55,4.86-5.71c0.72-0.41,0.98-1.32,0.57-2.04c-0.41-0.72-1.33-0.98-2.04-0.57c-3.8,2.15-6,4.9-6.36,7.97
		C3.23,73.75,21.66,83.8,46.37,86.74c4.39,0.53,8.79,0.79,13.02,0.79c2.86,0,5.64-0.12,8.29-0.36c0.83-0.08,1.43-0.81,1.36-1.63
		C68.97,84.71,68.21,84.11,67.41,84.18z M17.19,73.02c0.24,0.13,0.49,0.2,0.75,0.2c0.52,0,1.02-0.27,1.3-0.75
		c0.41-0.72,0.17-1.64-0.55-2.05c-0.79-0.46-1.54-0.92-2.21-1.39c-0.68-0.47-1.62-0.3-2.09,0.39c-0.47,0.68-0.3,1.62,0.39,2.09
		C15.51,72.02,16.32,72.53,17.19,73.02z M46.96,81.77c0.06,0.01,0.12,0.01,0.18,0.01c0.75,0,1.4-0.56,1.49-1.32
		c0.1-0.82-0.49-1.57-1.31-1.67c-11.57-1.38-19.5-4.08-24.13-6.11c-0.76-0.34-1.64,0.01-1.98,0.77c-0.33,0.76,0.01,1.64,0.77,1.98
		C28.88,78.46,37.52,80.65,46.96,81.77z M49.03,64.33c0.06,0.01,0.12,0.01,0.18,0.01c0.75,0,1.4-0.56,1.49-1.32l2.2-18.5
		c0.76,0.06,1.52,0.09,2.27,0.09c5.34,0,10.05-1.44,10.44-4.66c0.13-1.09-0.21-3.2-3.93-5.14c-2.32-1.21-5.46-2.1-8.84-2.5
		c-6.7-0.8-13.73,0.46-14.21,4.42c-0.1,0.83,0.12,1.68,0.64,2.47c0.46,0.69,1.39,0.88,2.08,0.42c0.69-0.46,0.88-1.39,0.42-2.08
		c-0.07-0.1-0.18-0.29-0.16-0.44c0.11-0.89,4.05-2.62,10.87-1.81c3.03,0.36,5.8,1.14,7.81,2.19c1.78,0.93,2.38,1.8,2.34,2.13
		c-0.11,0.89-4.05,2.62-10.88,1.81c-2.15-0.25-4.23-0.74-6.02-1.4c-0.78-0.29-1.64,0.11-1.93,0.89c-0.29,0.78,0.11,1.64,0.89,1.93
		c1.58,0.59,3.37,1.04,5.22,1.35l-2.2,18.49C47.62,63.49,48.21,64.23,49.03,64.33z M97.62,54.99c0,2.76-2.24,5-5,5s-5-2.24-5-5
		s2.24-5,5-5S97.62,52.23,97.62,54.99z M94.62,54.99c0-1.1-0.9-2-2-2s-2,0.9-2,2s0.9,2,2,2S94.62,56.09,94.62,54.99z M29.82,92.45
		c0,2.76-2.24,5-5,5s-5-2.24-5-5s2.24-5,5-5S29.82,89.69,29.82,92.45z M26.82,92.45c0-1.1-0.9-2-2-2s-2,0.9-2,2s0.9,2,2,2
		S26.82,93.55,26.82,92.45z M42.62,89.95c-1.38,0-2.5,1.12-2.5,2.5c0,1.38,1.12,2.5,2.5,2.5c1.38,0,2.5-1.12,2.5-2.5
		C45.12,91.07,44,89.95,42.62,89.95z M30.66,7.54c1.38,0,2.5-1.12,2.5-2.5c0-1.38-1.12-2.5-2.5-2.5s-2.5,1.12-2.5,2.5
		C28.16,6.42,29.28,7.54,30.66,7.54z M9.07,36.32c1.38,0,2.5-1.12,2.5-2.5c0-1.38-1.12-2.5-2.5-2.5c-1.38,0-2.5,1.12-2.5,2.5
		C6.57,35.2,7.69,36.32,9.07,36.32z M91.09,86.45c-1.38,0-2.5,1.12-2.5,2.5c0,1.38,1.12,2.5,2.5,2.5c1.38,0,2.5-1.12,2.5-2.5
		C93.59,87.57,92.47,86.45,91.09,86.45z M45.25,10.54h2.5v2.5c0,0.83,0.67,1.5,1.5,1.5s1.5-0.67,1.5-1.5v-2.5h2.5
		c0.83,0,1.5-0.67,1.5-1.5s-0.67-1.5-1.5-1.5h-2.5v-2.5c0-0.83-0.67-1.5-1.5-1.5s-1.5,0.67-1.5,1.5v2.5h-2.5
		c-0.83,0-1.5,0.67-1.5,1.5S44.42,10.54,45.25,10.54z M13.07,83.45h-2.5v-2.5c0-0.83-0.67-1.5-1.5-1.5s-1.5,0.67-1.5,1.5v2.5h-2.5
		c-0.83,0-1.5,0.67-1.5,1.5s0.67,1.5,1.5,1.5h2.5v2.5c0,0.83,0.67,1.5,1.5,1.5s1.5-0.67,1.5-1.5v-2.5h2.5c0.83,0,1.5-0.67,1.5-1.5
		S13.9,83.45,13.07,83.45z"/>
</g>
</svg>
