<?xml version="1.0" encoding="utf-8"?>
<!-- Generator: Adobe Illustrator 24.1.0, SVG Export Plug-In . SVG Version: 6.00 Build 0)  -->
<svg version="1.1" id="Layer_1" xmlns="http://www.w3.org/2000/svg" xmlns:xlink="http://www.w3.org/1999/xlink" x="0px" y="0px"
	 viewBox="0 0 100 100" style="enable-background:new 0 0 100 100;" xml:space="preserve">
<path d="M17.98,59.06c0,0.83-0.67,1.5-1.5,1.5h-3.5v3.5c0,0.83-0.67,1.5-1.5,1.5s-1.5-0.67-1.5-1.5v-3.5h-3.5
	c-0.83,0-1.5-0.67-1.5-1.5s0.67-1.5,1.5-1.5h3.5v-3.5c0-0.83,0.67-1.5,1.5-1.5s1.5,0.67,1.5,1.5v3.5h3.5
	C17.31,57.56,17.98,58.23,17.98,59.06z M61.38,9.95h3.5v3.5c0,0.83,0.67,1.5,1.5,1.5s1.5-0.67,1.5-1.5v-3.5h3.5
	c0.83,0,1.5-0.67,1.5-1.5s-0.67-1.5-1.5-1.5h-3.5v-3.5c0-0.83-0.67-1.5-1.5-1.5s-1.5,0.67-1.5,1.5v3.5h-3.5
	c-0.83,0-1.5,0.67-1.5,1.5S60.55,9.95,61.38,9.95z M92.74,84.91c0,2.76-2.24,5-5,5s-5-2.24-5-5s2.24-5,5-5S92.74,82.16,92.74,84.91z
	 M89.74,84.91c0-1.1-0.9-2-2-2s-2,0.9-2,2s0.9,2,2,2S89.74,86.01,89.74,84.91z M9.58,73.84c-1.38,0-2.5,1.12-2.5,2.5
	s1.12,2.5,2.5,2.5c1.38,0,2.5-1.12,2.5-2.5S10.96,73.84,9.58,73.84z M91.24,67.65c-1.38,0-2.5,1.12-2.5,2.5c0,1.38,1.12,2.5,2.5,2.5
	c1.38,0,2.5-1.12,2.5-2.5C93.74,68.77,92.62,67.65,91.24,67.65z M27.23,8.41c1.38,0,2.5-1.12,2.5-2.5c0-1.38-1.12-2.5-2.5-2.5
	c-1.38,0-2.5,1.12-2.5,2.5C24.73,7.29,25.85,8.41,27.23,8.41z M16.48,12.57c1.38,0,2.5-1.12,2.5-2.5c0-1.38-1.12-2.5-2.5-2.5
	c-1.38,0-2.5,1.12-2.5,2.5C13.98,11.45,15.1,12.57,16.48,12.57z M82.14,13.45c1.38,0,2.5-1.12,2.5-2.5c0-1.38-1.12-2.5-2.5-2.5
	c-1.38,0-2.5,1.12-2.5,2.5C79.64,12.33,80.76,13.45,82.14,13.45z M14.58,85.91c-1.38,0-2.5,1.12-2.5,2.5c0,1.38,1.12,2.5,2.5,2.5
	c1.38,0,2.5-1.12,2.5-2.5C17.08,87.03,15.96,85.91,14.58,85.91z M65.42,80.02c-0.03-0.09-0.08-0.17-0.13-0.25
	c-0.06-0.09-0.12-0.16-0.19-0.23c-0.07-0.07-0.15-0.14-0.23-0.19s-0.17-0.1-0.26-0.14c-0.09-0.04-0.18-0.06-0.28-0.08
	c-0.48-0.1-1,0.06-1.35,0.41c-0.07,0.07-0.13,0.14-0.19,0.23c-0.05,0.08-0.1,0.16-0.14,0.25c-0.03,0.09-0.06,0.19-0.08,0.28
	c-0.02,0.1-0.03,0.2-0.03,0.3c0,0.4,0.15,0.77,0.44,1.06c0.14,0.14,0.3,0.25,0.49,0.32c0.18,0.08,0.37,0.12,0.57,0.12
	s0.39-0.04,0.57-0.12c0.19-0.07,0.35-0.18,0.49-0.32c0.14-0.14,0.25-0.31,0.33-0.49c0.07-0.18,0.11-0.37,0.11-0.57
	c0-0.1-0.01-0.2-0.03-0.3C65.49,80.21,65.46,80.11,65.42,80.02z M79.12,54.66c0,1.72-0.43,3.39-1.24,4.89
	c0.78,1.12,1.24,2.47,1.24,3.93c0,0.58-0.08,1.17-0.22,1.74l-7.99,31.15c-0.17,0.66-0.77,1.13-1.45,1.13H30.55
	c-0.69,0-1.28-0.46-1.45-1.13l-7.99-31.15c-0.51-1.97-0.13-4.01,1.02-5.66c-0.81-1.5-1.24-3.17-1.24-4.9c0-3.11,1.39-5.9,3.58-7.79
	c-1.07,0.22-2.14,0.33-3.19,0.33c-1.65,0-3.26-0.27-4.77-0.81c-0.78-0.28-1.19-1.14-0.91-1.92c0.28-0.78,1.14-1.19,1.92-0.91
	c2.43,0.87,5.22,0.84,7.98-0.07c-0.05-0.35-0.09-0.69-0.09-1.05c0-4.04,3.09-7.38,7.03-7.77c-0.2-0.63-0.31-1.28-0.31-1.96
	c0-2.46,1.37-4.6,3.38-5.7c-0.34-1-0.84-1.97-1.49-2.92c-1.97-2.85-4.73-4.54-8-4.87c-3.16-0.32-6.59,0.67-9.65,2.78
	c-5.18,3.58-7.48,9.11-5.87,14.09c0.25,0.79-0.18,1.63-0.97,1.89c-0.15,0.05-0.31,0.07-0.46,0.07c-0.63,0-1.22-0.4-1.43-1.04
	c-2.02-6.27,0.73-13.14,7.02-17.48c3.65-2.52,7.79-3.69,11.66-3.3c4.11,0.42,7.72,2.6,10.17,6.15c0.85,1.23,1.49,2.51,1.92,3.83
	c0.07,0,0.14-0.01,0.21-0.01h6.82v-6.71c0-1.98,1.28-3.66,3.05-4.28V13.7c-1.71-0.53-3.13-1.98-3.16-4.31c0,0,0-0.08,0-0.09
	c0-2.89,1.42-5.59,3.8-7.24c0.51-0.35,1.19-0.35,1.7,0c2.38,1.64,3.8,4.35,3.8,7.24c-0.02,2.4-1.45,3.86-3.16,4.4v1.54
	c1.77,0.62,3.05,2.3,3.05,4.28v6.71h6.82c0.07,0,0.14,0.01,0.21,0.01c0.43-1.32,1.08-2.6,1.92-3.83c2.98-4.31,7.45-6.51,12.58-6.2
	c0.83,0.05,1.46,0.76,1.41,1.59c-0.05,0.83-0.78,1.46-1.59,1.41c-4.04-0.24-7.57,1.5-9.93,4.91c-0.65,0.94-1.14,1.92-1.49,2.91
	c2.02,1.11,3.39,3.25,3.39,5.71c0,0.67-0.11,1.33-0.31,1.96c3.94,0.39,7.03,3.73,7.03,7.77c0,0.35-0.04,0.7-0.09,1.04
	c5.3,1.76,10.36,0.19,13.41-4.22c3.93-5.69,2.17-12.78-4.3-17.25c-0.8-0.55-1.63-1.03-2.47-1.43c-0.75-0.35-1.07-1.25-0.72-2
	c0.35-0.75,1.25-1.07,2-0.72c0.99,0.47,1.96,1.03,2.89,1.67c7.79,5.39,9.92,14.4,5.06,21.43c-2.8,4.05-7.05,6.21-11.71,6.21
	c-1.03,0-2.08-0.11-3.15-0.33C77.73,48.76,79.12,51.55,79.12,54.66z M48.35,9.34c0.02,1.52,1.37,1.6,1.65,1.6c0,0,0,0,0,0s0,0,0,0
	c0.28,0,1.64-0.08,1.65-1.58c0-1.57-0.6-3.03-1.66-4.11c-1.05,1.07-1.66,2.52-1.66,4.05h-1.5L48.35,9.34z M48.45,26.22h3.11v-6.71
	c0-0.86-0.7-1.55-1.55-1.55s-1.55,0.7-1.55,1.55V26.22z M28.4,42.45c0,0.76,0.18,1.49,0.52,2.15c0.73-0.17,1.5-0.26,2.28-0.26h37.6
	c0.79,0,1.55,0.1,2.28,0.26c0.09-0.18,0.18-0.37,0.25-0.56c0.01-0.03,0.02-0.06,0.03-0.08c0.16-0.48,0.25-0.99,0.25-1.51
	c0-2.65-2.16-4.81-4.81-4.81H56.48c-0.83,0-1.5-0.67-1.5-1.5s0.67-1.5,1.5-1.5h7.82c0.37-0.57,0.58-1.23,0.58-1.92
	c0-1.93-1.57-3.5-3.5-3.5h-8.32h-6.11h-8.32c-1.93,0-3.5,1.57-3.5,3.5c0,0.69,0.2,1.35,0.58,1.92h1.41c0.83,0,1.5,0.67,1.5,1.5
	s-0.67,1.5-1.5,1.5H35c-0.01,0-0.01,0-0.02,0c-0.01,0-0.02,0-0.03,0h-1.74C30.56,37.64,28.4,39.8,28.4,42.45z M23.88,54.66
	c0,0.97,0.21,1.9,0.57,2.78c1.02-0.57,2.17-0.88,3.37-0.88c1.67,0,3.27,0.6,4.52,1.68c0.38,0.32,0.71,0.68,1.01,1.07
	c0.08-0.1,0.16-0.2,0.24-0.3c1.33-1.56,3.27-2.45,5.32-2.45c1.81,0,3.53,0.69,4.84,1.93c0.25,0.24,0.49,0.5,0.7,0.77
	c1.29-1.64,3.3-2.7,5.54-2.7s4.25,1.06,5.54,2.7c1.29-1.65,3.29-2.7,5.54-2.7c2.26,0,4.28,1.07,5.56,2.74
	c1.27-1.68,3.29-2.74,5.54-2.74c1.22,0,2.37,0.32,3.37,0.88c0.36-0.88,0.57-1.81,0.57-2.78c0-4.03-3.28-7.32-7.32-7.32H31.2
	C27.17,47.34,23.88,50.62,23.88,54.66z M47.54,94.5h4.93l1.58-30.91c-0.01-2.22-1.82-4.02-4.04-4.02s-4.04,1.8-4.04,4.02L46.29,70
	c0.04,0.83-0.59,1.53-1.42,1.57c-0.03,0-0.05,0-0.08,0c-0.79,0-1.46-0.62-1.5-1.42l-0.33-6.47c0,0,0,0,0,0l-0.02-0.3
	c-0.06-1.05-0.5-2.01-1.25-2.73c-0.75-0.71-1.73-1.1-2.77-1.1c-1.17,0-2.28,0.51-3.04,1.4c-0.76,0.89-1.1,2.06-0.92,3.22
	c0,0,0,0,0,0l4.66,30.31h4.92l-0.96-18.83c-0.04-0.83,0.59-1.53,1.42-1.57c0.83-0.04,1.53,0.59,1.57,1.42L47.54,94.5z M31.71,94.5
	h4.87l-4.59-29.85c0,0,0,0,0,0l0,0l-0.27-1.74c-0.14-0.94-0.62-1.78-1.33-2.38c-0.72-0.62-1.62-0.96-2.57-0.96
	c-1.23,0-2.36,0.55-3.11,1.52c-0.75,0.97-1.01,2.21-0.7,3.39L31.71,94.5z M76.12,63.48c0-2.16-1.77-3.92-3.94-3.92
	c-1.96,0-3.6,1.4-3.9,3.34l-0.25,1.6c-0.01,0.06-0.02,0.11-0.03,0.17c0,0,0,0,0,0l-1.64,10.69c-0.11,0.74-0.75,1.27-1.48,1.27
	c-0.08,0-0.15-0.01-0.23-0.02c-0.82-0.13-1.38-0.89-1.25-1.71l1.65-10.72c0,0,0,0,0-0.01l0.02-0.12c0.02-0.15,0.03-0.32,0.03-0.5
	c0-2.21-1.8-4.01-4.01-4.01c-2.14,0-3.9,1.67-4.02,3.81l-0.02,0.32c0,0,0,0,0,0l-1.57,30.8h4.92l1.33-8.66
	c0.13-0.82,0.89-1.38,1.71-1.25c0.82,0.13,1.38,0.89,1.25,1.71l-1.26,8.21h4.87l7.7-30.02C76.07,64.14,76.12,63.81,76.12,63.48z
	 M48.79,37.64h1.86c0.83,0,1.5-0.67,1.5-1.5s-0.67-1.5-1.5-1.5h-1.86c-0.83,0-1.5,0.67-1.5,1.5S47.96,37.64,48.79,37.64z
	 M68.18,52.35c0.14,0.14,0.31,0.25,0.49,0.32c0.18,0.08,0.37,0.12,0.57,0.12c0.2,0,0.4-0.04,0.58-0.12
	c0.18-0.07,0.34-0.18,0.48-0.32c0.14-0.14,0.25-0.31,0.33-0.49c0.07-0.18,0.11-0.37,0.11-0.57c0-0.1-0.01-0.2-0.03-0.3
	c-0.02-0.09-0.04-0.19-0.08-0.28c-0.04-0.09-0.09-0.17-0.14-0.26c-0.05-0.08-0.12-0.15-0.19-0.22c-0.07-0.07-0.14-0.14-0.22-0.19
	c-0.09-0.05-0.17-0.1-0.26-0.14c-0.09-0.04-0.19-0.06-0.28-0.08c-0.2-0.04-0.4-0.04-0.59,0c-0.1,0.02-0.19,0.04-0.28,0.08
	s-0.18,0.09-0.26,0.14c-0.08,0.05-0.16,0.12-0.23,0.19c-0.28,0.27-0.44,0.66-0.44,1.06c0,0.2,0.04,0.39,0.12,0.57
	C67.93,52.04,68.04,52.21,68.18,52.35z M56.48,54.82c0.2,0,0.39-0.04,0.58-0.11c0.18-0.08,0.34-0.19,0.48-0.33
	c0.28-0.28,0.44-0.66,0.44-1.06c0-0.1-0.01-0.2-0.03-0.29c-0.02-0.1-0.05-0.19-0.08-0.28c-0.04-0.09-0.09-0.18-0.14-0.26
	c-0.06-0.08-0.12-0.16-0.19-0.23c-0.34-0.35-0.86-0.51-1.35-0.41c-0.1,0.02-0.19,0.05-0.28,0.09c-0.09,0.03-0.18,0.08-0.26,0.13
	c-0.08,0.06-0.16,0.12-0.23,0.19s-0.13,0.15-0.19,0.23c-0.05,0.08-0.1,0.17-0.13,0.26c-0.04,0.09-0.07,0.18-0.09,0.28
	c-0.02,0.09-0.03,0.19-0.03,0.29c0,0.4,0.16,0.78,0.44,1.06S56.08,54.82,56.48,54.82z M50.38,52.86c0.18,0.08,0.38,0.12,0.58,0.12
	c0.4,0,0.77-0.16,1.06-0.44c0.28-0.28,0.44-0.66,0.44-1.06c0-0.1-0.01-0.2-0.03-0.29c-0.02-0.1-0.05-0.19-0.09-0.28
	c-0.04-0.09-0.08-0.18-0.14-0.26c-0.05-0.08-0.11-0.16-0.18-0.23c-0.56-0.56-1.57-0.56-2.12,0c-0.07,0.07-0.13,0.15-0.19,0.23
	c-0.05,0.08-0.1,0.17-0.14,0.26c-0.04,0.09-0.06,0.18-0.08,0.28c-0.02,0.09-0.03,0.19-0.03,0.29c0,0.4,0.15,0.78,0.44,1.06
	C50.04,52.68,50.2,52.79,50.38,52.86z M30.56,53.46c0.28,0.28,0.66,0.44,1.06,0.44c0.4,0,0.78-0.16,1.06-0.44
	c0.28-0.28,0.44-0.66,0.44-1.06c0-0.39-0.16-0.78-0.44-1.06c-0.56-0.56-1.57-0.56-2.12,0c-0.28,0.28-0.44,0.67-0.44,1.06
	c0,0.2,0.04,0.39,0.11,0.57C30.31,53.16,30.42,53.32,30.56,53.46z M38.07,52.98c0.2,0,0.39-0.04,0.57-0.12
	c0.18-0.07,0.34-0.18,0.49-0.32c0.28-0.28,0.44-0.66,0.44-1.06c0-0.1-0.01-0.2-0.03-0.29c-0.02-0.1-0.05-0.19-0.09-0.28
	c-0.04-0.09-0.08-0.18-0.14-0.26c-0.05-0.08-0.11-0.16-0.18-0.23c-0.56-0.56-1.56-0.56-2.12,0c-0.07,0.07-0.14,0.15-0.19,0.23
	s-0.1,0.17-0.14,0.26c-0.04,0.09-0.06,0.18-0.08,0.28c-0.02,0.09-0.03,0.19-0.03,0.29c0,0.4,0.15,0.78,0.44,1.06
	C37.29,52.82,37.67,52.98,38.07,52.98z M13.14,42.74c0.28-0.28,0.44-0.67,0.44-1.06c0-0.1-0.01-0.2-0.03-0.3
	c-0.02-0.09-0.05-0.19-0.09-0.28c-0.03-0.09-0.08-0.18-0.13-0.26c-0.06-0.08-0.12-0.16-0.19-0.23c-0.35-0.34-0.86-0.5-1.35-0.4
	c-0.1,0.02-0.2,0.04-0.29,0.08c-0.09,0.04-0.17,0.08-0.25,0.14c-0.09,0.05-0.16,0.12-0.23,0.18c-0.07,0.07-0.13,0.15-0.19,0.23
	c-0.05,0.08-0.1,0.17-0.14,0.26c-0.03,0.09-0.06,0.19-0.08,0.28c-0.02,0.1-0.03,0.2-0.03,0.3c0,0.39,0.16,0.78,0.44,1.06
	c0.28,0.28,0.66,0.44,1.06,0.44C12.47,43.18,12.86,43.02,13.14,42.74z"/>
</svg>
