<?xml version="1.0" encoding="utf-8"?>
<!-- Generator: Adobe Illustrator 24.2.0, SVG Export Plug-In . SVG Version: 6.00 Build 0)  -->
<svg version="1.1" id="Layer_1" xmlns="http://www.w3.org/2000/svg" xmlns:xlink="http://www.w3.org/1999/xlink" x="0px" y="0px"
	 viewBox="0 0 100 100" style="enable-background:new 0 0 100 100;" xml:space="preserve">
<g>
	<path d="M87.44,41.89c2.76,0,5-2.24,5-5s-2.24-5-5-5s-5,2.24-5,5S84.69,41.89,87.44,41.89z M87.44,34.89c1.1,0,2,0.9,2,2
		s-0.9,2-2,2s-2-0.9-2-2S86.34,34.89,87.44,34.89z M77.83,27.51c0-1.38,1.12-2.5,2.5-2.5s2.5,1.12,2.5,2.5c0,1.38-1.12,2.5-2.5,2.5
		S77.83,28.89,77.83,27.51z M7.92,37.16c0-1.38,1.12-2.5,2.5-2.5c1.38,0,2.5,1.12,2.5,2.5c0,1.38-1.12,2.5-2.5,2.5
		C9.04,39.66,7.92,38.54,7.92,37.16z M19.87,13.48c0-1.38,1.12-2.5,2.5-2.5s2.5,1.12,2.5,2.5c0,1.38-1.12,2.5-2.5,2.5
		S19.87,14.86,19.87,13.48z M84.94,9.48c0-1.38,1.12-2.5,2.5-2.5c1.38,0,2.5,1.12,2.5,2.5c0,1.38-1.12,2.5-2.5,2.5
		C86.06,11.98,84.94,10.86,84.94,9.48z M15.37,30.1c0-0.83,0.67-1.5,1.5-1.5h2.5v-2.5c0-0.83,0.67-1.5,1.5-1.5s1.5,0.67,1.5,1.5v2.5
		h2.5c0.83,0,1.5,0.67,1.5,1.5s-0.67,1.5-1.5,1.5h-2.5v2.5c0,0.83-0.67,1.5-1.5,1.5s-1.5-0.67-1.5-1.5v-2.5h-2.5
		C16.04,31.6,15.37,30.93,15.37,30.1z M65.63,9.48c0-0.83,0.67-1.5,1.5-1.5h2.5v-2.5c0-0.83,0.67-1.5,1.5-1.5s1.5,0.67,1.5,1.5v2.5
		h2.5c0.83,0,1.5,0.67,1.5,1.5s-0.67,1.5-1.5,1.5h-2.5v2.5c0,0.83-0.67,1.5-1.5,1.5s-1.5-0.67-1.5-1.5v-2.5h-2.5
		C66.3,10.98,65.63,10.31,65.63,9.48z M23.12,40.78l7.49-7.48c0.27-0.28,0.43-0.66,0.43-1.06v-3.86c0-1.74,0.68-3.37,1.91-4.6
		l0.43-0.43c0.59-0.59,1.54-0.59,2.12,0c0.59,0.59,0.59,1.54,0,2.12l-0.43,0.43c-0.67,0.67-1.03,1.55-1.03,2.48v3.86
		c0,1.19-0.46,2.32-1.3,3.17l-7.5,7.49c-1,1-1.84,2.16-2.49,3.44l-0.32,0.63l0.03,0.06c0.43,0.92,1.29,1.47,2.3,1.47
		c1.02,0,1.88-0.55,2.3-1.47l0.17-0.38c0.25-0.53,0.78-0.87,1.36-0.87c0.58,0,1.12,0.34,1.36,0.87l0.15,0.32
		c0.42,0.92,1.29,1.47,2.3,1.47c1.02,0,1.88-0.55,2.3-1.47l0.17-0.37c0.24-0.53,0.78-0.87,1.36-0.87c0,0,0,0,0,0
		c0.58,0,1.12,0.34,1.36,0.87l0.16,0.34c0.43,0.92,1.29,1.47,2.3,1.47s1.88-0.55,2.3-1.47l0.15-0.33c0.35-0.75,1.24-1.08,1.99-0.73
		c0.75,0.35,1.08,1.24,0.73,1.99l-0.15,0.33c-0.92,1.98-2.84,3.21-5.03,3.21c-1.46,0-2.81-0.55-3.81-1.51
		c-1.01,0.98-2.37,1.54-3.84,1.54c-1.45,0-2.79-0.54-3.79-1.49c-1.01,0.99-2.37,1.55-3.86,1.55c-1.48,0-2.83-0.57-3.84-1.55
		l-2.32,4.57c-0.26,0.52-0.79,0.82-1.34,0.82c-0.23,0-0.46-0.05-0.68-0.16c-0.74-0.38-1.03-1.28-0.66-2.02l4.15-8.17
		C20.87,43.42,21.9,42,23.12,40.78z M48.46,31.62c-0.52,1.13-1.58,1.8-2.82,1.8s-2.3-0.67-2.82-1.81l-0.18-0.39
		c-0.25-0.53-0.78-0.87-1.36-0.87h0c-0.58,0-1.12,0.34-1.36,0.87l-0.2,0.43c-0.59,1.27-1.65,1.64-2.24,1.75
		c-0.82,0.15-1.35,0.93-1.2,1.75c0.15,0.82,0.94,1.35,1.75,1.2c1.27-0.23,2.4-0.85,3.26-1.74c1.12,1.15,2.67,1.81,4.35,1.81
		c1.03,0,2-0.26,2.86-0.72v6.95c0,0.83,0.67,1.5,1.5,1.5s1.5-0.67,1.5-1.5v-1.71c0.73,0.34,1.53,0.53,2.38,0.53
		c1.48,0,2.85-0.57,3.86-1.55c1,0.95,2.34,1.49,3.79,1.49c1.48,0,2.83-0.56,3.84-1.54c1,0.96,2.35,1.51,3.81,1.51
		c0.84,0,1.64-0.19,2.36-0.52v4.13c0,1.66,0.91,3.18,2.37,3.96l1.12,0.6c0.23,0.12,0.47,0.18,0.71,0.18c0.54,0,1.05-0.29,1.32-0.79
		c0.39-0.73,0.12-1.64-0.61-2.03l-1.12-0.6c-0.49-0.26-0.79-0.77-0.79-1.32v-8.77c0-2.4-1.31-4.6-3.43-5.73l-3.08-1.65
		c-0.49-0.26-0.79-0.76-0.79-1.31v-3.76c0-2.4-1.31-4.6-3.42-5.73l-4.43-2.37c-0.49-0.26-0.79-0.77-0.79-1.33v-0.59
		c0-3.5-1.92-6.7-5-8.37L48.07,2.4c-1.36-0.73-3.06-0.48-4.13,0.61L39.65,7.3c-0.66,0.65-1.04,1.55-1.04,2.48v7.71
		c0,0.4-0.15,0.78-0.44,1.06l-1.27,1.27c-0.59,0.59-0.59,1.54,0,2.12c0.59,0.58,1.54,0.59,2.12,0l1.26-1.26
		c0.86-0.84,1.33-1.97,1.33-3.19V9.78c0-0.13,0.05-0.25,0.15-0.35l3.26-3.26c0.01,0.01,0.01,0.02,0.01,0.03l2.08,3.71
		c0.86,1.53,0.8,3.35-0.06,4.82c-0.82,1.14-2.11,1.38-3.05,1.21c-0.82-0.15-1.59,0.4-1.74,1.22c-0.15,0.82,0.4,1.59,1.21,1.74
		c0.36,0.06,0.72,0.1,1.08,0.1c0.32,0,0.63-0.03,0.94-0.08v3.21c0,1.17,0.58,2.26,1.56,2.91l1.22,0.81
		c0.14,0.09,0.22,0.25,0.22,0.42v5.27L48.46,31.62z M55.61,13.74v0.59c0,1.67,0.91,3.19,2.37,3.97l4.43,2.37
		c1.14,0.61,1.84,1.79,1.84,3.09v3.76c0,1.66,0.92,3.18,2.38,3.96l3.07,1.65c1.14,0.61,1.85,1.8,1.85,3.09v0.56l-0.06,0.13
		c-0.43,0.92-1.29,1.47-2.3,1.47s-1.88-0.55-2.3-1.47l-0.16-0.34c-0.25-0.53-0.78-0.87-1.36-0.87h0c-0.58,0-1.12,0.34-1.36,0.87
		l-0.17,0.37c-0.43,0.92-1.29,1.47-2.3,1.47s-1.88-0.55-2.3-1.47l-0.15-0.32c-0.25-0.53-0.78-0.87-1.36-0.87h0
		c-0.58,0-1.12,0.34-1.36,0.87l-0.18,0.38c-0.43,0.92-1.29,1.47-2.3,1.47s-1.88-0.55-2.3-1.47l-0.08-0.17v-6.95
		c0.73,0.34,1.53,0.53,2.38,0.53c1.48,0,2.85-0.57,3.86-1.55c1,0.95,2.34,1.49,3.79,1.49c0.83,0,1.5-0.67,1.5-1.5s-0.67-1.5-1.5-1.5
		c-1.02,0-1.88-0.55-2.3-1.47l-0.15-0.32c-0.25-0.53-0.78-0.87-1.36-0.87h0c-0.58,0-1.12,0.34-1.36,0.87l-0.18,0.38
		c-0.43,0.92-1.29,1.47-2.3,1.47s-1.88-0.55-2.3-1.47l-0.16-0.35c-0.18-0.91-0.69-1.72-1.48-2.24l-1.22-0.81
		c-0.14-0.09-0.22-0.25-0.22-0.42v-4.15c0-0.13,0.05-0.25,0.13-0.34c0.35-0.38,0.64-0.78,0.9-1.21c0.01-0.02,0.03-0.04,0.04-0.06
		c0.06-0.1,0.11-0.2,0.16-0.3c1.29-2.34,1.34-5.2-0.01-7.61l-1.41-2.52l3.87,2.07C54.3,9.15,55.61,11.35,55.61,13.74z M62.24,53.44
		c0.83,0,1.5,0.67,1.5,1.5s-0.67,1.5-1.5,1.5c-1.45,0-2.79-0.54-3.79-1.49c-1.01,0.99-2.37,1.55-3.86,1.55
		c-2.18,0-4.11-1.23-5.03-3.21l-0.22-0.47c-0.35-0.75-0.02-1.64,0.73-1.99c0.75-0.35,1.64-0.02,1.99,0.73l0.22,0.47
		c0.43,0.92,1.29,1.47,2.3,1.47c1.01,0,1.88-0.55,2.3-1.47l0.17-0.38c0.25-0.53,0.78-0.87,1.36-0.87c0.58,0,1.12,0.34,1.36,0.87
		l0.15,0.32C60.36,52.89,61.22,53.44,62.24,53.44z M87.76,79.1l-1.11-6.98c-0.17-1.04-0.53-2.03-1.08-2.92
		c-0.54-0.88-1.27-1.68-2.12-2.3c-0.23-0.17-0.48-0.32-0.73-0.47c0.1,0.16,0.2,0.31,0.29,0.48c0.63,1.19,1.01,2.45,1.14,3.76
		L84.27,72c0.08,0.82-0.52,1.56-1.35,1.64c-0.05,0-0.1,0.01-0.15,0.01c-0.76,0-1.42-0.58-1.49-1.35l-0.13-1.32
		c-0.09-0.91-0.37-1.82-0.8-2.64c-0.44-0.82-1.03-1.54-1.75-2.13c-0.44-0.37-0.91-0.67-1.41-0.91c-0.58-0.28-1.2-0.48-1.82-0.59
		c0.83,0.98,1.5,2.06,1.99,3.25c0.62,1.5,0.93,3.09,0.93,4.73V96.1c0,0.83-0.67,1.5-1.5,1.5s-1.5-0.67-1.5-1.5V85.4
		c-0.73,0.04-1.48,0.07-2.28,0.07c-0.63,0-1.25-0.01-1.86-0.05c0,0,0,0,0,0c-0.39,0-0.78-0.15-1.07-0.44
		c-0.59-0.59-0.59-1.54,0-2.12c0.29-0.29,0.69-0.45,1.06-0.44c0.03,0,0.07,0,0.1,0c0.58,0.04,1.16,0.05,1.76,0.05
		c0.81,0,1.56-0.03,2.28-0.08v-9.72c0-1.24-0.24-2.45-0.71-3.59c-0.47-1.14-1.15-2.16-2.03-3.04c-1.74-1.74-4.16-2.74-6.63-2.74
		h-5.63c-0.83,0-1.5-0.67-1.5-1.5s0.67-1.5,1.5-1.5h5.63c2.04,0,4.05,0.51,5.83,1.46l1.38-0.13c1.69-0.17,3.39,0.11,4.96,0.79
		c2.56-0.16,5.07,0.56,7.14,2.06c1.17,0.85,2.17,1.94,2.91,3.15c0.75,1.22,1.26,2.57,1.49,4.01l1.11,6.98
		c0.13,0.82-0.43,1.59-1.25,1.72c-0.08,0.01-0.16,0.02-0.24,0.02C88.52,80.36,87.88,79.83,87.76,79.1z M82.48,84.44l-0.7-7.18
		c-0.08-0.82,0.52-1.56,1.35-1.64c0.82-0.08,1.56,0.52,1.64,1.35l0.7,7.18c0.08,0.82-0.52,1.56-1.35,1.64
		c-0.05,0-0.1,0.01-0.15,0.01C83.21,85.79,82.56,85.21,82.48,84.44z M85.93,88.95c0.02,0.1,0.03,0.19,0.03,0.29s-0.01,0.2-0.03,0.3
		c-0.02,0.09-0.05,0.19-0.08,0.28c-0.04,0.09-0.09,0.17-0.14,0.26c-0.06,0.08-0.12,0.15-0.19,0.22c-0.07,0.07-0.14,0.14-0.23,0.19
		c-0.08,0.05-0.16,0.1-0.26,0.14c-0.09,0.04-0.18,0.06-0.28,0.08c-0.09,0.02-0.19,0.03-0.29,0.03s-0.19-0.01-0.29-0.03
		s-0.19-0.04-0.28-0.08c-0.09-0.04-0.18-0.09-0.26-0.14c-0.08-0.05-0.16-0.12-0.23-0.19c-0.07-0.07-0.13-0.14-0.18-0.22
		c-0.06-0.09-0.11-0.17-0.14-0.26c-0.04-0.09-0.07-0.19-0.09-0.28c-0.02-0.1-0.03-0.2-0.03-0.3c0-0.09,0.01-0.19,0.03-0.29
		c0.02-0.1,0.05-0.19,0.09-0.28c0.03-0.09,0.08-0.18,0.14-0.26c0.05-0.08,0.11-0.16,0.18-0.23c0.35-0.35,0.87-0.51,1.35-0.41
		c0.1,0.02,0.19,0.05,0.28,0.09c0.1,0.04,0.18,0.08,0.26,0.14c0.09,0.05,0.16,0.11,0.23,0.18c0.07,0.07,0.13,0.15,0.19,0.23
		c0.05,0.08,0.1,0.17,0.14,0.26C85.88,88.76,85.91,88.85,85.93,88.95z M76.17,60.27c0.26,0.19,0.57,0.28,0.87,0.28
		c0.28,0,0.55-0.08,0.79-0.23l6.83-4.27c0.36-0.23,0.67-0.51,0.96-0.81l1.63,0.88c0.04,0.02,0.07,0.05,0.1,0.07l-4.38,2.99
		c-0.5,0.34-0.75,0.95-0.62,1.55c0.12,0.59,0.59,1.06,1.19,1.17l6.36,1.2l1.55,8.31c0.13,0.72,0.76,1.23,1.47,1.23
		c0.09,0,0.18-0.01,0.28-0.03c0.81-0.15,1.35-0.94,1.2-1.75l-1.39-7.43c0.73-0.1,1.44-0.37,2.06-0.8c1.07-0.73,1.79-1.83,2.03-3.1
		c0.24-1.27-0.03-2.55-0.76-3.62c-0.73-1.07-1.83-1.79-3.1-2.03c-1.12-0.21-2.24-0.01-3.24,0.55c-0.39-0.36-0.84-0.68-1.32-0.95
		l-1.81-0.98c0.13-1.09-0.09-2.18-0.68-3.12c-0.68-1.1-1.76-1.86-3.01-2.15c-1.26-0.29-2.56-0.07-3.65,0.61
		c-1.08,0.68-1.84,1.73-2.15,3.01l-1.81,7.86C75.44,59.3,75.68,59.92,76.17,60.27z M92.7,56.83c0.48,0.09,0.9,0.37,1.17,0.77
		c0.28,0.41,0.38,0.9,0.29,1.38c0,0,0,0,0,0c-0.09,0.48-0.37,0.9-0.77,1.18c-0.41,0.28-0.9,0.38-1.38,0.29l-4.36-0.83l3.36-2.29
		l0.32-0.22C91.74,56.84,92.22,56.74,92.7,56.83z M80.23,51.9l0.08-0.38c0.11-0.47,0.4-0.88,0.81-1.13
		c0.29-0.18,0.63-0.28,0.97-0.28c0.14,0,0.28,0.02,0.42,0.05c0.48,0.11,0.88,0.4,1.14,0.82c0,0,0,0,0,0
		c0.26,0.42,0.34,0.91,0.23,1.39c-0.11,0.48-0.4,0.89-0.81,1.15l-3.76,2.35L80.23,51.9z M98.36,88.62c-0.37-1.22-1.2-2.23-2.35-2.85
		l-7.12-3.78c-0.54-0.29-1.19-0.22-1.66,0.17c-0.47,0.39-0.66,1.02-0.48,1.6l2.36,7.7c0.38,1.23,1.22,2.24,2.36,2.85
		c0.71,0.38,1.48,0.57,2.26,0.57c0.48,0,0.96-0.07,1.42-0.21h0c1.23-0.38,2.25-1.22,2.85-2.36C98.61,91.16,98.74,89.86,98.36,88.62z
		 M95.36,90.9c-0.23,0.43-0.62,0.75-1.08,0.9c-0.47,0.14-0.97,0.1-1.4-0.13c-0.44-0.23-0.76-0.62-0.9-1.08l-1.3-4.24l3.59,1.91
		l0.34,0.18c0.43,0.23,0.74,0.61,0.88,1.08C95.63,89.97,95.59,90.47,95.36,90.9z M70.98,92.43c-0.06,0.01-5.87,0.58-11.81,0.5
		c-2.35-0.03-5.94-0.2-9.42-0.55l3.22-0.21c2.78-0.19,5.19-2.1,6-4.76c0.54-1.75,0.34-3.65-0.53-5.2c-1.64-2.92-4.74-5.58-8.09-6.94
		c-0.94-0.38-1.99-0.44-2.95-0.16l-8.11,2.31c-0.65,0.18-1.33,0.18-1.98-0.02l-17.86-5.44c-1.84-0.56-3.8,0.48-4.37,2.33l-1.03,3.38
		c0,0,0,0.01,0,0.01c0,0.01,0,0.02-0.01,0.04c-0.24,0.83-0.24,1.69-0.02,2.48c-3.81-3.11-5.74-6.4-5.39-9.4
		c0.09-0.76,0.33-1.49,0.68-2.2c0.77,0.26,1.57,0.43,2.42,0.49c1.63,0.12,3.34,0.22,5.03,0.22c2.78,0,5.51-0.26,7.81-1.08
		c1.13,1.46,2.79,2.54,4.96,3.2c0.15,0.04,0.29,0.07,0.44,0.07c0.64,0,1.24-0.42,1.43-1.06c0.24-0.79-0.2-1.63-1-1.87
		c-1.94-0.59-3.23-1.54-3.93-2.88c-0.48-0.93-0.72-2.03-0.72-3.37c0-0.9,0.11-1.79,0.33-2.65l10.19,0.01c1.47,0,2.86,0.58,3.9,1.62
		c1.31,1.31,3.05,2.03,4.9,2.03h2.61c-0.22,2.13-1.15,3.59-2.9,4.54c-1.77,0.97-4.4,1.44-8.04,1.44c-0.61,0-1.21-0.01-1.79-0.05
		c-0.83-0.06-1.54,0.57-1.6,1.4c-0.05,0.83,0.57,1.54,1.4,1.59c0.64,0.04,1.32,0.05,1.99,0.05c3.64,0,6.39-0.43,8.52-1.34
		c3.01,2.45,7.45,3.74,13.77,3.99c-0.01,0.18-0.02,0.37-0.02,0.55c0,4.68,2.27,7.74,6.74,9.1c0.15,0.04,0.29,0.07,0.44,0.07
		c0.64,0,1.24-0.42,1.43-1.06c0.24-0.79-0.21-1.63-1-1.87c-3.19-0.97-4.62-2.89-4.62-6.23c0-0.16,0.01-0.34,0.02-0.51
		c3.77-0.03,6.87-0.36,9.46-1.03c0.8-0.21,1.28-1.02,1.08-1.83c-0.21-0.8-1.03-1.29-1.83-1.08c-2.46,0.63-5.47,0.94-9.21,0.94
		c-0.27,0-0.54,0-0.85-0.01c-5.78-0.07-9.94-0.99-12.68-2.77c1.59-1.46,2.49-3.43,2.68-5.9h4.58c0.83,0,1.5-0.67,1.5-1.5
		s-0.67-1.5-1.5-1.5H45.09c-1.05,0-2.04-0.41-2.78-1.15c-1.61-1.61-3.75-2.5-6.02-2.5l-29.75,0l-0.87-0.03
		c-0.77-0.01-1.53,0.28-2.08,0.82c-0.54,0.53-0.83,1.25-0.83,2.07c0.04,3.16,1.56,5.94,3.9,7.68c-0.52,1.04-0.87,2.11-1,3.23
		c-0.28,2.4,0.38,4.81,1.9,7.17v10.76c0,0.83,0.67,1.5,1.5,1.5s1.5-0.67,1.5-1.5v-7.23c1.62,1.54,3.63,3.03,6,4.45v6.78
		c0,0.83,0.67,1.5,1.5,1.5s1.5-0.67,1.5-1.5v-5.13c1.74,0.88,3.59,1.71,5.55,2.47c0.01,0,0.01,0.01,0.02,0.01c0,0,0.01,0,0.01,0
		c0.14,0.05,0.28,0.11,0.42,0.17v4.48c0,0.83,0.67,1.5,1.5,1.5s1.5-0.67,1.5-1.5v-3.4c1.35,0.46,2.75,0.88,4.17,1.28
		c0,0,0.01,0,0.01,0c0.01,0,0.01,0,0.02,0c0.59,0.17,1.19,0.33,1.8,0.48v2.63c0,0.83,0.67,1.5,1.5,1.5s1.5-0.67,1.5-1.5v-1.9
		c3.43,0.76,7.01,1.37,10.68,1.79c3.92,0.46,8.2,0.66,10.88,0.7c0.4,0,0.8,0.01,1.19,0.01c5.65,0,10.73-0.5,10.96-0.52
		c0.82-0.08,1.43-0.82,1.34-1.64C72.54,92.95,71.8,92.35,70.98,92.43z M23.03,59.64c-0.17,0.87-0.26,1.75-0.26,2.65
		c0,1.16,0.16,2.23,0.46,3.21c-3.18,1-7.61,0.85-11.26,0.57c-0.79-0.06-1.54-0.26-2.24-0.58c-0.04-0.03-0.07-0.07-0.11-0.1
		c-0.17-0.12-0.35-0.2-0.55-0.24c-1.89-1.13-3.19-3.18-3.3-5.53L23.03,59.64z M18.59,74.81l17.85,5.44c1.2,0.37,2.47,0.38,3.67,0.04
		l2.56-0.73l1.98,1.85c0.4,0.38,0.63,0.91,0.63,1.46c0,0.57-0.24,1.12-0.66,1.51c-0.52,0.47-1.26,0.64-1.93,0.43l-3.83-1.17
		c-0.8-0.24-1.63,0.2-1.87,1c-0.24,0.79,0.2,1.63,1,1.87l3.83,1.17c0.48,0.15,0.96,0.22,1.45,0.22c1.22,0,2.43-0.45,3.37-1.29
		c1.05-0.95,1.65-2.31,1.65-3.73c0-1.38-0.58-2.72-1.59-3.66l-0.66-0.62l2.18-0.62c0.33-0.09,0.68-0.07,1,0.06
		c2.7,1.1,5.29,3.31,6.6,5.63c0.47,0.84,0.57,1.88,0.27,2.85c-0.45,1.48-1.79,2.54-3.33,2.64l-9.5,0.64l-0.78,0.04
		c-2.8,0.16-5.69,0.32-9-0.53c0,0,0,0-0.01,0c-2.02-0.57-3.97-1.19-5.83-1.87c-0.01-0.01-0.03-0.01-0.04-0.01
		c-0.44-0.16-0.88-0.33-1.31-0.5c-3.06-1.31-4.42-2.58-5.74-3.82c-0.22-0.2-0.43-0.4-0.62-0.57L17.6,80.3l15.62,4.77
		c0.15,0.04,0.29,0.07,0.44,0.07c0.64,0,1.24-0.42,1.43-1.06c0.24-0.79-0.2-1.63-1-1.87l-16.72-5.1l0.59-1.95
		C18.05,74.88,18.32,74.73,18.59,74.81z"/>
</g>
</svg>
