<?xml version="1.0" encoding="utf-8"?>
<!-- Generator: Adobe Illustrator 24.1.0, SVG Export Plug-In . SVG Version: 6.00 Build 0)  -->
<svg version="1.1" id="Layer_1" xmlns="http://www.w3.org/2000/svg" xmlns:xlink="http://www.w3.org/1999/xlink" x="0px" y="0px"
	 viewBox="0 0 100 100" style="enable-background:new 0 0 100 100;" xml:space="preserve">
<path d="M83.02,39.46c2.76,0,5-2.24,5-5s-2.24-5-5-5s-5,2.24-5,5S80.27,39.46,83.02,39.46z M83.02,32.46c1.1,0,2,0.9,2,2s-0.9,2-2,2
	s-2-0.9-2-2S81.92,32.46,83.02,32.46z M10.31,72.33c-2.76,0-5,2.24-5,5s2.24,5,5,5s5-2.24,5-5S13.06,72.33,10.31,72.33z
	 M10.31,79.33c-1.1,0-2-0.9-2-2s0.9-2,2-2s2,0.9,2,2S11.41,79.33,10.31,79.33z M6.81,66.71c-1.38,0-2.5-1.12-2.5-2.5
	c0-1.38,1.12-2.5,2.5-2.5c1.38,0,2.5,1.12,2.5,2.5C9.31,65.59,8.19,66.71,6.81,66.71z M11.31,16.46c0-1.38,1.12-2.5,2.5-2.5
	c1.38,0,2.5,1.12,2.5,2.5s-1.12,2.5-2.5,2.5C12.42,18.96,11.31,17.84,11.31,16.46z M94.02,50.66c0,1.38-1.12,2.5-2.5,2.5
	c-1.38,0-2.5-1.12-2.5-2.5c0-1.38,1.12-2.5,2.5-2.5C92.9,48.16,94.02,49.28,94.02,50.66z M69.58,11.46c0-1.38,1.12-2.5,2.5-2.5
	s2.5,1.12,2.5,2.5s-1.12,2.5-2.5,2.5S69.58,12.84,69.58,11.46z M89.02,76.33c0,1.38-1.12,2.5-2.5,2.5c-1.38,0-2.5-1.12-2.5-2.5
	s1.12-2.5,2.5-2.5C87.9,73.83,89.02,74.95,89.02,76.33z M16.81,32.98c0,0.83-0.67,1.5-1.5,1.5h-3.5v3.5c0,0.83-0.67,1.5-1.5,1.5
	s-1.5-0.67-1.5-1.5v-3.5h-3.5c-0.83,0-1.5-0.67-1.5-1.5s0.67-1.5,1.5-1.5h3.5v-3.5c0-0.83,0.67-1.5,1.5-1.5s1.5,0.67,1.5,1.5v3.5
	h3.5C16.13,31.48,16.81,32.15,16.81,32.98z M84.52,85.84c0,0.83-0.67,1.5-1.5,1.5h-3.5v3.5c0,0.83-0.67,1.5-1.5,1.5
	s-1.5-0.67-1.5-1.5v-3.5h-3.5c-0.83,0-1.5-0.67-1.5-1.5s0.67-1.5,1.5-1.5h3.5v-3.5c0-0.83,0.67-1.5,1.5-1.5s1.5,0.67,1.5,1.5v3.5
	h3.5C83.85,84.34,84.52,85.01,84.52,85.84z M95.52,16.46c0,0.83-0.67,1.5-1.5,1.5h-3.5v3.5c0,0.83-0.67,1.5-1.5,1.5
	s-1.5-0.67-1.5-1.5v-3.5h-3.5c-0.83,0-1.5-0.67-1.5-1.5s0.67-1.5,1.5-1.5h3.5v-3.5c0-0.83,0.67-1.5,1.5-1.5s1.5,0.67,1.5,1.5v3.5
	h3.5C94.85,14.96,95.52,15.63,95.52,16.46z M37.28,67.04c0.08,0.06,0.16,0.12,0.22,0.19c0.29,0.28,0.45,0.67,0.45,1.06
	c0,0.2-0.04,0.39-0.12,0.57c-0.07,0.19-0.18,0.35-0.33,0.49c-0.14,0.14-0.3,0.25-0.48,0.33c-0.18,0.07-0.38,0.11-0.57,0.11
	c-0.4,0-0.78-0.15-1.07-0.44c-0.14-0.14-0.25-0.3-0.32-0.49c-0.08-0.18-0.12-0.37-0.12-0.57c0-0.39,0.16-0.78,0.44-1.06
	c0.07-0.07,0.15-0.13,0.23-0.19c0.08-0.05,0.17-0.1,0.26-0.14c0.09-0.03,0.19-0.06,0.28-0.08c0.2-0.04,0.4-0.04,0.59,0
	c0.09,0.02,0.19,0.05,0.28,0.08C37.11,66.94,37.2,66.99,37.28,67.04z M70.4,75.58c-0.25,0-0.5-0.03-0.75-0.06l-5.51,18.14
	c-0.88,2.88-3.55,4.8-6.48,4.8c-0.38,0-0.76-0.03-1.15-0.1l-14.06-2.42c-0.82-0.14-1.36-0.92-1.22-1.73
	c0.14-0.82,0.92-1.36,1.73-1.22l14.06,2.42c1.87,0.33,3.69-0.8,4.24-2.62l3.64-11.98l-6.28-1.08c-0.82-0.14-1.36-0.92-1.22-1.73
	c0.14-0.82,0.92-1.36,1.73-1.22l6.65,1.14l0.88-2.9L42.1,70.79c-0.82-0.14-1.36-0.92-1.22-1.73c0.14-0.82,0.92-1.36,1.73-1.22
	l27.42,4.72c1.19,0.2,2.32-0.6,2.53-1.78s-0.6-2.32-1.79-2.53l-46.49-8c-0.58-0.1-1.16,0.03-1.63,0.37
	c-0.48,0.34-0.79,0.84-0.89,1.42c-0.21,1.19,0.6,2.32,1.78,2.53l7.25,1.25c0.82,0.14,1.36,0.92,1.22,1.73
	c-0.14,0.82-0.92,1.37-1.73,1.22l-4.4-0.76l-0.14,3.02l27.49,4.73c0.82,0.14,1.36,0.92,1.22,1.73c-0.13,0.73-0.76,1.25-1.48,1.25
	c-0.08,0-0.17-0.01-0.26-0.02L25.6,74.04l-0.57,12.51c-0.09,1.89,1.26,3.56,3.12,3.89l8.9,1.53c0.82,0.14,1.36,0.92,1.22,1.73
	c-0.13,0.73-0.76,1.25-1.48,1.25c-0.08,0-0.17-0.01-0.26-0.02l-8.9-1.53c-3.36-0.58-5.77-3.58-5.61-6.98l0.87-18.94
	c-2.74-0.55-4.58-3.18-4.1-5.96c0.23-1.37,0.99-2.56,2.12-3.36c0.68-0.48,1.45-0.76,2.24-0.87c-0.23-1.07-0.26-2.18-0.07-3.3
	c0.36-2.08,1.43-3.86,2.93-5.14c-0.01-0.05-0.04-0.09-0.05-0.14l-5.22-34.72c-0.41-2.73,1.47-5.28,4.2-5.69
	c2.73-0.4,5.28,1.47,5.69,4.2l0.98,6.5c0.12,0.82-0.44,1.58-1.26,1.71c-0.82,0.12-1.58-0.44-1.71-1.26l-0.98-6.5
	c-0.16-1.09-1.19-1.85-2.27-1.68c-1.09,0.16-1.84,1.18-1.68,2.27l4.22,28.08c0.52-1.14,1.33-2.13,2.38-2.87
	c0.36-0.26,0.74-0.47,1.14-0.65c-0.37-0.97-0.53-2-0.47-3.05l-1.45-9.6c-0.12-0.82,0.44-1.58,1.26-1.71
	c0.82-0.12,1.58,0.44,1.71,1.26l0.79,5.22c1.01-0.94,2.28-1.57,3.67-1.82c-0.23-0.94-0.27-1.93-0.1-2.9c0.17-0.97,0.57-2.1,1.1-3.1
	c0.41-0.79,1.08-1.86,1.97-2.55c0.34-0.36,0.7-0.73,1.08-1.12c2.9-2.98,6.88-7.05,7.48-12.76c0.14-1.36,0.82-2.56,1.91-3.39
	c1.11-0.85,2.55-1.2,3.95-0.95c1.4,0.24,2.84,1.35,3.46,2.65c0.54,1.13,1.63,2.77,2.89,4.67c1.56,2.35,3.32,5.01,4.86,7.89
	c0.39,0.73,0.12,1.64-0.61,2.03c-0.73,0.39-1.64,0.12-2.03-0.61c-1.48-2.76-3.2-5.36-4.72-7.65c-1.32-2-2.46-3.72-3.09-5.04
	c-0.2-0.41-0.81-0.91-1.22-0.98c-0.62-0.11-1.21,0.03-1.67,0.38c-0.42,0.32-0.69,0.79-0.74,1.31c-0.71,6.75-5.1,11.26-8.31,14.55
	c-0.4,0.41-0.79,0.81-1.14,1.18c-0.07,0.07-0.15,0.14-0.23,0.2c-0.35,0.25-0.79,0.84-1.18,1.58c-0.39,0.74-0.69,1.56-0.8,2.22
	c-0.15,0.86-0.01,1.73,0.36,2.51l3.26,0.56c0.82,0.14,1.36,0.92,1.22,1.73c-0.14,0.82-0.92,1.37-1.73,1.22l-4.01-0.69
	c-2.3-0.39-4.48,1.15-4.88,3.45c-0.16,0.91,0,1.83,0.42,2.64c0.42,0,0.84,0.03,1.26,0.1l7.62,1.31c1.81-0.7,3.29-2.03,4.17-3.77
	c0.38-0.74,1.28-1.03,2.02-0.66c0.74,0.38,1.03,1.28,0.66,2.02c-0.62,1.22-1.45,2.29-2.44,3.17l4.44,0.76
	c0.82,0.14,1.36,0.92,1.22,1.73c-0.14,0.82-0.91,1.37-1.73,1.22L35.2,40.49c-1.11-0.19-2.23,0.06-3.15,0.71
	c-0.92,0.65-1.53,1.62-1.73,2.73c-0.17,0.99,0.03,1.99,0.54,2.86c0.75-0.07,1.52-0.05,2.3,0.08l4.4,0.76
	c0.82,0.14,1.36,0.92,1.22,1.73c-0.14,0.82-0.92,1.37-1.73,1.22l-4.4-0.76c-3.11-0.53-6.07,1.56-6.61,4.67
	c-0.18,1.05-0.06,2.09,0.33,3.06l18.14,3.12c0.01,0,0.02,0,0.03,0c2.84,0,5.53-1.08,7.58-3.04c0.6-0.57,1.55-0.55,2.12,0.05
	c0.57,0.6,0.55,1.55-0.05,2.12c-0.85,0.81-1.79,1.49-2.79,2.06l4.64,0.8c1.81-0.71,3.29-2.03,4.18-3.78
	c0.38-0.74,1.28-1.03,2.02-0.66c0.74,0.38,1.03,1.28,0.66,2.02c-0.62,1.22-1.45,2.29-2.44,3.18l9.23,1.59
	c0.69-0.79,1.15-1.73,1.33-2.77c0.26-1.5-0.08-3.02-0.96-4.27s-2.2-2.08-3.7-2.34L53.7,53.45c-0.82-0.14-1.36-0.92-1.22-1.73
	c0.14-0.82,0.92-1.36,1.73-1.22l3.16,0.54c2.58,0,5.02-0.98,6.89-2.76c0.6-0.57,1.55-0.55,2.12,0.05s0.55,1.55-0.05,2.12
	c-0.71,0.67-1.48,1.25-2.3,1.74l2.84,0.49c0.77,0.13,1.5,0.37,2.19,0.69c0.77-0.64,1.29-1.52,1.46-2.51c0.4-2.3-1.15-4.49-3.45-4.88
	l-5.51-0.95c-0.82-0.14-1.36-0.92-1.22-1.73c0.14-0.82,0.92-1.36,1.73-1.22l5.51,0.95c0.09,0.02,0.18,0.04,0.27,0.06
	c0.61-0.61,1.04-1.39,1.18-2.26c0.4-2.29-1.15-4.48-3.45-4.88l-8.63-1.48c-0.82-0.14-1.36-0.92-1.22-1.73
	c0.14-0.82,0.91-1.36,1.73-1.22l7.62,1.31c1.38-2.46,1.42-5.53,0.12-9.36c-0.27-0.78,0.15-1.64,0.94-1.9
	c0.78-0.27,1.64,0.15,1.9,0.94c1.47,4.32,1.45,8.04-0.02,11.13c2.81,1.37,4.5,4.48,3.95,7.71c-0.19,1.12-0.64,2.15-1.29,3.05
	c2.09,1.58,3.25,4.24,2.77,6.99c-0.25,1.43-0.91,2.73-1.9,3.77c0.34,0.34,0.66,0.71,0.94,1.11c1.34,1.9,1.87,4.21,1.47,6.51
	c-0.19,1.11-0.59,2.15-1.17,3.09c1.93,1.02,3.09,3.18,2.7,5.44C75.08,73.8,72.88,75.58,70.4,75.58z M47.62,49.36
	c0.82,0.14,1.36,0.92,1.22,1.73c-0.13,0.73-0.76,1.25-1.48,1.25c-0.08,0-0.17-0.01-0.26-0.02l-2.09-0.36
	c-0.82-0.14-1.36-0.92-1.22-1.73c0.14-0.82,0.92-1.37,1.73-1.22L47.62,49.36z M54.62,12.23c0.83,0.01,1.49,0.69,1.48,1.52
	c-0.07,6-3.96,11.25-9.67,13.06c-0.15,0.05-0.3,0.07-0.45,0.07c-0.64,0-1.23-0.41-1.43-1.05c-0.25-0.79,0.19-1.63,0.98-1.88
	c4.48-1.42,7.52-5.53,7.58-10.23C53.12,12.88,53.79,12.21,54.62,12.23z M56.58,26.57c1.16-1.72,1.59-3.79,1.22-5.83
	c-0.15-0.81,0.39-1.6,1.21-1.74c0.82-0.15,1.6,0.39,1.74,1.21c0.51,2.81-0.09,5.67-1.69,8.04c-0.29,0.43-0.76,0.66-1.24,0.66
	c-0.29,0-0.58-0.08-0.84-0.26C56.3,28.19,56.12,27.26,56.58,26.57z"/>
</svg>
