<?xml version="1.0" encoding="utf-8"?>
<!-- Generator: Adobe Illustrator 24.1.0, SVG Export Plug-In . SVG Version: 6.00 Build 0)  -->
<svg version="1.1" id="Layer_1" xmlns="http://www.w3.org/2000/svg" xmlns:xlink="http://www.w3.org/1999/xlink" x="0px" y="0px"
	 viewBox="0 0 100 100" style="enable-background:new 0 0 100 100;" xml:space="preserve">
<path d="M16.05,74.25c-2.76,0-5,2.24-5,5s2.24,5,5,5s5-2.24,5-5S18.81,74.25,16.05,74.25z M16.05,81.25c-1.1,0-2-0.9-2-2s0.9-2,2-2
	s2,0.9,2,2S17.15,81.25,16.05,81.25z M80.77,57.97c-2.76,0-5,2.24-5,5s2.24,5,5,5s5-2.24,5-5S83.53,57.97,80.77,57.97z M80.77,64.97
	c-1.1,0-2-0.9-2-2s0.9-2,2-2s2,0.9,2,2S81.87,64.97,80.77,64.97z M29.35,71.05c0,1.38-1.12,2.5-2.5,2.5c-1.38,0-2.5-1.12-2.5-2.5
	c0-1.38,1.12-2.5,2.5-2.5C28.23,68.55,29.35,69.67,29.35,71.05z M81.77,81.75c0,1.38-1.12,2.5-2.5,2.5c-1.38,0-2.5-1.12-2.5-2.5
	c0-1.38,1.12-2.5,2.5-2.5C80.65,79.25,81.77,80.37,81.77,81.75z M91.77,50c0,1.38-1.12,2.5-2.5,2.5c-1.38,0-2.5-1.12-2.5-2.5
	c0-1.38,1.12-2.5,2.5-2.5C90.65,47.5,91.77,48.62,91.77,50z M10.05,44.64c-1.38,0-2.5-1.12-2.5-2.5c0-1.38,1.12-2.5,2.5-2.5
	s2.5,1.12,2.5,2.5C12.55,43.53,11.43,44.64,10.05,44.64z M22.55,57.97c0,0.83-0.67,1.5-1.5,1.5h-3.5v3.5c0,0.83-0.67,1.5-1.5,1.5
	s-1.5-0.67-1.5-1.5v-3.5h-3.5c-0.83,0-1.5-0.67-1.5-1.5s0.67-1.5,1.5-1.5h3.5v-3.5c0-0.83,0.67-1.5,1.5-1.5s1.5,0.67,1.5,1.5v3.5
	h3.5C21.88,56.47,22.55,57.14,22.55,57.97z M85.77,35.76v3.5c0,0.83-0.67,1.5-1.5,1.5s-1.5-0.67-1.5-1.5v-3.5h-3.5
	c-0.83,0-1.5-0.67-1.5-1.5s0.67-1.5,1.5-1.5h3.5v-3.5c0-0.83,0.67-1.5,1.5-1.5s1.5,0.67,1.5,1.5v3.5h3.5c0.83,0,1.5,0.67,1.5,1.5
	s-0.67,1.5-1.5,1.5H85.77z M41.68,84.25c0,0.83-0.67,1.5-1.5,1.5h-3.5v3.5c0,0.83-0.67,1.5-1.5,1.5s-1.5-0.67-1.5-1.5v-3.5h-3.5
	c-0.83,0-1.5-0.67-1.5-1.5s0.67-1.5,1.5-1.5h3.5v-3.5c0-0.83,0.67-1.5,1.5-1.5s1.5,0.67,1.5,1.5v3.5h3.5
	C41.01,82.75,41.68,83.42,41.68,84.25z M12.67,31.5c-0.21-0.46-0.17-1,0.1-1.43c0.28-0.43,0.75-0.69,1.26-0.69
	c0.12,0,0.26-0.02,0.42-0.05c0.76-0.16,1.41-0.61,1.84-1.27c0.42-0.65,0.56-1.42,0.4-2.18c0-0.02-0.01-0.05-0.01-0.07
	c-0.15-0.46-0.08-0.96,0.2-1.35c0.3-0.43,0.81-0.66,1.33-0.62c0.25,0.02,0.51,0,0.78-0.06c0.77-0.16,1.43-0.61,1.85-1.27
	c0.42-0.65,0.57-1.43,0.4-2.19c-0.05-0.27-0.14-0.5-0.27-0.72c-0.27-0.46-0.26-1.03,0-1.5c0.25-0.43,0.7-0.71,1.19-0.74
	c0.83-0.19,1.47-0.63,1.89-1.28c0.42-0.65,0.56-1.42,0.4-2.18c-0.03-0.14-0.08-0.29-0.14-0.45c-0.19-0.46-0.13-0.99,0.15-1.41
	c0.28-0.41,0.74-0.66,1.24-0.66c0.01,0,0.01,0,0.02,0c5.12,0.06,9.82,2.88,12.28,7.36c0.04,0.08,0.09,0.17,0.13,0.26
	c0.01,0.02,0.06,0.12,0.07,0.14c0.55,1.2,1.85,1.77,3.09,1.35c0.75-0.26,1.57-0.5,2.43-0.69c0.88-0.18,1.73-0.31,2.53-0.38
	c1.3-0.12,2.26-1.16,2.27-2.47c0-0.08,0-0.17,0.01-0.26l0-0.11c0-0.04,0-0.09,0.01-0.13c0.55-6.45,5.41-11.71,11.8-12.8
	c1.3-0.21,2.6-0.25,3.88-0.1c0.82,0.09,1.41,0.84,1.32,1.66c-0.09,0.82-0.84,1.41-1.66,1.32c-1-0.11-2.03-0.09-3.05,0.08
	c-5.03,0.85-8.85,4.99-9.3,10.06l-0.01,0.29c-0.03,2.85-2.18,5.18-5,5.44c-0.69,0.06-1.43,0.17-2.18,0.33
	c-0.72,0.16-1.43,0.36-2.07,0.59c-2.69,0.92-5.61-0.34-6.8-2.93l-0.1-0.2c-1.64-2.99-4.55-5.04-7.85-5.63
	c-0.01,1.11-0.33,2.2-0.95,3.15c-0.6,0.92-1.42,1.64-2.38,2.11c0.29,1.49-0.01,3.03-0.85,4.32c-0.83,1.28-2.11,2.18-3.6,2.53
	c-0.03,1.06-0.35,2.1-0.95,3.02c-0.62,0.96-1.49,1.7-2.51,2.17c0.79,1.17,1.81,2.19,3,3c0.69,0.46,0.87,1.4,0.4,2.08
	c-0.29,0.43-0.76,0.66-1.24,0.66c-0.29,0-0.58-0.08-0.84-0.26C15.45,35.88,13.74,33.86,12.67,31.5z M24.64,39.68
	c-0.31,0-0.61-0.01-0.88-0.04c-0.83-0.07-1.44-0.8-1.36-1.62c0.07-0.83,0.8-1.43,1.62-1.36c0.19,0.02,0.41,0.02,0.63,0.02
	c2.92,0.01,5.35,2.23,5.65,5.15c0.04,0.39,0.09,0.79,0.16,1.21c0.01,0.04,0.01,0.09,0.02,0.13c0.01,0.08,0.06,0.29,0.11,0.5
	c0.22,1.02,0.12,2.04-0.27,2.92c-0.65,1.45-0.82,2.89-0.53,4.27c0.57,2.72,3,4.96,6.85,6.29c0.78,0.27,1.2,1.13,0.93,1.91
	c-0.21,0.62-0.8,1.01-1.42,1.01c-0.16,0-0.33-0.03-0.49-0.08c-4.87-1.69-8-4.71-8.8-8.5c-0.43-2.01-0.19-4.07,0.72-6.11
	c0.13-0.3,0.16-0.67,0.08-1.05c-0.11-0.47-0.15-0.7-0.16-0.81c-0.08-0.46-0.13-0.9-0.18-1.36C27.17,40.74,26.02,39.69,24.64,39.68z
	 M69.34,30.2c-0.03,0.02-0.07,0.04-0.1,0.06l0,0c-1.25,0.64-1.84,2.01-1.41,3.27c0.21,0.63,0.41,1.33,0.6,2.14
	c0.08,0.37,0.26,0.68,0.53,0.93c1.64,1.52,2.68,3.28,3.09,5.24c0.95,4.45-1.54,9.3-6.68,13.12l2.74,12.86
	c0.68,3.23-1.38,6.41-4.6,7.1c-0.18,0.04-0.36,0.06-0.54,0.08l1.75,6.54c0.21,0.8-0.26,1.62-1.06,1.84
	c-0.13,0.03-0.26,0.05-0.39,0.05c-0.66,0-1.27-0.44-1.45-1.11l-2.11-7.87c-1.63-0.77-2.91-2.25-3.32-4.14l-0.79-3.7
	c-0.77,0.69-1.71,1.17-2.75,1.4c-0.94,0.2-1.88,0.16-2.76-0.07l3.47,21.77c0.39,2.42,2.44,4.18,4.88,4.18
	c0.37,0,0.71-0.03,1.04-0.11c2.64-0.56,4.36-3.17,3.83-5.81c-0.16-0.81,0.37-1.6,1.18-1.76c0.82-0.16,1.6,0.37,1.76,1.18
	c0.84,4.24-1.92,8.43-6.15,9.33c-0.53,0.12-1.08,0.17-1.67,0.17c-3.92,0-7.22-2.82-7.84-6.7l-3.93-24.65
	c-0.43-0.63-0.75-1.35-0.92-2.14l-0.43-2.01c-1.16,0.02-2.33-0.02-3.48-0.12c-0.83-0.07-1.43-0.8-1.36-1.63
	c0.07-0.83,0.81-1.43,1.63-1.36c1.42,0.13,2.88,0.15,4.33,0.07c0,0,0,0,0.01,0c0.94-0.05,1.9-0.14,2.86-0.28
	c0.82-0.11,1.58,0.46,1.69,1.28c0.11,0.82-0.46,1.58-1.28,1.69c-0.46,0.06-0.92,0.12-1.38,0.16l0.33,1.57
	c0.34,1.61,1.94,2.65,3.54,2.3c0.78-0.17,1.45-0.63,1.88-1.3c0.43-0.67,0.58-1.46,0.41-2.24l0-0.01c-0.17-0.81,0.34-1.61,1.15-1.78
	c0.81-0.17,1.61,0.34,1.78,1.15c0,0,0,0.01,0,0.01l1.87,8.77c0.34,1.6,1.94,2.63,3.56,2.29c1.6-0.34,2.63-1.93,2.29-3.54l-2.5-11.73
	c-0.57,0.33-1.15,0.64-1.75,0.94c-0.21,0.11-0.44,0.16-0.66,0.16c-0.55,0-1.08-0.31-1.35-0.83c-0.37-0.74-0.06-1.64,0.68-2.01
	c1.16-0.57,2.25-1.21,3.25-1.89c0,0,0,0,0,0c4.66-3.19,7-7.15,6.26-10.61c-0.29-1.35-1.02-2.57-2.18-3.65
	c-0.73-0.66-1.23-1.52-1.44-2.49c-0.17-0.7-0.33-1.29-0.51-1.83c-0.9-2.66,0.28-5.54,2.83-6.87c0.03-0.02,0.05-0.03,0.08-0.04l0,0
	c4.85-2.55,7.13-8.2,5.41-13.43c-0.78-2.39-2.41-4.47-4.58-5.86c-0.7-0.45-0.9-1.37-0.46-2.07c0.45-0.7,1.38-0.9,2.07-0.45
	c2.76,1.77,4.82,4.41,5.82,7.46C78.33,19.82,75.46,26.96,69.34,30.2z M62.65,45.13c0.54-0.8,0.62-1.3,0.6-1.41
	c-0.02-0.08-0.12-0.24-0.36-0.47c-0.61-0.56-0.65-1.51-0.09-2.12c0.56-0.61,1.51-0.65,2.12-0.09c0.7,0.64,1.11,1.31,1.27,2.06
	c0.23,1.08-0.13,2.37-1.06,3.72c-0.29,0.43-0.76,0.66-1.24,0.66c-0.29,0-0.58-0.08-0.84-0.26C62.37,46.75,62.19,45.81,62.65,45.13z
	 M62.62,37.36c0,0.4-0.16,0.78-0.44,1.06c-0.28,0.28-0.67,0.44-1.06,0.44c-0.4,0-0.78-0.16-1.06-0.44
	c-0.07-0.07-0.13-0.14-0.19-0.22c-0.05-0.09-0.1-0.17-0.14-0.26c-0.03-0.09-0.06-0.19-0.08-0.28c-0.02-0.1-0.03-0.2-0.03-0.3
	c0-0.39,0.16-0.78,0.44-1.06c0.56-0.56,1.56-0.56,2.12,0C62.46,36.58,62.62,36.97,62.62,37.36z M61.83,12.54
	c-0.81,0.14-1.59-0.42-1.73-1.23c-0.14-0.82,0.42-1.59,1.23-1.73c0.43-0.07,0.87-0.11,1.3-0.11c3.53,0,6.74,2.3,7.81,5.6
	c0.14,0.44,0.25,0.89,0.32,1.34c0.13,0.82-0.44,1.58-1.25,1.71c-0.08,0.01-0.15,0.02-0.23,0.02c-0.73,0-1.37-0.53-1.48-1.27
	c-0.04-0.29-0.11-0.58-0.21-0.87C66.84,13.67,64.32,12.13,61.83,12.54z"/>
</svg>
