<?xml version="1.0" encoding="utf-8"?>
<!-- Generator: Adobe Illustrator 24.1.0, SVG Export Plug-In . SVG Version: 6.00 Build 0)  -->
<svg version="1.1" id="Layer_1" xmlns="http://www.w3.org/2000/svg" xmlns:xlink="http://www.w3.org/1999/xlink" x="0px" y="0px"
	 viewBox="0 0 100 100" style="enable-background:new 0 0 100 100;" xml:space="preserve">
<path d="M88.6,45c-2.76,0-5,2.24-5,5s2.24,5,5,5s5-2.24,5-5S91.36,45,88.6,45z M88.6,52c-1.1,0-2-0.9-2-2c0-1.1,0.9-2,2-2s2,0.9,2,2
	C90.6,51.1,89.71,52,88.6,52z M82.6,24.5c0-1.38,1.12-2.5,2.5-2.5s2.5,1.12,2.5,2.5c0,1.38-1.12,2.5-2.5,2.5S82.6,25.88,82.6,24.5z
	 M9.5,68.26c-1.38,0-2.5-1.12-2.5-2.5s1.12-2.5,2.5-2.5s2.5,1.12,2.5,2.5S10.88,68.26,9.5,68.26z M14.5,58c0-1.38,1.12-2.5,2.5-2.5
	s2.5,1.12,2.5,2.5c0,1.38-1.12,2.5-2.5,2.5S14.5,59.38,14.5,58z M9.5,22c0-1.38,1.12-2.5,2.5-2.5s2.5,1.12,2.5,2.5
	c0,1.38-1.12,2.5-2.5,2.5S9.5,23.38,9.5,22z M87.6,8.83c0-1.38,1.12-2.5,2.5-2.5s2.5,1.12,2.5,2.5c0,1.38-1.12,2.5-2.5,2.5
	S87.6,10.21,87.6,8.83z M85.1,65.76c0,1.38-1.12,2.5-2.5,2.5s-2.5-1.12-2.5-2.5s1.12-2.5,2.5-2.5S85.1,64.38,85.1,65.76z
	 M79.77,13.83c0,0.83-0.67,1.5-1.5,1.5h-3.5v3.5c0,0.83-0.67,1.5-1.5,1.5s-1.5-0.67-1.5-1.5v-3.5h-3.5c-0.83,0-1.5-0.67-1.5-1.5
	s0.67-1.5,1.5-1.5h3.5v-3.5c0-0.83,0.67-1.5,1.5-1.5s1.5,0.67,1.5,1.5v3.5h3.5C79.1,12.33,79.77,13.01,79.77,13.83z M23.5,80.88
	c0,0.83-0.67,1.5-1.5,1.5h-3.5v3.5c0,0.83-0.67,1.5-1.5,1.5s-1.5-0.67-1.5-1.5v-3.5H12c-0.83,0-1.5-0.67-1.5-1.5s0.67-1.5,1.5-1.5
	h3.5v-3.5c0-0.83,0.67-1.5,1.5-1.5s1.5,0.67,1.5,1.5v3.5H22C22.83,79.38,23.5,80.05,23.5,80.88z M56.76,45c0-0.83,0.67-1.5,1.5-1.5
	h8c0.98,0,1.92,0.41,2.58,1.14c0.66,0.72,0.99,1.69,0.91,2.67l-0.79,9.03c-0.07,0.78-0.72,1.37-1.49,1.37c-0.04,0-0.09,0-0.13-0.01
	c-0.83-0.07-1.44-0.8-1.36-1.62l0.79-9.03c0.02-0.19-0.07-0.32-0.13-0.38s-0.18-0.16-0.37-0.16h-8C57.43,46.5,56.76,45.83,56.76,45z
	 M75,30.5H63.95C63.98,30.34,64,30.17,64,30c0-1.66-1.34-3-3-3h-5.66l-1.89-10.48c-0.36-2.01-1.67-3.75-3.49-4.66L29.43,1.59
	c-1.7-0.85-3.79-0.17-4.67,1.51l-1.34,2.56c-0.44,0.84-0.52,1.8-0.23,2.7c0.29,0.9,0.92,1.63,1.76,2.05l19.07,9.54L45.3,27H39
	c-1.66,0-3,1.34-3,3c0,0.17,0.02,0.34,0.05,0.5H25c-2.48,0-4.5,2.02-4.5,4.5v4c0,0.83,0.67,1.5,1.5,1.5h1.63l4.64,52.89
	c0.21,2.34,2.13,4.11,4.48,4.11h34.5c2.35,0,4.28-1.77,4.48-4.11l4.64-52.89H78c0.83,0,1.5-0.67,1.5-1.5v-4
	C79.5,32.52,77.48,30.5,75,30.5z M46.84,18.68c-0.08-0.47-0.38-0.86-0.81-1.08L26.3,7.73c-0.16-0.08-0.23-0.22-0.25-0.29
	C26.02,7.36,26,7.21,26.08,7.05l1.34-2.56c0.13-0.24,0.43-0.33,0.67-0.22l20.54,10.27c0.98,0.49,1.68,1.43,1.88,2.51L52.3,27h-3.95
	L46.84,18.68z M76.5,37.5H35.24c-0.83,0-1.5,0.67-1.5,1.5s0.67,1.5,1.5,1.5h38.12l-4.62,52.63c-0.07,0.78-0.71,1.37-1.49,1.37h-34.5
	c-0.78,0-1.43-0.59-1.49-1.37L26.64,40.5h2.61c0.83,0,1.5-0.67,1.5-1.5s-0.67-1.5-1.5-1.5H23.5V35c0-0.83,0.67-1.5,1.5-1.5h50
	c0.83,0,1.5,0.67,1.5,1.5V37.5z M34.17,51.85l-0.36-6.81c-0.04-0.83,0.59-1.53,1.42-1.58c0.81-0.04,1.53,0.59,1.58,1.42l0.36,6.81
	c0.04,0.83-0.59,1.53-1.42,1.58c-0.03,0-0.05,0-0.08,0C34.88,53.28,34.22,52.65,34.17,51.85z M37.48,63.28
	c3.59-2.44,7.81-1.84,10.05,1.43c0.69,1.02,1.09,2.14,1.17,3.28c0.43-0.05,0.88-0.07,1.3-0.08c0.44,0,0.87,0.03,1.3,0.09
	c0.1-1.14,0.51-2.25,1.21-3.26c2.28-3.25,6.51-3.8,10.07-1.32c1.82,1.27,3.01,3.04,3.36,4.97c0.31,1.73-0.09,3.44-1.15,4.94
	c-1.18,1.68-2.93,2.68-4.88,2.83c0.12,0.63,0.18,1.28,0.17,1.94c0,0.7-0.08,1.42-0.23,2.13c-0.17,0.81-0.97,1.33-1.78,1.15
	c-0.81-0.17-1.33-0.97-1.15-1.78c0.11-0.52,0.17-1.01,0.17-1.52c0.01-1.04-0.21-2.05-0.64-2.99c-0.24-0.53-0.16-1.15,0.22-1.59
	s0.97-0.63,1.54-0.48c1.68,0.46,3.18-0.06,4.13-1.42c0.6-0.85,0.82-1.76,0.65-2.7c-0.2-1.14-0.95-2.22-2.12-3.03
	c-1.83-1.28-4.37-1.6-5.89,0.58c-0.67,0.96-0.86,2.02-0.55,3.07c0.16,0.54,0,1.13-0.41,1.52c-0.42,0.39-1.01,0.51-1.54,0.31
	c-0.8-0.3-1.64-0.45-2.48-0.45c-0.86,0.01-1.68,0.14-2.49,0.42c-0.53,0.19-1.13,0.06-1.54-0.33c-0.41-0.39-0.56-0.98-0.4-1.52
	c0.32-1.04,0.14-2.11-0.52-3.08c-1.5-2.19-4.03-1.9-5.88-0.64c-1.17,0.8-1.94,1.87-2.15,3c-0.18,0.94,0.03,1.85,0.62,2.71
	c0.93,1.37,2.44,1.91,4.12,1.47c0.56-0.15,1.16,0.05,1.53,0.5c0.37,0.45,0.45,1.07,0.2,1.6c-0.44,0.93-0.67,1.94-0.67,2.98
	c-0.02,3.94,3.16,7.17,7.1,7.19c1.85-0.02,3.64-0.7,4.98-1.99c0.6-0.58,1.55-0.56,2.12,0.04c0.58,0.6,0.56,1.55-0.04,2.12
	c-1.89,1.83-4.39,2.83-7.03,2.83c-0.02,0-0.04,0-0.06,0C44.3,88.18,39.78,83.6,39.81,78c0-0.66,0.07-1.31,0.2-1.94
	c-1.95-0.18-3.69-1.19-4.85-2.89c-1.04-1.52-1.41-3.23-1.09-4.96C34.43,66.28,35.65,64.53,37.48,63.28z"/>
</svg>
