<?xml version="1.0" encoding="utf-8"?>
<!-- Generator: Adobe Illustrator 24.1.0, SVG Export Plug-In . SVG Version: 6.00 Build 0)  -->
<svg version="1.1" id="Layer_1" xmlns="http://www.w3.org/2000/svg" xmlns:xlink="http://www.w3.org/1999/xlink" x="0px" y="0px"
	 viewBox="0 0 100 100" style="enable-background:new 0 0 100 100;" xml:space="preserve">
<path d="M78,25.5c0.83,0,1.5-0.67,1.5-1.5v-4c0-2.04-1.38-3.75-3.24-4.3l-1.79-8.43C74.32,6.58,73.71,6.08,73,6.08H62.62
	c-0.83,0-1.5,0.67-1.5,1.5s0.67,1.5,1.5,1.5h9.17l1.36,6.42h-46.3l1.36-6.42h28.4c0.83,0,1.5-0.67,1.5-1.5s-0.67-1.5-1.5-1.5H27
	c-0.71,0-1.32,0.5-1.47,1.19l-1.79,8.43c-1.87,0.55-3.24,2.26-3.24,4.3v4c0,0.83,0.67,1.5,1.5,1.5h1.6l0.82,11.99
	c-0.56,0.24-1.08,0.6-1.5,1.06c-0.85,0.91-1.29,2.14-1.2,3.38l0.31,4.5c0.06,0.83,0.78,1.45,1.6,1.39c0.83-0.06,1.45-0.77,1.39-1.6
	l-0.31-4.5c-0.03-0.42,0.11-0.82,0.4-1.13s0.68-0.48,1.1-0.48h47.58c0.42,0,0.81,0.17,1.1,0.48s0.43,0.71,0.4,1.13L73.1,73.58
	c-0.05,0.78-0.71,1.4-1.5,1.4h-4.26c-0.83,0-1.5,0.67-1.5,1.5s0.67,1.5,1.5,1.5h2.45l-1.04,15.15c-0.07,0.78-0.71,1.37-1.49,1.37
	h-34.5c-0.78,0-1.43-0.59-1.49-1.34l-1.04-15.18h25.54c0.83,0,1.5-0.67,1.5-1.5s-0.67-1.5-1.5-1.5H28.4c-0.79,0-1.44-0.61-1.5-1.4
	l-1.47-21.45c-0.06-0.83-0.77-1.45-1.6-1.39c-0.83,0.06-1.45,0.77-1.39,1.6l1.47,21.45c0.13,1.93,1.5,3.5,3.28,4.01l1.07,15.6
	c0.21,2.34,2.13,4.11,4.48,4.11h34.5c2.35,0,4.28-1.77,4.48-4.14l1.07-15.57c1.79-0.5,3.15-2.07,3.28-4.01l2.19-31.86
	c0.09-1.24-0.35-2.47-1.2-3.38c-0.43-0.46-0.94-0.81-1.5-1.06L76.4,25.5H78z M72.6,37.12H27.4l-0.8-11.62h2.64
	c0.83,0,1.5-0.67,1.5-1.5s-0.67-1.5-1.5-1.5H23.5V20c0-0.83,0.67-1.5,1.5-1.5h50c0.83,0,1.5,0.67,1.5,1.5v2.5H35.24
	c-0.83,0-1.5,0.67-1.5,1.5s0.67,1.5,1.5,1.5h38.15L72.6,37.12z M62.93,75.9c0.03,0.09,0.06,0.19,0.08,0.28
	c0.02,0.1,0.03,0.2,0.03,0.3c0,0.4-0.15,0.77-0.44,1.06c-0.28,0.28-0.66,0.44-1.06,0.44c-0.2,0-0.39-0.04-0.57-0.12
	c-0.18-0.07-0.35-0.18-0.49-0.32c-0.14-0.14-0.25-0.31-0.32-0.49c-0.08-0.18-0.12-0.37-0.12-0.57c0-0.4,0.16-0.78,0.44-1.06
	c0.55-0.56,1.56-0.56,2.12,0c0.07,0.07,0.13,0.14,0.19,0.23C62.84,75.73,62.89,75.81,62.93,75.9z M84.11,81.24c-2.76,0-5,2.24-5,5
	s2.24,5,5,5s5-2.24,5-5S86.86,81.24,84.11,81.24z M84.11,88.24c-1.1,0-2-0.9-2-2s0.9-2,2-2s2,0.9,2,2S85.21,88.24,84.11,88.24z
	 M86.79,24c0,2.76,2.24,5,5,5s5-2.24,5-5s-2.24-5-5-5S86.79,21.24,86.79,24z M91.79,22c1.1,0,2,0.9,2,2s-0.9,2-2,2s-2-0.9-2-2
	S90.68,22,91.79,22z M7.53,47.55c-2.76,0-5,2.24-5,5c0,2.76,2.24,5,5,5s5-2.24,5-5C12.53,49.79,10.29,47.55,7.53,47.55z M7.53,54.55
	c-1.1,0-2-0.9-2-2c0-1.1,0.9-2,2-2s2,0.9,2,2C9.53,53.65,8.64,54.55,7.53,54.55z M20.5,85.24c0,1.38-1.12,2.5-2.5,2.5
	s-2.5-1.12-2.5-2.5c0-1.38,1.12-2.5,2.5-2.5S20.5,83.86,20.5,85.24z M84.11,50.55c0-1.38,1.12-2.5,2.5-2.5c1.38,0,2.5,1.12,2.5,2.5
	c0,1.38-1.12,2.5-2.5,2.5C85.22,53.05,84.11,51.93,84.11,50.55z M11,65.55c0,1.38-1.12,2.5-2.5,2.5S6,66.93,6,65.55
	c0-1.38,1.12-2.5,2.5-2.5S11,64.17,11,65.55z M15.5,64.05c-1.38,0-2.5-1.12-2.5-2.5c0-1.38,1.12-2.5,2.5-2.5s2.5,1.12,2.5,2.5
	C18,62.93,16.88,64.05,15.5,64.05z M84.61,12.08c0-1.38,1.12-2.5,2.5-2.5c1.38,0,2.5,1.12,2.5,2.5c0,1.38-1.12,2.5-2.5,2.5
	C85.72,14.58,84.61,13.46,84.61,12.08z M12.53,33.51v3.5c0,0.83-0.67,1.5-1.5,1.5s-1.5-0.67-1.5-1.5v-3.5h-3.5
	c-0.83,0-1.5-0.67-1.5-1.5s0.67-1.5,1.5-1.5h3.5v-3.5c0-0.83,0.67-1.5,1.5-1.5s1.5,0.67,1.5,1.5v3.5h3.5c0.83,0,1.5,0.67,1.5,1.5
	s-0.67,1.5-1.5,1.5H12.53z M95.61,64.35c0,0.83-0.67,1.5-1.5,1.5h-3.5v3.5c0,0.83-0.67,1.5-1.5,1.5s-1.5-0.67-1.5-1.5v-3.5h-3.5
	c-0.83,0-1.5-0.67-1.5-1.5s0.67-1.5,1.5-1.5h3.5v-3.5c0-0.83,0.67-1.5,1.5-1.5s1.5,0.67,1.5,1.5v3.5h3.5
	C94.93,62.85,95.61,63.53,95.61,64.35z M60.03,58.73c0.12,0.63,0.18,1.28,0.17,1.94c0,0.71-0.08,1.41-0.23,2.13
	c-0.17,0.81-0.98,1.33-1.78,1.16c-0.81-0.17-1.33-0.97-1.16-1.78c0.11-0.52,0.17-1.02,0.17-1.52c0.01-1.04-0.21-2.05-0.64-2.99
	c-0.24-0.53-0.16-1.15,0.22-1.59c0.38-0.44,0.97-0.63,1.54-0.48c1.68,0.46,3.18-0.06,4.13-1.42c0.6-0.85,0.82-1.76,0.65-2.7
	c-0.2-1.14-0.95-2.22-2.12-3.03c-1.83-1.28-4.37-1.6-5.89,0.58c-0.67,0.96-0.86,2.02-0.55,3.07c0.16,0.54,0,1.13-0.41,1.52
	c-0.41,0.39-1.01,0.51-1.54,0.31c-0.8-0.3-1.64-0.45-2.48-0.45c-0.83-0.01-1.68,0.14-2.48,0.42c-0.54,0.19-1.13,0.06-1.54-0.33
	c-0.41-0.39-0.56-0.98-0.4-1.52c0.32-1.04,0.14-2.11-0.52-3.08c-1.5-2.19-4.03-1.9-5.88-0.64c-1.17,0.8-1.94,1.87-2.15,3.01
	c-0.18,0.94,0.03,1.85,0.62,2.71c0.93,1.37,2.44,1.91,4.12,1.47c0.56-0.14,1.16,0.05,1.53,0.5c0.37,0.45,0.45,1.07,0.2,1.6
	c-0.44,0.93-0.67,1.94-0.67,2.98c-0.02,3.94,3.16,7.17,7.1,7.19c1.86,0,3.64-0.7,4.98-1.99c0.6-0.58,1.54-0.56,2.12,0.04
	c0.58,0.6,0.56,1.55-0.04,2.12c-1.89,1.83-4.39,2.83-7.03,2.83c-0.02,0-0.04,0-0.06,0c-5.59-0.03-10.11-4.61-10.08-10.21
	c0-0.66,0.07-1.31,0.2-1.94c-1.95-0.18-3.69-1.19-4.85-2.89c-1.04-1.52-1.41-3.23-1.09-4.96c0.36-1.93,1.58-3.68,3.41-4.93
	c3.59-2.44,7.81-1.84,10.05,1.44c0.69,1.02,1.09,2.14,1.17,3.27c0.43-0.05,0.86-0.08,1.3-0.08c0.44,0,0.87,0.03,1.3,0.09
	c0.1-1.14,0.51-2.25,1.21-3.26c2.28-3.25,6.51-3.8,10.07-1.32c1.82,1.27,3.01,3.04,3.36,4.97c0.31,1.73-0.09,3.44-1.15,4.94
	C63.74,57.58,61.98,58.57,60.03,58.73z"/>
</svg>
