<?xml version="1.0" encoding="utf-8"?>
<!-- Generator: Adobe Illustrator 24.2.0, SVG Export Plug-In . SVG Version: 6.00 Build 0)  -->
<svg version="1.1" id="Layer_1" xmlns="http://www.w3.org/2000/svg" xmlns:xlink="http://www.w3.org/1999/xlink" x="0px" y="0px"
	 viewBox="0 0 100 100" style="enable-background:new 0 0 100 100;" xml:space="preserve">
<g>
	<path d="M40.04,37.9c0.89-0.91,1.88-1.78,3.02-2.65c2.41-1.84,4.47-4.03,6.13-6.54c1.67-2.52,2.88-5.27,3.62-8.19l3.53-13.83
		c0.17-0.65,0.75-1.12,1.43-1.13c0.01,0,0.02,0,0.03,0c0.67,0,1.25,0.44,1.44,1.08l2.29,7.84l1.95-2.4
		c0.41-0.51,1.11-0.69,1.71-0.45c0.61,0.24,0.99,0.84,0.95,1.5L65.2,27.06l2.46-1.24c0.54-0.28,1.2-0.19,1.66,0.2
		c0.46,0.4,0.63,1.03,0.44,1.61l-2.37,7.08c-1.41,4.2-0.91,8.79,1.39,12.58c0.49,0.79,0.99,1.48,1.54,2.09
		c0.55,0.62,0.49,1.57-0.12,2.12c-0.29,0.25-0.64,0.38-1,0.38c-0.41,0-0.83-0.17-1.12-0.5c-0.66-0.75-1.27-1.57-1.86-2.52
		c-2.76-4.56-3.37-10.06-1.67-15.1l1.21-3.62l-1.55,0.78c-0.48,0.24-1.05,0.21-1.5-0.09c-0.45-0.3-0.7-0.81-0.67-1.35l0.79-11.84
		l-0.77,0.96c-0.35,0.43-0.91,0.63-1.46,0.53c-0.55-0.11-0.99-0.51-1.14-1.05l-1.55-5.32l-2.17,8.52c-0.82,3.24-2.17,6.31-4.02,9.11
		c-1.84,2.78-4.13,5.23-6.81,7.27c-1.02,0.78-1.91,1.56-2.7,2.36c-0.58,0.59-1.53,0.6-2.12,0.02C39.47,39.44,39.46,38.49,40.04,37.9
		z M59.84,24.95c0.2-0.8-0.29-1.62-1.09-1.82c-0.81-0.2-1.62,0.29-1.82,1.09c-0.89,3.56-2.17,6.55-3.81,8.91
		c-1.99,2.87-2.74,6.31-2.1,9.7c0.23,1.23,0.22,2.48-0.02,3.7l-0.4,2.03c-0.16,0.81,0.37,1.6,1.18,1.76c0.1,0.02,0.2,0.03,0.29,0.03
		c0.7,0,1.33-0.5,1.47-1.21l0.4-2.03c0.32-1.6,0.33-3.23,0.02-4.84c-0.49-2.59,0.09-5.23,1.62-7.43
		C57.42,32.18,58.86,28.86,59.84,24.95z M4.17,72.42c0.38,0,0.77-0.15,1.06-0.44L8.7,68.5c0.5-0.5,1.01-0.9,1.57-1.23
		c0.71-0.42,0.95-1.34,0.53-2.05c-0.42-0.71-1.34-0.95-2.05-0.53c-0.77,0.45-1.5,1.02-2.17,1.69l-3.47,3.48
		c-0.58,0.59-0.58,1.54,0,2.12C3.41,72.27,3.79,72.42,4.17,72.42z M80.71,73.9c0.64,0.12,1.19,0.51,1.51,1.08
		c0.41,0.72,1.33,0.97,2.05,0.56c0.72-0.41,0.97-1.33,0.56-2.05c-0.77-1.34-2.07-2.27-3.58-2.54c-2.27-0.41-4.49,0.75-5.51,2.73
		c-2.07,0.25-3.87,1.73-4.4,3.84c-0.2,0.8,0.28,1.62,1.09,1.82c0.12,0.03,0.25,0.05,0.37,0.05c0.67,0,1.28-0.45,1.45-1.13
		c0.28-1.1,1.37-1.8,2.49-1.6c0.64,0.12,1.19,0.51,1.51,1.08c0.41,0.72,1.33,0.97,2.05,0.56c0.72-0.41,0.97-1.33,0.56-2.05
		c-0.46-0.8-1.1-1.44-1.87-1.9C79.45,73.97,80.07,73.79,80.71,73.9z M27.73,71.69c0,0.83,0.67,1.5,1.5,1.5h10
		c1.54,0,2.8,1.25,2.8,2.8c0,0.83,0.67,1.5,1.5,1.5s1.5-0.67,1.5-1.5c0-3.2-2.6-5.8-5.8-5.8h-4.51c-0.76-2.32-2.94-4-5.48-4
		c-1.72,0-3.34,0.76-4.46,2.08c-0.53,0.63-0.45,1.58,0.18,2.11c0.63,0.53,1.58,0.45,2.11-0.18c0.54-0.65,1.33-1.02,2.16-1.02
		c0.85,0,1.61,0.39,2.13,1h-2.13C28.4,70.19,27.73,70.86,27.73,71.69z M60.15,77.59l-0.69-6.96c-0.04-0.36-0.06-0.72-0.06-1.08
		c0-2.31,0.71-4.52,2.05-6.4c0,0,0-0.01,0.01-0.01c0.38-0.53,0.77-0.98,1.19-1.4c0.43-0.43,0.89-0.81,1.38-1.16
		c-0.04-0.04-0.06-0.09-0.1-0.12c-0.36-0.3-0.83-0.23-1.16-0.13c-0.65,0.21-1.37,0.15-1.98-0.18c-0.61-0.33-1.07-0.9-1.25-1.56
		c-0.07-0.26-0.26-0.73-0.69-0.86c-0.4-0.12-0.77,0.09-1.02,0.3c-0.54,0.44-1.24,0.64-1.92,0.56c-0.69-0.08-1.32-0.45-1.74-1
		c-0.16-0.21-0.5-0.55-0.91-0.53c-0.16,0.01-0.29,0.08-0.41,0.16c0.08,0.51,0.14,1.02,0.14,1.54c0,2.82-0.21,5.68-0.64,8.5
		l-1.5,9.92c-0.11,0.74-0.75,1.28-1.48,1.28c-0.08,0-0.15-0.01-0.23-0.02c-0.82-0.12-1.38-0.89-1.26-1.71l1.5-9.92
		c0.4-2.67,0.6-5.38,0.6-8.06c0-0.14,0-0.29-0.01-0.43c-1.64,1.47-3.78,2.32-6.06,2.32h-3.14c-0.65,2.18-2.67,3.78-5.06,3.78h-5.11
		c-2.88,0-5.22-2.31-5.28-5.18h-3.2v5.24c0,0.83-0.67,1.5-1.5,1.5h-5.92c-0.83,0-1.5-0.67-1.5-1.5s0.67-1.5,1.5-1.5h4.42v-3.74
		h-2.87c-0.61,0-1.15-0.37-1.39-0.93s-0.1-1.21,0.33-1.63l4.6-4.6c1.78-1.78,4.15-2.76,6.68-2.76h6.44c0.83-2.44,1.96-4.76,3.39-6.9
		c0.46-0.69,1.39-0.87,2.08-0.41c0.69,0.46,0.87,1.39,0.41,2.08c-1.1,1.64-2,3.39-2.71,5.23h7.47c3.5,0,6.68,1.92,8.32,5.01
		c0.37-0.15,0.77-0.25,1.18-0.28c1.21-0.07,2.35,0.42,3.21,1.37c1.05-0.72,2.29-0.93,3.45-0.58c1.18,0.37,2.09,1.26,2.56,2.49
		c1.29-0.29,2.56-0.01,3.53,0.78c0.36,0.29,0.65,0.64,0.89,1.03c1.19-0.43,2.46-0.66,3.78-0.66l4.19,0.02l-2.82-3.06
		c-0.56-0.61-0.52-1.56,0.08-2.12c0.61-0.56,1.56-0.52,2.12,0.09l4.72,5.11l2.57,0.01c1.73,0.01,3.36,0.69,4.58,1.92l3.27,3.31
		c0.42,0.43,0.55,1.07,0.32,1.63c-0.23,0.56-0.78,0.92-1.38,0.92h-1.92v0.6h4.14c2.54,0,4.92,0.99,6.72,2.78l0.99,0.99
		c0.59,0.59,0.59,1.54,0,2.12c-0.29,0.29-0.68,0.44-1.06,0.44s-0.77-0.15-1.06-0.44l-0.99-0.99c-1.23-1.23-2.86-1.9-4.6-1.9h-5.64
		c-0.83,0-1.5-0.67-1.5-1.5v-2.1h-5.84c-0.25,0.91-0.74,1.76-1.43,2.45c-1.08,1.07-2.49,1.65-3.98,1.65c-3.21,0-6.24-1.25-8.52-3.52
		l-0.44-0.44c-0.4,0.96-0.61,2-0.61,3.06c0,0.26,0.02,0.52,0.04,0.78l0.69,6.95c0.08,0.82-0.52,1.56-1.34,1.64
		c-0.05,0-0.1,0.01-0.15,0.01C60.88,78.94,60.23,78.37,60.15,77.59z M48.86,55.13c-1.19-1.74-3.16-2.78-5.3-2.78h-9.55
		c-0.01,0-0.01,0-0.02,0c-0.01,0-0.01,0-0.02,0h-7.49c-1.73,0-3.35,0.67-4.56,1.88l-2.04,2.04h6.95c0.83,0,1.5,0.67,1.5,1.5v1.39
		c0,1.26,1.02,2.29,2.28,2.29h5.11c1.26,0,2.28-1.02,2.28-2.28c0-0.83,0.67-1.5,1.5-1.5h4.42C45.89,57.67,47.72,56.71,48.86,55.13z
		 M70.44,61.52c-2.16,0-4.17,0.83-5.68,2.35c-0.02,0.02-0.05,0.05-0.07,0.07l0.87,0.87c1.71,1.7,3.98,2.64,6.4,2.64
		c0.7,0,1.35-0.27,1.86-0.77c0.48-0.49,0.75-1.14,0.75-1.83c0-0.83,0.67-1.5,1.5-1.5h8.47L83.8,62.6c-0.66-0.66-1.54-1.03-2.47-1.03
		l-10.86-0.05C70.46,61.52,70.45,61.52,70.44,61.52z M63.18,92.78c-0.83,0.08-1.43,0.82-1.34,1.64l0.17,1.72
		c0.08,0.77,0.73,1.35,1.49,1.35c0.05,0,0.1,0,0.15-0.01c0.83-0.08,1.43-0.82,1.34-1.64l-0.17-1.72C64.74,93.3,64,92.7,63.18,92.78z
		 M60.47,52.72c0.25,0.56,0.8,0.9,1.38,0.9c0.2,0,0.4-0.04,0.6-0.13c0.76-0.33,1.11-1.22,0.77-1.98c-0.82-1.87-1.47-3.85-1.93-5.89
		c-0.18-0.81-0.99-1.32-1.8-1.13c-0.81,0.18-1.31,0.99-1.13,1.8C58.87,48.52,59.58,50.68,60.47,52.72z M59.02,41.97
		c0.04,0,0.08,0,0.11,0c0.83-0.06,1.45-0.78,1.38-1.61c-0.07-0.98-0.1-2.01-0.07-3.08c0.02-0.83-0.63-1.52-1.46-1.54
		c-0.86-0.04-1.52,0.63-1.54,1.46c-0.03,1.17-0.01,2.3,0.07,3.38C57.59,41.37,58.24,41.97,59.02,41.97z M35.61,87.42
		c0.34,0,0.68-0.12,0.97-0.35c0.63-0.53,0.71-1.48,0.18-2.11c-0.53-0.63-1.12-1.21-1.73-1.75c-0.02-0.02-0.03-0.05-0.05-0.07
		c-0.03-0.03-0.07-0.04-0.1-0.06c-1.22-1.06-2.56-1.95-4.01-2.63l0.25-0.75c0.26-0.79-0.16-1.64-0.95-1.9
		c-0.79-0.26-1.64,0.16-1.9,0.95l-0.23,0.7c-1.3-0.34-2.64-0.54-4.01-0.57l-0.15-1.74c-0.07-0.83-0.82-1.43-1.62-1.36
		c-0.83,0.07-1.44,0.8-1.36,1.62l0.15,1.66c-0.5,0.08-0.99,0.18-1.48,0.3c-1.2-1.35-2.61-2.51-4.18-3.43l0.65-1.49
		c0.33-0.76-0.02-1.64-0.78-1.97c-0.76-0.33-1.64,0.02-1.97,0.78l-0.61,1.4c-1.85-0.68-3.83-1.07-5.91-1.07
		c-1.16,0-2.32,0.12-3.45,0.35c-0.81,0.17-1.33,0.96-1.17,1.77c0.17,0.81,0.96,1.33,1.77,1.17c0.72-0.15,1.46-0.22,2.2-0.25
		l-0.11,1.2c-0.07,0.83,0.54,1.55,1.36,1.63c0.05,0,0.09,0.01,0.14,0.01c0.77,0,1.42-0.59,1.49-1.37l0.12-1.29
		c5.35,0.9,9.69,4.81,11.2,9.93c-0.79-0.41-1.61-0.74-2.47-0.99c-0.04-0.02-0.08-0.04-0.13-0.05c-0.02-0.01-0.05-0.01-0.07-0.01
		c-1-0.27-2.04-0.42-3.1-0.45c0.59-0.5,1.22-0.96,1.89-1.37c0.71-0.42,0.94-1.35,0.52-2.06s-1.35-0.94-2.06-0.52
		c-0.19,0.11-0.37,0.24-0.56,0.36l-0.53-0.76c-0.47-0.68-1.41-0.84-2.09-0.37c-0.68,0.47-0.84,1.41-0.37,2.09l0.63,0.89
		c-0.79,0.75-1.51,1.56-2.15,2.44c-0.72,0.25-1.42,0.54-2.09,0.91l-0.74-1.27c-0.42-0.72-1.34-0.96-2.05-0.54
		c-0.71,0.42-0.96,1.34-0.54,2.05l0.87,1.49c-0.22,0.19-0.44,0.38-0.64,0.59c-0.58,0.59-0.58,1.54,0,2.12
		c0.59,0.58,1.54,0.58,2.12,0c0.2-0.2,0.41-0.39,0.62-0.57c-0.23,0.69-0.41,1.4-0.55,2.11c-0.01,0.03-0.02,0.06-0.03,0.09
		c-0.01,0.04,0,0.08-0.01,0.12C6.61,94,6.52,94.99,6.52,95.99c0,0.83,0.67,1.5,1.5,1.5s1.5-0.67,1.5-1.5c0-0.36,0.02-0.71,0.04-1.07
		l1.21,0.21c0.09,0.02,0.18,0.02,0.26,0.02c0.71,0,1.35-0.51,1.47-1.24c0.15-0.82-0.4-1.59-1.21-1.74l-1.18-0.21
		c0.37-1.23,0.9-2.39,1.57-3.47c0.8-0.19,1.62-0.3,2.46-0.3c0.43,0,0.85,0.04,1.26,0.09l-0.31,1.12c-0.22,0.8,0.24,1.62,1.04,1.85
		c0.13,0.04,0.27,0.06,0.4,0.06c0.66,0,1.26-0.43,1.44-1.1l0.32-1.13c0.94,0.41,1.8,0.95,2.58,1.61c0,0.01,0,0.02,0,0.02
		c0,1.69-0.3,3.34-0.88,4.92c-0.29,0.78,0.11,1.64,0.88,1.93c0.17,0.06,0.35,0.09,0.52,0.09c0.61,0,1.18-0.37,1.41-0.98
		c0.31-0.84,0.54-1.7,0.72-2.57c0.36,0.74,0.64,1.53,0.82,2.36c0.15,0.71,0.77,1.19,1.47,1.19c0.1,0,0.21-0.01,0.31-0.03
		c0.81-0.17,1.33-0.97,1.16-1.78c-0.06-0.28-0.14-0.55-0.21-0.83l1.1-0.45c0.77-0.31,1.14-1.19,0.83-1.95s-1.19-1.14-1.95-0.83
		l-1.11,0.45c-0.58-1.06-1.3-2.03-2.13-2.89c-0.08-0.95-0.24-1.88-0.46-2.79l1.34-0.48c0.78-0.28,1.19-1.14,0.91-1.92
		c-0.28-0.78-1.14-1.19-1.92-0.91l-1.31,0.47c-0.26-0.58-0.56-1.15-0.88-1.69c0.71-0.11,1.43-0.17,2.16-0.17
		c2.94,0,5.76,0.93,8.11,2.58l-0.62,0.69c-0.56,0.61-0.51,1.56,0.1,2.12c0.29,0.26,0.65,0.39,1.01,0.39c0.41,0,0.81-0.17,1.11-0.49
		l0.66-0.73c0.15,0.16,0.3,0.31,0.44,0.47C34.76,87.24,35.18,87.42,35.61,87.42z M94.92,85.17c0.82-0.53,1.69-0.99,2.61-1.35
		c0.77-0.3,1.16-1.17,0.86-1.94c-0.3-0.77-1.16-1.15-1.94-0.86c-1.58,0.61-3.05,1.46-4.38,2.5c-0.46-0.21-0.92-0.4-1.39-0.57
		l0.45-1.61c0.22-0.8-0.25-1.62-1.04-1.85c-0.8-0.22-1.63,0.25-1.85,1.04l-0.47,1.68c-1.36-0.22-2.72-0.27-4.05-0.16l-0.1-0.74
		c-0.11-0.82-0.88-1.4-1.69-1.28c-0.82,0.11-1.39,0.87-1.28,1.69l0.11,0.82c-1.47,0.39-2.88,0.96-4.2,1.71
		c-0.12,0.04-0.23,0.08-0.34,0.15c-0.1,0.06-0.19,0.14-0.27,0.22c-1.41,0.89-2.69,1.97-3.8,3.22l-0.89-0.63
		c-0.67-0.48-1.61-0.32-2.09,0.35c-0.48,0.68-0.32,1.61,0.35,2.09l0.85,0.6c-0.99,1.63-1.74,3.44-2.14,5.4
		c-0.17,0.81,0.36,1.6,1.17,1.77c0.1,0.02,0.2,0.03,0.3,0.03c0.7,0,1.32-0.49,1.47-1.2c0.71-3.5,2.71-6.45,5.4-8.45l0.51,0.82
		c0.28,0.46,0.77,0.71,1.28,0.71c0.27,0,0.54-0.07,0.79-0.23c0.7-0.44,0.92-1.36,0.48-2.07l-0.48-0.78
		c2.56-1.18,5.48-1.62,8.45-1.07c0.71,0.13,1.4,0.31,2.08,0.55c-0.42,0.48-0.81,0.98-1.18,1.5l-1.19-0.69
		c-0.72-0.41-1.63-0.17-2.05,0.54c-0.42,0.72-0.17,1.63,0.54,2.05l1.22,0.71c-0.37,0.82-0.68,1.67-0.92,2.55
		c-0.72,0.04-1.44,0.15-2.15,0.31l-0.21-0.83c-0.21-0.8-1.02-1.29-1.83-1.08c-0.8,0.21-1.29,1.02-1.08,1.83l0.27,1.05
		c-0.62,0.3-1.22,0.64-1.8,1.03c-0.68,0.47-0.86,1.4-0.39,2.09c0.29,0.42,0.76,0.65,1.24,0.65c0.29,0,0.59-0.08,0.85-0.26
		c0.91-0.62,1.92-1.1,2.98-1.4c0.05-0.01,0.1-0.03,0.14-0.05c0.47-0.13,0.94-0.21,1.41-0.27c-0.01,0.13-0.03,0.26-0.04,0.39
		c-0.05,0.83,0.57,1.54,1.4,1.59c0.03,0,0.07,0,0.1,0c0.78,0,1.44-0.61,1.5-1.4c0.01-0.18,0.03-0.36,0.05-0.54
		c1.08,0.17,2.15,0.51,3.14,1.03c0.25,0.13,0.5,0.28,0.75,0.43c0.71,0.43,1.63,0.21,2.06-0.5c0.43-0.71,0.21-1.63-0.5-2.06
		c-0.3-0.18-0.6-0.35-0.92-0.52c-1.24-0.64-2.56-1.07-3.91-1.31c0.67-2.06,1.79-3.92,3.31-5.47c1.25,0.78,2.38,1.74,3.36,2.9
		c0.54,0.63,1.48,0.71,2.11,0.18c0.63-0.53,0.71-1.48,0.18-2.11C97.18,86.98,96.1,86.01,94.92,85.17z M59.02,62.27
		c-0.09-0.82-0.84-1.42-1.66-1.32c-0.82,0.09-1.42,0.84-1.32,1.66c0.15,1.28-0.2,2.56-0.96,3.61c-1.99,2.72-2.11,6.31-0.3,9.16
		c1.14,1.79,1.06,4.06-0.19,5.77c-1.99,2.72-2.11,6.31-0.3,9.16c0.98,1.54,1.06,3.5,0.22,5.11c-0.38,0.73-0.1,1.64,0.64,2.02
		c0.22,0.12,0.46,0.17,0.69,0.17c0.54,0,1.06-0.29,1.33-0.81c1.33-2.56,1.2-5.67-0.35-8.11c-1.14-1.79-1.06-4.06,0.19-5.77
		c1.99-2.72,2.11-6.31,0.3-9.16c-1.14-1.79-1.06-4.06,0.19-5.77C58.71,66.33,59.25,64.3,59.02,62.27z M50.28,80.47
		c0.92,0.91,1.42,2.13,1.42,3.42v8.06c0,0.61-0.37,1.15-0.93,1.39c-0.19,0.08-0.38,0.11-0.57,0.11c-0.39,0-0.77-0.15-1.06-0.44
		l-5.7-5.7c-0.92-0.93-1.42-2.14-1.42-3.42c0-1.29,0.5-2.51,1.42-3.42s2.13-1.42,3.42-1.42C48.15,79.05,49.37,79.56,50.28,80.47z
		 M48.7,83.89c0-0.49-0.19-0.95-0.54-1.3c-0.35-0.35-0.81-0.54-1.3-0.54s-0.95,0.19-1.3,0.54s-0.54,0.81-0.54,1.3
		c0,0.48,0.19,0.94,0.53,1.29l0.28,0.27l2.87,2.88V83.89z M61.97,92.58c-0.27,0.22-0.6,0.33-0.93,0.33c-0.25,0-0.5-0.06-0.73-0.19
		c-0.53-0.29-0.83-0.88-0.76-1.48l0.9-8.01c0.16-1.3,0.79-2.44,1.79-3.24c1.01-0.81,2.28-1.16,3.56-1.02
		c1.29,0.15,2.44,0.78,3.24,1.79c0,0,0,0,0,0c0.8,1.01,1.17,2.27,1.02,3.56c-0.15,1.29-0.78,2.44-1.79,3.24L61.97,92.58z
		 M62.93,87.98l3.47-2.76c0.38-0.3,0.62-0.74,0.68-1.23c0.05-0.49-0.08-0.97-0.39-1.35c-0.3-0.38-0.74-0.62-1.23-0.68
		c-0.07-0.01-0.14-0.01-0.21-0.01c-0.42,0-0.81,0.14-1.14,0.4c-0.38,0.3-0.62,0.73-0.68,1.22l-0.04,0.38L62.93,87.98z M49.34,94.94
		c0.43,0.43,0.56,1.07,0.33,1.63s-0.78,0.93-1.39,0.93l-7.67,0l-0.4,0.01c-1.31-0.01-2.51-0.51-3.42-1.42
		c-0.91-0.91-1.42-2.13-1.42-3.42c0-1.29,0.5-2.51,1.42-3.42c0.91-0.91,2.13-1.42,3.42-1.42c0,0,0,0,0.01,0
		c1.29,0,2.51,0.5,3.42,1.41L49.34,94.94z M44.66,94.5l-3.13-3.13c-0.34-0.34-0.81-0.53-1.3-0.53h0h0c-0.49,0-0.95,0.19-1.3,0.54
		c0,0,0,0,0,0c-0.35,0.35-0.54,0.81-0.54,1.3s0.19,0.95,0.54,1.3c0.34,0.34,0.8,0.53,1.28,0.54l0.39-0.01L44.66,94.5z M8.26,40.74
		c0-2.76,2.24-5,5-5s5,2.24,5,5s-2.24,5-5,5S8.26,43.5,8.26,40.74z M11.26,40.74c0,1.1,0.9,2,2,2s2-0.9,2-2s-0.9-2-2-2
		S11.26,39.64,11.26,40.74z M29.72,35.82c1.38,0,2.5-1.12,2.5-2.5c0-1.38-1.12-2.5-2.5-2.5c-1.38,0-2.5,1.12-2.5,2.5
		C27.22,34.71,28.34,35.82,29.72,35.82z M92,49.57c1.38,0,2.5-1.12,2.5-2.5c0-1.38-1.12-2.5-2.5-2.5s-2.5,1.12-2.5,2.5
		C89.5,48.45,90.62,49.57,92,49.57z M78.08,21.74c1.38,0,2.5-1.12,2.5-2.5s-1.12-2.5-2.5-2.5c-1.38,0-2.5,1.12-2.5,2.5
		S76.7,21.74,78.08,21.74z M20.63,13.74c1.38,0,2.5-1.12,2.5-2.5s-1.12-2.5-2.5-2.5c-1.38,0-2.5,1.12-2.5,2.5
		S19.25,13.74,20.63,13.74z M79.35,38.32c-0.83,0-1.5,0.67-1.5,1.5s0.67,1.5,1.5,1.5h2.5v2.5c0,0.83,0.67,1.5,1.5,1.5
		s1.5-0.67,1.5-1.5v-2.5h2.5c0.83,0,1.5-0.67,1.5-1.5s-0.67-1.5-1.5-1.5h-2.5v-2.5c0-0.83-0.67-1.5-1.5-1.5s-1.5,0.67-1.5,1.5v2.5
		H79.35z M33.55,14.24h2.5v2.5c0,0.83,0.67,1.5,1.5,1.5s1.5-0.67,1.5-1.5v-2.5h2.5c0.83,0,1.5-0.67,1.5-1.5s-0.67-1.5-1.5-1.5h-2.5
		v-2.5c0-0.83-0.67-1.5-1.5-1.5s-1.5,0.67-1.5,1.5v2.5h-2.5c-0.83,0-1.5,0.67-1.5,1.5S32.73,14.24,33.55,14.24z"/>
</g>
</svg>
