<?xml version="1.0" encoding="utf-8"?>
<!-- Generator: Adobe Illustrator 24.2.0, SVG Export Plug-In . SVG Version: 6.00 Build 0)  -->
<svg version="1.1" id="Layer_1" xmlns="http://www.w3.org/2000/svg" xmlns:xlink="http://www.w3.org/1999/xlink" x="0px" y="0px"
	 viewBox="0 0 100 100" style="enable-background:new 0 0 100 100;" xml:space="preserve">
<g>
	<path d="M81,19.02c2.76,0,5-2.24,5-5s-2.24-5-5-5s-5,2.24-5,5S78.24,19.02,81,19.02z M81,12.02c1.1,0,2,0.9,2,2s-0.9,2-2,2
		s-2-0.9-2-2S79.9,12.02,81,12.02z M86,43.44c0,1.38-1.12,2.5-2.5,2.5c-1.38,0-2.5-1.12-2.5-2.5c0-1.38,1.12-2.5,2.5-2.5
		C84.88,40.94,86,42.06,86,43.44z M63.62,6.3c0-1.38,1.12-2.5,2.5-2.5s2.5,1.12,2.5,2.5c0,1.38-1.12,2.5-2.5,2.5
		S63.62,7.68,63.62,6.3z M2.73,7.8c0-0.83,0.67-1.5,1.5-1.5h2.5V3.8c0-0.83,0.67-1.5,1.5-1.5s1.5,0.67,1.5,1.5v2.5h2.5
		c0.83,0,1.5,0.67,1.5,1.5s-0.67,1.5-1.5,1.5h-2.5v2.5c0,0.83-0.67,1.5-1.5,1.5s-1.5-0.67-1.5-1.5V9.3h-2.5
		C3.41,9.3,2.73,8.63,2.73,7.8z M86.8,29.97h2.5v-2.5c0-0.83,0.67-1.5,1.5-1.5s1.5,0.67,1.5,1.5v2.5h2.5c0.83,0,1.5,0.67,1.5,1.5
		s-0.67,1.5-1.5,1.5h-2.5v2.5c0,0.83-0.67,1.5-1.5,1.5s-1.5-0.67-1.5-1.5v-2.5h-2.5c-0.83,0-1.5-0.67-1.5-1.5
		S85.97,29.97,86.8,29.97z M74.3,71.19c7.56,0,15-0.82,22.1-2.44c0.76-0.17,1.5,0.3,1.68,1.05c0.17,0.75-0.3,1.5-1.05,1.68
		c-7.3,1.66-14.95,2.51-22.72,2.51c-8.99,0-17.75-1.12-26.06-3.33c0,0-0.01,0-0.01,0c-2.34-0.62-4.51-1.29-6.65-2.03
		c-0.73-0.25-1.12-1.05-0.86-1.78c0.26-0.73,1.06-1.11,1.78-0.86c2.06,0.72,4.16,1.36,6.42,1.96c0.01,0,0.02,0.01,0.03,0.01
		c0,0,0.01,0,0.01,0C57.03,70.1,65.56,71.19,74.3,71.19z M37.91,3.27c18.42,0,33.4,14.98,33.4,33.4c0,0.72-0.03,1.46-0.08,2.19
		l-0.05,0.69c-0.07,0.71-0.14,1.34-0.24,1.97c-0.3,1.98-0.76,3.91-1.36,5.74c-0.21,0.62-0.43,1.27-0.7,1.92
		c-0.15,0.38-0.31,0.76-0.47,1.14c-0.23,0.53-0.74,0.84-1.28,0.84c-0.19,0-0.38-0.04-0.56-0.12c-0.71-0.31-1.03-1.13-0.72-1.84
		c0.15-0.35,0.3-0.7,0.44-1.06c0.25-0.61,0.45-1.21,0.64-1.77c0.55-1.67,0.97-3.44,1.25-5.27c0.09-0.59,0.15-1.17,0.22-1.79
		l0.04-0.63c0.05-0.69,0.07-1.36,0.07-2.01c0-16.87-13.73-30.6-30.6-30.6c-12.53,0-23.67,7.52-28.38,19.15
		c-0.29,0.72-1.11,1.06-1.82,0.77c-0.72-0.29-1.06-1.11-0.77-1.82C12.08,11.47,24.24,3.27,37.91,3.27z M14.12,47.96
		c-0.33-0.7-0.02-1.53,0.68-1.86c0.7-0.32,1.53-0.03,1.86,0.68c3.18,6.79,10.73,12.99,21.28,17.44c0.71,0.3,1.05,1.12,0.75,1.83
		c-0.23,0.53-0.75,0.86-1.29,0.86c-0.18,0-0.37-0.04-0.54-0.11C25.66,62.07,17.59,55.38,14.12,47.96z M96.42,76.04
		c-3.28,0.69-6.66,1.23-10.04,1.6c-0.77,0.08-1.32,0.78-1.24,1.54c0.08,0.72,0.69,1.25,1.39,1.25c0.05,0,0.1,0,0.16-0.01
		c1.21-0.13,2.42-0.29,3.62-0.47v9.06l-9.97-8.09c0.38-0.02,0.77-0.03,1.15-0.06c0.77-0.05,1.35-0.72,1.3-1.49s-0.71-1.37-1.49-1.3
		c-2.27,0.15-4.63,0.23-7.01,0.23c-12.38,0-24.61-2.09-35.38-6.04c-0.02-0.01-0.04-0.02-0.07-0.03c-0.22-0.08-0.43-0.15-0.57-0.2
		l-0.6-0.23c-3.43-1.31-6.67-2.81-9.62-4.46c-8.08-4.51-14.07-10.19-17.34-16.46C8.95,47.65,7.88,44,7.46,39.73
		C7.36,38.73,7.3,37.7,7.3,36.67c0-1.12,0.06-2.25,0.19-3.36c0.09-0.77-0.47-1.46-1.23-1.55c-0.76-0.08-1.46,0.47-1.55,1.23
		c-0.14,1.21-0.21,2.45-0.21,3.68c0,1.12,0.06,2.25,0.18,3.35c0.3,3.06,0.92,5.84,1.86,8.4v14.32c0,0.77,0.63,1.4,1.4,1.4
		s1.4-0.63,1.4-1.4v-8.62c1.94,3.16,4.52,6.16,7.67,8.92v1.93c0,0.77,0.63,1.4,1.4,1.4c0.66,0,1.21-0.46,1.36-1.08
		c1.02,0.78,2.1,1.53,3.22,2.26c-3.92,0.22-7.99,0.11-12.11-0.33c-0.76-0.09-1.46,0.47-1.54,1.24C9.25,69.22,9.8,69.92,10.57,70
		c5.68,0.61,11.27,0.62,16.51,0.01c0.35,0.19,0.71,0.37,1.06,0.56c0.35,0.19,0.7,0.37,1.06,0.56c0.44,0.23,0.9,0.44,1.36,0.66
		c0.35,0.17,0.69,0.34,1.05,0.5c0.52,0.24,1.06,0.47,1.59,0.71c0.3,0.13,0.59,0.27,0.9,0.39c0.84,0.36,1.7,0.7,2.57,1.03l0.57,0.22
		c0,0,0.01,0,0.01,0l0.06,0.02c0.15,0.05,0.3,0.1,0.45,0.16c0.05,0.03,0.11,0.05,0.16,0.06c0.01,0,0.02,0.01,0.02,0.01v5.62
		l-0.93-0.75c-0.6-0.49-1.48-0.4-1.97,0.2c-0.49,0.6-0.4,1.48,0.2,1.97l1.87,1.52l-6.85,5.56v-4.69c0-0.77-0.63-1.4-1.4-1.4
		s-1.4,0.63-1.4,1.4v4.69l-6.85-5.56l2.54-2.07c0.6-0.49,0.69-1.37,0.2-1.97c-0.49-0.6-1.37-0.69-1.97-0.2l-1.6,1.3v-2.93
		c2.61-0.02,5.17-0.18,7.67-0.46v3.21c0,0.77,0.63,1.4,1.4,1.4s1.4-0.63,1.4-1.4v-3.58c0.78-0.12,1.56-0.23,2.32-0.38
		c0.76-0.14,1.26-0.88,1.12-1.64c-0.14-0.76-0.88-1.26-1.64-1.12c-8.77,1.66-18.61,1.55-28.89-0.3c-0.76-0.13-1.49,0.37-1.63,1.13
		c-0.14,0.76,0.37,1.49,1.13,1.63c1.29,0.23,2.57,0.43,3.85,0.61v17.27c0,0.77,0.63,1.4,1.4,1.4s1.4-0.63,1.4-1.4v-1.33l7.67-6.23
		v7.56c0,0.77,0.63,1.4,1.4,1.4s1.4-0.63,1.4-1.4V86.4l7.67,6.23v1.33c0,0.77,0.63,1.4,1.4,1.4s1.4-0.63,1.4-1.4v-1.33l7.67-6.23
		v7.57c0,0.77,0.63,1.4,1.4,1.4s1.4-0.63,1.4-1.4V86.4l4.19,3.4c0.26,0.21,0.57,0.31,0.88,0.31c0.41,0,0.81-0.18,1.09-0.52
		c0.49-0.6,0.4-1.48-0.2-1.97l-5.13-4.17l3.78-3.07c0.6-0.49,0.69-1.37,0.2-1.97c-0.49-0.6-1.37-0.69-1.97-0.2l-2.84,2.3v-4.67
		c5.75,1.9,11.85,3.31,18.15,4.18v0.59c-0.56-0.25-1.23-0.12-1.64,0.38c-0.49,0.6-0.4,1.48,0.2,1.97l0.61,0.5l-6.84,5.56v-8.06
		c0-0.77-0.63-1.4-1.4-1.4s-1.4,0.63-1.4,1.4v13.01c0,0.77,0.63,1.4,1.4,1.4s1.4-0.63,1.4-1.4v-1.34l7.67-6.23v7.57
		c0,0.77,0.63,1.4,1.4,1.4s1.4-0.63,1.4-1.4V86.4l7.67,6.23v1.33c0,0.77,0.63,1.4,1.4,1.4s1.4-0.63,1.4-1.4v-1.34l7.67-6.23l0,7.56
		c0,0.77,0.63,1.4,1.4,1.4s1.4-0.63,1.4-1.4l0-7.56l7.67,6.23v1.34c0,0.77,0.63,1.4,1.4,1.4s1.4-0.63,1.4-1.4V79.51
		c1.31-0.22,2.61-0.46,3.89-0.73c0.76-0.16,1.24-0.9,1.08-1.66C97.92,76.37,97.18,75.88,96.42,76.04z M9.34,89.02V77.89L14,81.68
		c0.26,0.21,0.57,0.31,0.88,0.31c0.41,0,0.81-0.18,1.09-0.52c0.49-0.6,0.4-1.48-0.2-1.97l-2.63-2.14c1.3,0.09,2.59,0.15,3.87,0.18
		v5.24L9.34,89.02z M61.7,82.8v-2.42c2.54,0.29,5.09,0.5,7.67,0.62v8.03L61.7,82.8z M72.17,81.06c0.71,0.01,1.41,0.04,2.12,0.04
		c0.6,0,1.2-0.02,1.79-0.03l2.94,2.38l-6.85,5.56V81.06z M47.59,13.73c-0.26,0.73-1.07,1.1-1.79,0.84c-2.5-0.91-5.16-1.37-7.88-1.37
		c-4.41,0-8.61,1.22-12.21,3.42c-0.04,0.03-0.07,0.06-0.11,0.08c-1.1,0.68-2.12,1.44-3.07,2.26c-0.23,0.2-0.47,0.4-0.69,0.61
		c-0.02,0.02-0.04,0.04-0.06,0.06c-1.93,1.83-3.56,4.01-4.81,6.47c-0.04,0.08-0.09,0.14-0.14,0.2c-1.56,3.16-2.41,6.68-2.41,10.35
		c0,0.56,0.02,1.06,0.06,1.57c0,0.04,0,0.08,0,0.12c0,0.08,0.01,0.16,0.01,0.22c0.05,0.56,0.1,1.03,0.17,1.49
		c0.15,0.95,0.35,1.92,0.61,2.87c0.2,0.75-0.24,1.51-0.99,1.71c-0.12,0.03-0.24,0.05-0.36,0.05c-0.62,0-1.18-0.41-1.35-1.04
		c-0.28-1.04-0.5-2.11-0.67-3.19c-0.07-0.53-0.13-1.04-0.18-1.56c-0.02-0.2-0.03-0.36-0.03-0.51c-0.04-0.57-0.07-1.13-0.06-1.75
		c0.01-7.32,3.01-14.12,8.2-19.02c0.04-0.04,0.08-0.08,0.13-0.12c0.23-0.21,0.47-0.42,0.71-0.63c4.7-4.12,10.77-6.49,17.27-6.49
		c3.05,0,6.02,0.52,8.83,1.53C47.47,12.2,47.85,13,47.59,13.73z M61.32,38.24c0.04-0.51,0.06-1.01,0.06-1.57
		c0-8.19-4.18-15.66-11.17-19.97c-0.66-0.41-0.86-1.27-0.46-1.93c0.41-0.66,1.27-0.86,1.93-0.46c7.83,4.83,12.5,13.19,12.5,22.36
		c0,0.62-0.02,1.17-0.07,1.75c0,0.14-0.01,0.27-0.02,0.39c0,0.01-0.01,0.1-0.01,0.11c-0.05,0.52-0.11,1.03-0.18,1.53
		c-0.24,1.56-0.6,3.08-1.07,4.55l-0.12,0.33c-0.14,0.39-0.28,0.79-0.45,1.21c-0.74,1.91-1.72,3.8-2.89,5.57
		c-0.27,0.41-0.72,0.63-1.17,0.63c-0.26,0-0.53-0.08-0.77-0.23c-0.65-0.42-0.83-1.29-0.4-1.94c1.06-1.61,1.94-3.32,2.63-5.07
		c0.16-0.4,0.29-0.76,0.42-1.11l0.11-0.29c0.41-1.29,0.74-2.67,0.95-4.06c0.06-0.43,0.11-0.91,0.16-1.38l0.01-0.1
		c0.01-0.06,0.01-0.14,0.01-0.21C61.31,38.32,61.31,38.28,61.32,38.24z M1.56,67.19c0.14-0.76,0.88-1.26,1.64-1.12
		c0.88,0.17,1.74,0.32,2.61,0.46c0.76,0.12,1.28,0.84,1.16,1.6c-0.11,0.69-0.71,1.18-1.38,1.18c-0.07,0-0.15-0.01-0.22-0.02
		c-0.89-0.14-1.79-0.3-2.69-0.47C1.92,68.68,1.42,67.95,1.56,67.19z M65.36,55.37c-0.13-0.76-0.86-1.27-1.62-1.14
		c-0.76,0.13-1.27,0.85-1.14,1.62l0.53,3.1l0.33,1.97c-0.32-0.04-0.64-0.07-0.96-0.12l-0.09-0.53c-0.33-1.94-1.84-3.48-3.76-3.82
		c-2.3-0.42-4.59-0.94-6.77-1.54l0.04-2.02c0.01-0.77-0.6-1.41-1.37-1.43c-0.01,0-0.02,0-0.03,0c-0.76,0-1.38,0.61-1.4,1.37
		l-0.06,3.1c0,0,0,0,0,0c0,0,0,0,0,0l-0.04,2.02c-0.31-0.09-0.61-0.19-0.92-0.28l0-0.19c0.04-2.15-1.29-4.11-3.3-4.88
		c-0.71-0.27-1.41-0.55-2.09-0.84c-1.37-0.57-2.68-1.21-3.95-1.87l0.4-1.94c0.16-0.76-0.33-1.5-1.09-1.65
		c-0.76-0.16-1.5,0.33-1.65,1.09l-0.61,2.98c0,0,0,0,0,0l-1.97,9.45c-0.02,0.09-0.03,0.2-0.03,0.29c0,0.54,0.31,1.03,0.79,1.26
		c1.1,0.53,2.24,1.05,3.39,1.54c2.55,1.08,5.3,2.07,8.18,2.94c0,0,0,0,0,0c0.5,0.15,1,0.3,1.53,0.45c0.74,0.21,1.49,0.42,2.24,0.61
		c0,0,0,0,0,0c3.96,1.02,8.05,1.79,12.15,2.3c0,0,0,0,0,0c1.34,0.16,2.65,0.3,3.88,0.4c2.11,0.18,4.32,0.29,6.59,0.33
		c0.63,0.01,1.26,0.02,1.89,0.02c1.34,0,2.67-0.03,3.97-0.08c0,0,0,0,0,0c0.02,0,0.04,0,0.06,0c1.36-0.06,2.58-0.13,3.75-0.22
		c0,0,0.01,0,0.01,0c1.62-0.12,3.24-0.29,4.95-0.51c0.77-0.1,1.31-0.8,1.21-1.57c-0.1-0.77-0.81-1.3-1.57-1.21
		c-1.24,0.16-2.42,0.29-3.59,0.4l-1.01-2.73c3.14-0.26,6.23-0.66,9.25-1.23c0.44,0.67,0.74,1.4,0.91,2.2
		c0.04,0.17-0.03,0.3-0.07,0.36c-0.05,0.07-0.13,0.16-0.24,0.18l-0.39,0.07c-0.76,0.12-1.29,0.84-1.16,1.6
		c0.12,0.76,0.84,1.29,1.6,1.16l0.44-0.08c0.86-0.17,1.6-0.67,2.08-1.4c0.49-0.74,0.65-1.62,0.47-2.48
		c-0.29-1.43-0.95-2.78-1.88-3.92c-0.01-0.01-0.01-0.02-0.02-0.03c-0.03-0.03-0.05-0.07-0.08-0.1c-0.02-0.03-0.05-0.05-0.08-0.08
		c0,0-0.01-0.01-0.01-0.01c-1.7-1.95-4.12-3.09-6.67-3.13c-0.42-0.01-0.83,0.01-1.29,0.06c-1.63,0.2-3.36,0.36-5.23,0.47l-0.87-2.36
		c-0.27-0.73-1.08-1.1-1.8-0.83c-0.73,0.27-1.1,1.07-0.83,1.8l1.23,3.34c0,0.01,0.01,0.01,0.01,0.02l0.68,1.84
		c-0.32,0.01-0.65,0.03-0.97,0.04l-0.24-0.65c-0.67-1.79-2.32-2.98-4.26-3.03c-0.02,0-0.04,0-0.06,0c-2.35-0.04-4.73-0.2-7.09-0.43
		L65.36,55.37z M63.96,63.78l0.49,2.87c-0.32-0.03-0.64-0.07-0.96-0.11L63,63.67C63.32,63.71,63.64,63.75,63.96,63.78z M59.53,60.35
		c-2.62-0.43-5.2-0.98-7.71-1.63l0.02-0.93c2.08,0.55,4.2,1.02,6.33,1.41C58.8,59.31,59.3,59.76,59.53,60.35z M36.82,59.31
		l0.59-2.81c0.91,0.44,1.83,0.87,2.78,1.27c0.78,0.33,1.58,0.65,2.4,0.96c0.16,0.06,0.33,0.09,0.5,0.09c0.56,0,1.1-0.34,1.31-0.9
		c0.27-0.72-0.09-1.53-0.81-1.81c-0.79-0.3-1.55-0.61-2.3-0.92c-1.13-0.48-2.22-0.99-3.28-1.52l0.19-0.92
		c1.12,0.56,2.27,1.1,3.46,1.59c0.71,0.3,1.43,0.59,2.17,0.87c0.92,0.35,1.52,1.24,1.5,2.21l-0.1,5.19c-2.14-0.7-4.2-1.47-6.13-2.28
		C38.33,60,37.57,59.66,36.82,59.31z M48.01,63.47l0.05-2.9c0.31,0.09,0.61,0.19,0.92,0.28l-0.05,2.87
		c-0.16-0.05-0.32-0.09-0.48-0.13C48.3,63.56,48.16,63.51,48.01,63.47z M51.72,64.47l0.05-2.87c2.72,0.69,5.5,1.25,8.32,1.68
		l0.49,2.91C57.59,65.75,54.62,65.18,51.72,64.47z M80.93,60.42c1.61-0.11,3.11-0.25,4.54-0.43c0.32-0.04,0.61-0.05,0.9-0.04
		c0.81,0.01,1.6,0.2,2.34,0.51c-2.44,0.39-4.93,0.67-7.45,0.86L80.93,60.42z M79.35,64.24l1.01,2.74c-0.31,0.02-0.64,0.03-0.96,0.05
		l-1.02-2.75C78.71,64.27,79.03,64.26,79.35,64.24z M72.74,60.64c0.01,0,0.03,0,0.04,0c0.67,0.01,1.24,0.38,1.57,0.93
		c-0.54,0-1.07,0-1.61-0.01c-1.04-0.02-2.07-0.06-3.1-0.11c-0.8-0.04-1.43,0.55-1.47,1.33c-0.04,0.77,0.55,1.43,1.33,1.47
		c1.06,0.05,2.13,0.09,3.2,0.11c0.6,0.01,1.2,0.02,1.8,0.02c0.32,0,0.63-0.02,0.94-0.02l1.03,2.79c-1.27,0.02-2.55,0.02-3.83,0
		c-1.81-0.03-3.59-0.11-5.3-0.24l-1.13-6.63C68.38,60.48,70.57,60.6,72.74,60.64z M37.53,15.58c-6.67,0-12.28,4.53-13.96,10.67
		c-0.04,0.11-0.07,0.23-0.09,0.35c-0.28,1.11-0.44,2.27-0.44,3.47c0,2.63,0.71,5.19,2.04,7.43c0.4,0.66,1.26,0.88,1.92,0.48
		c0.66-0.4,0.88-1.26,0.48-1.92c-0.5-0.83-0.87-1.72-1.14-2.64c3.24,4.56,8.52,7.42,14.42,7.42c0.48,0,0.97-0.03,1.45-0.07
		c-1.44,0.63-3.02,0.99-4.68,0.99c-2.57,0-5.02-0.82-7.06-2.38c-0.62-0.47-1.5-0.35-1.96,0.27c-0.47,0.62-0.35,1.49,0.27,1.96
		c2.54,1.93,5.57,2.95,8.76,2.95c4.82,0,9.09-2.38,11.73-6.02c0.04-0.05,0.08-0.1,0.11-0.15c1.66-2.36,2.65-5.23,2.65-8.32
		C52.02,22.08,45.52,15.58,37.53,15.58z M47.26,36.54c-2.02,0.99-4.2,1.5-6.49,1.5c-6.88,0-12.77-4.61-14.45-11.24
		c0.19-0.64,0.44-1.26,0.73-1.86c1.68,6.46,7.55,11.25,14.51,11.25c1.6,0,3.18-0.25,4.69-0.75c0.74-0.24,1.14-1.03,0.89-1.77
		c-0.24-0.74-1.03-1.14-1.77-0.89c-1.23,0.4-2.51,0.61-3.82,0.61c-6.54,0-11.88-5.19-12.18-11.67c2.11-2.06,4.99-3.34,8.16-3.34
		c6.45,0,11.69,5.24,11.69,11.69C49.22,32.46,48.49,34.69,47.26,36.54z M42.69,25.08l-0.89,0.5l0.75,0.7
		c0.57,0.53,0.6,1.41,0.07,1.98c-0.28,0.3-0.65,0.45-1.02,0.45c-0.34,0-0.68-0.12-0.95-0.38l-0.75-0.7l-0.43,0.93
		c-0.24,0.51-0.74,0.81-1.27,0.81c-0.2,0-0.4-0.04-0.59-0.13c-0.7-0.33-1.01-1.16-0.68-1.86l0.43-0.93l-1.01-0.12
		c-0.77-0.09-1.31-0.79-1.22-1.56s0.79-1.31,1.56-1.22l1.01,0.12l-0.2-1c-0.15-0.76,0.35-1.49,1.11-1.64
		c0.75-0.14,1.49,0.35,1.64,1.11l0.2,1l0.89-0.5c0.68-0.38,1.53-0.13,1.9,0.54C43.61,23.85,43.37,24.71,42.69,25.08z M8.25,28.65
		c0.02,0.09,0.03,0.18,0.03,0.27s-0.01,0.19-0.03,0.28c-0.02,0.08-0.05,0.17-0.08,0.26c-0.04,0.08-0.08,0.16-0.13,0.24
		c-0.05,0.07-0.11,0.15-0.18,0.21c-0.06,0.07-0.13,0.12-0.21,0.18c-0.07,0.05-0.16,0.09-0.24,0.12c-0.08,0.04-0.17,0.07-0.26,0.08
		c-0.09,0.02-0.18,0.03-0.27,0.03s-0.19-0.01-0.28-0.03c-0.09-0.01-0.17-0.04-0.26-0.08c-0.08-0.03-0.17-0.07-0.24-0.12
		c-0.08-0.06-0.15-0.11-0.21-0.18c-0.07-0.06-0.13-0.14-0.18-0.21c-0.05-0.08-0.09-0.16-0.13-0.24c-0.03-0.09-0.06-0.18-0.08-0.26
		c-0.01-0.09-0.02-0.19-0.02-0.28s0.01-0.18,0.02-0.27c0.02-0.09,0.05-0.18,0.08-0.26c0.04-0.09,0.08-0.17,0.13-0.25
		c0.05-0.07,0.11-0.14,0.18-0.21c0.06-0.06,0.13-0.12,0.21-0.17c0.07-0.05,0.16-0.1,0.24-0.13c0.09-0.04,0.17-0.06,0.26-0.08
		c0.18-0.04,0.37-0.04,0.55,0c0.09,0.02,0.18,0.04,0.26,0.08c0.08,0.03,0.17,0.08,0.24,0.13c0.08,0.05,0.15,0.11,0.21,0.17
		c0.07,0.07,0.13,0.14,0.18,0.21c0.05,0.08,0.09,0.16,0.13,0.25C8.2,28.47,8.23,28.56,8.25,28.65z"/>
</g>
</svg>
