<?xml version="1.0" encoding="utf-8"?>
<!-- Generator: Adobe Illustrator 24.2.0, SVG Export Plug-In . SVG Version: 6.00 Build 0)  -->
<svg version="1.1" id="Layer_1" xmlns="http://www.w3.org/2000/svg" xmlns:xlink="http://www.w3.org/1999/xlink" x="0px" y="0px"
	 viewBox="0 0 100 100" style="enable-background:new 0 0 100 100;" xml:space="preserve">
<path d="M62.66,41.35c0,2.67-2.16,4.83-4.83,4.83c-0.31,0-0.62-0.04-0.92-0.09c0.57,1.08,0.87,2.29,0.87,3.54v0
	c0,2.03-0.79,3.93-2.22,5.37c-1.43,1.43-3.34,2.22-5.37,2.22c0,0,0,0,0,0c-4.19,0-7.59-3.41-7.59-7.59c0-1.28,0.32-2.49,0.88-3.54
	c-0.3,0.06-0.61,0.09-0.93,0.09c-2.67,0-4.83-2.16-4.83-4.83c0-2.67,2.16-4.83,4.83-4.83c2.67,0,4.83,2.16,4.83,4.83
	c0,0.46-0.08,0.89-0.2,1.32c0.92-0.4,1.94-0.62,3.01-0.62c0,0,0,0,0,0c1.05,0,2.07,0.22,3.01,0.62c-0.12-0.42-0.2-0.85-0.2-1.31
	c0-2.67,2.16-4.83,4.83-4.83C60.5,36.52,62.66,38.68,62.66,41.35z M80.42,72.65c0.3,1.02,0.07,2.17-0.74,2.98
	c-0.81,0.81-1.96,1.05-2.99,0.74c-2.12,1.85-4.45,3.49-6.97,4.9l5.83,12.14c0.22,0.46,0.19,1.01-0.08,1.45s-0.75,0.7-1.27,0.7h-10
	c-0.64,0-1.2-0.4-1.41-1l-3.31-9.32c-2.18,0.52-4.4,0.87-6.65,1.02c-0.51,0.94-1.49,1.59-2.63,1.59c-1.14,0-2.12-0.65-2.63-1.59
	c-2.24-0.15-4.46-0.5-6.65-1.01l-3.31,9.31c-0.21,0.6-0.78,1-1.41,1h-10c-0.52,0-1-0.26-1.27-0.7c-0.27-0.44-0.31-0.98-0.08-1.45
	l5.83-12.13c-2.53-1.4-4.86-3.05-6.98-4.9c-1.02,0.31-2.18,0.07-2.98-0.74c-0.81-0.81-1.04-1.95-0.74-2.98
	c-5.76-6.56-9.3-14.89-9.88-23.88c-0.94-0.51-1.59-1.49-1.59-2.63c0-1.15,0.65-2.13,1.6-2.64c0.59-9.1,4.22-17.37,9.89-23.83
	c-0.32-1.03-0.09-2.2,0.73-3.02c0.82-0.82,1.99-1.05,3.02-0.73c6.46-5.66,14.73-9.29,23.83-9.89c0.5-0.95,1.49-1.6,2.64-1.6
	s2.13,0.65,2.64,1.6c9.1,0.59,17.38,4.22,23.84,9.89c1.03-0.32,2.2-0.09,3.01,0.73c0.82,0.82,1.05,1.98,0.73,3.01
	c5.67,6.46,9.3,14.74,9.89,23.84c0.94,0.51,1.59,1.49,1.59,2.63c0,1.14-0.65,2.13-1.59,2.63C89.72,57.76,86.19,66.09,80.42,72.65z
	 M58.47,82.4l-0.81-2.27c-2.45,0.54-4.95,0.82-7.47,0.82c-2.54,0-5.04-0.29-7.46-0.82l-0.81,2.28c1.89,0.43,3.8,0.72,5.73,0.85
	c0.53-0.84,1.46-1.41,2.53-1.41c1.07,0,2,0.57,2.54,1.41C54.66,83.12,56.58,82.83,58.47,82.4z M56.65,77.28l-3.11-8.77l-1.92,5.69
	c-0.21,0.61-0.78,1.02-1.42,1.02s-1.21-0.41-1.42-1.02l-1.92-5.68l-3.11,8.77C47.93,78.15,52.38,78.15,56.65,77.28z M64.09,76.48
	c0-0.01-0.01-0.01-0.01-0.01c-0.01-0.01-0.01-0.03-0.02-0.04l-4.61-9.61c-0.36-0.75-0.04-1.64,0.7-2c0.75-0.36,1.64-0.04,2,0.7
	l3.92,8.17c5.73-3.31,10.17-8.21,12.89-14l-7.48-3.1c-0.77-0.32-1.13-1.2-0.81-1.96s1.19-1.13,1.96-0.81l7.5,3.11
	c1.22-3.4,1.86-7.03,1.86-10.78c0-3.78-0.67-7.4-1.88-10.77l-7.48,3.1c-0.19,0.08-0.38,0.11-0.57,0.11c-0.59,0-1.15-0.35-1.39-0.93
	c-0.32-0.77,0.05-1.64,0.81-1.96l7.48-3.1c-3.15-6.67-8.56-12.08-15.23-15.23l-3.1,7.48c-0.24,0.58-0.8,0.93-1.39,0.93
	c-0.19,0-0.39-0.04-0.57-0.11c-0.77-0.32-1.13-1.2-0.81-1.96l3.1-7.48c-3.37-1.21-6.99-1.88-10.77-1.88s-7.4,0.67-10.77,1.88
	l3.09,7.47c0.32,0.77-0.05,1.64-0.81,1.96c-0.19,0.08-0.38,0.11-0.57,0.11c-0.59,0-1.15-0.35-1.39-0.93l-3.09-7.46
	c-6.67,3.15-12.07,8.56-15.23,15.23l7.46,3.09c0.77,0.32,1.13,1.19,0.81,1.96c-0.24,0.58-0.8,0.93-1.39,0.93
	c-0.19,0-0.39-0.04-0.57-0.11l-7.47-3.09c-1.22,3.37-1.88,6.99-1.88,10.77c0,3.75,0.65,7.38,1.87,10.78l7.49-3.1
	c0.76-0.32,1.64,0.05,1.96,0.81c0.32,0.77-0.05,1.64-0.81,1.96l-7.47,3.09c2.72,5.79,7.16,10.69,12.89,14l3.39-7.06
	c0.36-0.75,1.25-1.06,2-0.7c0.75,0.36,1.06,1.25,0.7,2l-4.1,8.53c0,0,0,0.01,0,0.01c0,0,0,0,0,0l-2.33,4.86c0,0,0,0,0,0c0,0,0,0,0,0
	l-5.39,11.23h6.56L45.3,63.92l-1.11-3.28l-12.83,6.34c-0.58,0.29-1.27,0.17-1.73-0.28c-0.45-0.46-0.57-1.15-0.28-1.73l6.35-12.82
	l-13.56-4.58c-0.61-0.21-1.02-0.78-1.02-1.42s0.41-1.22,1.02-1.42l11.58-3.91c0.79-0.26,1.64,0.16,1.9,0.94
	c0.26,0.79-0.16,1.64-0.94,1.9l-7.37,2.49l10.98,3.71c0.41,0.14,0.74,0.45,0.91,0.85c0.17,0.4,0.15,0.85-0.04,1.24l-5.14,10.38
	l10.39-5.13c0.39-0.19,0.84-0.21,1.24-0.04c0.4,0.17,0.71,0.5,0.85,0.91l3.71,10.98l3.71-10.98c0.14-0.41,0.45-0.74,0.85-0.91
	s0.85-0.15,1.24,0.04l10.39,5.13l-5.13-10.39c-0.19-0.39-0.21-0.84-0.04-1.24c0.17-0.4,0.5-0.71,0.91-0.85l10.97-3.71l-7.37-2.49
	c-0.78-0.27-1.21-1.12-0.94-1.9c0.27-0.78,1.12-1.21,1.9-0.94l11.58,3.91c0.61,0.21,1.02,0.78,1.02,1.42c0,0.64-0.41,1.21-1.02,1.42
	l-13.56,4.58l6.34,12.82c0.29,0.58,0.17,1.27-0.28,1.73c-0.45,0.46-1.15,0.57-1.73,0.28L56.2,60.64l-1.1,3.27l10.16,28.65h6.56
	L64.09,76.48z M87.31,48.68c-0.85-0.53-1.42-1.46-1.42-2.54c0-1.07,0.56-2,1.41-2.53c-0.57-8.36-3.9-15.96-9.1-21.91
	c-0.97,0.21-2.01-0.05-2.77-0.8c-0.75-0.75-1.01-1.8-0.8-2.77c-5.95-5.2-13.55-8.53-21.91-9.09c-0.53,0.84-1.46,1.4-2.53,1.4
	c-1.07,0-2-0.56-2.53-1.4c-8.36,0.57-15.96,3.9-21.91,9.1c0.21,0.96-0.05,2.01-0.8,2.76c-0.75,0.75-1.8,1.01-2.76,0.8
	c-5.2,5.95-8.53,13.55-9.1,21.91c0.84,0.53,1.4,1.46,1.4,2.53c0,1.07-0.57,2-1.41,2.53c0.55,8.24,3.8,15.88,9.07,21.92
	c0.98-0.23,2.04,0.03,2.8,0.79c0.76,0.76,1.02,1.82,0.8,2.79c1.9,1.65,3.98,3.12,6.23,4.39l1.04-2.17
	c-10.9-6.19-17.62-17.64-17.62-30.25c0-19.19,15.61-34.8,34.8-34.8s34.8,15.61,34.8,34.8c0,12.61-6.72,24.06-17.61,30.25l1.04,2.16
	c2.25-1.26,4.33-2.73,6.22-4.38c-0.22-0.97,0.04-2.03,0.8-2.79c0.76-0.76,1.82-1.02,2.8-0.79C83.51,64.56,86.75,56.92,87.31,48.68z
	 M70.74,25.59c-0.46-0.45-1.15-0.57-1.73-0.28L56.2,31.65l-4.58-13.56c-0.21-0.61-0.78-1.02-1.42-1.02s-1.22,0.41-1.42,1.02
	l-4.58,13.56L31.36,25.3c-0.58-0.29-1.27-0.17-1.73,0.28c-0.45,0.46-0.57,1.15-0.28,1.73l4.87,9.83c0.37,0.74,1.27,1.05,2.01,0.68
	c0.74-0.37,1.05-1.27,0.68-2.01l-2.9-5.85L44.4,35.1c0.39,0.19,0.84,0.21,1.24,0.04s0.71-0.5,0.85-0.91l3.71-10.98l3.71,10.98
	c0.14,0.41,0.45,0.74,0.85,0.91c0.4,0.17,0.85,0.15,1.24-0.04l10.39-5.14l-2.9,5.86c-0.37,0.74-0.06,1.64,0.68,2.01
	c0.21,0.11,0.44,0.16,0.66,0.16c0.55,0,1.08-0.31,1.35-0.84l4.86-9.84C71.31,26.73,71.2,26.04,70.74,25.59z M21.58,86.57
	c0,2.76-2.24,5-5,5s-5-2.24-5-5s2.24-5,5-5S21.58,83.81,21.58,86.57z M18.58,86.57c0-1.1-0.9-2-2-2s-2,0.9-2,2s0.9,2,2,2
	S18.58,87.67,18.58,86.57z M95.51,76.72c0,2.76-2.24,5-5,5s-5-2.24-5-5s2.24-5,5-5S95.51,73.96,95.51,76.72z M92.51,76.72
	c0-1.1-0.9-2-2-2s-2,0.9-2,2s0.9,2,2,2S92.51,77.82,92.51,76.72z M94.51,20.88c-1.38,0-2.5,1.12-2.5,2.5c0,1.38,1.12,2.5,2.5,2.5
	c1.38,0,2.5-1.12,2.5-2.5C97.01,22,95.89,20.88,94.51,20.88z M12.49,13.3c1.38,0,2.5-1.12,2.5-2.5c0-1.38-1.12-2.5-2.5-2.5
	s-2.5,1.12-2.5,2.5C9.99,12.18,11.11,13.3,12.49,13.3z M84.49,86.57c-1.38,0-2.5,1.12-2.5,2.5c0,1.38,1.12,2.5,2.5,2.5
	s2.5-1.12,2.5-2.5C86.99,87.69,85.87,86.57,84.49,86.57z M5.99,64.74c1.38,0,2.5-1.12,2.5-2.5c0-1.38-1.12-2.5-2.5-2.5
	s-2.5,1.12-2.5,2.5C3.49,63.62,4.61,64.74,5.99,64.74z M86.51,13.8h2.5v2.5c0,0.83,0.67,1.5,1.5,1.5s1.5-0.67,1.5-1.5v-2.5h2.5
	c0.83,0,1.5-0.67,1.5-1.5s-0.67-1.5-1.5-1.5h-2.5V8.3c0-0.83-0.67-1.5-1.5-1.5s-1.5,0.67-1.5,1.5v2.5h-2.5c-0.83,0-1.5,0.67-1.5,1.5
	S85.68,13.8,86.51,13.8z M12.49,76.62c0.83,0,1.5-0.67,1.5-1.5s-0.67-1.5-1.5-1.5h-2.5v-2.5c0-0.83-0.67-1.5-1.5-1.5
	s-1.5,0.67-1.5,1.5v2.5h-2.5c-0.83,0-1.5,0.67-1.5,1.5s0.67,1.5,1.5,1.5h2.5v2.5c0,0.83,0.67,1.5,1.5,1.5s1.5-0.67,1.5-1.5v-2.5
	H12.49z"/>
</svg>
