<?xml version="1.0" encoding="utf-8"?>
<!-- Generator: Adobe Illustrator 24.1.0, SVG Export Plug-In . SVG Version: 6.00 Build 0)  -->
<svg version="1.1" id="Layer_1" xmlns="http://www.w3.org/2000/svg" xmlns:xlink="http://www.w3.org/1999/xlink" x="0px" y="0px"
	 viewBox="0 0 100 100" style="enable-background:new 0 0 100 100;" xml:space="preserve">
<path d="M10.58,27.11c2.76,0,5-2.24,5-5s-2.24-5-5-5s-5,2.24-5,5S7.83,27.11,10.58,27.11z M10.58,20.11c1.1,0,2,0.9,2,2s-0.9,2-2,2
	s-2-0.9-2-2S9.48,20.11,10.58,20.11z M93.36,78.14c0,1.38-1.12,2.5-2.5,2.5c-1.38,0-2.5-1.12-2.5-2.5s1.12-2.5,2.5-2.5
	C92.24,75.64,93.36,76.76,93.36,78.14z M41.96,9.56c0-1.38,1.12-2.5,2.5-2.5c1.38,0,2.5,1.12,2.5,2.5s-1.12,2.5-2.5,2.5
	C43.08,12.06,41.96,10.94,41.96,9.56z M10.54,9.29c0-1.38,1.12-2.5,2.5-2.5c1.38,0,2.5,1.12,2.5,2.5c0,1.38-1.12,2.5-2.5,2.5
	C11.66,11.79,10.54,10.67,10.54,9.29z M22.38,9.29c0-0.83,0.67-1.5,1.5-1.5h3.5v-3.5c0-0.83,0.67-1.5,1.5-1.5s1.5,0.67,1.5,1.5v3.5
	h3.5c0.83,0,1.5,0.67,1.5,1.5s-0.67,1.5-1.5,1.5h-3.5v3.5c0,0.83-0.67,1.5-1.5,1.5s-1.5-0.67-1.5-1.5v-3.5h-3.5
	C23.05,10.79,22.38,10.12,22.38,9.29z M87.55,89.14c0,0.83-0.67,1.5-1.5,1.5h-3.5v3.5c0,0.83-0.67,1.5-1.5,1.5s-1.5-0.67-1.5-1.5
	v-3.5h-3.5c-0.83,0-1.5-0.67-1.5-1.5s0.67-1.5,1.5-1.5h3.5v-3.5c0-0.83,0.67-1.5,1.5-1.5s1.5,0.67,1.5,1.5v3.5h3.5
	C86.88,87.64,87.55,88.31,87.55,89.14z M8.02,65.57c-0.19,0.07-0.38,0.11-0.58,0.11c-0.4,0-0.78-0.16-1.06-0.44
	c-0.14-0.14-0.25-0.3-0.33-0.49c-0.07-0.18-0.11-0.37-0.11-0.57c0-0.4,0.16-0.78,0.44-1.06c0.35-0.35,0.87-0.51,1.35-0.41
	c0.1,0.02,0.19,0.05,0.29,0.08c0.09,0.04,0.17,0.09,0.25,0.14c0.09,0.06,0.16,0.12,0.23,0.19c0.28,0.28,0.44,0.66,0.44,1.06
	c0,0.2-0.04,0.39-0.11,0.57c-0.08,0.19-0.19,0.35-0.33,0.49C8.36,65.38,8.2,65.49,8.02,65.57z M38.35,57.49
	c0-2.12,1.72-3.83,3.83-3.83c2.12,0,3.83,1.72,3.83,3.83s-1.72,3.83-3.83,3.83C40.07,61.32,38.35,59.61,38.35,57.49z M26.38,70.8
	c0-1.38,1.12-2.5,2.5-2.5c1.38,0,2.5,1.12,2.5,2.5c0,1.38-1.12,2.5-2.5,2.5C27.5,73.3,26.38,72.18,26.38,70.8z M26.38,62.8
	c0,1.38-1.12,2.5-2.5,2.5c-1.38,0-2.5-1.12-2.5-2.5c0-1.38,1.12-2.5,2.5-2.5C25.26,60.3,26.38,61.42,26.38,62.8z M59.01,19.61
	c0-1.38,1.12-2.5,2.5-2.5c1.38,0,2.5,1.12,2.5,2.5c0,1.38-1.12,2.5-2.5,2.5C60.13,22.11,59.01,20.99,59.01,19.61z M22.88,74.3
	c1.38,0,2.5,1.12,2.5,2.5c0,1.38-1.12,2.5-2.5,2.5c-1.38,0-2.5-1.12-2.5-2.5C20.38,75.42,21.5,74.3,22.88,74.3z M15.54,67.71
	c-1.38,0-2.5-1.12-2.5-2.5s1.12-2.5,2.5-2.5c1.38,0,2.5,1.12,2.5,2.5S16.92,67.71,15.54,67.71z M36.88,73.3c1.38,0,2.5,1.12,2.5,2.5
	c0,1.38-1.12,2.5-2.5,2.5c-1.38,0-2.5-1.12-2.5-2.5C34.38,74.42,35.5,73.3,36.88,73.3z M34.46,81.64c1.38,0,2.5,1.12,2.5,2.5
	s-1.12,2.5-2.5,2.5c-1.38,0-2.5-1.12-2.5-2.5S33.08,81.64,34.46,81.64z M80.06,35.66c1.38,0,2.5,1.12,2.5,2.5
	c0,1.38-1.12,2.5-2.5,2.5c-1.38,0-2.5-1.12-2.5-2.5C77.56,36.78,78.68,35.66,80.06,35.66z M97.43,51.84l-4.01-4.01
	c-0.43-0.43-1.09-0.56-1.65-0.32l-7,3c-0.18,0.08-0.33,0.18-0.46,0.31c0,0-0.01,0-0.01,0.01l-0.02,0.02c0,0,0,0-0.01,0.01
	l-0.11,0.11l10.62-27.73c0.21-0.55,0.08-1.18-0.34-1.6l-4.07-4.06c-0.59-0.58-1.53-0.58-2.12,0l-10.7,10.7l-6.14-6.14l10.7-10.7
	c0.58-0.58,0.59-1.53,0-2.12l-4.06-4.07c-0.42-0.42-1.05-0.55-1.6-0.34l-47.81,18.3c-0.09,0.03-0.17,0.08-0.25,0.13
	c-3.21,1.29-6.22,3.01-8.96,5.17c-0.04,0.03-0.07,0.06-0.1,0.1c-0.01,0.01-0.02,0.01-0.03,0.02c-0.01,0.01-0.01,0.02-0.02,0.03
	c-0.12,0.13-0.22,0.28-0.29,0.44c-0.01,0.02-0.02,0.04-0.03,0.06c-0.06,0.16-0.09,0.33-0.1,0.5c0,0.02,0,0.04,0,0.07
	c0,0.17,0.04,0.33,0.1,0.49c0.01,0.02,0.02,0.04,0.03,0.07c0.05,0.12,0.11,0.23,0.19,0.34c0.03,0.03,0.06,0.06,0.09,0.09
	c0.01,0.01,0.02,0.03,0.03,0.04l0.94,0.94l-3.88,3.88l-0.94-0.94c-0.01-0.01-0.02-0.01-0.03-0.02c-0.03-0.03-0.06-0.07-0.1-0.1
	c-0.11-0.08-0.22-0.14-0.34-0.19c-0.02-0.01-0.04-0.02-0.07-0.03c-0.16-0.06-0.33-0.09-0.5-0.1c-0.02,0-0.04,0-0.07,0
	c-0.17,0-0.34,0.04-0.5,0.1c-0.02,0.01-0.04,0.02-0.06,0.03c-0.16,0.07-0.31,0.17-0.44,0.29c-0.01,0.01-0.02,0.01-0.03,0.02
	c-0.01,0.01-0.01,0.02-0.02,0.03c-0.03,0.03-0.07,0.06-0.1,0.1c-5.15,6.54-7.87,14.41-7.87,22.76c0,0.43,0.01,0.86,0.02,1.28
	c0.03,0.81,0.69,1.45,1.5,1.45c0.02,0,0.04,0,0.05,0c0.83-0.03,1.48-0.72,1.45-1.55c-0.01-0.39-0.02-0.79-0.02-1.18
	c0-2.08,0.19-4.13,0.55-6.13l21.11,4.84c-0.37,3.56,0.8,7.25,3.52,9.97c0.23,0.23,0.47,0.45,0.72,0.65
	c0.64,0.52,1.59,0.42,2.11-0.22c0.52-0.64,0.42-1.59-0.22-2.11c-0.17-0.14-0.33-0.29-0.48-0.44c-3.62-3.63-3.62-9.53,0-13.15
	c3.63-3.62,9.53-3.62,13.15,0c3.62,3.63,3.62,9.53,0,13.15c-2.17,2.17-5.28,3.12-8.31,2.56c-0.82-0.16-1.6,0.38-1.75,1.2
	c-0.15,0.81,0.38,1.6,1.2,1.75c0.76,0.14,1.53,0.21,2.29,0.21c0.42,0,0.85-0.02,1.27-0.07l2.48,10.78c0,0.01,0,0.02,0,0.03
	c0,0.01,0.01,0.01,0.01,0.02l2.36,10.27c-2,0.36-4.05,0.55-6.13,0.55c-14.17,0-26.96-8.94-31.82-22.24
	c-0.28-0.78-1.15-1.17-1.92-0.89c-0.78,0.29-1.18,1.15-0.89,1.92c5.29,14.48,19.22,24.21,34.64,24.21c8.35,0,16.22-2.72,22.76-7.87
	c0.04-0.03,0.07-0.06,0.1-0.1c0.01-0.01,0.02-0.01,0.03-0.02c0.01-0.01,0.01-0.02,0.02-0.03c0.13-0.13,0.22-0.28,0.29-0.44
	c0.01-0.02,0.02-0.04,0.03-0.06c0.06-0.16,0.09-0.33,0.1-0.5c0-0.02,0-0.04,0-0.06c0-0.17-0.04-0.34-0.1-0.5
	c-0.01-0.02-0.02-0.04-0.02-0.06c-0.05-0.12-0.11-0.23-0.19-0.34c-0.03-0.04-0.06-0.07-0.1-0.1c-0.01-0.01-0.01-0.02-0.02-0.03
	l-0.94-0.94l3.88-3.88l0.94,0.94c0.01,0.01,0.02,0.01,0.03,0.02c0.03,0.03,0.06,0.07,0.1,0.1c0.08,0.06,0.16,0.09,0.25,0.14
	c0.05,0.03,0.1,0.06,0.15,0.08c0.17,0.06,0.35,0.1,0.52,0.1c0,0,0,0,0,0c0,0,0,0,0,0c0,0,0,0,0,0c0.18,0,0.35-0.04,0.51-0.1
	c0.03-0.01,0.05-0.02,0.08-0.03c0.16-0.07,0.3-0.16,0.43-0.29c0.01-0.01,0.03-0.02,0.04-0.03c0.01-0.01,0.02-0.03,0.03-0.04
	c0.03-0.03,0.06-0.06,0.09-0.09c2.2-2.79,3.93-5.85,5.21-9.07c0.03-0.05,0.06-0.09,0.08-0.14l1.45-3.78l7.49,1.72
	c0.11,0.03,0.22,0.04,0.33,0.04c0,0,0,0,0,0c0,0,0,0,0,0s0,0,0,0c0.11,0,0.21-0.01,0.31-0.03c0.03-0.01,0.05-0.02,0.08-0.02
	c0.08-0.02,0.15-0.05,0.23-0.08c0.01,0,0.02-0.01,0.03-0.01c0.03-0.01,0.05-0.03,0.07-0.05c0.05-0.03,0.1-0.06,0.15-0.09
	c0.04-0.03,0.07-0.06,0.1-0.09c0.03-0.02,0.06-0.04,0.09-0.07l7.61-7.62c0.01-0.01,0.01-0.01,0.01-0.02
	c0.12-0.13,0.23-0.27,0.31-0.45l3-7C97.99,52.92,97.86,52.27,97.43,51.84z M74.06,63.28c-0.81-0.19-1.61,0.32-1.8,1.12
	c-0.19,0.81,0.32,1.61,1.12,1.8l1.44,0.33c-0.21,0.75-0.43,1.49-0.7,2.24l-0.09,0.24c-1.02,2.83-2.44,5.51-4.21,7.99l-6.55-6.55
	c1.15-1.88,2.05-3.87,2.66-5.96l1.97,0.45c0.11,0.03,0.23,0.04,0.34,0.04c0.68,0,1.3-0.47,1.46-1.16c0.19-0.81-0.32-1.61-1.12-1.8
	l-3.33-0.77c-0.01,0-0.03-0.01-0.04-0.01c-0.01,0-0.03,0-0.04-0.01l-3.85-0.89l18.24-2.26l3.49,7.25L74.06,63.28z M54.74,61.92
	l8.27,1.9c-0.47,1.55-1.1,3.04-1.91,4.46L54.74,61.92z M61.87,48.18c1.3,2.75,2.01,5.75,2.08,8.82l-9.52,1.18
	c0.05-0.82,0.01-1.64-0.11-2.46L61.87,48.18z M89.31,20.74l2.32,2.31L79.36,55.1l-0.38,0.05c-0.12-1.87-0.37-3.73-0.78-5.56
	c-0.18-0.81-0.98-1.32-1.79-1.14c-0.81,0.18-1.32,0.98-1.14,1.79c0.38,1.73,0.62,3.5,0.72,5.28l-9.05,1.12
	c-0.13-3.75-1.1-7.4-2.84-10.69l6.65-6.65c1.16,1.81,2.15,3.74,2.96,5.79c0.23,0.59,0.8,0.95,1.4,0.95c0.18,0,0.37-0.03,0.55-0.11
	c0.77-0.3,1.15-1.18,0.84-1.95c-0.96-2.44-2.18-4.73-3.59-6.85l5.7-5.7c0,0,0,0,0,0s0,0,0,0L89.31,20.74z M76.62,8.04l2.31,2.32
	L68.24,21.05c0,0-0.01,0-0.01,0.01s0,0.01-0.01,0.01l-5.7,5.7c-5.64-3.74-12.11-5.83-18.9-6.09L76.62,8.04z M44.44,34.25
	c0,0,0,0.01,0,0.01c0,0,0,0,0,0.01c-0.33,1.59-1.74,2.79-3.43,2.79c-0.96,0-1.83-0.39-2.47-1.02c-0.01-0.01-0.02-0.02-0.02-0.02
	c-0.63-0.63-1.02-1.5-1.02-2.46c0-1.93,1.57-3.51,3.51-3.51c1.93,0,3.51,1.57,3.51,3.51C44.51,33.8,44.49,34.03,44.44,34.25z
	 M34.52,33.94c-1.87,0.6-3.64,1.43-5.31,2.46l-6.55-6.55c2.52-1.79,5.25-3.24,8.15-4.27c0.77-0.27,1.54-0.51,2.32-0.73l1.6,6.98
	c-0.15,0.55-0.24,1.13-0.24,1.73C34.5,33.69,34.51,33.81,34.52,33.94z M14.53,37.95l6.56,6.56c-1.15,1.86-2.04,3.86-2.66,5.97
	l-8.9-2.04C10.56,44.7,12.24,41.17,14.53,37.95z M29.63,53.06l-8.28-1.9c0.47-1.56,1.11-3.06,1.91-4.47L29.63,53.06z M33.49,48.79
	c-0.67,0.67-1.23,1.4-1.71,2.17l-13.3-13.3l3.88-3.88l7.27,7.27c0.29,0.29,0.68,0.44,1.06,0.44s0.77-0.15,1.06-0.44
	c0.59-0.59,0.59-1.54,0-2.12l-0.36-0.36c1.26-0.73,2.6-1.3,3.99-1.76c0.22,0.37,0.47,0.72,0.75,1.04l1.63,7.09l-2.02-2.02
	c-0.59-0.59-1.54-0.59-2.12,0c-0.59,0.59-0.59,1.54,0,2.12l2.05,2.05C34.89,47.56,34.16,48.13,33.49,48.79z M40.91,45.27l-1.23-5.35
	c0.43,0.09,0.87,0.14,1.32,0.14c2.63,0,4.89-1.57,5.92-3.82c1.58,0.35,3.12,0.86,4.57,1.55l-7.56,7.55
	C42.93,45.2,41.92,45.17,40.91,45.27z M47.23,46.29l9.7-9.69c0.59-0.59,0.59-1.54,0-2.12c-0.59-0.59-1.54-0.59-2.12,0l-1.09,1.09
	c-1.96-1.04-4.04-1.8-6.22-2.27c-0.14-3.47-2.99-6.25-6.49-6.25c-1.5,0-2.87,0.51-3.97,1.36l-0.97-4.24c2-0.37,4.05-0.56,6.12-0.56
	c6.51,0,12.76,1.85,18.18,5.31l-1.58,1.58c-0.59,0.59-0.59,1.54,0,2.12c0.29,0.29,0.68,0.44,1.06,0.44s0.77-0.15,1.06-0.44
	l8.38-8.38l6.14,6.14L53.38,52.44c-0.59-1.32-1.42-2.56-2.5-3.65C49.8,47.71,48.55,46.89,47.23,46.29z M46.61,70.03l6.38,6.38
	c-1.42,0.81-2.92,1.45-4.47,1.92L46.61,70.03z M49.19,81.25c2.1-0.61,4.1-1.51,5.97-2.67l6.56,6.56c-3.22,2.29-6.75,3.96-10.49,5
	L49.19,81.25z M62.01,81.19l-5.59-5.59c0,0,0,0-0.01-0.01l-7.7-7.7c0.78-0.49,1.51-1.05,2.17-1.71c0.67-0.67,1.23-1.4,1.71-2.17
	l7.71,7.71c0,0,0,0,0,0l5.59,5.59L62.01,81.19z M86.18,64.96L82.36,57l3.85-3.85l5.8-2.49l2.58,2.58l-1.73,4.03l-2.47-2.47
	c-0.59-0.59-1.54-0.59-2.12,0s-0.59,1.54,0,2.12l2.97,2.97L86.18,64.96z"/>
</svg>
