<?xml version="1.0" encoding="utf-8"?>
<!-- Generator: Adobe Illustrator 24.1.0, SVG Export Plug-In . SVG Version: 6.00 Build 0)  -->
<svg version="1.1" id="Layer_1" xmlns="http://www.w3.org/2000/svg" xmlns:xlink="http://www.w3.org/1999/xlink" x="0px" y="0px"
	 viewBox="0 0 100 100" style="enable-background:new 0 0 100 100;" xml:space="preserve">
<path d="M66.29,11.91c2.76,0,5-2.24,5-5s-2.24-5-5-5s-5,2.24-5,5S63.54,11.91,66.29,11.91z M66.29,4.91c1.1,0,2,0.9,2,2s-0.9,2-2,2
	s-2-0.9-2-2S65.19,4.91,66.29,4.91z M8.06,67.36c-2.76,0-5,2.24-5,5s2.24,5,5,5s5-2.24,5-5S10.82,67.36,8.06,67.36z M8.06,74.36
	c-1.1,0-2-0.9-2-2s0.9-2,2-2s2,0.9,2,2S9.16,74.36,8.06,74.36z M4.56,63.65c-1.38,0-2.5-1.12-2.5-2.5c0-1.38,1.12-2.5,2.5-2.5
	c1.38,0,2.5,1.12,2.5,2.5C7.06,62.53,5.94,63.65,4.56,63.65z M20.18,9.41c0-1.38,1.12-2.5,2.5-2.5s2.5,1.12,2.5,2.5
	s-1.12,2.5-2.5,2.5S20.18,10.79,20.18,9.41z M93.69,21.41c1.38,0,2.5,1.12,2.5,2.5s-1.12,2.5-2.5,2.5c-1.38,0-2.5-1.12-2.5-2.5
	S92.31,21.41,93.69,21.41z M96.19,72.15c0,1.38-1.12,2.5-2.5,2.5c-1.38,0-2.5-1.12-2.5-2.5c0-1.38,1.12-2.5,2.5-2.5
	C95.07,69.65,96.19,70.77,96.19,72.15z M24.37,79.65c-1.38,0-2.5-1.12-2.5-2.5c0-1.38,1.12-2.5,2.5-2.5c1.38,0,2.5,1.12,2.5,2.5
	C26.87,78.54,25.75,79.65,24.37,79.65z M53.37,12.91c0-1.38,1.12-2.5,2.5-2.5c1.38,0,2.5,1.12,2.5,2.5s-1.12,2.5-2.5,2.5
	C54.49,15.41,53.37,14.29,53.37,12.91z M4.48,18.91c0-0.83,0.67-1.5,1.5-1.5h3.5v-3.5c0-0.83,0.67-1.5,1.5-1.5s1.5,0.67,1.5,1.5v3.5
	h3.5c0.83,0,1.5,0.67,1.5,1.5s-0.67,1.5-1.5,1.5h-3.5v3.5c0,0.83-0.67,1.5-1.5,1.5s-1.5-0.67-1.5-1.5v-3.5h-3.5
	C5.15,20.41,4.48,19.74,4.48,18.91z M79.47,12.91c0-0.83,0.67-1.5,1.5-1.5h3.5v-3.5c0-0.83,0.67-1.5,1.5-1.5s1.5,0.67,1.5,1.5v3.5
	h3.5c0.83,0,1.5,0.67,1.5,1.5s-0.67,1.5-1.5,1.5h-3.5v3.5c0,0.83-0.67,1.5-1.5,1.5s-1.5-0.67-1.5-1.5v-3.5h-3.5
	C80.15,14.41,79.47,13.74,79.47,12.91z M57.58,20.9c0.08,0.05,0.15,0.12,0.22,0.18c0.28,0.28,0.44,0.67,0.44,1.07
	c0,0.09-0.01,0.19-0.03,0.29c-0.01,0.09-0.04,0.19-0.08,0.28c-0.04,0.09-0.09,0.18-0.14,0.26c-0.05,0.08-0.12,0.16-0.19,0.23
	c-0.07,0.06-0.14,0.13-0.22,0.18c-0.09,0.06-0.17,0.1-0.26,0.14c-0.09,0.04-0.19,0.07-0.28,0.09c-0.1,0.02-0.2,0.03-0.3,0.03
	c-0.09,0-0.19-0.01-0.29-0.03c-0.1-0.02-0.19-0.05-0.28-0.09s-0.18-0.08-0.26-0.14c-0.08-0.05-0.16-0.12-0.23-0.18
	c-0.07-0.07-0.13-0.15-0.18-0.23c-0.06-0.08-0.1-0.17-0.14-0.26c-0.04-0.09-0.07-0.19-0.09-0.28c-0.02-0.1-0.03-0.2-0.03-0.29
	c0-0.4,0.16-0.79,0.44-1.07c0.07-0.06,0.15-0.13,0.23-0.18c0.08-0.06,0.17-0.1,0.26-0.14s0.18-0.07,0.28-0.09
	c0.19-0.04,0.39-0.04,0.59,0c0.09,0.02,0.19,0.05,0.28,0.09C57.41,20.8,57.49,20.84,57.58,20.9z M31.31,16.88
	c3.65,0,7.1,1.33,9.8,3.76h9.63c0.83,0,1.5,0.67,1.5,1.5s-0.67,1.5-1.5,1.5h-7.07c0.61,0.96,1.12,1.98,1.49,3.05
	c0.27,0.78-0.14,1.64-0.92,1.91c-0.16,0.06-0.33,0.08-0.5,0.08c-0.62,0-1.2-0.39-1.42-1c-0.58-1.65-1.55-3.18-2.8-4.42
	c-0.02-0.02-0.04-0.03-0.06-0.05c-2.19-2.15-5.09-3.33-8.16-3.33c-6.44,0-11.68,5.23-11.68,11.67c0,1.74,0.41,3.45,1.16,5.01h4.72
	c0.83,0,1.5,0.67,1.5,1.5s-0.67,1.5-1.5,1.5h-5.65c-0.01,0-0.01,0-0.02,0h-5.48c-1.12,0-2.2,0.24-3.19,0.72
	c-0.21,0.1-0.43,0.15-0.65,0.15c-0.56,0-1.09-0.31-1.35-0.85c-0.36-0.75-0.05-1.64,0.7-2c1.4-0.68,2.91-1.02,4.49-1.02h3.15
	c-0.58-1.6-0.88-3.3-0.88-5.01C16.63,23.46,23.22,16.88,31.31,16.88z M61.24,22.14c0-0.83,0.67-1.5,1.5-1.5h9.72
	c8.09,0,14.67,6.59,14.67,14.68c0,0.45-0.02,0.9-0.06,1.34c5.07,0.7,8.99,5.06,8.99,10.32c0,3.54-1.75,6.75-4.64,8.67
	c0.26,0.92,0.39,1.86,0.39,2.8c0,3.25-1.48,6.26-4.05,8.25c-0.27,0.21-0.6,0.31-0.92,0.31c-0.45,0-0.89-0.2-1.19-0.58
	c-0.51-0.66-0.38-1.6,0.27-2.1c1.83-1.42,2.89-3.56,2.89-5.87c0-0.97-0.2-1.95-0.6-2.9c0-0.01,0-0.01-0.01-0.02
	c-0.46-1.07-1.18-2.04-2.09-2.8c-0.64-0.53-0.72-1.48-0.19-2.11c0.53-0.64,1.48-0.72,2.11-0.19c0.83,0.69,1.53,1.52,2.11,2.42
	c1.82-1.38,2.91-3.52,2.91-5.87c0-4.09-3.33-7.42-7.43-7.42c-0.16,0-0.32-0.03-0.48-0.08l-0.27-0.09c-0.72-0.24-1.15-0.98-0.99-1.73
	c0.16-0.77,0.24-1.53,0.24-2.34c0-6.44-5.24-11.68-11.67-11.68h-9.72C61.91,23.64,61.24,22.97,61.24,22.14z M52.41,32.19
	C55.16,29.49,58.8,28,62.67,28c4.04,0,7.79,1.6,10.57,4.51c0.57,0.6,0.55,1.55-0.05,2.12c-0.29,0.28-0.66,0.42-1.04,0.42
	c-0.39,0-0.79-0.16-1.08-0.46c-2.21-2.31-5.2-3.59-8.41-3.59c-3.08,0-5.97,1.18-8.16,3.33c-0.59,0.58-1.54,0.57-2.12-0.02
	C51.81,33.72,51.82,32.77,52.41,32.19z M76.67,38.29c0.44,1.41,0.67,2.89,0.67,4.38c0,0.83-0.67,1.5-1.5,1.5s-1.5-0.67-1.5-1.5
	c0-1.19-0.18-2.36-0.53-3.48c-0.25-0.79,0.19-1.63,0.98-1.88C75.58,37.06,76.42,37.5,76.67,38.29z M40.96,36.68
	c2.64,0,5.12,1.01,6.99,2.86c0.59,0.58,0.6,1.53,0.02,2.12c-0.58,0.59-1.53,0.6-2.12,0.02c-1.31-1.29-3.04-1.99-4.89-1.99
	c-3.86,0-6.99,3.14-6.99,6.99c0,0.83-0.67,1.5-1.5,1.5s-1.5-0.67-1.5-1.5C30.96,41.16,35.44,36.68,40.96,36.68z M67.69,51.45
	c0.3,0.77-0.07,1.64-0.84,1.95c-0.18,0.07-0.37,0.11-0.55,0.11c-0.6,0-1.16-0.36-1.39-0.95c-0.4-1.01-1.17-1.81-2.18-2.26
	c-2.09-0.93-4.55,0.02-5.48,2.12c-0.33,0.76-1.22,1.1-1.98,0.76c-0.76-0.34-1.1-1.22-0.76-1.98c1.6-3.61,5.83-5.24,9.44-3.65
	C65.66,48.32,66.99,49.71,67.69,51.45z M93.69,80.14h-6.83c-2.92,0-5.62,1.35-7.39,3.59c-0.93-0.51-1.95-0.87-3.03-1.05
	c-0.95-3.6-3.96-6.31-7.62-6.9V70.8c2.47-0.59,4.62-2.16,5.93-4.33c1.75,1.45,3.96,2.34,6.34,2.41c0.82,0.05,1.52-0.63,1.54-1.46
	c0.02-0.83-0.63-1.52-1.46-1.54c-3.13-0.09-5.88-2.15-6.85-5.13c0-0.01,0-0.01,0-0.02c-0.23-0.74-0.35-1.51-0.35-2.27
	c0-0.33,0.03-0.64,0.06-0.96c0.09-0.82-0.51-1.56-1.33-1.65c-0.82-0.09-1.56,0.51-1.65,1.33c-0.04,0.34-0.08,0.79-0.08,1.28
	c0,0.41,0.03,0.81,0.08,1.22H50.36c-2.64,0-5.03-1.36-6.39-3.65c-0.01-0.01-0.01-0.02-0.02-0.02c-0.66-1.13-1.02-2.42-1.02-3.75
	c0-0.83-0.67-1.5-1.5-1.5s-1.5,0.67-1.5,1.5c0,1.04,0.17,2.06,0.47,3.04H30.27c-0.05,0-0.1,0.01-0.15,0.02
	c-0.06,0.01-0.11,0.01-0.17,0.02c-0.03,0.01-0.06,0.02-0.1,0.03c-0.07,0.02-0.14,0.04-0.21,0.07c-0.03,0.01-0.05,0.03-0.08,0.04
	c-0.07,0.04-0.13,0.07-0.19,0.12c-0.02,0.02-0.04,0.04-0.07,0.06c-0.06,0.05-0.12,0.1-0.17,0.16c-0.01,0.01-0.02,0.02-0.03,0.03
	c-0.01,0.01-0.01,0.02-0.02,0.03c-0.05,0.07-0.1,0.14-0.14,0.21c-0.01,0.02-0.02,0.03-0.03,0.05c-0.04,0.08-0.07,0.17-0.1,0.26
	c0,0.01-0.01,0.02-0.01,0.03c-0.03,0.1-0.04,0.21-0.05,0.31c0,0,0,0,0,0c0,0.02-0.01,0.04-0.01,0.06c0,0.11,0.01,0.22,0.04,0.32
	c0.08,0.46,0.13,0.91,0.13,1.33c0,4.1-3.33,7.43-7.42,7.43c-4.1,0-7.43-3.33-7.43-7.43c0-0.75,0.11-1.49,0.33-2.21
	c0-0.01,0-0.02,0-0.02c0.34-1.08,0.94-2.09,1.74-2.92c0.57-0.6,0.55-1.55-0.04-2.12c-0.6-0.57-1.55-0.56-2.12,0.04
	c-0.79,0.83-1.44,1.79-1.93,2.82c-3.02-0.98-5.12-3.78-5.12-7.06c0-1.11,0.25-2.21,0.72-3.19c0.36-0.75,0.05-1.64-0.7-2
	c-0.75-0.36-1.64-0.05-2,0.7c-0.67,1.38-1.02,2.93-1.02,4.49c0,4.63,2.96,8.58,7.24,9.94c-0.07,0.51-0.11,1.02-0.11,1.53
	c0,5.75,4.68,10.43,10.43,10.43c1.82,0,3.53-0.47,5.02-1.29c1.77,1.92,4.26,3.04,6.92,3.04c0.02,0,0.03,0,0.05,0h3.11v1.53
	c0,2.04,0.67,3.96,1.8,5.53c-0.93,1.01-1.62,2.21-2.04,3.52c-0.09,0-0.18-0.02-0.27-0.02c-4.7,0-8.59,3.45-9.31,7.95h-2.43
	c-0.68-2.86-3.25-5-6.32-5h-1c-0.83,0-1.5,0.67-1.5,1.5s0.67,1.5,1.5,1.5h1c1.39,0,2.59,0.82,3.15,2h-6.15c-0.83,0-1.5,0.67-1.5,1.5
	s0.67,1.5,1.5,1.5h21.24c1.39,0,2.59,0.82,3.15,2h-3.39c-0.83,0-1.5,0.67-1.5,1.5s0.67,1.5,1.5,1.5h15c0.83,0,1.5-0.67,1.5-1.5v-1
	c0-3.58,2.92-6.5,6.5-6.5h0.24c1.99,0,3.81,0.89,5.02,2.37c-2.06,0.8-3.52,2.79-3.52,5.13c0,0.83,0.67,1.5,1.5,1.5s1.5-0.67,1.5-1.5
	c0-1.38,1.12-2.5,2.5-2.5h0.37c0.02,0,0.05,0,0.07,0h3.84c0.83,0,1.5-0.67,1.5-1.5s-0.67-1.5-1.5-1.5h-2.94
	c-1.65-3.06-4.81-5-8.34-5h-0.24c-5.07,0-9.23,3.99-9.49,9H42.6c-0.68-2.86-3.25-5-6.32-5h-6.44c0.68-2.83,3.22-4.95,6.26-4.95
	c1.28,0,2.51,0.37,3.57,1.08c0.69,0.46,1.62,0.27,2.08-0.42c0.46-0.69,0.27-1.62-0.42-2.08c-0.62-0.42-1.3-0.73-1.99-0.98
	c0.27-0.72,0.67-1.39,1.18-1.97c1.06,0.77,2.28,1.33,3.63,1.6c0.1,0.02,0.2,0.03,0.3,0.03c0.7,0,1.32-0.49,1.47-1.2
	c0.17-0.81-0.36-1.6-1.17-1.77c-2.98-0.61-5.14-3.27-5.14-6.31v-1.53h1.79c0.83,0,1.5-0.67,1.5-1.5s-0.67-1.5-1.5-1.5h-7.94
	c-0.01,0-0.02,0-0.03,0c-1.7-0.01-3.3-0.69-4.49-1.86c0.67-0.68,1.25-1.46,1.72-2.31c0.81,0.72,1.91,1.17,3.34,1.17
	c0.02,0,0.03,0,0.05,0h7.35c0.83,0,1.5-0.67,1.5-1.5s-0.67-1.5-1.5-1.5h-1.79v-3.33h2.26c1.17,1.63,2.79,2.87,4.61,3.61v7.57
	c0,0.83,0.67,1.5,1.5,1.5s1.5-0.67,1.5-1.5v-0.65c3.03-0.62,5.4-3.08,5.89-6.15h10.43v0.65c0,0.83,0.67,1.5,1.5,1.5
	s1.5-0.67,1.5-1.5v-0.65h3.02c0.21,0.48,0.47,0.94,0.75,1.38c-0.98,2.38-3.32,4-5.94,4h-2.49c-0.83,0-1.5,0.67-1.5,1.5
	s0.67,1.5,1.5,1.5h1.65v6.05c0,0.02,0,0.03,0,0.05c0,0.52,0.26,0.97,0.66,1.24c0.24,0.16,0.53,0.26,0.84,0.26c0.01,0,0.01,0,0.02,0
	c2.66,0.01,4.97,1.67,5.94,4.04c-0.7,0.12-1.39,0.31-2.05,0.59c-0.76,0.32-1.12,1.2-0.8,1.96s1.2,1.13,1.96,0.8
	c0.79-0.33,1.64-0.5,2.52-0.5c1.49,0,2.86,0.5,3.95,1.35c0.04,0.04,0.09,0.08,0.14,0.11c0.97,0.79,1.69,1.86,2.07,3.09h-4.46
	c-0.83,0-1.5,0.67-1.5,1.5s0.67,1.5,1.5,1.5h6.21c0.01,0,0.02,0,0.03,0c0.02,0,0.05,0,0.07,0c0,0,0,0,0.01,0h6.37
	c0.83,0,1.5-0.67,1.5-1.5s-0.67-1.5-1.5-1.5h-5.14c-0.35-1.73-1.17-3.28-2.31-4.53c1.21-1.52,3.05-2.44,5.03-2.44h6.83
	c0.83,0,1.5-0.67,1.5-1.5S94.52,80.14,93.69,80.14z M36.61,61.62h-2.62c-0.01,0-0.02,0-0.03,0c-1.37-0.01-2.07-0.83-2.07-2.45
	c0-0.01,0-0.01,0-0.02c0.02-0.23,0.04-0.47,0.04-0.71c0-0.05,0-0.11,0-0.16h4.68V61.62z M49.48,65.7v-3.08
	c0.29,0.02,0.58,0.05,0.88,0.05h1.94C51.91,64.08,50.85,65.21,49.48,65.7z M12.51,85.61c0,0.83-0.67,1.5-1.5,1.5H8.06
	c-0.83,0-1.5-0.67-1.5-1.5s0.67-1.5,1.5-1.5h2.95C11.84,84.11,12.51,84.78,12.51,85.61z M58.27,70.13c0.83,0,1.5,0.67,1.5,1.5v7.16
	c0,0.83-0.67,1.5-1.5,1.5s-1.5-0.67-1.5-1.5v-7.16C56.77,70.8,57.45,70.13,58.27,70.13z M52.27,76.13c0.83,0,1.5,0.67,1.5,1.5v4.16
	c0,0.83-0.67,1.5-1.5,1.5s-1.5-0.67-1.5-1.5v-4.16C50.77,76.8,51.45,76.13,52.27,76.13z"/>
</svg>
