<?xml version="1.0" encoding="utf-8"?>
<!-- Generator: Adobe Illustrator 24.1.0, SVG Export Plug-In . SVG Version: 6.00 Build 0)  -->
<svg version="1.1" id="Layer_1" xmlns="http://www.w3.org/2000/svg" xmlns:xlink="http://www.w3.org/1999/xlink" x="0px" y="0px"
	 viewBox="0 0 100 100" style="enable-background:new 0 0 100 100;" xml:space="preserve">
<path d="M89.34,26.41c2.76,0,5-2.24,5-5s-2.24-5-5-5s-5,2.24-5,5S86.58,26.41,89.34,26.41z M89.34,19.41c1.1,0,2,0.9,2,2s-0.9,2-2,2
	s-2-0.9-2-2S88.24,19.41,89.34,19.41z M97.84,32.08c0,1.38-1.12,2.5-2.5,2.5c-1.38,0-2.5-1.12-2.5-2.5c0-1.38,1.12-2.5,2.5-2.5
	C96.72,29.58,97.84,30.69,97.84,32.08z M24.57,5.94c0-1.38,1.12-2.5,2.5-2.5c1.38,0,2.5,1.12,2.5,2.5c0,1.38-1.12,2.5-2.5,2.5
	C25.69,8.44,24.57,7.32,24.57,5.94z M7.17,26.82c-1.38,0-2.5-1.12-2.5-2.5c0-1.38,1.12-2.5,2.5-2.5c1.38,0,2.5,1.12,2.5,2.5
	C9.67,25.7,8.55,26.82,7.17,26.82z M11.17,79.68c0,1.38-1.12,2.5-2.5,2.5c-1.38,0-2.5-1.12-2.5-2.5s1.12-2.5,2.5-2.5
	C10.05,77.18,11.17,78.3,11.17,79.68z M6.17,67.68c0,1.38-1.12,2.5-2.5,2.5c-1.38,0-2.5-1.12-2.5-2.5s1.12-2.5,2.5-2.5
	C5.05,65.18,6.17,66.3,6.17,67.68z M90.63,58.28c1.38,0,2.5,1.12,2.5,2.5s-1.12,2.5-2.5,2.5c-1.38,0-2.5-1.12-2.5-2.5
	S89.25,58.28,90.63,58.28z M12.67,11.82v3.5c0,0.83-0.67,1.5-1.5,1.5s-1.5-0.67-1.5-1.5v-3.5h-3.5c-0.83,0-1.5-0.67-1.5-1.5
	s0.67-1.5,1.5-1.5h3.5v-3.5c0-0.83,0.67-1.5,1.5-1.5s1.5,0.67,1.5,1.5v3.5h3.5c0.83,0,1.5,0.67,1.5,1.5s-0.67,1.5-1.5,1.5H12.67z
	 M81.63,47.6c0-0.83,0.67-1.5,1.5-1.5h3.5v-3.5c0-0.83,0.67-1.5,1.5-1.5s1.5,0.67,1.5,1.5v3.5h3.5c0.83,0,1.5,0.67,1.5,1.5
	s-0.67,1.5-1.5,1.5h-3.5v3.5c0,0.83-0.67,1.5-1.5,1.5s-1.5-0.67-1.5-1.5v-3.5h-3.5C82.3,49.1,81.63,48.43,81.63,47.6z M17.67,66.36
	V89c0,0.83-0.67,1.5-1.5,1.5s-1.5-0.67-1.5-1.5V66.36c0-0.83,0.67-1.5,1.5-1.5S17.67,65.53,17.67,66.36z M46.14,55.77
	c0.74-0.21,1.51-0.47,2.3-0.77l0.85-0.33c2.21-0.87,4.56-1.46,6.97-1.75c0.82-0.11,1.57,0.49,1.67,1.31s-0.49,1.57-1.31,1.67
	c-2.16,0.26-4.26,0.79-6.24,1.57l-0.86,0.33c-0.88,0.34-1.75,0.63-2.58,0.87c-0.14,0.04-0.27,0.06-0.41,0.06
	c-0.66,0-1.26-0.43-1.44-1.09C44.88,56.82,45.35,55.99,46.14,55.77z M22.25,61.06l-0.84,0.33c-2.26,0.88-4.61,1.47-6.99,1.76
	c-0.06,0.01-0.12,0.01-0.18,0.01c-0.75,0-1.4-0.56-1.49-1.32c-0.1-0.82,0.49-1.57,1.31-1.67c2.13-0.26,4.23-0.78,6.24-1.57
	l0.84-0.33c3.41-1.32,6.95-1.99,10.56-1.99c1.25,0,2.5,0.09,3.84,0.26c1.69,0.23,3.4,0.28,5.08,0.17c0.83-0.05,1.54,0.57,1.6,1.4
	c0.06,0.83-0.57,1.54-1.4,1.6c-1.88,0.13-3.79,0.06-5.68-0.19c-1.2-0.16-2.33-0.24-3.44-0.24C28.48,59.28,25.3,59.88,22.25,61.06z
	 M32.45,66.66c-0.01-0.05-0.01-0.1-0.02-0.15c0,0,0,0,0-0.01c-0.01-0.03-0.02-0.06-0.03-0.09c-0.02-0.06-0.03-0.12-0.06-0.18
	c-0.02-0.05-0.05-0.09-0.08-0.14c-0.02-0.04-0.04-0.08-0.06-0.11c-0.04-0.05-0.08-0.1-0.12-0.15c-0.02-0.02-0.04-0.05-0.06-0.07
	c-0.05-0.05-0.1-0.09-0.15-0.13c-0.02-0.02-0.04-0.04-0.07-0.05c-0.06-0.04-0.12-0.07-0.19-0.1c-0.02-0.01-0.04-0.02-0.07-0.03
	c-0.07-0.03-0.15-0.05-0.23-0.07c-0.02,0-0.03-0.01-0.05-0.01c-0.09-0.02-0.18-0.03-0.28-0.03c-0.01,0-0.01,0-0.02,0c0,0,0,0,0,0
	c-0.06,0-0.11,0.01-0.17,0.02c-0.05,0.01-0.1,0.01-0.14,0.02c0,0,0,0,0,0l-7.78,1.68c0,0-0.01,0-0.01,0l-0.01,0
	c-0.02,0-0.04,0.01-0.06,0.02c-0.08,0.02-0.15,0.04-0.22,0.07c-0.04,0.02-0.07,0.04-0.11,0.06c-0.05,0.03-0.1,0.05-0.14,0.08
	c-0.04,0.03-0.08,0.06-0.11,0.09c-0.04,0.03-0.07,0.06-0.11,0.09c-0.03,0.03-0.06,0.07-0.09,0.11c-0.03,0.04-0.06,0.07-0.09,0.11
	c-0.03,0.04-0.04,0.08-0.07,0.12c-0.02,0.04-0.05,0.09-0.07,0.13c-0.02,0.05-0.03,0.1-0.05,0.15c-0.01,0.04-0.03,0.08-0.04,0.12
	c-0.01,0.07-0.02,0.14-0.02,0.21c0,0.03-0.01,0.05-0.01,0.08v0.01c0,0,0,0,0,0.01v6.99c0,0,0,0,0,0.01v1.98c0,0.83,0.67,1.5,1.5,1.5
	s1.5-0.67,1.5-1.5v-0.79l4.8-1.04v3.93l-6.6,1.42c0,0-0.01,0-0.01,0l-0.01,0c-0.02,0-0.04,0.01-0.06,0.02
	c-0.08,0.02-0.15,0.04-0.22,0.07c-0.04,0.02-0.07,0.04-0.11,0.06c-0.05,0.03-0.1,0.05-0.14,0.08c-0.04,0.03-0.08,0.06-0.11,0.09
	c-0.04,0.03-0.07,0.06-0.11,0.09c-0.03,0.03-0.06,0.07-0.09,0.11c-0.03,0.04-0.06,0.07-0.09,0.11c-0.03,0.04-0.04,0.08-0.07,0.12
	c-0.02,0.04-0.05,0.09-0.07,0.13c-0.02,0.05-0.03,0.1-0.05,0.15c-0.01,0.04-0.03,0.08-0.04,0.12c-0.01,0.07-0.02,0.14-0.02,0.21
	c0,0.03-0.01,0.05-0.01,0.08v0.01c0,0,0,0,0,0.01v6.99c0,0,0,0,0,0.01v4.44c0,0.83,0.67,1.5,1.5,1.5s1.5-0.67,1.5-1.5v-3.24
	l3.18-0.69c0.81-0.17,1.32-0.97,1.15-1.78s-0.97-1.33-1.78-1.15l-2.54,0.55v-3.93l4.8-1.04v0.6c0,0.83,0.67,1.5,1.5,1.5
	s1.5-0.67,1.5-1.5v-2.47c0,0,0,0,0-0.01v-6.99c0,0,0,0,0-0.01v-6.98c0,0,0,0,0-0.01C32.47,66.77,32.46,66.72,32.45,66.66z
	 M24.67,73.65v-3.93l4.8-1.04v3.93L24.67,73.65z M45.13,71.76c0.18,0.81-0.34,1.61-1.15,1.78l-7.69,1.67
	c-0.11,0.02-0.21,0.03-0.32,0.03c-0.69,0-1.31-0.48-1.46-1.18c-0.18-0.81,0.34-1.61,1.15-1.78l7.69-1.67
	C44.15,70.44,44.95,70.96,45.13,71.76z M43.98,79.55l-7.69,1.67c-0.11,0.02-0.21,0.03-0.32,0.03c-0.69,0-1.31-0.48-1.46-1.18
	c-0.18-0.81,0.34-1.61,1.15-1.78l7.69-1.67c0.81-0.18,1.61,0.34,1.78,1.15S44.79,79.37,43.98,79.55z M42.31,84.2
	c0.17,0.81-0.34,1.61-1.15,1.78l-0.48,0.1V96c0,0.83-0.67,1.5-1.5,1.5s-1.5-0.67-1.5-1.5V84.91c0-0.12,0.01-0.23,0.03-0.34
	c0-0.02,0.01-0.03,0.01-0.05c0.02-0.08,0.04-0.15,0.07-0.23c0.02-0.04,0.04-0.08,0.06-0.11c0.02-0.05,0.05-0.09,0.07-0.14
	c0.03-0.05,0.07-0.09,0.11-0.13c0.02-0.03,0.05-0.06,0.07-0.09c0.05-0.05,0.11-0.1,0.16-0.14c0.02-0.01,0.03-0.03,0.05-0.04
	c0.17-0.12,0.37-0.21,0.59-0.25l1.62-0.35C41.33,82.87,42.13,83.39,42.31,84.2z M12.79,55.59c-0.17-0.81,0.34-1.61,1.15-1.78
	l8.92-1.92c0.82-0.18,1.61,0.34,1.78,1.15s-0.34,1.61-1.15,1.78l-8.92,1.92c-0.11,0.02-0.21,0.03-0.32,0.03
	C13.56,56.78,12.94,56.3,12.79,55.59z M56.77,62.25l-15.89,3.42c-0.11,0.02-0.21,0.03-0.32,0.03c-0.69,0-1.31-0.48-1.46-1.18
	c-0.17-0.81,0.34-1.61,1.15-1.78l15.89-3.42c0.81-0.17,1.61,0.34,1.78,1.15C58.09,61.28,57.58,62.08,56.77,62.25z M94.63,74.92
	v-0.01c0-0.02-0.01-0.04-0.01-0.07c0-0.05-0.01-0.09-0.01-0.14c0-0.03,0-0.06-0.01-0.09c0-0.02-0.01-0.05-0.02-0.07
	c-0.01-0.04-0.02-0.08-0.04-0.12c-0.01-0.03-0.02-0.06-0.03-0.09c-0.01-0.02-0.02-0.04-0.03-0.06c-0.02-0.04-0.04-0.08-0.06-0.11
	c-0.02-0.03-0.03-0.05-0.04-0.08c-0.01-0.02-0.03-0.04-0.05-0.06c-0.02-0.03-0.05-0.06-0.08-0.1c-0.02-0.02-0.04-0.05-0.06-0.07
	c-0.02-0.02-0.04-0.04-0.06-0.06c-0.02-0.01-0.03-0.03-0.05-0.05L81.13,62.97c-0.56-0.46-1.37-0.46-1.92,0l-3.68,3.08V55.85
	c0-0.83-0.67-1.5-1.5-1.5s-1.5,0.67-1.5,1.5v12.72l-5.04,4.22c-0.02,0.01-0.03,0.03-0.04,0.04c-0.02,0.02-0.04,0.04-0.06,0.06
	c-0.02,0.02-0.04,0.05-0.06,0.07c-0.03,0.03-0.05,0.06-0.08,0.09c-0.01,0.02-0.03,0.04-0.04,0.06c-0.02,0.03-0.03,0.05-0.05,0.08
	c-0.02,0.04-0.04,0.07-0.06,0.11c-0.01,0.02-0.02,0.04-0.03,0.06c-0.01,0.03-0.02,0.06-0.03,0.09c-0.01,0.04-0.03,0.08-0.04,0.12
	c-0.01,0.02-0.01,0.04-0.02,0.07c-0.01,0.03-0.01,0.06-0.01,0.09c-0.01,0.05-0.01,0.09-0.01,0.14c0,0.02-0.01,0.04-0.01,0.06v0.01
	c0,0,0,0,0,0v6.56l-3,4.91V75c0-0.83-0.67-1.5-1.5-1.5s-1.5,0.67-1.5,1.5v21c0,0.83,0.67,1.5,1.5,1.5s1.5-0.67,1.5-1.5v-6.69
	c0.09,0.02,0.18,0.04,0.27,0.04c0,0,0,0,0,0c0,0,0,0,0,0c0,0,0,0,0,0c0,0,0,0,0.01,0c0.1,0,0.21-0.01,0.31-0.03l2.41-0.52v3.15
	c0,0,0,0,0,0V96c0,0.83,0.67,1.5,1.5,1.5s1.5-0.67,1.5-1.5v-2.85l3.87-0.84c0.81-0.17,1.33-0.97,1.15-1.78
	c-0.17-0.81-0.97-1.33-1.78-1.15l-3.23,0.7v-1.93l4.69-1.01c0.01,0,0.02-0.01,0.03-0.01c0.03-0.01,0.07-0.02,0.1-0.03
	c0.08-0.02,0.16-0.05,0.23-0.09c0.03-0.02,0.07-0.04,0.1-0.06c0.07-0.04,0.14-0.09,0.2-0.15c0.03-0.02,0.05-0.04,0.08-0.06
	c0.08-0.08,0.16-0.17,0.22-0.27c0,0,0.01-0.01,0.01-0.01l1.44-2.36V94c0,0.83,0.67,1.5,1.5,1.5s1.5-0.67,1.5-1.5V78.74c0,0,0,0,0,0
	v-5.13l11.58,2.5v10.75c0,0.83,0.67,1.5,1.5,1.5s1.5-0.67,1.5-1.5V74.92C94.63,74.92,94.63,74.92,94.63,74.92z M80.18,66.07
	l7.3,6.08l-8.61-1.86c0,0,0,0,0,0c-0.08-0.02-0.15-0.02-0.23-0.03c-0.03,0-0.05-0.01-0.08-0.01c0,0,0,0,0,0c0,0,0,0,0,0
	c-0.04,0-0.07,0.01-0.11,0.01c-0.06,0-0.13,0.01-0.19,0.02c-0.01,0-0.01,0-0.02,0c0,0,0,0-0.01,0l-2.7,0.58v-0.91L80.18,66.07z
	 M73.38,84.34l-5.23,1.13c0,0-0.01,0-0.01,0l-0.81,0.17l2.06-3.38l6.05-1.31L73.38,84.34z M77.05,77.55l-7.1,1.53v-3.93l7.1-1.53
	V77.55z M75.41,49.43c0.04,0.09,0.07,0.18,0.09,0.28c0.02,0.09,0.03,0.19,0.03,0.29c0,0.4-0.16,0.78-0.44,1.06
	c-0.28,0.28-0.66,0.44-1.06,0.44c-0.2,0-0.39-0.04-0.57-0.11c-0.19-0.08-0.35-0.19-0.49-0.33c-0.14-0.14-0.25-0.3-0.33-0.49
	c-0.07-0.18-0.11-0.37-0.11-0.57c0-0.39,0.16-0.78,0.44-1.06c0.07-0.07,0.14-0.13,0.23-0.19c0.08-0.05,0.17-0.1,0.26-0.14
	c0.09-0.03,0.18-0.06,0.28-0.08c0.19-0.04,0.39-0.04,0.58,0c0.1,0.02,0.19,0.05,0.28,0.08c0.09,0.04,0.18,0.09,0.26,0.14
	c0.08,0.06,0.16,0.12,0.23,0.19c0.07,0.07,0.13,0.15,0.19,0.23C75.33,49.25,75.38,49.34,75.41,49.43z M69.95,47.51
	c0,0.83-0.67,1.5-1.5,1.5s-1.5-0.67-1.5-1.5v-3c0-0.83,0.67-1.5,1.5-1.5s1.5,0.67,1.5,1.5V47.51z M69.95,56.51
	c0,0.83-0.67,1.5-1.5,1.5s-1.5-0.67-1.5-1.5v-3c0-0.83,0.67-1.5,1.5-1.5s1.5,0.67,1.5,1.5V56.51z M87.34,79.68v2
	c0,0.83-0.67,1.5-1.5,1.5s-1.5-0.67-1.5-1.5v-2c0-0.83,0.67-1.5,1.5-1.5S87.34,78.85,87.34,79.68z M87.34,87.68v2
	c0,0.83-0.67,1.5-1.5,1.5s-1.5-0.67-1.5-1.5v-2c0-0.83,0.67-1.5,1.5-1.5S87.34,86.85,87.34,87.68z M69.95,62.51v3
	c0,0.83-0.67,1.5-1.5,1.5s-1.5-0.67-1.5-1.5v-3c0-0.83,0.67-1.5,1.5-1.5S69.95,61.68,69.95,62.51z M15.21,23.61
	c-0.63,0.53-0.72,1.48-0.19,2.11c0.41,0.49,1.07,0.65,1.65,0.45l0,4.17l-1.46,1.22c-0.02,0.01-0.03,0.03-0.05,0.05
	c-0.04,0.03-0.07,0.07-0.11,0.11c0,0-0.01,0.01-0.01,0.01c-0.02,0.02-0.04,0.04-0.05,0.06c-0.01,0.01-0.02,0.03-0.03,0.04
	c-0.03,0.04-0.05,0.08-0.08,0.12c-0.02,0.04-0.05,0.08-0.07,0.13c-0.01,0.03-0.03,0.06-0.04,0.09c-0.01,0.03-0.02,0.05-0.03,0.08
	c-0.01,0.03-0.02,0.07-0.03,0.1c-0.01,0.05-0.02,0.09-0.03,0.14c-0.01,0.05-0.01,0.1-0.02,0.16c0,0.01,0,0.02,0,0.03
	c0,0.01-0.01,0.02-0.01,0.04v8.13l0,4.87c0,0,0,0,0,0.01c0,0.01,0,0.02,0,0.03v4.12c0,0.83,0.67,1.5,1.5,1.5s1.5-0.67,1.5-1.5v-2.94
	l12.6-2.72v7.14c0,0.83,0.67,1.5,1.5,1.5s1.5-0.67,1.5-1.5v-9.01c0,0,0,0,0-0.01V30.55l4.57-0.99c0.02,0,0.04-0.01,0.05-0.01
	l6.2-1.34v5.93l-6.85,1.48c-0.81,0.18-1.32,0.97-1.15,1.78c0.15,0.7,0.77,1.18,1.46,1.18c0.1,0,0.21-0.01,0.32-0.03l6.21-1.34v2.14
	c0,0.27,0.08,0.52,0.21,0.74l-7.05,1.52c-0.81,0.18-1.32,0.97-1.15,1.78s0.97,1.32,1.78,1.15l6.21-1.34v3.5c0,0.83,0.67,1.5,1.5,1.5
	s1.5-0.67,1.5-1.5v-5.36c0-0.27-0.08-0.52-0.21-0.74l14.07-3.04v31.59c0,0.83,0.67,1.5,1.5,1.5s1.5-0.67,1.5-1.5V37.57l1.27,0.28
	c0.11,0.02,0.21,0.03,0.32,0.03c0.69,0,1.31-0.48,1.46-1.18c0.18-0.81-0.34-1.61-1.15-1.78l-1.91-0.41v-9.93l11.58,2.5V31
	l-5.47-1.18c-0.8-0.17-1.61,0.34-1.78,1.15c-0.18,0.81,0.34,1.61,1.15,1.78l6.11,1.32v2.93l-3.85-0.83
	c-0.81-0.17-1.61,0.34-1.78,1.15s0.34,1.61,1.15,1.78l1.49,0.32c0,0.03-0.01,0.05-0.01,0.08v0.01c0,0,0,0,0,0v4.62
	c0,0.83,0.67,1.5,1.5,1.5s1.5-0.67,1.5-1.5v-3.43l1.8-0.39c0,0,0.01,0,0.01,0l0.01,0c0.02-0.01,0.05-0.02,0.07-0.02
	c0.02-0.01,0.04-0.01,0.07-0.02c0.02-0.01,0.05-0.01,0.07-0.02c0.02-0.01,0.05-0.01,0.07-0.02c0.04-0.02,0.07-0.04,0.11-0.06
	c0.05-0.03,0.1-0.05,0.14-0.08c0.02-0.01,0.04-0.03,0.06-0.05c0.02-0.02,0.04-0.03,0.06-0.05c0.03-0.03,0.07-0.06,0.1-0.09
	c0.03-0.03,0.06-0.07,0.09-0.11c0.03-0.04,0.06-0.07,0.09-0.12c0-0.01,0.01-0.01,0.01-0.02c0.01-0.01,0.01-0.02,0.02-0.03
	c0.01-0.02,0.02-0.05,0.04-0.07c0.02-0.04,0.05-0.09,0.07-0.14c0.02-0.05,0.03-0.1,0.05-0.15c0.01-0.03,0.02-0.06,0.03-0.09
	c0-0.01,0-0.01,0.01-0.01c0,0,0,0,0-0.01c0-0.01,0-0.01,0-0.02c0.01-0.05,0.01-0.1,0.02-0.16c0-0.04,0.01-0.09,0.01-0.13
	c0,0,0,0,0,0v-0.01c0,0,0,0,0,0v-5.97c0,0,0,0,0,0v-7.01c0-0.04-0.01-0.08-0.01-0.12c0-0.06-0.01-0.12-0.02-0.17
	c-0.01-0.05-0.03-0.1-0.04-0.15c-0.01-0.04-0.02-0.09-0.04-0.13c-0.02-0.05-0.05-0.09-0.07-0.14c-0.02-0.04-0.04-0.08-0.06-0.12
	c-0.03-0.04-0.06-0.08-0.09-0.12c-0.03-0.04-0.06-0.08-0.09-0.11c-0.03-0.03-0.07-0.06-0.1-0.09c-0.04-0.03-0.07-0.07-0.12-0.1
	c-0.04-0.03-0.09-0.05-0.14-0.08c-0.04-0.02-0.08-0.05-0.12-0.06c-0.06-0.03-0.13-0.04-0.19-0.06c-0.03-0.01-0.06-0.02-0.09-0.03
	l-0.01,0c0,0,0,0,0,0l-0.58-0.12l0-2.33c0-0.83-0.67-1.5-1.5-1.5h0c-0.83,0-1.5,0.67-1.5,1.5l0,1.68l-2.21-0.48l0-5.44
	c0-0.52-0.26-0.98-0.67-1.25l1.18-0.99l3.23,2.69c0.28,0.23,0.62,0.35,0.96,0.35c0.43,0,0.86-0.18,1.15-0.54
	c0.53-0.64,0.44-1.58-0.19-2.11l-3.65-3.04v-4.3c0-0.83-0.67-1.5-1.5-1.5s-1.5,0.67-1.5,1.5v4.3l-0.21,0.18
	c-0.04-0.05-0.08-0.09-0.13-0.14l-3.65-3.04v-4.3c0-0.83-0.67-1.5-1.5-1.5s-1.5,0.67-1.5,1.5v4.3l-3.21,2.69L57.08,11
	c-0.01,0-0.01,0-0.02-0.01c-0.05-0.02-0.1-0.04-0.16-0.05c-0.04-0.01-0.09-0.03-0.13-0.04c-0.04-0.01-0.07-0.01-0.11-0.01
	c-0.06-0.01-0.13-0.02-0.19-0.02c-0.01,0-0.01,0-0.02,0h-4.37v-0.54c0-0.83-0.67-1.5-1.5-1.5c-0.83,0-1.5,0.67-1.5,1.5v0.54h-3.49
	c-0.07,0-0.14,0.01-0.2,0.02c-0.03,0-0.05,0-0.08,0.01c-0.12,0.02-0.22,0.06-0.33,0.1c-0.01,0-0.01,0-0.02,0.01l-6,2.76
	c-0.25,0.11-0.46,0.29-0.61,0.51l-3.56,5.19c-0.05,0.07-0.08,0.14-0.11,0.21v-4.27c0-0.83-0.67-1.5-1.5-1.5s-1.5,0.67-1.5,1.5v4.3
	l-2.63,2.2l-0.2-0.16c-0.56-0.46-1.37-0.46-1.92,0l-2,1.67l-3.26-2.71v-4.3c0-0.83-0.67-1.5-1.5-1.5s-1.5,0.67-1.5,1.5v4.3
	L15.21,23.61z M30.27,41.13l-7.4,1.6l0-5.14c0-0.83-0.67-1.5-1.5-1.5c0,0,0,0,0,0c-0.83,0-1.5,0.67-1.5,1.5l0,5.79l-2.2,0.47v-3.01
	l0-6.92l12.59-2.72V41.13z M39.06,21.3l5.03-1.09v1.14c0,0.83,0.67,1.5,1.5,1.5s1.5-0.67,1.5-1.5v-1.5h7.86v2.94l-9.66,2.09
	c0,0-0.01,0-0.01,0l-6.22,1.34V21.3z M47.09,35.34C47.09,35.34,47.09,35.34,47.09,35.34v-7.78l9.64-2.08c0.02,0,0.03-0.01,0.05-0.01
	l4.17-0.9v9.93l-2.83,0.61l0-5.17c0-0.83-0.67-1.5-1.5-1.5h0c-0.83,0-1.5,0.67-1.5,1.5l0,5.82l-2.2,0.47l0-5.17
	c0-0.83-0.67-1.5-1.5-1.5h0c-0.83,0-1.5,0.67-1.5,1.5l0,5.82l-2.83,0.61V35.34z M65.06,12.47l2.96,2.47l-0.93,0.78
	c-0.64,0.53-0.72,1.48-0.19,2.11c0.41,0.49,1.07,0.65,1.65,0.45l0,4.21l-4.08-0.88c0.05-0.15,0.08-0.3,0.08-0.46l0-0.75
	c0-0.83-0.67-1.5-1.5-1.5c0,0,0,0,0,0c-0.83,0-1.5,0.67-1.5,1.5l0,0.75c0,0.07,0.01,0.15,0.02,0.22l-3.62,0.78v-2.29H58
	c0.83,0,1.5-0.67,1.5-1.5s-0.67-1.5-1.5-1.5h-0.05V14.7l4.78,2.2c0.2,0.09,0.42,0.14,0.63,0.14c0.57,0,1.11-0.32,1.36-0.87
	c0.35-0.75,0.02-1.64-0.73-1.99l-0.62-0.29L65.06,12.47z M54.95,16.86h-7.86v-3h7.86V16.86z M44.09,14.7v2.45l-4.78,1.03l1.28-1.87
	L44.09,14.7z M34.14,21.56c0.02-0.01,0.03-0.03,0.04-0.05c0.04-0.04,0.08-0.07,0.11-0.11c0.03-0.04,0.06-0.07,0.09-0.11
	c0.03-0.04,0.06-0.08,0.08-0.13c0.02-0.04,0.05-0.08,0.07-0.12c0.02-0.04,0.04-0.09,0.05-0.14c0.01-0.03,0.02-0.06,0.03-0.09
	c0.1,0.29,0.29,0.55,0.56,0.74c0.27,0.18,0.58,0.27,0.88,0.26v5.07l-0.82,0.18l-3.84-3.2L34.14,21.56z M27.9,24.85l3.62,3.01
	l-9.72,2.1L27.9,24.85z M19.67,27.83l0-2.24c0-0.52-0.26-0.98-0.67-1.25l1.18-0.99l2.42,2.01L19.67,27.83z M57.49,67.25
	c-0.02-0.02-0.04-0.03-0.05-0.04c-0.05-0.05-0.11-0.09-0.17-0.13c-0.03-0.02-0.06-0.03-0.09-0.05c-0.05-0.03-0.1-0.06-0.16-0.08
	c-0.04-0.02-0.09-0.03-0.14-0.04c-0.05-0.01-0.09-0.03-0.14-0.04c-0.06-0.01-0.12-0.01-0.19-0.02c-0.04,0-0.07-0.01-0.1-0.01
	c0,0-0.01,0-0.01,0c-0.04,0-0.08,0.01-0.12,0.01c-0.06,0.01-0.13,0.01-0.19,0.02c0,0,0,0,0,0l-7.79,1.68
	c-0.09,0.02-0.17,0.05-0.25,0.08c-0.01,0-0.02,0-0.02,0.01c-0.07,0.03-0.12,0.06-0.18,0.1c-0.02,0.01-0.05,0.03-0.07,0.04
	c-0.04,0.03-0.08,0.06-0.12,0.1c-0.04,0.03-0.07,0.06-0.11,0.09c-0.02,0.02-0.04,0.05-0.06,0.07c-0.05,0.05-0.09,0.11-0.13,0.16
	c0,0,0,0.01-0.01,0.01c-0.15,0.23-0.24,0.51-0.24,0.81v11.61l-0.99,0.21c-0.81,0.17-1.32,0.97-1.15,1.78
	c0.15,0.7,0.77,1.18,1.46,1.18c0.1,0,0.21-0.01,0.32-0.03l2.14-0.46c0.01,0,0.03-0.01,0.04-0.01L54.95,83v4.94
	c0,0.83,0.67,1.5,1.5,1.5s1.5-0.67,1.5-1.5v-4.62c0-0.01,0-0.03,0-0.04V68.32C57.95,67.9,57.78,67.52,57.49,67.25z M50.16,71.21
	l4.8-1.03v3.93l-4.8,1.03V71.21z M50.16,78.21l4.8-1.03v2.75l-4.8,1.03V78.21z M46.43,90.63V96c0,0.83-0.67,1.5-1.5,1.5
	s-1.5-0.67-1.5-1.5v-5.37c0-0.83,0.67-1.5,1.5-1.5S46.43,89.8,46.43,90.63z M52.19,89.39V96c0,0.83-0.67,1.5-1.5,1.5
	s-1.5-0.67-1.5-1.5v-6.61c0-0.83,0.67-1.5,1.5-1.5S52.19,88.56,52.19,89.39z M57.95,93.94V96c0,0.83-0.67,1.5-1.5,1.5
	s-1.5-0.67-1.5-1.5v-2.06c0-0.83,0.67-1.5,1.5-1.5S57.95,93.11,57.95,93.94z M25.07,38.46l0-2c0-0.83,0.67-1.5,1.5-1.5c0,0,0,0,0,0
	c0.83,0,1.5,0.67,1.5,1.5l0,2c0,0.83-0.67,1.5-1.5,1.5c0,0,0,0,0,0C25.73,39.96,25.06,39.29,25.07,38.46z M56.77,45.48l-1.03,0.22
	l1.88,2.38c0.51,0.65,0.4,1.59-0.25,2.11c-0.65,0.51-1.59,0.4-2.11-0.25l-2.02-2.56l-2.27,3.85c-0.28,0.47-0.78,0.74-1.29,0.74
	c-0.26,0-0.52-0.07-0.76-0.21c-0.71-0.42-0.95-1.34-0.53-2.05l3.38-5.73c0-0.01,0.01-0.01,0.02-0.02c0.06-0.09,0.12-0.18,0.2-0.26
	c0.01-0.01,0.03-0.02,0.04-0.03c0.07-0.06,0.14-0.12,0.22-0.17c0.03-0.02,0.06-0.04,0.09-0.05c0.06-0.04,0.13-0.07,0.2-0.09
	c0.04-0.01,0.08-0.03,0.12-0.04c0.03-0.01,0.05-0.02,0.08-0.03l3.38-0.73c0.81-0.18,1.61,0.34,1.78,1.15
	C58.09,44.5,57.58,45.3,56.77,45.48z M43.06,7.62c0-0.83,0.67-1.5,1.5-1.5h1.46l3.6-3.01c0.56-0.46,1.37-0.46,1.92,0l3.6,3.01h1.46
	c0.83,0,1.5,0.67,1.5,1.5s-0.67,1.5-1.5,1.5h-2c-0.35,0-0.69-0.12-0.96-0.35l-3.06-2.55l-3.06,2.55c-0.27,0.23-0.61,0.35-0.96,0.35
	h-2C43.73,9.12,43.06,8.44,43.06,7.62z"/>
</svg>
