<?xml version="1.0" encoding="utf-8"?>
<!-- Generator: Adobe Illustrator 24.1.0, SVG Export Plug-In . SVG Version: 6.00 Build 0)  -->
<svg version="1.1" id="Layer_1" xmlns="http://www.w3.org/2000/svg" xmlns:xlink="http://www.w3.org/1999/xlink" x="0px" y="0px"
	 viewBox="0 0 100 100" style="enable-background:new 0 0 100 100;" xml:space="preserve">
<path d="M9.67,20.49c2.76,0,5-2.24,5-5s-2.24-5-5-5s-5,2.24-5,5S6.91,20.49,9.67,20.49z M9.67,13.49c1.1,0,2,0.9,2,2s-0.9,2-2,2
	s-2-0.9-2-2S8.56,13.49,9.67,13.49z M63.99,22.14c2.76,0,5-2.24,5-5s-2.24-5-5-5s-5,2.24-5,5S61.23,22.14,63.99,22.14z M63.99,15.14
	c1.1,0,2,0.9,2,2s-0.9,2-2,2s-2-0.9-2-2S62.89,15.14,63.99,15.14z M8.28,52.5c1.38,0,2.5,1.12,2.5,2.5c0,1.38-1.12,2.5-2.5,2.5
	c-1.38,0-2.5-1.12-2.5-2.5C5.78,53.62,6.9,52.5,8.28,52.5z M52.16,7.48c0-1.38,1.12-2.5,2.5-2.5c1.38,0,2.5,1.12,2.5,2.5
	s-1.12,2.5-2.5,2.5C53.28,9.98,52.16,8.86,52.16,7.48z M40.07,28.68c1.38,0,2.5,1.12,2.5,2.5c0,1.38-1.12,2.5-2.5,2.5
	c-1.38,0-2.5-1.12-2.5-2.5C37.57,29.8,38.69,28.68,40.07,28.68z M90.33,18.99c0-1.38,1.12-2.5,2.5-2.5c1.38,0,2.5,1.12,2.5,2.5
	c0,1.38-1.12,2.5-2.5,2.5C91.45,21.49,90.33,20.37,90.33,18.99z M14.34,38.54h3.5c0.83,0,1.5,0.67,1.5,1.5s-0.67,1.5-1.5,1.5h-3.5
	v3.5c0,0.83-0.67,1.5-1.5,1.5s-1.5-0.67-1.5-1.5v-3.5h-3.5c-0.83,0-1.5-0.67-1.5-1.5s0.67-1.5,1.5-1.5h3.5v-3.5
	c0-0.83,0.67-1.5,1.5-1.5s1.5,0.67,1.5,1.5V38.54z M90.33,48.5c0.83,0,1.5,0.67,1.5,1.5v3.5h3.5c0.83,0,1.5,0.67,1.5,1.5
	s-0.67,1.5-1.5,1.5h-3.5V60c0,0.83-0.67,1.5-1.5,1.5s-1.5-0.67-1.5-1.5v-3.5h-3.5c-0.83,0-1.5-0.67-1.5-1.5s0.67-1.5,1.5-1.5h3.5V50
	C88.83,49.17,89.51,48.5,90.33,48.5z M21.02,20.67l6.11-3.53l-6.11-3.53c-0.72-0.41-0.96-1.33-0.55-2.05s1.33-0.96,2.05-0.55
	l6.11,3.53V7.48c0-0.83,0.67-1.5,1.5-1.5s1.5,0.67,1.5,1.5v7.06l6.11-3.53c0.72-0.41,1.63-0.17,2.05,0.55
	c0.41,0.72,0.17,1.63-0.55,2.05l-6.11,3.53l6.11,3.53c0.72,0.41,0.96,1.33,0.55,2.05c-0.28,0.48-0.78,0.75-1.3,0.75
	c-0.25,0-0.51-0.06-0.75-0.2l-6.11-3.53v7.06c0,0.83-0.67,1.5-1.5,1.5s-1.5-0.67-1.5-1.5v-7.06l-6.11,3.53
	c-0.24,0.14-0.49,0.2-0.75,0.2c-0.52,0-1.02-0.27-1.3-0.75C20.06,22,20.31,21.08,21.02,20.67z M71.29,37.21l6.11-3.53l-6.11-3.53
	c-0.72-0.41-0.96-1.33-0.55-2.05c0.41-0.72,1.33-0.96,2.05-0.55l6.11,3.53v-7.06c0-0.83,0.67-1.5,1.5-1.5s1.5,0.67,1.5,1.5v7.06
	l6.11-3.53c0.72-0.41,1.63-0.17,2.05,0.55c0.41,0.72,0.17,1.63-0.55,2.05l-6.11,3.53l6.11,3.53c0.72,0.41,0.96,1.33,0.55,2.05
	c-0.28,0.48-0.78,0.75-1.3,0.75c-0.25,0-0.51-0.06-0.75-0.2l-6.11-3.53v7.06c0,0.83-0.67,1.5-1.5,1.5s-1.5-0.67-1.5-1.5v-7.06
	l-6.11,3.53c-0.24,0.14-0.49,0.2-0.75,0.2c-0.52,0-1.02-0.27-1.3-0.75C70.33,38.54,70.57,37.62,71.29,37.21z M69.69,89.61
	c0.02,0.1,0.03,0.2,0.03,0.3c0,0.2-0.04,0.39-0.12,0.57c-0.07,0.18-0.18,0.35-0.33,0.49c-0.14,0.14-0.3,0.25-0.48,0.32
	c-0.18,0.08-0.37,0.12-0.57,0.12c-0.4,0-0.78-0.16-1.06-0.44c-0.15-0.14-0.26-0.31-0.33-0.49c-0.08-0.18-0.11-0.37-0.11-0.57
	c0-0.4,0.16-0.78,0.44-1.06c0.34-0.35,0.86-0.51,1.35-0.41c0.1,0.02,0.19,0.04,0.28,0.08s0.18,0.09,0.26,0.14
	c0.08,0.06,0.16,0.12,0.22,0.19c0.08,0.07,0.14,0.14,0.19,0.22c0.06,0.09,0.1,0.17,0.14,0.26S69.67,89.52,69.69,89.61z M96.89,78.01
	c0.01-0.02,0.03-0.05,0.04-0.07c0.03-0.06,0.06-0.13,0.08-0.2c0.01-0.03,0.02-0.05,0.02-0.08c0.02-0.07,0.03-0.14,0.04-0.21
	c0-0.03,0.01-0.06,0.01-0.09c0-0.04,0.01-0.07,0.01-0.11c0-0.03-0.01-0.07-0.01-0.1c0-0.02,0-0.03,0-0.04
	c0-0.02-0.01-0.03-0.01-0.05c-0.01-0.07-0.02-0.14-0.04-0.2c-0.01-0.03-0.02-0.06-0.03-0.08c-0.02-0.06-0.05-0.13-0.08-0.19
	c-0.01-0.03-0.03-0.06-0.04-0.08c-0.03-0.06-0.07-0.11-0.11-0.16c-0.02-0.03-0.04-0.05-0.07-0.08c-0.04-0.05-0.08-0.09-0.13-0.13
	c-0.02-0.01-0.03-0.03-0.04-0.04L68.21,53c0.83,0,1.5-0.67,1.5-1.5c0-0.83-0.67-1.5-1.5-1.5h-1.5v-4.69c0-0.83-0.67-1.5-1.5-1.5
	s-1.5,0.67-1.5,1.5v2.79l-3.49-5.81c-0.31-0.52-0.9-0.79-1.5-0.71v-6.8c0-0.83-0.67-1.5-1.5-1.5s-1.5,0.67-1.5,1.5v7.28l-2.27,0.36
	V25.29c0-0.83-0.67-1.5-1.5-1.5s-1.5,0.67-1.5,1.5V42.9l-4.51,0.72v-3.58c0-0.83-0.67-1.5-1.5-1.5s-1.5,0.67-1.5,1.5v4.06
	l-4.01,0.64c-0.44,0.07-0.82,0.33-1.05,0.71l-1.43,2.38v-4.63c0-0.83-0.67-1.5-1.5-1.5s-1.5,0.67-1.5,1.5V50h-1.66
	c-0.83,0-1.5,0.67-1.5,1.5c0,0.83,0.67,1.5,1.5,1.5l-8.19,6.67c-0.64,0.52-0.74,1.47-0.21,2.11c0.52,0.64,1.47,0.74,2.11,0.22
	l11.04-9h0.97L23.2,70.49h-8.12l6.01-4.9c0.64-0.52,0.74-1.47,0.21-2.11c-0.52-0.64-1.47-0.74-2.11-0.22L3.45,76.1
	c-0.01,0.01-0.03,0.03-0.04,0.04c-0.05,0.04-0.09,0.09-0.14,0.14c-0.02,0.02-0.04,0.05-0.06,0.07c-0.04,0.05-0.08,0.11-0.11,0.17
	c-0.01,0.02-0.03,0.05-0.04,0.07C3.03,76.65,3,76.72,2.98,76.79c-0.01,0.03-0.02,0.05-0.02,0.08C2.94,76.93,2.93,77,2.92,77.07
	c0,0.02-0.01,0.03-0.01,0.05c0,0.02,0,0.03,0,0.04c0,0.03-0.01,0.06-0.01,0.1c0,0.04,0.01,0.07,0.01,0.11
	c0,0.03,0.01,0.06,0.01,0.09c0.01,0.07,0.02,0.14,0.04,0.2c0.01,0.03,0.02,0.05,0.02,0.08c0.02,0.07,0.05,0.13,0.08,0.19
	c0.01,0.03,0.03,0.05,0.04,0.08c0.03,0.06,0.07,0.12,0.11,0.17c0.01,0.01,0.02,0.03,0.03,0.04l5.27,6.32c0,0.01,0.01,0.01,0.01,0.01
	c0.06,0.07,0.13,0.14,0.21,0.2c0.01,0.01,0.02,0.02,0.03,0.02c0.08,0.06,0.17,0.11,0.26,0.16c0,0,0.01,0,0.01,0.01
	c0.19,0.09,0.4,0.14,0.63,0.14h1.4l4.82,5.78c0.28,0.34,0.71,0.54,1.15,0.54h45.18c0.83,0,1.5-0.67,1.5-1.5s-0.67-1.5-1.5-1.5H17.74
	l-2.77-3.32h70.05l-2.77,3.32h-8.04c-0.83,0-1.5,0.67-1.5,1.5s0.67,1.5,1.5,1.5h8.74c0.45,0,0.87-0.2,1.15-0.54l4.82-5.78h1.4
	c0.22,0,0.44-0.05,0.63-0.14c0.01,0,0.01-0.01,0.02-0.01c0.09-0.04,0.17-0.09,0.25-0.15c0.01-0.01,0.03-0.02,0.04-0.03
	c0.07-0.06,0.14-0.12,0.19-0.19c0.01-0.01,0.01-0.01,0.02-0.02l5.27-6.32c0.01-0.01,0.02-0.03,0.03-0.04
	C96.82,78.13,96.86,78.07,96.89,78.01z M89.63,82.08h-1.4c-0.01,0-0.01,0-0.02,0h-8.77l1.85-3.32H92.4L89.63,82.08z M65.42,82.08
	l0.92-3.32h11.51l-1.85,3.32H65.42z M51.5,82.08v-3.32h11.73l-0.92,3.32H51.5z M37.7,82.08l-0.92-3.32H48.5v3.32H37.7z M23.99,82.08
	l-1.85-3.32h3.04c0.83,0,1.5-0.67,1.5-1.5s-0.67-1.5-1.5-1.5h-2.42l1.86-2.27h10.1l-0.93,2.27h-2.6c-0.83,0-1.5,0.67-1.5,1.5
	s0.67,1.5,1.5,1.5h2.47l0.92,3.32H23.99z M11.77,82.08h-1.4L7.6,78.76h11.11l1.85,3.32h-8.77C11.78,82.08,11.78,82.08,11.77,82.08z
	 M72.32,73.49h3.06l1.86,2.27H66.21l-0.93-2.27h1.04c0.83,0,1.5-0.67,1.5-1.5s-0.67-1.5-1.5-1.5h-2.27L56.9,53h1.72l14.31,17.5
	h-0.61c-0.83,0-1.5,0.67-1.5,1.5S71.49,73.49,72.32,73.49z M62.49,53h0.97l21.46,17.5H76.8L62.49,53z M53.66,53l7.16,17.5H51.5V53
	H53.66z M62.04,73.49l0.93,2.27H51.5v-2.27H62.04z M48.5,75.76H37.03l0.93-2.27H48.5V75.76z M81.11,75.76l-1.86-2.27h9.35l2.78,2.27
	H81.11z M58.17,44.7l3.17,5.29h-15.4v-3.33L58.17,44.7z M40.1,47.6l2.84-0.46v2.85h-4.28L40.1,47.6z M41.38,53h1.72l-2.49,6.09
	c-0.31,0.77,0.05,1.64,0.82,1.96c0.19,0.08,0.38,0.11,0.57,0.11c0.59,0,1.15-0.35,1.39-0.93L46.34,53h2.16v17.5h-9.31l1.95-4.77
	c0.31-0.77-0.05-1.64-0.82-1.96c-0.77-0.31-1.64,0.05-1.96,0.82l-2.42,5.91h-8.87L41.38,53z M20.74,73.49l-1.86,2.27H8.61l2.78-2.27
	H20.74z"/>
</svg>
