<?xml version="1.0" encoding="utf-8"?>
<!-- Generator: Adobe Illustrator 24.1.0, SVG Export Plug-In . SVG Version: 6.00 Build 0)  -->
<svg version="1.1" id="Layer_1" xmlns="http://www.w3.org/2000/svg" xmlns:xlink="http://www.w3.org/1999/xlink" x="0px" y="0px"
	 viewBox="0 0 100 100" style="enable-background:new 0 0 100 100;" xml:space="preserve">
<path d="M26.95,15.65c2.76,0,5-2.24,5-5s-2.24-5-5-5s-5,2.24-5,5S24.19,15.65,26.95,15.65z M26.95,8.65c1.1,0,2,0.9,2,2s-0.9,2-2,2
	s-2-0.9-2-2S25.84,8.65,26.95,8.65z M23.52,56.62c2.76,0,5-2.24,5-5c0-2.76-2.24-5-5-5s-5,2.24-5,5
	C18.52,54.37,20.76,56.62,23.52,56.62z M23.52,49.61c1.1,0,2,0.9,2,2c0,1.1-0.9,2-2,2s-2-0.9-2-2
	C21.52,50.51,22.42,49.61,23.52,49.61z M8.74,56.89c0,1.38-1.12,2.5-2.5,2.5c-1.38,0-2.5-1.12-2.5-2.5c0-1.38,1.12-2.5,2.5-2.5
	C7.62,54.39,8.74,55.51,8.74,56.89z M3.74,21.77c0-1.38,1.12-2.5,2.5-2.5c1.38,0,2.5,1.12,2.5,2.5c0,1.38-1.12,2.5-2.5,2.5
	C4.85,24.27,3.74,23.15,3.74,21.77z M55.57,7.15c0-1.38,1.12-2.5,2.5-2.5c1.38,0,2.5,1.12,2.5,2.5c0,1.38-1.12,2.5-2.5,2.5
	C56.69,9.65,55.57,8.53,55.57,7.15z M91.5,71.92c0-1.1,0.9-2,2-2c1.1,0,2,0.9,2,2s-0.9,2-2,2C92.4,73.92,91.5,73.03,91.5,71.92z
	 M97.5,66.35c0,1.1-0.9,2-2,2c-1.1,0-2-0.9-2-2c0-1.1,0.9-2,2-2C96.61,64.35,97.5,65.25,97.5,66.35z M89.82,48.21c0,1.1-0.9,2-2,2
	c-1.1,0-2-0.9-2-2c0-1.1,0.9-2,2-2C88.93,46.21,89.82,47.11,89.82,48.21z M51.33,80.78c-1.1,0-2-0.9-2-2c0-1.1,0.9-2,2-2
	c1.1,0,2,0.9,2,2C53.33,79.89,52.44,80.78,51.33,80.78z M74.97,45.82c-1.1,0-2-0.9-2-2c0-1.1,0.9-2,2-2c1.1,0,2,0.9,2,2
	C76.97,44.92,76.07,45.82,74.97,45.82z M75.93,96.77c0,1.1-0.9,2-2,2c-1.1,0-2-0.9-2-2c0-1.1,0.9-2,2-2
	C75.04,94.77,75.93,95.66,75.93,96.77z M47.44,96.77c0,1.1-0.9,2-2,2c-1.1,0-2-0.9-2-2c0-1.1,0.9-2,2-2
	C46.54,94.77,47.44,95.66,47.44,96.77z M38.3,15.65c0-0.83,0.67-1.5,1.5-1.5h3.5v-3.5c0-0.83,0.67-1.5,1.5-1.5s1.5,0.67,1.5,1.5v3.5
	h3.5c0.83,0,1.5,0.67,1.5,1.5s-0.67,1.5-1.5,1.5h-3.5v3.5c0,0.83-0.67,1.5-1.5,1.5s-1.5-0.67-1.5-1.5v-3.5h-3.5
	C38.97,17.15,38.3,16.48,38.3,15.65z M3.73,43.15c0-0.83,0.67-1.5,1.5-1.5h3.5v-3.5c0-0.83,0.67-1.5,1.5-1.5s1.5,0.67,1.5,1.5v3.5
	h3.5c0.83,0,1.5,0.67,1.5,1.5s-0.67,1.5-1.5,1.5h-3.5v3.5c0,0.83-0.67,1.5-1.5,1.5s-1.5-0.67-1.5-1.5v-3.5h-3.5
	C4.41,44.65,3.73,43.98,3.73,43.15z M69.88,18.46l0.47-1.43c0.54-1.65,1.36-3.22,2.42-4.66l1.85-2.51c0.57-0.76,1.49-1.13,2.41-0.98
	c0.92,0.15,1.68,0.79,1.98,1.68l0.76,2.32l2.21-6.71c0.4-1.21,1.42-2.11,2.67-2.34c1.25-0.24,2.53,0.23,3.35,1.21l2.73,3.3
	c1.72,2.08,3.01,4.42,3.86,6.98l1.97,5.98c0.26,0.79-0.17,1.63-0.96,1.89c-0.16,0.05-0.31,0.08-0.47,0.08
	c-0.63,0-1.22-0.4-1.42-1.03l-1.97-5.98c-0.72-2.2-1.84-4.22-3.32-6.01l-2.73-3.3c-0.17-0.2-0.37-0.19-0.48-0.17
	s-0.3,0.09-0.38,0.33l-3.48,10.57l1.9,5.79c0.26,0.79-0.17,1.63-0.96,1.89c-0.16,0.05-0.31,0.08-0.47,0.08
	c-0.63,0-1.22-0.4-1.42-1.03l-3.94-11.99l-1.28,1.73c-0.87,1.18-1.54,2.47-1.98,3.82l-0.47,1.43c-0.26,0.79-1.11,1.22-1.89,0.96
	S69.62,19.25,69.88,18.46z M50.7,30.69l3.33-1.93c1.16-0.68,2.56-0.8,3.83-0.32c1.28,0.48,2.26,1.51,2.69,2.81l2.56,7.77L68,24.13
	c0.26-0.79,1.1-1.21,1.89-0.96c0.79,0.26,1.21,1.11,0.96,1.89l-1.58,4.81c0.41,0.9,1.31,1.5,2.32,1.5c0.87,0,1.67-0.44,2.14-1.17
	c0.01-0.02,0.02-0.03,0.03-0.04c0.03-0.04,0.07-0.09,0.1-0.13c0.04-0.04,0.07-0.08,0.11-0.12c0.02-0.02,0.05-0.04,0.07-0.06
	c0.05-0.04,0.11-0.08,0.17-0.12c0.02-0.01,0.04-0.02,0.06-0.03c0.07-0.04,0.13-0.07,0.2-0.09c0.02-0.01,0.05-0.01,0.07-0.02
	c0.07-0.02,0.13-0.04,0.2-0.05c0.03-0.01,0.07-0.01,0.1-0.01c0.06-0.01,0.12-0.01,0.18-0.01c0.02,0,0.04,0,0.06,0
	c0.02,0,0.05,0.01,0.07,0.01c0.06,0.01,0.11,0.02,0.17,0.03c0.04,0.01,0.08,0.02,0.12,0.04c0.05,0.02,0.1,0.04,0.15,0.06
	c0.04,0.02,0.08,0.04,0.11,0.06c0.03,0.02,0.06,0.03,0.08,0.04c0.02,0.02,0.04,0.04,0.06,0.05c0.03,0.02,0.06,0.04,0.08,0.07
	c0.05,0.04,0.1,0.09,0.14,0.14c0.02,0.02,0.03,0.04,0.05,0.05c0.05,0.06,0.09,0.12,0.13,0.18c0.01,0.02,0.02,0.03,0.03,0.05
	c0.04,0.07,0.07,0.14,0.1,0.21c0.01,0.02,0.01,0.03,0.02,0.05c0.02,0.08,0.04,0.16,0.06,0.24c0,0.01,0,0.03,0.01,0.04
	c0.01,0.09,0.01,0.17,0.01,0.26c0,0.01,0,0.01,0,0.02c-0.01,0.13-0.01,0.25-0.01,0.38c0,2.82,2.29,5.12,5.12,5.12
	c0.08,0,0.15-0.02,0.23-0.02l0.79-2.39c0.76-2.3,2.81-3.78,5.22-3.78s4.47,1.48,5.22,3.78l2.32,7.05c0.26,0.79-0.17,1.63-0.96,1.89
	c-0.16,0.05-0.31,0.08-0.47,0.08c-0.63,0-1.22-0.4-1.42-1.03l-2.32-7.05c-0.42-1.27-1.5-1.72-2.38-1.72s-1.96,0.45-2.38,1.72
	l-2.32,7.05c-0.26,0.79-1.11,1.22-1.89,0.96c-0.79-0.26-1.21-1.11-0.96-1.89l0.55-1.68c-3.31-0.31-6.06-2.61-7.01-5.7
	c-0.69,0.31-1.45,0.48-2.24,0.48c-1.27,0-2.46-0.44-3.41-1.18l-3.49,10.62l0.01,0.03c2.22,0.17,4.07,1.6,4.78,3.75l2.32,7.05
	c0.26,0.79-0.17,1.63-0.96,1.89c-0.16,0.05-0.31,0.08-0.47,0.08c-0.63,0-1.22-0.4-1.42-1.03l-2.32-7.05
	c-0.42-1.27-1.5-1.72-2.38-1.72c-0.87,0-1.96,0.45-2.38,1.72l-0.63,1.92c-0.26,0.79-1.1,1.22-1.89,0.96
	c-0.79-0.26-1.21-1.11-0.96-1.89l0.63-1.92c0.47-1.43,1.45-2.55,2.7-3.19l-0.89-2.7c-1.03,0.9-2.35,1.44-3.78,1.44
	c-0.85,0-1.67-0.2-2.42-0.54c-0.75,2.52-2.64,4.61-5.17,5.55c-0.17,0.06-0.35,0.09-0.52,0.09c-0.61,0-1.18-0.37-1.41-0.98
	c-0.29-0.78,0.11-1.64,0.89-1.93C50.57,44.57,52,42.5,52,40.23c0-0.14-0.01-0.27-0.02-0.41c0-0.01,0-0.02,0-0.03
	c0-0.08,0-0.16,0.01-0.23c0-0.02,0-0.05,0.01-0.07c0.01-0.07,0.03-0.14,0.05-0.21c0.01-0.02,0.01-0.05,0.02-0.07
	c0.02-0.07,0.05-0.13,0.09-0.19c0.01-0.02,0.02-0.04,0.04-0.07c0.04-0.06,0.08-0.12,0.12-0.17c0.02-0.02,0.03-0.04,0.05-0.06
	c0.04-0.05,0.09-0.09,0.14-0.13c0.03-0.02,0.06-0.05,0.09-0.07c0.02-0.02,0.04-0.04,0.07-0.05c0.03-0.02,0.05-0.03,0.08-0.04
	c0.04-0.02,0.08-0.04,0.12-0.06c0.05-0.02,0.1-0.04,0.15-0.06c0.04-0.01,0.09-0.03,0.13-0.04c0.05-0.01,0.1-0.02,0.16-0.03
	c0.02,0,0.05-0.01,0.07-0.01c0.02,0,0.04,0,0.06,0c0.07,0,0.13,0,0.19,0.01c0.03,0,0.05,0,0.08,0.01c0.08,0.01,0.16,0.03,0.24,0.06
	c0.01,0,0.02,0.01,0.03,0.01c0.08,0.03,0.16,0.06,0.23,0.1c0.01,0.01,0.02,0.01,0.03,0.02c0.07,0.04,0.13,0.08,0.19,0.13
	c0.02,0.02,0.04,0.03,0.06,0.05c0.04,0.04,0.08,0.08,0.12,0.12c0.03,0.04,0.07,0.08,0.1,0.12c0.01,0.02,0.03,0.03,0.04,0.05
	c0.51,0.79,1.38,1.26,2.32,1.26c1.21,0,2.27-0.79,2.63-1.94l-1.98-6.03c-0.14-0.43-0.47-0.78-0.9-0.94c-0.25-0.09-0.74-0.2-1.26,0.1
	l-3.34,1.93c-2.23,1.29-3.9,3.35-4.71,5.8l-4.51,13.73c-0.21,0.63-0.79,1.03-1.42,1.03c-0.16,0-0.31-0.02-0.47-0.08
	c-0.79-0.26-1.21-1.11-0.96-1.89l4.51-13.73C45.68,35,47.83,32.35,50.7,30.69z M80.25,60.37l1.92-5.85
	c0.26-0.79,1.11-1.22,1.89-0.96c0.79,0.26,1.21,1.11,0.96,1.89l-1.92,5.85c-0.21,0.63-0.79,1.03-1.42,1.03
	c-0.16,0-0.31-0.02-0.47-0.08C80.42,62.01,79.99,61.16,80.25,60.37z M88.91,19.46l1.92,5.85c0.26,0.79-0.17,1.63-0.96,1.89
	c-0.16,0.05-0.31,0.08-0.47,0.08c-0.63,0-1.22-0.4-1.42-1.03l-1.92-5.85c-0.26-0.79,0.17-1.63,0.96-1.89
	C87.8,18.24,88.65,18.67,88.91,19.46z M72.15,61.28l1.92,5.85c0.26,0.79-0.17,1.63-0.96,1.89c-0.16,0.05-0.31,0.08-0.47,0.08
	c-0.63,0-1.22-0.4-1.42-1.03l-1.92-5.85c-0.26-0.79,0.17-1.63,0.96-1.89C71.05,60.06,71.9,60.49,72.15,61.28z M65.15,59.28
	l1.92,5.85c0.26,0.79-0.17,1.63-0.96,1.89c-0.16,0.05-0.31,0.08-0.47,0.08c-0.63,0-1.22-0.4-1.42-1.03l-1.92-5.85
	c-0.26-0.79,0.17-1.63,0.96-1.89C64.05,58.06,64.9,58.49,65.15,59.28z M60.46,79.85l-1.92,5.85c-0.21,0.63-0.79,1.03-1.42,1.03
	c-0.16,0-0.31-0.02-0.47-0.08c-0.79-0.26-1.21-1.11-0.96-1.89l1.92-5.85c0.26-0.79,1.1-1.22,1.89-0.96
	C60.29,78.22,60.71,79.06,60.46,79.85z M96.55,79.85l-1.92,5.85c-0.21,0.63-0.79,1.03-1.42,1.03c-0.16,0-0.31-0.02-0.47-0.08
	c-0.79-0.26-1.21-1.11-0.96-1.89l1.92-5.85c0.26-0.79,1.11-1.22,1.89-0.96C96.38,78.22,96.81,79.06,96.55,79.85z M65.15,85.85
	l-1.92,5.85c-0.21,0.63-0.79,1.03-1.42,1.03c-0.16,0-0.31-0.02-0.47-0.08c-0.79-0.26-1.21-1.11-0.96-1.89l1.92-5.85
	c0.26-0.79,1.11-1.22,1.89-0.96C64.98,84.22,65.41,85.06,65.15,85.85z M56.32,92.31l-1.62,4.92c-0.21,0.63-0.79,1.03-1.42,1.03
	c-0.16,0-0.31-0.02-0.47-0.08c-0.79-0.26-1.21-1.11-0.96-1.89l1.62-4.92c0.26-0.79,1.11-1.22,1.89-0.96
	C56.15,90.68,56.58,91.52,56.32,92.31z M86.55,96.3c0.26,0.79-0.17,1.63-0.96,1.89c-0.16,0.05-0.31,0.08-0.47,0.08
	c-0.63,0-1.22-0.4-1.42-1.03l-1.62-4.92c-0.26-0.79,0.17-1.63,0.96-1.89c0.79-0.26,1.63,0.17,1.89,0.96L86.55,96.3z M76.38,53.6
	l1.92-5.85c0.26-0.79,1.11-1.21,1.89-0.96c0.79,0.26,1.21,1.11,0.96,1.89l-1.92,5.85c-0.21,0.63-0.79,1.03-1.42,1.03
	c-0.16,0-0.31-0.02-0.47-0.08C76.55,55.24,76.12,54.39,76.38,53.6z M58.48,67.83l1.17,3.42c0.21,0.62,0.8,1.01,1.42,1.01
	c0.16,0,0.32-0.03,0.49-0.08c0.78-0.27,1.2-1.12,0.93-1.91l-4.02-11.77c0,0,0-0.01,0-0.01l-0.68-1.98
	c-0.41-1.26-1.28-2.31-2.43-2.95c-0.89-0.5-1.9-0.72-2.9-0.66c-0.83,0.05-1.46,0.76-1.41,1.59s0.77,1.45,1.59,1.41
	c0.44-0.03,0.87,0.07,1.25,0.29c0.5,0.28,0.87,0.73,1.05,1.29l0.31,0.91l-10.69,6.69c-0.01,0-0.01,0.01-0.02,0.01
	c-0.01,0-0.01,0.01-0.02,0.01L23,78.56c-0.01,0-0.01,0.01-0.02,0.01s-0.01,0.01-0.02,0.01l-7.63,4.78v-3.52c0-0.63-0.4-1.2-1-1.41
	l-4.62-1.64v-4.86c0-0.6-0.35-1.14-0.9-1.38l-4.61-2c-0.76-0.33-1.64,0.02-1.97,0.78c-0.33,0.76,0.02,1.64,0.78,1.97l3.71,1.61v4.94
	c0,0.63,0.4,1.2,1,1.41l4.62,1.64v15.87c0,0.83,0.67,1.5,1.5,1.5s1.5-0.67,1.5-1.5V94.8l13.45-8.41l-3.26,9.9
	c-0.26,0.79,0.17,1.63,0.96,1.89c0.16,0.05,0.31,0.08,0.47,0.08c0.63,0,1.22-0.4,1.42-1.03l4.38-13.33L58.48,67.83z M27.82,83.46
	l-1.97-3.14l8.23-5.15l1.97,3.14L27.82,83.46z M44.87,68.42l1.97,3.15l-8.24,5.15l-1.97-3.14L44.87,68.42z M57.49,64.91l-8.11,5.07
	l-1.97-3.15l8.84-5.53L57.49,64.91z M15.33,86.9l7.97-4.99l1.97,3.14l-9.94,6.21V86.9z M17.39,73.37c0.7-0.44,1.63-0.23,2.07,0.48
	l0.49,0.79l1.8-1.13l-0.49-0.79c-0.44-0.7-0.23-1.63,0.47-2.07c0.7-0.44,1.63-0.23,2.07,0.48l0.5,0.79l1.3-0.82
	c0.7-0.44,1.63-0.23,2.07,0.48c0.44,0.7,0.23,1.63-0.48,2.07l-6.91,4.33c0,0,0,0,0,0c-0.25,0.16-0.52,0.23-0.79,0.23
	c-0.5,0-0.99-0.25-1.27-0.7l-1.29-2.06C16.47,74.74,16.68,73.81,17.39,73.37z M32.39,65.75c-0.44-0.7-0.23-1.63,0.47-2.07
	c0.7-0.44,1.63-0.23,2.07,0.48l0.49,0.79l1.3-0.81c0.7-0.44,1.63-0.23,2.07,0.48s0.23,1.63-0.48,2.07l-6.89,4.31
	C31.42,70.99,31.41,71,31.41,71c-0.25,0.15-0.52,0.23-0.79,0.23c-0.13,0-0.25-0.02-0.37-0.05c-0.36-0.09-0.69-0.32-0.9-0.66
	c-0.01-0.01-0.01-0.02-0.01-0.02l-1.27-2.03c-0.44-0.7-0.23-1.63,0.47-2.07c0.7-0.44,1.63-0.23,2.07,0.48l0.49,0.79l1.8-1.13
	L32.39,65.75z M42.22,60.7l1.8-1.13l-0.49-0.78c-0.44-0.7-0.22-1.63,0.48-2.07c0.7-0.44,1.63-0.22,2.07,0.48l0.49,0.78l1.3-0.82
	c0.7-0.44,1.63-0.23,2.07,0.48s0.23,1.63-0.48,2.07l-6.92,4.33c-0.12,0.08-0.26,0.14-0.39,0.17c-0.13,0.04-0.27,0.06-0.41,0.06
	c-0.5,0-0.99-0.25-1.27-0.7l-1.29-2.06c-0.44-0.7-0.23-1.63,0.48-2.07c0.7-0.44,1.63-0.23,2.07,0.48L42.22,60.7z M9.72,84.84v1.84
	c0,0.83-0.67,1.5-1.5,1.5s-1.5-0.67-1.5-1.5v-1.84c0-0.83,0.67-1.5,1.5-1.5S9.72,84.01,9.72,84.84z M9.72,91.84v1.84
	c0,0.83-0.67,1.5-1.5,1.5s-1.5-0.67-1.5-1.5v-1.84c0-0.83,0.67-1.5,1.5-1.5S9.72,91.01,9.72,91.84z M40.23,93.24l-1.31,3.99
	c-0.21,0.63-0.79,1.03-1.42,1.03c-0.16,0-0.31-0.02-0.47-0.08c-0.79-0.26-1.22-1.11-0.96-1.89l1.31-3.99
	c0.26-0.79,1.11-1.22,1.89-0.96C40.05,91.61,40.48,92.45,40.23,93.24z M50.72,87.37c0.26,0.79-0.17,1.63-0.95,1.9
	c-0.16,0.05-0.32,0.08-0.47,0.08c-0.63,0-1.21-0.4-1.42-1.03l-0.64-1.93c-0.42-1.27-1.5-1.72-2.38-1.72c-0.87,0-1.96,0.45-2.38,1.72
	l-0.4,1.2c-0.26,0.79-1.11,1.21-1.9,0.95c-0.79-0.26-1.21-1.11-0.95-1.9l0.4-1.2c0.76-2.29,2.81-3.78,5.22-3.78
	c2.42,0,4.47,1.48,5.22,3.78L50.72,87.37z M89.87,68.69l-1.31,3.98c-0.2,0.62-0.78,1.03-1.42,1.03h-7.12
	c-2.38,0-4.48,1.52-5.22,3.78l-2.55,7.75c0.3,0.05,0.61,0.08,0.93,0.08c3.01,0,5.47-2.45,5.47-5.47c0-0.14,0-0.27-0.01-0.41
	c0-0.01,0-0.01,0-0.02c-0.01-0.08,0-0.17,0.01-0.25c0-0.02,0-0.03,0.01-0.05c0.01-0.08,0.03-0.16,0.05-0.23
	c0.01-0.02,0.01-0.04,0.02-0.05c0.03-0.07,0.06-0.14,0.09-0.21c0.01-0.02,0.02-0.04,0.03-0.05c0.04-0.06,0.08-0.12,0.13-0.18
	c0.02-0.02,0.03-0.04,0.05-0.06c0.04-0.05,0.09-0.09,0.14-0.14c0.03-0.02,0.06-0.05,0.08-0.07c0.02-0.02,0.04-0.04,0.07-0.05
	c0.03-0.02,0.06-0.03,0.08-0.04c0.04-0.02,0.07-0.04,0.11-0.06c0.05-0.02,0.11-0.05,0.16-0.06c0.04-0.01,0.08-0.02,0.11-0.03
	c0.06-0.01,0.12-0.02,0.18-0.03c0.02,0,0.04-0.01,0.07-0.01c0.02,0,0.04,0,0.06,0c0.06,0,0.11,0,0.17,0.01
	c0.04,0,0.08,0.01,0.12,0.01c0.06,0.01,0.12,0.03,0.19,0.04c0.03,0.01,0.05,0.02,0.08,0.02c0.07,0.03,0.14,0.06,0.21,0.09
	c0.01,0.01,0.03,0.02,0.04,0.02c0.07,0.04,0.13,0.09,0.19,0.14c0.02,0.01,0.03,0.02,0.05,0.04c0.05,0.04,0.1,0.09,0.14,0.14
	c0.03,0.03,0.05,0.06,0.08,0.1c0.01,0.02,0.03,0.04,0.05,0.06c0.51,0.79,1.38,1.26,2.32,1.26c1.24,0,2.33-0.83,2.66-2.03
	c0.22-0.8,1.05-1.27,1.84-1.05c0.8,0.22,1.27,1.04,1.05,1.84c-0.68,2.49-2.97,4.23-5.55,4.23c-0.85,0-1.66-0.19-2.41-0.54
	c-1.04,3.51-4.28,6.07-8.12,6.07c-0.58,0-1.17-0.06-1.73-0.18c-0.05-0.01-0.09-0.03-0.14-0.04l-3.01,9.13
	c-0.21,0.63-0.79,1.03-1.42,1.03c-0.16,0-0.31-0.02-0.47-0.08c-0.79-0.26-1.21-1.11-0.96-1.89l6.5-19.75
	c1.14-3.49,4.39-5.84,8.07-5.84h6.04l0.97-2.95c0.26-0.79,1.11-1.21,1.89-0.96C89.7,67.06,90.12,67.91,89.87,68.69z M91.73,63.02
	c-0.07,0.22-0.2,0.43-0.36,0.59c-0.29,0.29-0.68,0.44-1.07,0.44c-0.19,0-0.39-0.04-0.57-0.11c-0.56-0.23-0.93-0.78-0.93-1.39
	c0-0.22,0.05-0.44,0.14-0.63l2.54-7.72c0.26-0.79,1.1-1.22,1.89-0.96c0.79,0.26,1.21,1.11,0.96,1.89L91.73,63.02z"/>
</svg>
