<?xml version="1.0" encoding="utf-8"?>
<!-- Generator: Adobe Illustrator 24.1.0, SVG Export Plug-In . SVG Version: 6.00 Build 0)  -->
<svg version="1.1" id="Layer_1" xmlns="http://www.w3.org/2000/svg" xmlns:xlink="http://www.w3.org/1999/xlink" x="0px" y="0px"
	 viewBox="0 0 100 100" style="enable-background:new 0 0 100 100;" xml:space="preserve">
<path d="M12.25,55.31c0-2.76-2.24-5-5-5s-5,2.24-5,5s2.24,5,5,5S12.25,58.06,12.25,55.31z M7.25,57.31c-1.1,0-2-0.9-2-2s0.9-2,2-2
	s2,0.9,2,2S8.35,57.31,7.25,57.31z M71,12.61c2.76,0,5-2.24,5-5s-2.24-5-5-5s-5,2.24-5,5S68.24,12.61,71,12.61z M71,5.61
	c1.1,0,2,0.9,2,2s-0.9,2-2,2s-2-0.9-2-2S69.9,5.61,71,5.61z M43.39,12.61c0-1.38,1.12-2.5,2.5-2.5s2.5,1.12,2.5,2.5
	c0,1.38-1.12,2.5-2.5,2.5S43.39,13.99,43.39,12.61z M85.22,6.29c0-1.38,1.12-2.5,2.5-2.5c1.38,0,2.5,1.12,2.5,2.5s-1.12,2.5-2.5,2.5
	C86.34,8.79,85.22,7.67,85.22,6.29z M93.9,66.11c-1.38,0-2.5-1.12-2.5-2.5c0-1.38,1.12-2.5,2.5-2.5c1.38,0,2.5,1.12,2.5,2.5
	C96.4,64.99,95.28,66.11,93.9,66.11z M28.42,32.36c1.38,0,2.5,1.12,2.5,2.5c0,1.38-1.12,2.5-2.5,2.5c-1.38,0-2.5-1.12-2.5-2.5
	C25.92,33.48,27.04,32.36,28.42,32.36z M97.9,48.97c0,0.83-0.67,1.5-1.5,1.5h-3.5v3.5c0,0.83-0.67,1.5-1.5,1.5s-1.5-0.67-1.5-1.5
	v-3.5h-3.5c-0.83,0-1.5-0.67-1.5-1.5s0.67-1.5,1.5-1.5h3.5v-3.5c0-0.83,0.67-1.5,1.5-1.5s1.5,0.67,1.5,1.5v3.5h3.5
	C97.23,47.47,97.9,48.14,97.9,48.97z M21.05,17.14l6.11-3.53l-6.11-3.53c-0.72-0.41-0.96-1.33-0.55-2.05
	c0.41-0.72,1.33-0.96,2.05-0.55l6.11,3.53V3.96c0-0.83,0.67-1.5,1.5-1.5s1.5,0.67,1.5,1.5v7.06l6.11-3.53
	c0.72-0.42,1.63-0.17,2.05,0.55c0.41,0.72,0.17,1.63-0.55,2.05l-6.11,3.53l6.11,3.53c0.72,0.41,0.96,1.33,0.55,2.05
	c-0.28,0.48-0.78,0.75-1.3,0.75c-0.25,0-0.51-0.06-0.75-0.2l-6.11-3.53v7.06c0,0.83-0.67,1.5-1.5,1.5s-1.5-0.67-1.5-1.5v-7.06
	l-6.11,3.53c-0.24,0.14-0.49,0.2-0.75,0.2c-0.52,0-1.02-0.27-1.3-0.75C20.09,18.47,20.33,17.56,21.05,17.14z M4.17,39.56l6.11-3.53
	L4.17,32.5c-0.72-0.41-0.96-1.33-0.55-2.05c0.42-0.72,1.33-0.96,2.05-0.55l6.11,3.53v-7.06c0-0.83,0.67-1.5,1.5-1.5
	s1.5,0.67,1.5,1.5v7.06l6.11-3.53c0.72-0.42,1.64-0.17,2.05,0.55c0.41,0.72,0.17,1.63-0.55,2.05l-6.11,3.53l6.11,3.53
	c0.72,0.41,0.96,1.33,0.55,2.05c-0.28,0.48-0.78,0.75-1.3,0.75c-0.25,0-0.51-0.06-0.75-0.2l-6.11-3.53v7.06c0,0.83-0.67,1.5-1.5,1.5
	s-1.5-0.67-1.5-1.5v-7.06l-6.11,3.53c-0.24,0.14-0.49,0.2-0.75,0.2c-0.52,0-1.02-0.27-1.3-0.75C3.21,40.89,3.45,39.98,4.17,39.56z
	 M80.33,23.78v-7.06c0-0.83,0.67-1.5,1.5-1.5s1.5,0.67,1.5,1.5v7.06l6.11-3.53c0.72-0.41,1.63-0.17,2.05,0.55
	c0.41,0.72,0.17,1.63-0.55,2.05l-6.11,3.53l6.11,3.53c0.72,0.41,0.96,1.33,0.55,2.05c-0.28,0.48-0.78,0.75-1.3,0.75
	c-0.25,0-0.51-0.06-0.75-0.2l-6.11-3.53v7.06c0,0.83-0.67,1.5-1.5,1.5s-1.5-0.67-1.5-1.5v-7.06l-6.11,3.53
	c-0.24,0.14-0.49,0.2-0.75,0.2c-0.52,0-1.02-0.27-1.3-0.75c-0.41-0.72-0.17-1.63,0.55-2.05l6.11-3.53l-6.11-3.53
	c-0.72-0.41-0.96-1.33-0.55-2.05c0.41-0.72,1.33-0.96,2.05-0.55L80.33,23.78z M89.22,79.58v-6.74c0-0.77-0.59-1.4-1.34-1.48
	l-4.59-17.34c-0.17-0.66-0.77-1.12-1.45-1.12s-1.28,0.46-1.45,1.12l-4.51,17.02l-4.4-11.74c-0.22-0.59-0.78-0.97-1.4-0.97
	s-1.18,0.39-1.4,0.97l-4.15,11.06v-0.77V53.46h1.13c3.27,0,5.92-2.66,5.92-5.92v-2.75c0.15-0.1,0.29-0.22,0.4-0.37
	c0.28-0.39,0.36-0.89,0.21-1.35l-3.87-11.74c-0.2-0.61-0.78-1.03-1.42-1.03s-1.22,0.42-1.42,1.03l-3.53,10.71h-0.67V27.68h0.67
	c0.83,0,1.5-0.67,1.5-1.5s-0.67-1.5-1.5-1.5h-0.88L57.99,4.26c-0.11-0.73-0.74-1.28-1.48-1.28s-1.37,0.54-1.48,1.28l-3.06,20.42
	h-0.88c-0.83,0-1.5,0.67-1.5,1.5s0.67,1.5,1.5,1.5h0.67v13.2l-2.42-6.3v-4.06c0-0.83-0.67-1.5-1.5-1.5s-1.5,0.67-1.5,1.5v2.84h-2.42
	v-2.84c0-0.83-0.67-1.5-1.5-1.5s-1.5,0.67-1.5,1.5v4.06l-5.32,13.84c-0.01,0.02-0.01,0.04-0.02,0.06c-0.03,0.08-0.05,0.16-0.06,0.24
	c-0.01,0.04-0.01,0.08-0.01,0.12c0,0.04-0.01,0.07-0.01,0.11v4.51c0,0.83,0.67,1.5,1.5,1.5s1.5-0.67,1.5-1.5v-3.01h13.27v16.19
	l-3.58-11.62c-0.19-0.63-0.77-1.06-1.43-1.06h-3.25c-0.66,0-1.24,0.43-1.43,1.06l-3.58,11.62v-7.18c0-0.83-0.67-1.5-1.5-1.5
	s-1.5,0.67-1.5,1.5v9.15L31.4,48.67c-0.14-0.7-0.76-1.2-1.47-1.2s-1.33,0.5-1.47,1.2l-4.47,21.85l-1.18-4.46
	c-0.21-0.8-1.03-1.28-1.83-1.07c-0.8,0.21-1.28,1.03-1.07,1.83l1.19,4.51h-5.87l2.93-11.08l0.24,0.91c0.21,0.8,1.03,1.28,1.83,1.07
	c0.8-0.21,1.28-1.03,1.07-1.83l-1.69-6.39c-0.17-0.66-0.77-1.12-1.45-1.12s-1.28,0.46-1.45,1.12l-4.59,17.34
	c-0.75,0.08-1.34,0.71-1.34,1.48v6.74c0,0.83,0.67,1.5,1.5,1.5h1.5v4.51H11c-0.83,0-1.5,0.67-1.5,1.5s0.67,1.5,1.5,1.5h2.78v7.04
	c0,0.83,0.67,1.5,1.5,1.5h9.76h3.37c0.83,0,1.5-0.67,1.5-1.5s-0.67-1.5-1.5-1.5h-1.87V81.08h8.93v13.04h-1.06
	c-0.83,0-1.5,0.67-1.5,1.5s0.67,1.5,1.5,1.5h2.56h6.47c0.01,0,0.03,0,0.04,0h13.02c0.01,0,0.03,0,0.04,0h6.47h11.93h9.76
	c0.83,0,1.5-0.67,1.5-1.5v-6.11c0-0.83-0.67-1.5-1.5-1.5s-1.5,0.67-1.5,1.5v4.61h-6.76V81.08h6.76v2.43c0,0.83,0.67,1.5,1.5,1.5
	s1.5-0.67,1.5-1.5v-2.43h1.5C88.55,81.08,89.22,80.41,89.22,79.58z M81.83,60.25l2.93,11.08H78.9L81.83,60.25z M70.07,64.09
	l2.72,7.25h-5.44L70.07,64.09z M65.19,74.34h8.26v3.74h-8.93v-3.9C64.72,74.28,64.95,74.34,65.19,74.34z M54.75,60.32l3.38-4.51
	l3.38,4.51v7.76h-6.76V60.32z M68.57,47.54c0,1.61-1.31,2.92-2.92,2.92h-1.13v-5.42h4.05V47.54z M66.89,36.6l1.79,5.44h-3.59
	L66.89,36.6z M61.52,51.96v3.36l-2.18-2.91c-0.57-0.75-1.83-0.75-2.4,0l-2.18,2.91v-6.35v-3.92h5.01h1.75V51.96z M54.75,42.04V27.68
	h3.51v14.36H54.75z M56.51,14.6l1.51,10.09H55L56.51,14.6z M46.62,47.47v-3.92c0-0.83-0.67-1.5-1.5-1.5s-1.5,0.67-1.5,1.5v3.92
	h-4.45l4.27-11.1h3.36l4.27,11.1H46.62z M29.93,56.45l3.04,14.88h-6.09L29.93,56.45z M23.55,94.12h-6.76V81.08h0.27
	c0.83,0,1.5-0.67,1.5-1.5s-0.67-1.5-1.5-1.5h-1.77h-1.5v-3.74h9.76v3.74h-0.5c-0.83,0-1.5,0.67-1.5,1.5s0.67,1.5,1.5,1.5h0.5V94.12z
	 M26.55,78.08v-3.74h8.26c0.24,0,0.46-0.06,0.67-0.16v3.9H26.55z M73.45,94.12h-8.93v-2.05c0-0.83-0.67-1.5-1.5-1.5
	s-1.5,0.67-1.5,1.5v2.05h-3.51V83.69c0-0.98-0.17-1.93-0.49-2.82c-0.18-0.62-0.76-1.07-1.44-1.07c-0.83,0-1.5,0.68-1.5,1.5
	c0,0.18,0.03,0.36,0.1,0.53c0.22,0.59,0.33,1.2,0.33,1.86v10.43H44.99V83.69c0-3.8,3.72-5.53,5.01-6.01
	c0.34,0.13,0.85,0.35,1.42,0.68c0.72,0.41,1.63,0.16,2.05-0.56c0.41-0.72,0.16-1.64-0.56-2.05c-1.31-0.75-2.37-1.06-2.49-1.1
	c-0.27-0.08-0.56-0.08-0.83,0c-0.31,0.09-7.59,2.28-7.59,9.04v10.43h-3.51v-23.2c0.21,0.1,0.43,0.16,0.67,0.16h2.97
	c0.83,0,1.5-0.67,1.5-1.5s-0.67-1.5-1.5-1.5h-0.94l3.42-11.1h1.04l3.42,11.1h-0.94c-0.83,0-1.5,0.67-1.5,1.5s0.67,1.5,1.5,1.5h2.97
	c0.03,0,0.05-0.01,0.08-0.01c0.03,0,0.06,0.01,0.09,0.01h2h8.26v14.99c0,0.83,0.67,1.5,1.5,1.5s1.5-0.67,1.5-1.5v-4.99h8.93V94.12z
	 M86.22,78.08h-1.5h-8.26v-3.74h0.5h9.26V78.08z M6.47,86.79c0.02,0.1,0.03,0.2,0.03,0.29c0,0.4-0.16,0.78-0.44,1.06
	C5.78,88.43,5.4,88.58,5,88.58c-0.2,0-0.39-0.03-0.57-0.11c-0.19-0.07-0.35-0.18-0.49-0.33c-0.28-0.28-0.44-0.66-0.44-1.06
	c0-0.09,0.01-0.19,0.03-0.29c0.02-0.1,0.05-0.19,0.09-0.28c0.03-0.09,0.08-0.18,0.13-0.26c0.06-0.08,0.12-0.16,0.19-0.23
	c0.07-0.07,0.14-0.13,0.23-0.18c0.08-0.06,0.17-0.1,0.26-0.14c0.09-0.04,0.18-0.07,0.28-0.09c0.49-0.09,1,0.06,1.35,0.41
	c0.07,0.07,0.13,0.15,0.19,0.23c0.05,0.08,0.1,0.17,0.14,0.26C6.42,86.6,6.45,86.69,6.47,86.79z M96.5,87.08
	c0,0.83-0.67,1.5-1.5,1.5h-5.28c-0.83,0-1.5-0.67-1.5-1.5s0.67-1.5,1.5-1.5H95C95.83,85.58,96.5,86.26,96.5,87.08z"/>
</svg>
