<?xml version="1.0" encoding="utf-8"?>
<!-- Generator: Adobe Illustrator 24.1.0, SVG Export Plug-In . SVG Version: 6.00 Build 0)  -->
<svg version="1.1" id="Layer_1" xmlns="http://www.w3.org/2000/svg" xmlns:xlink="http://www.w3.org/1999/xlink" x="0px" y="0px"
	 viewBox="0 0 100 100" style="enable-background:new 0 0 100 100;" xml:space="preserve">
<path d="M6.76,12.51c2.76,0,5-2.24,5-5s-2.24-5-5-5s-5,2.24-5,5S4,12.51,6.76,12.51z M6.76,5.51c1.1,0,2,0.9,2,2s-0.9,2-2,2
	s-2-0.9-2-2S5.66,5.51,6.76,5.51z M83.4,16.01c2.76,0,5-2.24,5-5s-2.24-5-5-5s-5,2.24-5,5S80.64,16.01,83.4,16.01z M83.4,9.01
	c1.1,0,2,0.9,2,2s-0.9,2-2,2s-2-0.9-2-2S82.3,9.01,83.4,9.01z M11.79,20.72c0,1.38-1.12,2.5-2.5,2.5c-1.38,0-2.5-1.12-2.5-2.5
	c0-1.38,1.12-2.5,2.5-2.5C10.67,18.22,11.79,19.34,11.79,20.72z M97.48,4.34c0,1.38-1.12,2.5-2.5,2.5c-1.38,0-2.5-1.12-2.5-2.5
	c0-1.38,1.12-2.5,2.5-2.5C96.36,1.84,97.48,2.96,97.48,4.34z M44.5,4.34c0-1.38,1.12-2.5,2.5-2.5c1.38,0,2.5,1.12,2.5,2.5
	c0,1.38-1.12,2.5-2.5,2.5C45.62,6.84,44.5,5.73,44.5,4.34z M93.9,35.91c1.38,0,2.5,1.12,2.5,2.5c0,1.38-1.12,2.5-2.5,2.5
	c-1.38,0-2.5-1.12-2.5-2.5C91.4,37.03,92.52,35.91,93.9,35.91z M60.45,22.25c0,1.38-1.12,2.5-2.5,2.5c-1.38,0-2.5-1.12-2.5-2.5
	s1.12-2.5,2.5-2.5C59.33,19.75,60.45,20.87,60.45,22.25z M87.98,19.33c0.83,0,1.5,0.67,1.5,1.5v3.5h3.5c0.83,0,1.5,0.67,1.5,1.5
	s-0.67,1.5-1.5,1.5h-3.5v3.5c0,0.83-0.67,1.5-1.5,1.5s-1.5-0.67-1.5-1.5v-3.5h-3.5c-0.83,0-1.5-0.67-1.5-1.5s0.67-1.5,1.5-1.5h3.5
	v-3.5C86.48,20,87.15,19.33,87.98,19.33z M54.5,8.82c0-0.83,0.67-1.5,1.5-1.5h3.5v-3.5c0-0.83,0.67-1.5,1.5-1.5s1.5,0.67,1.5,1.5
	v3.5H66c0.83,0,1.5,0.67,1.5,1.5s-0.67,1.5-1.5,1.5h-3.5v3.5c0,0.83-0.67,1.5-1.5,1.5s-1.5-0.67-1.5-1.5v-3.5H56
	C55.17,10.32,54.5,9.64,54.5,8.82z M95,70.03h-5.02H83.5v-0.5c0-0.83-0.67-1.5-1.5-1.5h-5.8l-4.19-1.2
	c2.02-0.61,3.52-2.38,3.73-4.55h0.55c0.83,0,1.5-0.67,1.5-1.5s-0.67-1.5-1.5-1.5h-0.55c-0.25-2.68-2.49-4.79-5.24-4.79
	c-2.39,0-4.39,1.61-5.04,3.79h-2.87c-0.4,0-0.78,0.16-1.06,0.44l-4.36,4.36c-3.76-0.66-7.55-1.05-11.36-1.2
	c0-0.03,0.01-0.06,0.01-0.09c0-0.83-0.67-1.5-1.5-1.5h-3.64c-0.83,0-1.5,0.67-1.5,1.5c0,0.03,0.01,0.06,0.01,0.1
	c-2.41,0.1-4.83,0.28-7.24,0.58H20.16c-0.83,0-1.5,0.67-1.5,1.5s0.67,1.5,1.5,1.5h6.51c-1.19,1.44-1.91,3.28-1.91,5.29v2.01
	c0,2.01,0.72,3.85,1.91,5.29h-6.62c-2.92,0-5.29-2.37-5.29-5.29v-2.01c0-0.31,0.03-0.62,0.08-0.92c0,0,0,0,0,0
	c0.2-1.14,0.76-2.17,1.64-2.97c0.61-0.56,0.66-1.51,0.1-2.12c-0.56-0.61-1.51-0.66-2.12-0.1c-0.72,0.65-1.3,1.43-1.74,2.27
	L8.8,68.03H5c-0.83,0-1.5,0.67-1.5,1.5v10.02c0,0.83,0.67,1.5,1.5,1.5h3.8l7.95,2.27l-1.96,9.15h-0.27c-0.83,0-1.5,0.67-1.5,1.5
	s0.67,1.5,1.5,1.5h3.97c0.83,0,1.5-0.67,1.5-1.5s-0.67-1.5-1.5-1.5h-0.63l1.78-8.34c1.29,0.36,2.59,0.69,3.9,0.99
	c0.14,1.73,1.24,3.19,2.78,3.82l-0.59,3.53h-0.21c-0.83,0-1.5,0.67-1.5,1.5s0.67,1.5,1.5,1.5h3.97c0.83,0,1.5-0.67,1.5-1.5
	s-0.67-1.5-1.5-1.5h-0.71l0.53-3.2h11.2c0.83,0,1.5-0.67,1.5-1.5c0-0.18-0.04-0.34-0.09-0.5h3.18c-0.06,0.16-0.09,0.32-0.09,0.5
	c0,0.83,0.67,1.5,1.5,1.5H59c2.48,0,4.5-2.02,4.5-4.5v-0.14c0.77-0.2,1.55-0.4,2.31-0.61l1.46-0.42l1.9,8.87h-0.63
	c-0.83,0-1.5,0.67-1.5,1.5s0.67,1.5,1.5,1.5h3.97c0.83,0,1.5-0.67,1.5-1.5s-0.67-1.5-1.5-1.5h-0.27l-2.08-9.7l6.04-1.73H82
	c0.83,0,1.5-0.67,1.5-1.5v-6.52h4.98v5.02h-1.35c-0.83,0-1.5,0.67-1.5,1.5s0.67,1.5,1.5,1.5h2.85H95c0.83,0,1.5-0.67,1.5-1.5v-8.02
	C96.5,70.7,95.83,70.03,95,70.03z M43.56,68.03c-0.59-0.97-1.47-1.74-2.53-2.17c-0.01,0-0.01-0.01-0.02-0.01l-2.13-0.94
	c8.8-0.4,17.56,0.6,26.12,3.04l0.3,0.09H43.56z M36.76,70.75c0-1.26,1.03-2.29,2.29-2.29s2.29,1.03,2.29,2.29v2.01
	c0,1.26-1.03,2.29-2.29,2.29s-2.29-1.03-2.29-2.29V70.75z M70.5,57.49c1.09,0,2,0.77,2.23,1.79h-0.44c-0.83,0-1.5,0.67-1.5,1.5
	s0.67,1.5,1.5,1.5h0.44c-0.23,1.02-1.14,1.79-2.23,1.79c-1.26,0-2.29-1.03-2.29-2.29v-2.01C68.21,58.52,69.24,57.49,70.5,57.49z
	 M63.21,61.28h2v0.51c0,1.34,0.52,2.55,1.34,3.48l-0.74-0.21c-1.7-0.48-3.4-0.89-5.11-1.27L63.21,61.28z M27.76,70.75
	c0-2.83,2.23-5.12,5.02-5.26l2.85,1.26c-1.14,0.97-1.87,2.4-1.87,4v2.01c0,1.61,0.74,3.03,1.87,4l-2.84,1.26
	c-2.8-0.14-5.03-2.43-5.03-5.26V70.75z M6.5,71.03h2.49c0,0,0.01,0,0.01,0c0,0,0.01,0,0.01,0h2.75v1.73c0,0.09,0.01,0.19,0.01,0.28
	H10c-0.83,0-1.5,0.67-1.5,1.5s0.67,1.5,1.5,1.5h2.44c0.32,0.73,0.73,1.41,1.24,2.01H6.5V71.03z M59,86.28h-3.6
	c1.67-0.26,3.33-0.56,4.98-0.91C60.15,85.91,59.62,86.28,59,86.28z M53.3,83.57c-0.82,0.11-1.4,0.86-1.29,1.68
	c0.06,0.45,0.32,0.8,0.67,1.03h-5.27c0.06-0.16,0.09-0.32,0.09-0.5c0-0.83-0.67-1.5-1.5-1.5h-5c-0.83,0-1.5,0.67-1.5,1.5
	c0,0.18,0.04,0.34,0.09,0.5H34.6c0.2-0.23,0.36-0.5,0.39-0.83c0.09-0.82-0.51-1.56-1.33-1.65c-4.62-0.49-9.22-1.39-13.65-2.66
	l-0.3-0.09h32.3c0.83,0,1.5-0.67,1.5-1.5s-0.67-1.5-1.5-1.5H40.15l0.86-0.38c0.01,0,0.01-0.01,0.02-0.01c0.92-0.37,1.71-1,2.28-1.79
	c0.21,0.11,0.44,0.18,0.69,0.18h3c0.83,0,1.5-0.67,1.5-1.5s-0.67-1.5-1.5-1.5h-2.69c0-0.09,0.03-0.18,0.03-0.28v-1.74h30.14v7.02
	H58.01c-0.83,0-1.5,0.67-1.5,1.5s0.67,1.5,1.5,1.5h7.28l-0.3,0.09C61.19,82.23,57.25,83.04,53.3,83.57z M80.5,78.05h-3.02v-7.02
	h3.02V78.05z M93.5,78.05h-2.02v-5.02h2.02V78.05z M66.5,74.54c0-0.83,0.67-1.5,1.5-1.5h3c0.83,0,1.5,0.67,1.5,1.5
	s-0.67,1.5-1.5,1.5h-3C67.17,76.04,66.5,75.37,66.5,74.54z M58.5,74.54c0-0.83,0.67-1.5,1.5-1.5h3c0.83,0,1.5,0.67,1.5,1.5
	s-0.67,1.5-1.5,1.5h-3C59.17,76.04,58.5,75.37,58.5,74.54z M56.5,74.54c0,0.83-0.67,1.5-1.5,1.5h-3c-0.83,0-1.5-0.67-1.5-1.5
	s0.67-1.5,1.5-1.5h3C55.83,73.04,56.5,73.71,56.5,74.54z M64.04,93.98c0,0.83-0.67,1.5-1.5,1.5h-9.03c-0.83,0-1.5-0.67-1.5-1.5
	s0.67-1.5,1.5-1.5h9.03C63.37,92.48,64.04,93.15,64.04,93.98z M48.57,92.92c0.28,0.28,0.44,0.67,0.44,1.06
	c0,0.4-0.16,0.78-0.44,1.06c-0.29,0.28-0.66,0.44-1.06,0.44s-0.78-0.16-1.06-0.44c-0.29-0.28-0.44-0.66-0.44-1.06
	c0-0.39,0.16-0.78,0.44-1.06c0.06-0.07,0.14-0.13,0.22-0.19c0.08-0.05,0.17-0.1,0.26-0.13c0.09-0.04,0.19-0.07,0.28-0.09
	c0.2-0.04,0.4-0.04,0.59,0c0.09,0.02,0.19,0.05,0.28,0.09c0.09,0.03,0.18,0.08,0.26,0.13C48.42,92.79,48.5,92.85,48.57,92.92z
	 M13.58,48.91H5c-0.83,0-1.5-0.67-1.5-1.5s0.67-1.5,1.5-1.5h8.58c0.83,0,1.5,0.67,1.5,1.5S14.41,48.91,13.58,48.91z M8.58,51.91
	c0.83,0,1.5,0.67,1.5,1.5s-0.67,1.5-1.5,1.5H5c-0.83,0-1.5-0.67-1.5-1.5s0.67-1.5,1.5-1.5H8.58z M62,45.91c0.83,0,1.5,0.67,1.5,1.5
	s-0.67,1.5-1.5,1.5H50.4c-0.83,0-1.5-0.67-1.5-1.5s0.67-1.5,1.5-1.5H62z M69.39,46.84c0.03,0.09,0.06,0.18,0.08,0.28
	c0.02,0.1,0.03,0.19,0.03,0.29c0,0.1-0.01,0.2-0.03,0.3c-0.02,0.09-0.05,0.19-0.08,0.28c-0.04,0.09-0.09,0.17-0.14,0.25
	c-0.06,0.09-0.12,0.16-0.19,0.23c-0.28,0.28-0.67,0.44-1.06,0.44c-0.1,0-0.2-0.01-0.29-0.03c-0.1-0.02-0.19-0.04-0.28-0.08
	c-0.1-0.04-0.18-0.09-0.26-0.14c-0.09-0.06-0.16-0.12-0.23-0.19c-0.07-0.07-0.13-0.14-0.19-0.23c-0.05-0.08-0.1-0.16-0.14-0.25
	c-0.03-0.09-0.06-0.19-0.08-0.28c-0.02-0.1-0.03-0.2-0.03-0.3c0-0.1,0.01-0.19,0.03-0.29c0.02-0.1,0.05-0.19,0.08-0.28
	c0.04-0.09,0.09-0.18,0.14-0.26c0.06-0.08,0.12-0.16,0.19-0.23c0.07-0.07,0.14-0.13,0.23-0.18c0.08-0.06,0.16-0.11,0.26-0.14
	c0.09-0.04,0.18-0.07,0.28-0.09c0.48-0.1,1,0.06,1.35,0.41c0.07,0.07,0.13,0.15,0.19,0.23C69.3,46.66,69.35,46.75,69.39,46.84z
	 M96.5,47.41c0,0.83-0.67,1.5-1.5,1.5H74c-0.83,0-1.5-0.67-1.5-1.5s0.67-1.5,1.5-1.5h21C95.83,45.91,96.5,46.58,96.5,47.41z
	 M96.5,53.41c0,0.83-0.67,1.5-1.5,1.5H85c-0.83,0-1.5-0.67-1.5-1.5s0.67-1.5,1.5-1.5h10C95.83,51.91,96.5,52.58,96.5,53.41z
	 M96.5,87.98c0,0.83-0.67,1.5-1.5,1.5h-1.1v1.5c0,0.83-0.67,1.5-1.5,1.5s-1.5-0.67-1.5-1.5v-1.5h-3v3.09c0.58,0.21,1,0.76,1,1.41
	c0,0.83-0.67,1.5-1.5,1.5h-8c-0.83,0-1.5-0.67-1.5-1.5s0.67-1.5,1.5-1.5h5.5v-3h-1.5c-0.83,0-1.5-0.67-1.5-1.5s0.67-1.5,1.5-1.5H95
	C95.83,86.48,96.5,87.15,96.5,87.98z M9.09,40.24c0.02,0.02,0.06,0.03,0.08,0.05c0.11,0.1,0.23,0.18,0.37,0.24
	c0.04,0.02,0.07,0.03,0.11,0.04c0.15,0.06,0.32,0.09,0.49,0.09c0.01,0,0.02,0,0.02,0c0,0,0.01,0,0.01,0c0.46,0,0.86-0.21,1.14-0.53
	l1.09-1.09c0.98-0.98,2.56-0.97,3.54,0l2.84,2.84l-2.05,15.96c-0.11,0.82,0.48,1.57,1.3,1.68c0.06,0.01,0.13,0.01,0.19,0.01
	c0.74,0,1.39-0.55,1.49-1.31l3.45-26.91H33.5c0.83,0,1.5-0.67,1.5-1.5s-0.67-1.5-1.5-1.5h-9.95l0.26-2h1.44c0.83,0,1.5-0.67,1.5-1.5
	s-0.67-1.5-1.5-1.5h-1.26v-2H40v2h-9.26c-0.83,0-1.5,0.67-1.5,1.5s0.67,1.5,1.5,1.5h9.44l3.43,26.72c0.1,0.76,0.74,1.31,1.49,1.31
	c0.06,0,0.13,0,0.19-0.01c0.82-0.11,1.4-0.86,1.3-1.68l-1.64-12.76H80c0.83,0,1.5-0.67,1.5-1.5s-0.67-1.5-1.5-1.5h-3v-3.48
	c0-0.83-0.67-1.5-1.5-1.5s-1.5,0.67-1.5,1.5v3.48h-1V16.44c0-0.83-0.67-1.5-1.5-1.5s-1.5,0.67-1.5,1.5v20.48h-1v-9.48
	c0-0.83-0.67-1.5-1.5-1.5s-1.5,0.67-1.5,1.5v9.48h-3.99l0.42-0.62c0.39-0.58,0.33-1.35-0.15-1.86c-3.45-3.71-8.59-5.6-13.81-5.19
	v-4.41c0-0.83-0.67-1.5-1.5-1.5H43v-2.84l4.56-4.16h1.64c0.83,0,1.5-0.67,1.5-1.5s-0.67-1.5-1.5-1.5h-1.61
	c-1.64-1.65-3.53-3.01-5.64-4.04c-0.74-0.36-1.64-0.05-2,0.7c-0.36,0.75-0.05,1.64,0.7,2c0.8,0.39,1.55,0.84,2.27,1.33H21.05
	c4.15-2.83,9.51-3.95,14.76-2.94c0.82,0.16,1.6-0.38,1.76-1.19c0.16-0.81-0.38-1.6-1.19-1.76c-7.39-1.42-14.98,0.84-20,5.89h-1.6
	c-0.83,0-1.5,0.67-1.5,1.5s0.67,1.5,1.5,1.5h1.64l4.56,4.16v4.27l-1.72,13.38l-1.2-1.2c-1.73-1.73-4.32-2.04-6.39-0.98v-5.53
	c0-0.83-0.67-1.5-1.5-1.5s-1.5,0.67-1.5,1.5v5.15l-3.01-3.01c-0.59-0.59-1.54-0.59-2.12,0c-0.59,0.59-0.59,1.54,0,2.12L9.09,40.24z
	 M23.07,18.33l-2.2-2h22.24l-2.2,2H23.07z M59.25,35.65l-0.85,1.26H44.56l-0.42-3.26h0.21c1.14,0,2.18-0.47,2.93-1.22
	C51.67,31.65,56.12,32.85,59.25,35.65z M45.48,29.52c0,0.62-0.51,1.13-1.13,1.13h-0.59l-0.55-4.32h2.27V29.52z"/>
</svg>
