<?xml version="1.0" encoding="utf-8"?>
<!-- Generator: Adobe Illustrator 24.1.0, SVG Export Plug-In . SVG Version: 6.00 Build 0)  -->
<svg version="1.1" id="Layer_1" xmlns="http://www.w3.org/2000/svg" xmlns:xlink="http://www.w3.org/1999/xlink" x="0px" y="0px"
	 viewBox="0 0 100 100" style="enable-background:new 0 0 100 100;" xml:space="preserve">
<path d="M20.62,86.72c-2.76,0-5,2.24-5,5s2.24,5,5,5s5-2.24,5-5S23.37,86.72,20.62,86.72z M20.62,93.72c-1.1,0-2-0.9-2-2s0.9-2,2-2
	s2,0.9,2,2S21.72,93.72,20.62,93.72z M86.31,17.78c2.76,0,5-2.24,5-5s-2.24-5-5-5s-5,2.24-5,5S83.55,17.78,86.31,17.78z
	 M86.31,10.78c1.1,0,2,0.9,2,2s-0.9,2-2,2s-2-0.9-2-2S85.21,10.78,86.31,10.78z M72.93,4.28c0-1.38,1.12-2.5,2.5-2.5
	c1.38,0,2.5,1.12,2.5,2.5c0,1.38-1.12,2.5-2.5,2.5C74.05,6.78,72.93,5.66,72.93,4.28z M5.78,20.69c0-1.38,1.12-2.5,2.5-2.5
	c1.38,0,2.5,1.12,2.5,2.5c0,1.38-1.12,2.5-2.5,2.5C6.9,23.19,5.78,22.07,5.78,20.69z M8.38,95.22c0,1.38-1.12,2.5-2.5,2.5
	c-1.38,0-2.5-1.12-2.5-2.5s1.12-2.5,2.5-2.5C7.26,92.72,8.38,93.84,8.38,95.22z M94.22,79.2c0,1.38-1.12,2.5-2.5,2.5
	c-1.38,0-2.5-1.12-2.5-2.5c0-1.38,1.12-2.5,2.5-2.5C93.1,76.7,94.22,77.82,94.22,79.2z M71.94,95.22c0,1.38-1.12,2.5-2.5,2.5
	c-1.38,0-2.5-1.12-2.5-2.5s1.12-2.5,2.5-2.5C70.82,92.72,71.94,93.84,71.94,95.22z M10.78,9.28c0-0.83,0.67-1.5,1.5-1.5h3.5v-3.5
	c0-0.83,0.67-1.5,1.5-1.5s1.5,0.67,1.5,1.5v3.5h3.5c0.83,0,1.5,0.67,1.5,1.5s-0.67,1.5-1.5,1.5h-3.5v3.5c0,0.83-0.67,1.5-1.5,1.5
	s-1.5-0.67-1.5-1.5v-3.5h-3.5C11.45,10.78,10.78,10.11,10.78,9.28z M14.78,82.64c0,0.83-0.67,1.5-1.5,1.5h-3.5v3.5
	c0,0.83-0.67,1.5-1.5,1.5s-1.5-0.67-1.5-1.5v-3.5h-3.5c-0.83,0-1.5-0.67-1.5-1.5s0.67-1.5,1.5-1.5h3.5v-3.5c0-0.83,0.67-1.5,1.5-1.5
	s1.5,0.67,1.5,1.5v3.5h3.5C14.11,81.14,14.78,81.81,14.78,82.64z M92.81,90.97c0,0.83-0.67,1.5-1.5,1.5h-3.5v3.5
	c0,0.83-0.67,1.5-1.5,1.5s-1.5-0.67-1.5-1.5v-3.5h-3.5c-0.83,0-1.5-0.67-1.5-1.5s0.67-1.5,1.5-1.5h3.5v-3.5c0-0.83,0.67-1.5,1.5-1.5
	s1.5,0.67,1.5,1.5v3.5h3.5C92.14,89.47,92.81,90.14,92.81,90.97z M90.22,34.55c0.28,0.28,0.44,0.67,0.44,1.06
	c0,0.4-0.16,0.78-0.44,1.07c-0.28,0.27-0.67,0.43-1.06,0.43c-0.4,0-0.79-0.16-1.06-0.43c-0.07-0.07-0.14-0.15-0.19-0.23
	c-0.06-0.09-0.1-0.17-0.14-0.26c-0.04-0.09-0.07-0.19-0.08-0.28c-0.02-0.1-0.03-0.2-0.03-0.3c0-0.39,0.16-0.78,0.44-1.06
	C88.65,34,89.66,34,90.22,34.55z M59.04,7.74c12.41,2.66,22.98,10.6,29.01,21.77c0.39,0.73,0.12,1.64-0.61,2.03
	c-0.73,0.39-1.64,0.12-2.03-0.61c-5.61-10.4-15.45-17.79-26.99-20.27C36.73,6.03,15.32,19.9,10.68,41.58
	c-1.35,6.31-1.19,12.65,0.48,18.82c0.22,0.8-0.26,1.62-1.06,1.84c-0.13,0.04-0.26,0.05-0.39,0.05c-0.66,0-1.27-0.44-1.45-1.11
	c-1.77-6.55-1.95-13.55-0.52-20.23C12.74,17.66,35.75,2.76,59.04,7.74z M51.96,91.71c0.01,0.83-0.66,1.51-1.48,1.51
	c-0.14,0-0.29,0-0.43,0c-3.05,0-6.1-0.32-9.09-0.96c-13.67-2.93-25.12-12.34-30.64-25.18c-0.33-0.76,0.02-1.64,0.79-1.97
	c0.76-0.33,1.64,0.02,1.97,0.79c5.14,11.95,15.8,20.71,28.52,23.44c2.91,0.62,5.89,0.91,8.86,0.9
	C51.32,90.23,51.95,90.88,51.96,91.71z M56.38,92.75c-0.08,0.01-0.15,0.02-0.22,0.02c-0.73,0-1.37-0.53-1.48-1.28
	c-0.12-0.82,0.44-1.58,1.26-1.71c16.48-2.46,29.89-15.07,33.38-31.36c1.2-5.59,1.2-11.24,0.02-16.78c-0.17-0.81,0.34-1.61,1.15-1.78
	c0.8-0.17,1.61,0.34,1.78,1.15c1.27,5.96,1.26,12.03-0.02,18.04C88.5,76.56,74.09,90.1,56.38,92.75z M43.32,81.19
	c1.35,0.29,2.21,1.62,1.92,2.97c-0.29,1.35-1.62,2.21-2.97,1.92c-1.35-0.29-2.21-1.62-1.92-2.97
	C40.64,81.77,41.97,80.91,43.32,81.19z M81.97,66.29c0.11,0.02,0.21,0.03,0.32,0.03c0.69,0,1.31-0.48,1.46-1.19
	c0.17-0.81-0.34-1.61-1.15-1.78l-0.63-0.14c0.01-0.43-0.01-0.85-0.07-1.27l0.62-0.2c0.79-0.25,1.22-1.1,0.97-1.89
	c-0.25-0.79-1.1-1.22-1.89-0.97l-0.62,0.2c-0.2-0.37-0.43-0.73-0.69-1.07l0.43-0.48c0.56-0.62,0.51-1.56-0.11-2.12
	s-1.56-0.51-2.12,0.11l-0.43,0.48c-0.36-0.22-0.74-0.42-1.13-0.58l0.13-0.63c0.17-0.81-0.34-1.61-1.15-1.78
	c-0.81-0.17-1.61,0.34-1.78,1.15L74,54.8c-0.43-0.01-0.85,0.01-1.27,0.07l-0.2-0.61c-0.26-0.79-1.1-1.22-1.89-0.97
	c-0.79,0.25-1.22,1.1-0.97,1.89l0.2,0.61c-0.19,0.1-0.37,0.2-0.55,0.32c-0.18,0.12-0.35,0.24-0.52,0.37l-0.48-0.43
	c-0.61-0.55-1.56-0.51-2.12,0.11c-0.56,0.61-0.51,1.56,0.11,2.12l0.48,0.43c-0.22,0.36-0.42,0.74-0.58,1.14l-0.63-0.13
	c-0.81-0.17-1.61,0.34-1.78,1.15s0.34,1.61,1.15,1.78l0.63,0.13c-0.01,0.43,0.01,0.85,0.07,1.27l-0.61,0.2
	c-0.79,0.25-1.22,1.1-0.97,1.89c0.21,0.63,0.79,1.04,1.43,1.04c0.15,0,0.31-0.02,0.46-0.07l0.61-0.2c0.1,0.19,0.2,0.37,0.32,0.55
	c0.12,0.18,0.24,0.35,0.37,0.52l-0.43,0.48c-0.28,0.31-0.4,0.71-0.38,1.1c-5.93,4.95-13.98,7.15-21.81,5.47
	c-7.83-1.68-14.27-6.97-17.65-13.92c0.18-0.35,0.23-0.76,0.1-1.16l-0.2-0.63c0.19-0.1,0.38-0.19,0.56-0.31
	c0.18-0.12,0.35-0.24,0.52-0.37l0.48,0.43c0.29,0.26,0.65,0.39,1,0.39c0.41,0,0.82-0.17,1.11-0.49c0.56-0.62,0.51-1.56-0.11-2.12
	l-0.48-0.43c0.22-0.36,0.42-0.74,0.58-1.14l0.63,0.13c0.11,0.02,0.21,0.03,0.31,0.03c0.69,0,1.31-0.48,1.47-1.19
	c0.17-0.81-0.34-1.61-1.15-1.78l-0.63-0.13c0.01-0.43-0.01-0.85-0.07-1.27l0.61-0.2c0.79-0.25,1.22-1.1,0.97-1.89
	c-0.25-0.79-1.1-1.22-1.89-0.97l-0.61,0.2c-0.1-0.19-0.2-0.37-0.32-0.55c-0.12-0.18-0.24-0.35-0.37-0.52l0.43-0.48
	c0.56-0.61,0.51-1.56-0.11-2.12c-0.61-0.56-1.56-0.51-2.12,0.11l-0.43,0.48c-0.36-0.22-0.74-0.42-1.13-0.58l0.13-0.63
	c0.17-0.81-0.34-1.61-1.15-1.78c-0.81-0.17-1.61,0.34-1.78,1.15l-0.13,0.63c-0.43-0.01-0.85,0.01-1.27,0.07l-0.2-0.61
	c-0.25-0.79-1.1-1.22-1.89-0.97c-0.79,0.25-1.22,1.1-0.97,1.89l0.2,0.61c-0.19,0.1-0.37,0.2-0.55,0.32
	c-0.18,0.12-0.35,0.24-0.52,0.37l-0.48-0.43c-0.61-0.56-1.56-0.51-2.12,0.11c-0.56,0.61-0.51,1.56,0.11,2.12L16,47.84
	c-0.22,0.36-0.42,0.74-0.58,1.13l-0.63-0.13c-0.81-0.17-1.61,0.34-1.78,1.15c-0.17,0.81,0.34,1.61,1.15,1.78l0.63,0.13
	c-0.01,0.43,0.01,0.85,0.07,1.27l-0.61,0.2c-0.79,0.25-1.22,1.1-0.97,1.89c0.21,0.64,0.79,1.04,1.43,1.04
	c0.15,0,0.31-0.02,0.46-0.07l0.61-0.2c0.1,0.19,0.2,0.37,0.32,0.55c0.12,0.18,0.24,0.35,0.37,0.52l-0.43,0.48
	c-0.56,0.61-0.51,1.56,0.11,2.12c0.29,0.26,0.65,0.39,1,0.39c0.41,0,0.82-0.17,1.11-0.5l0.43-0.48c0.36,0.22,0.74,0.42,1.14,0.58
	l-0.13,0.63c-0.17,0.81,0.34,1.61,1.15,1.78c0.11,0.02,0.21,0.03,0.32,0.03c0.69,0,1.31-0.48,1.47-1.19l0.13-0.63
	c0.08,0,0.16,0.01,0.24,0.01c0.12,0,0.24-0.02,0.37-0.03c3.44,8.79,11.13,15.61,20.65,17.65c1.96,0.42,3.94,0.62,5.9,0.62
	c7.54,0,14.82-3.02,20.17-8.27c0.18,0.09,0.36,0.18,0.54,0.25l-0.13,0.63c-0.17,0.81,0.34,1.61,1.15,1.78
	c0.11,0.02,0.21,0.03,0.32,0.03c0.69,0,1.31-0.48,1.46-1.19l0.14-0.63c0.08,0,0.16,0.01,0.24,0.01c0.35,0,0.69-0.03,1.04-0.07
	l0.2,0.61c0.21,0.63,0.79,1.04,1.43,1.04c0.15,0,0.31-0.02,0.46-0.07c0.79-0.25,1.22-1.1,0.96-1.89l-0.2-0.63
	c0.19-0.1,0.38-0.19,0.56-0.31c0.18-0.12,0.35-0.24,0.52-0.37l0.48,0.43c0.29,0.26,0.65,0.39,1.01,0.39c0.41,0,0.82-0.17,1.11-0.49
	c0.55-0.62,0.51-1.56-0.11-2.12l-0.48-0.43c0.22-0.36,0.42-0.74,0.58-1.13L81.97,66.29z M24.83,54.58c0.57-0.43,1.01-1.05,1.17-1.81
	c0.36-1.67-0.71-3.31-2.37-3.66c-1.67-0.36-3.31,0.71-3.66,2.37c-0.32,1.5,0.51,2.97,1.89,3.51c0.14,0.77,0.31,1.53,0.51,2.28
	c-0.16-0.02-0.31-0.02-0.47-0.05c-1.36-0.29-2.52-1.09-3.28-2.26c-0.76-1.17-1.01-2.56-0.72-3.92c0.29-1.36,1.09-2.53,2.26-3.28
	c0.85-0.55,1.83-0.84,2.82-0.84c0.37,0,0.73,0.04,1.1,0.12c2.81,0.6,4.6,3.37,4,6.18c-0.29,1.36-1.09,2.52-2.26,3.28
	c-0.15,0.1-0.32,0.17-0.48,0.25C25.14,56.03,24.97,55.31,24.83,54.58z M72.69,68.09C72.69,68.09,72.69,68.09,72.69,68.09
	C72.69,68.09,72.69,68.09,72.69,68.09c-0.16-0.03-0.3-0.1-0.45-0.14c0.49-0.6,0.95-1.23,1.39-1.87c1.48,0.07,2.84-0.93,3.16-2.43
	c0.36-1.67-0.71-3.31-2.37-3.66c-1.67-0.36-3.31,0.71-3.66,2.37c-0.16,0.76-0.02,1.5,0.33,2.13c-0.42,0.61-0.87,1.2-1.34,1.77
	c-0.11-0.14-0.24-0.27-0.34-0.42c-0.76-1.17-1.01-2.56-0.72-3.92c0.29-1.36,1.09-2.53,2.26-3.28c0.85-0.55,1.83-0.84,2.82-0.84
	c0.37,0,0.73,0.04,1.1,0.12c2.81,0.6,4.6,3.37,4,6.18c-0.29,1.36-1.09,2.53-2.26,3.28C75.44,68.12,74.05,68.38,72.69,68.09z
	 M44.89,66.71l4.19-19.57c-1.51,0.94-3.28,1.47-5.12,1.47c-0.67,0-1.36-0.07-2.04-0.22c-4.43-0.95-7.67-4.92-7.7-9.45
	c-0.01-0.83,0.66-1.5,1.49-1.51c0,0,0.01,0,0.01,0c0.82,0,1.49,0.67,1.5,1.49c0.02,3.13,2.26,5.88,5.33,6.54
	c3.64,0.78,7.22-1.55,8-5.18l1.31-6.11c0.15-0.71,0.78-1.19,1.48-1.18c0.06,0,0.12,0.01,0.19,0.02c0.04,0.01,0.08,0,0.11,0.01
	c0.61,0.13,1.05,0.61,1.16,1.19c0.04,0.19,0.04,0.39-0.01,0.6l-1.31,6.1c-0.38,1.76-0.05,3.56,0.93,5.08s2.49,2.55,4.25,2.93
	c3.64,0.78,7.23-1.55,8-5.18l1.31-6.1c0.17-0.81,0.98-1.32,1.78-1.15c0.81,0.17,1.33,0.97,1.15,1.78l-1.31,6.1
	c-0.98,4.57-5.03,7.7-9.52,7.7c-0.67,0-1.36-0.07-2.04-0.22c-2.48-0.53-4.61-1.98-6.02-4.07l-4.19,19.56
	c-0.15,0.7-0.77,1.19-1.47,1.19c-0.1,0-0.21-0.01-0.32-0.03C45.23,68.32,44.71,67.52,44.89,66.71z M37.51,29.58
	c0.81,0.17,1.33,0.97,1.15,1.78l-0.45,2.09c-0.15,0.7-0.77,1.19-1.47,1.19c-0.1,0-0.21-0.01-0.32-0.03
	c-0.81-0.17-1.33-0.97-1.15-1.78l0.45-2.09C35.91,29.92,36.7,29.41,37.51,29.58z M46.14,33.43c-2.16-0.46-4.29,0.92-4.75,3.07
	c-0.46,2.16,0.92,4.29,3.07,4.75c0.28,0.06,0.56,0.09,0.85,0.09c0.76,0,1.51-0.22,2.17-0.64c0.9-0.58,1.51-1.48,1.74-2.52
	s0.03-2.11-0.55-3.01S47.19,33.65,46.14,33.43z M46.28,37.55c-0.06,0.26-0.21,0.48-0.43,0.63c-0.23,0.15-0.49,0.19-0.75,0.14
	c-0.54-0.12-0.88-0.65-0.77-1.19c0.06-0.26,0.21-0.48,0.43-0.63c0.16-0.11,0.35-0.16,0.54-0.16c0.07,0,0.14,0.01,0.21,0.02
	c0.26,0.06,0.48,0.21,0.63,0.43C46.29,37.02,46.34,37.29,46.28,37.55z M60.31,36.46c-2.16-0.46-4.29,0.92-4.75,3.07
	c-0.22,1.04-0.03,2.11,0.55,3.01s1.48,1.51,2.52,1.74c0.28,0.06,0.56,0.09,0.85,0.09c0.76,0,1.51-0.22,2.17-0.64
	c0.9-0.58,1.51-1.48,1.74-2.52c0.22-1.04,0.03-2.11-0.55-3.01C62.25,37.3,61.35,36.68,60.31,36.46z M60.45,40.58
	c-0.06,0.26-0.21,0.48-0.43,0.63s-0.49,0.19-0.75,0.14s-0.49-0.21-0.63-0.43c-0.15-0.22-0.19-0.49-0.14-0.75
	c0.1-0.47,0.52-0.79,0.98-0.79c0.07,0,0.14,0.01,0.21,0.02c0.26,0.06,0.48,0.21,0.63,0.43C60.45,40.05,60.5,40.32,60.45,40.58z
	 M76.67,38.85L57.35,15.67l-16.92,8.25c-0.21,0.1-0.44,0.15-0.66,0.15c-0.56,0-1.09-0.31-1.35-0.84c-0.36-0.74-0.05-1.64,0.69-2.01
	l17.92-8.74c0.01-0.01,0.03-0.01,0.04-0.02l0.02-0.01c0.01-0.01,0.03-0.01,0.04-0.01c0.07-0.03,0.15-0.06,0.23-0.08
	c0.03-0.01,0.06-0.01,0.08-0.02c0.07-0.01,0.13-0.03,0.2-0.03c0.03,0,0.07,0,0.1,0c0.06,0,0.12,0,0.19,0.01
	c0.03,0,0.06,0.01,0.1,0.02c0.06,0.01,0.12,0.02,0.18,0.04c0.03,0.01,0.06,0.02,0.09,0.04c0.06,0.02,0.12,0.05,0.17,0.08
	c0.03,0.02,0.06,0.04,0.1,0.06c0.05,0.03,0.09,0.06,0.14,0.1c0.04,0.03,0.07,0.07,0.11,0.11c0.03,0.03,0.05,0.05,0.08,0.08
	l20.07,24.08c0.53,0.64,0.44,1.58-0.19,2.11c-0.28,0.23-0.62,0.35-0.96,0.35C77.39,39.39,76.96,39.21,76.67,38.85z M35.84,24.5
	c0.36,0.74,0.06,1.64-0.69,2.01l-4.91,2.4c-0.21,0.1-0.44,0.15-0.66,0.15c-0.56,0-1.09-0.31-1.35-0.84
	c-0.36-0.74-0.06-1.64,0.69-2.01l4.91-2.4C34.57,23.45,35.47,23.76,35.84,24.5z M57.75,20.97l-1.5,7c-0.15,0.7-0.77,1.19-1.46,1.19
	c-0.1,0-0.21-0.01-0.32-0.03c-0.81-0.17-1.33-0.97-1.15-1.78l1.5-7c0.17-0.81,0.98-1.32,1.78-1.15
	C57.41,19.36,57.92,20.16,57.75,20.97z M65.99,33.99c-2.5-0.41-4.22-2.38-4.27-4.91c-0.02-1.07-0.7-1.85-1.76-2.02
	c-0.82-0.13-1.37-0.9-1.24-1.72c0.13-0.82,0.9-1.37,1.72-1.24c2.5,0.41,4.22,2.38,4.27,4.91c0.02,1.07,0.7,1.85,1.76,2.02
	c0.82,0.13,1.37,0.91,1.24,1.72c-0.12,0.74-0.76,1.26-1.48,1.26C66.16,34.01,66.07,34.01,65.99,33.99z M52.14,23.93
	c-0.21,0.8-1.04,1.28-1.83,1.06c-1.04-0.28-1.97,0.15-2.43,1.12c-0.88,1.85-2.6,2.92-4.52,2.92c-0.46,0-0.92-0.06-1.39-0.19
	c-0.8-0.21-1.28-1.03-1.06-1.83c0.21-0.8,1.04-1.27,1.83-1.06c1.04,0.28,1.97-0.16,2.43-1.12c1.09-2.28,3.46-3.38,5.91-2.73
	C51.88,22.31,52.35,23.13,52.14,23.93z M49.82,30.68c-1.08-0.23-1.77-1.29-1.54-2.37c0.23-1.08,1.29-1.77,2.37-1.54
	c1.08,0.23,1.77,1.29,1.54,2.37C51.96,30.22,50.9,30.91,49.82,30.68z M58.91,28.54c1.08,0.23,1.77,1.29,1.54,2.37
	c-0.23,1.08-1.29,1.77-2.37,1.54c-1.08-0.23-1.77-1.29-1.54-2.37C56.77,28.99,57.83,28.31,58.91,28.54z"/>
</svg>
