<?xml version="1.0" encoding="utf-8"?>
<!-- Generator: Adobe Illustrator 24.1.0, SVG Export Plug-In . SVG Version: 6.00 Build 0)  -->
<svg version="1.1" id="Layer_1" xmlns="http://www.w3.org/2000/svg" xmlns:xlink="http://www.w3.org/1999/xlink" x="0px" y="0px"
	 viewBox="0 0 100 100" style="enable-background:new 0 0 100 100;" xml:space="preserve">
<path d="M14.83,18.92c2.76,0,5-2.24,5-5s-2.24-5-5-5s-5,2.24-5,5S12.07,18.92,14.83,18.92z M14.83,11.92c1.1,0,2,0.9,2,2s-0.9,2-2,2
	s-2-0.9-2-2S13.73,11.92,14.83,11.92z M31,8.92c0-1.38,1.12-2.5,2.5-2.5S36,7.54,36,8.92c0,1.38-1.12,2.5-2.5,2.5S31,10.3,31,8.92z
	 M88,24.78c1.38,0,2.5,1.12,2.5,2.5c0,1.38-1.12,2.5-2.5,2.5s-2.5-1.12-2.5-2.5C85.5,25.9,86.62,24.78,88,24.78z M6.5,27.28
	c0-1.38,1.12-2.5,2.5-2.5s2.5,1.12,2.5,2.5c0,1.38-1.12,2.5-2.5,2.5S6.5,28.66,6.5,27.28z M67.32,24.78c0-1.38,1.12-2.5,2.5-2.5
	c1.38,0,2.5,1.12,2.5,2.5c0,1.38-1.12,2.5-2.5,2.5C68.44,27.28,67.32,26.16,67.32,24.78z M22,24.78c0-0.83,0.67-1.5,1.5-1.5H27v-3.5
	c0-0.83,0.67-1.5,1.5-1.5s1.5,0.67,1.5,1.5v3.5h3.5c0.83,0,1.5,0.67,1.5,1.5s-0.67,1.5-1.5,1.5H30v3.5c0,0.83-0.67,1.5-1.5,1.5
	s-1.5-0.67-1.5-1.5v-3.5h-3.5C22.67,26.28,22,25.61,22,24.78z M74.36,13.92c0-0.83,0.67-1.5,1.5-1.5h3.5v-3.5
	c0-0.83,0.67-1.5,1.5-1.5s1.5,0.67,1.5,1.5v3.5h3.5c0.83,0,1.5,0.67,1.5,1.5s-0.67,1.5-1.5,1.5h-3.5v3.5c0,0.83-0.67,1.5-1.5,1.5
	s-1.5-0.67-1.5-1.5v-3.5h-3.5C75.03,15.42,74.36,14.75,74.36,13.92z M96,72.61c0.83,0,1.5-0.67,1.5-1.5s-0.67-1.5-1.5-1.5h-1.5v-7
	h1.12c0.83,0,1.5-0.67,1.5-1.5s-0.67-1.5-1.5-1.5H90.5v-2.95c0.16,0.06,0.32,0.09,0.5,0.09c0.83,0,1.5-0.67,1.5-1.5v-0.5H93
	c0.83,0,1.5-0.67,1.5-1.5s-0.67-1.5-1.5-1.5h-0.86l-2.64-9.62v-2.26c0-0.83-0.67-1.5-1.5-1.5s-1.5,0.67-1.5,1.5v0.96h-4.14v-0.96
	c0-0.83-0.67-1.5-1.5-1.5s-1.5,0.67-1.5,1.5v2.26l-0.09,0.34h-5.2c-0.83,0-1.5,0.67-1.5,1.5s0.67,1.5,1.5,1.5h4.38l-1.18,4.28h-2.82
	v-0.37c0-0.83-0.67-1.5-1.5-1.5s-1.5,0.67-1.5,1.5v0.37h-6v-0.37c0-0.83-0.67-1.5-1.5-1.5s-1.5,0.67-1.5,1.5v0.37h-4.37v-4.28h9.99
	c0.83,0,1.5-0.67,1.5-1.5s-0.67-1.5-1.5-1.5h-9.99v-2.65c0.79-0.04,1.42-0.69,1.42-1.49v-0.5h0.08c0.83,0,1.5-0.67,1.5-1.5
	s-0.67-1.5-1.5-1.5h-0.83l-0.67-2.68v-3.03c0-2.43-1.49-4.52-3.61-5.41v-2.98h0.5c0.83,0,1.5-0.67,1.5-1.5s-0.67-1.5-1.5-1.5h-2
	H51.5v-2.68l0.96,0.19c0.26,0.06,0.52,0.1,0.77,0.11c0.03,0,0.06,0,0.09,0c0.79,0,1.45-0.62,1.5-1.41c0.05-0.83-0.58-1.54-1.41-1.58
	c-0.09-0.01-0.19-0.02-0.32-0.05L51.5,12V7.89l0.99,0.2c1.75,0.35,3.58,0.1,5.16-0.69c0.99-0.5,2.13-0.66,3.22-0.43l1.58,0.32v4.12
	l-1-0.2c-0.89-0.17-1.8-0.2-2.7-0.07c-0.82,0.11-1.39,0.87-1.28,1.69c0.11,0.82,0.87,1.39,1.69,1.28c0.57-0.08,1.15-0.06,1.71,0.04
	l2.78,0.56c0.44,0.09,0.9-0.03,1.25-0.31s0.55-0.71,0.55-1.16V6.05c0-0.71-0.5-1.33-1.2-1.47l-2.77-0.56
	c-1.71-0.36-3.58-0.12-5.17,0.69c-0.98,0.49-2.12,0.65-3.22,0.43l-0.76-0.15c0.06-0.14,0.11-0.3,0.13-0.45
	c0.03-0.16,0.05-0.33,0.05-0.49s-0.02-0.33-0.05-0.49c-0.03-0.16-0.08-0.31-0.14-0.47c-0.07-0.15-0.14-0.29-0.23-0.43
	c-0.09-0.13-0.2-0.26-0.31-0.38c-0.93-0.93-2.61-0.93-3.54,0c-0.11,0.12-0.22,0.25-0.31,0.38c-0.09,0.14-0.17,0.28-0.23,0.43
	c-0.06,0.16-0.11,0.31-0.14,0.47c-0.03,0.16-0.05,0.33-0.05,0.49s0.02,0.33,0.05,0.49c0.03,0.16,0.08,0.32,0.14,0.47
	s0.14,0.29,0.23,0.43c0.09,0.14,0.2,0.26,0.31,0.38c0.08,0.08,0.18,0.15,0.27,0.22v0.02v7.18v4.51h-1.46h-2
	c-0.83,0-1.5,0.67-1.5,1.5s0.67,1.5,1.5,1.5h0.5v3c-0.38,0.16-0.75,0.34-1.09,0.58c-0.68,0.48-0.84,1.41-0.37,2.09
	c0.48,0.68,1.41,0.84,2.09,0.37c0.46-0.32,1-0.49,1.56-0.5h4.52c1.56,0.02,2.82,1.29,2.82,2.86v3.21c0,0.12,0.01,0.24,0.04,0.36
	l0.53,2.13h-11.3l0.53-2.13c0.03-0.12,0.04-0.24,0.04-0.36v-1.56c0-0.83-0.67-1.5-1.5-1.5s-1.5,0.67-1.5,1.5v1.38l-0.67,2.68h-0.83
	c-0.83,0-1.5,0.67-1.5,1.5s0.67,1.5,1.5,1.5h0.08v0.5c0,0.8,0.63,1.45,1.42,1.49v2.65h-21.2l-0.09-0.33v-2.26
	c0-0.83-0.67-1.5-1.5-1.5s-1.5,0.67-1.5,1.5v0.96H13.5v-0.96c0-0.83-0.67-1.5-1.5-1.5s-1.5,0.67-1.5,1.5v2.26L9.79,44.7
	c-0.22,0.8,0.25,1.62,1.05,1.84c0.8,0.22,1.62-0.25,1.84-1.05l0.46-1.66H18l2.17,7.91h-9.2l0.24-0.86c0.22-0.8-0.25-1.62-1.05-1.84
	c-0.8-0.22-1.62,0.25-1.84,1.05l-0.46,1.66H7c-0.83,0-1.5,0.67-1.5,1.5s0.67,1.5,1.5,1.5h0.5v0.5c0,0.83,0.67,1.5,1.5,1.5
	c0.18,0,0.34-0.04,0.5-0.09v2.95H3.62c-0.83,0-1.5,0.67-1.5,1.5s0.67,1.5,1.5,1.5H5.5v7H4c-0.83,0-1.5,0.67-1.5,1.5
	c0,0.82,0.65,1.48,1.47,1.5c-0.29,0.87-0.46,1.79-0.47,2.72c-0.01,0.83,0.66,1.51,1.49,1.51c0,0,0.01,0,0.01,0
	c0.82,0,1.49-0.66,1.5-1.49c0.01-1.32,0.49-2.62,1.33-3.65c1.1-1.33,2.73-2.09,4.46-2.09c1.74,0,3.36,0.76,4.47,2.1
	c0.19,0.22,0.36,0.46,0.51,0.71c0.24,0.4,0.65,0.66,1.12,0.71c0.47,0.05,0.92-0.12,1.25-0.45c0.55-0.57,1.27-0.88,2.05-0.88
	c1.49,0,2.73,1.17,2.82,2.67c0.04,0.62,0.46,1.16,1.06,1.34c3.06,0.93,5.12,3.71,5.12,6.96c-0.01,1.59-1.04,3-2.55,3.61
	c-0.15-0.61-0.35-1.2-0.63-1.77c-0.99-2.05-2.73-3.62-4.88-4.4c-0.78-0.28-1.64,0.12-1.92,0.9c-0.28,0.78,0.12,1.64,0.9,1.92
	c1.41,0.51,2.55,1.54,3.21,2.89c0.39,0.79,0.57,1.66,0.56,2.53c-0.13-0.01-0.25-0.02-0.38-0.02c-3.68,0-6.98,2.19-8.41,5.57
	c-0.32,0.76,0.03,1.64,0.8,1.97c0.76,0.32,1.64-0.04,1.97-0.8c0.96-2.27,3.18-3.74,5.65-3.74c0.41,0,0.81,0.05,1.2,0.13
	c0.04,0.02,0.09,0.04,0.13,0.05c0.03,0.01,0.05,0,0.08,0.01c2.27,0.54,4.11,2.35,4.59,4.7c0.15,0.71,0.77,1.2,1.47,1.2
	c0.1,0,0.2-0.01,0.3-0.03c0.81-0.17,1.33-0.96,1.17-1.77c-0.59-2.89-2.54-5.24-5.1-6.43c2.85-0.95,4.83-3.55,4.85-6.58
	c0-4.21-2.51-7.89-6.34-9.45c-0.63-2.57-2.95-4.45-5.66-4.45c-0.86,0-1.68,0.19-2.43,0.54v-6.74h0.89H27v4.5
	c0,0.83,0.67,1.5,1.5,1.5s1.5-0.67,1.5-1.5v-4.5h0.88c0.83,0,1.5-0.67,1.5-1.5s-0.67-1.5-1.5-1.5h-9.23v-2.95
	c0.16,0.06,0.32,0.09,0.5,0.09c0.83,0,1.5-0.67,1.5-1.5v-0.5h0.5c0.83,0,1.5-0.67,1.5-1.5c0-0.18-0.04-0.34-0.09-0.5h12.47
	c-0.06,0.16-0.09,0.32-0.09,0.5c0,0.83,0.67,1.5,1.5,1.5h0.5v0.5c0,0.83,0.67,1.5,1.5,1.5c0.18,0,0.34-0.04,0.5-0.09v2.95h-5.05
	c-0.83,0-1.5,0.67-1.5,1.5s0.67,1.5,1.5,1.5h0.88v7h-5.57c-0.83,0-1.5,0.67-1.5,1.5s0.67,1.5,1.5,1.5h20.1c0.83,0,1.5-0.67,1.5-1.5
	s-0.67-1.5-1.5-1.5H51.5v-7h5.07h2.68v7h-0.96c-0.83,0-1.5,0.67-1.5,1.5s0.67,1.5,1.5,1.5h10.18c0.83,0,1.5-0.67,1.5-1.5
	s-0.67-1.5-1.5-1.5h-6.21v-7H70v3.5c0,0.83,0.67,1.5,1.5,1.5s1.5-0.67,1.5-1.5v-3.5h6.86h0.89v3.09c-2.95,0.29-5.35,2.48-5.89,5.35
	c-2.19,0.18-3.92,2.03-3.92,4.27c0,0.22,0.02,0.44,0.05,0.65c-1.71,1.63-2.67,3.87-2.67,6.32c0.01,1.15,0.36,2.22,0.94,3.13
	c-3.21,0.68-5.62,3.53-5.62,6.94c0,1.66,0.58,3.27,1.65,4.55c0.3,0.36,0.72,0.54,1.15,0.54c0.34,0,0.68-0.11,0.96-0.35
	c0.64-0.53,0.72-1.48,0.19-2.11c-0.61-0.73-0.95-1.67-0.95-2.62c0-2.26,1.84-4.1,4.1-4.1c1.17,0,2.25,0.48,3.04,1.36
	c0.39,0.43,0.99,0.6,1.53,0.43c0.55-0.16,0.96-0.62,1.06-1.19c0.33-1.98,2.03-3.42,4.04-3.42c2.13,0,3.87,1.65,4.06,3.73
	c-2.7,1.15-4.79,3.56-5.4,6.56c-0.17,0.81,0.36,1.6,1.17,1.77c0.1,0.02,0.2,0.03,0.3,0.03c0.7,0,1.32-0.49,1.47-1.2
	c0.58-2.83,3.1-4.89,6-4.89c1.23,0,2.41,0.36,3.42,1.05c0.69,0.46,1.62,0.28,2.08-0.4c0.46-0.69,0.28-1.62-0.4-2.08
	c-1.51-1.02-3.28-1.56-5.1-1.56c-0.2,0-0.39,0.01-0.59,0.03c-0.52-3.41-3.46-6.03-7.01-6.03c-2.31,0-4.38,1.1-5.68,2.84
	c-0.09-0.02-0.17-0.03-0.26-0.03c-1.72,0-3.14-1.34-3.15-3.02c0-1.8,0.83-3.46,2.28-4.55c0.57-0.42,0.76-1.19,0.46-1.83
	c-0.08-0.18-0.12-0.36-0.12-0.53c0-0.87,0.92-1.53,1.76-1.19c0.48,0.2,1.03,0.13,1.46-0.18c0.42-0.31,0.65-0.81,0.61-1.33
	c-0.01-0.11-0.02-0.21-0.02-0.33c0-2.01,1.63-3.64,3.64-3.64c1.6,0,3.04,1.07,3.49,2.6c0.21,0.72,0.91,1.16,1.66,1.06
	c0.18-0.03,0.36-0.05,0.54-0.05c2.01,0,3.64,1.63,3.64,3.7c0,0.01-0.01,0.1-0.01,0.11c-0.02,0.4,0.14,0.79,0.41,1.08
	c0.12,0.13,0.26,0.24,0.42,0.32c1.17,0.77,2.01,1.94,2.37,3.29c0.21,0.8,1.03,1.28,1.83,1.07c0.8-0.21,1.28-1.03,1.07-1.83
	c-0.5-1.87-1.59-3.5-3.12-4.67c-0.08-0.98-0.39-1.9-0.85-2.71H96z M51.46,20.75v2.53h-2.93v-2.53H51.46z M81.36,59.61v-4.86h6.14
	v4.86H81.36z M58.07,59.61v-2.95c0.16,0.06,0.32,0.09,0.5,0.09c0.83,0,1.5-0.67,1.5-1.5v-0.5h0.5c0.83,0,1.5-0.67,1.5-1.5
	c0-0.18-0.04-0.34-0.09-0.5h12.47c-0.06,0.16-0.09,0.32-0.09,0.5c0,0.83,0.67,1.5,1.5,1.5h0.5v0.5c0,0.83,0.67,1.5,1.5,1.5
	c0.18,0,0.34-0.04,0.5-0.09v2.95H58.07z M50,42.54c-1.48,0-2.69,1.21-2.69,2.69v6.53h-2.38V37.84h10.14v13.91h-2.38v-6.53
	C52.69,43.75,51.48,42.54,50,42.54z M82,43.84h4.85l2.18,7.92H89h-9.14h-0.03L82,43.84z M41.93,45.48v4.28h-4.37v-0.37
	c0-0.83-0.67-1.5-1.5-1.5s-1.5,0.67-1.5,1.5v0.37h-6v-0.37c0-0.83-0.67-1.5-1.5-1.5s-1.5,0.67-1.5,1.5v0.37h-2.82l-1.18-4.28H41.93z
	 M16.25,67.56c-1.21-0.61-2.55-0.94-3.95-0.94c-1.33,0-2.63,0.3-3.8,0.86v-4.86H11h5.25V67.56z M12.5,59.61v-4.86h6.14v4.86H12.5z
	 M48.5,69.61h-7.75v-7h2.68h5.07V69.61z M44.93,59.61v-4.86h3.88h2.38h3.88v4.86H44.93z M83.75,66.1v-3.49H89h2.5v7h-1.8
	c-0.12,0-0.24,0.02-0.35,0.05c-0.64-0.23-1.33-0.38-2.04-0.4C86.54,67.8,85.26,66.69,83.75,66.1z M14.83,50.63
	c-0.69,0-1.25-0.56-1.25-1.25v-1.13c0-1.1,0.89-1.99,1.99-1.99s1.99,0.89,1.99,1.99v1.13c0,0.69-0.56,1.25-1.25,1.25H14.83z
	 M82.44,49.39v-1.13c0-1.1,0.89-1.99,1.99-1.99s1.99,0.89,1.99,1.99v1.13c0,0.69-0.56,1.25-1.25,1.25h-1.48
	C83,50.63,82.44,50.08,82.44,49.39z M28.12,55.63c0.28,0.28,0.44,0.67,0.44,1.06c0,0.2-0.04,0.4-0.12,0.58
	c-0.07,0.18-0.18,0.34-0.32,0.48c-0.29,0.29-0.66,0.44-1.06,0.44c-0.4,0-0.78-0.15-1.07-0.44c-0.14-0.14-0.24-0.3-0.32-0.48
	c-0.08-0.18-0.11-0.38-0.11-0.58c0-0.39,0.16-0.78,0.43-1.06C26.56,55.07,27.55,55.07,28.12,55.63z M33.06,56.69
	c0,0.2-0.04,0.4-0.12,0.58c-0.07,0.18-0.18,0.34-0.32,0.48c-0.29,0.29-0.66,0.44-1.06,0.44c-0.4,0-0.78-0.15-1.06-0.44
	c-0.15-0.14-0.25-0.3-0.33-0.48c-0.08-0.18-0.11-0.38-0.11-0.58c0-0.39,0.16-0.78,0.44-1.06c0.35-0.35,0.86-0.51,1.35-0.41
	c0.09,0.02,0.19,0.05,0.28,0.09s0.18,0.08,0.26,0.14c0.08,0.05,0.16,0.11,0.23,0.18C32.9,55.91,33.06,56.3,33.06,56.69z M35,57.75
	c-0.15-0.14-0.26-0.3-0.33-0.48c-0.07-0.18-0.11-0.38-0.11-0.58c0-0.39,0.16-0.78,0.44-1.06c0.06-0.07,0.14-0.13,0.22-0.18
	c0.08-0.06,0.17-0.1,0.26-0.14c0.09-0.04,0.19-0.07,0.28-0.09c0.49-0.09,1.01,0.06,1.36,0.41c0.07,0.07,0.13,0.15,0.18,0.23
	c0.06,0.08,0.1,0.17,0.14,0.26s0.07,0.19,0.09,0.28c0.02,0.1,0.03,0.2,0.03,0.29c0,0.2-0.04,0.4-0.12,0.58
	c-0.07,0.18-0.18,0.34-0.32,0.48c-0.29,0.29-0.66,0.44-1.06,0.44C35.66,58.19,35.28,58.04,35,57.75z M74.03,56.4
	c0.02,0.1,0.03,0.2,0.03,0.29c0,0.2-0.04,0.4-0.11,0.58c-0.08,0.18-0.19,0.34-0.33,0.48c-0.14,0.15-0.3,0.26-0.48,0.33
	c-0.19,0.08-0.38,0.11-0.58,0.11s-0.39-0.03-0.57-0.11c-0.18-0.07-0.35-0.18-0.49-0.33c-0.28-0.28-0.44-0.66-0.44-1.06
	c0-0.09,0.01-0.19,0.03-0.29c0.02-0.09,0.05-0.19,0.09-0.28c0.03-0.09,0.08-0.18,0.13-0.26c0.06-0.08,0.12-0.16,0.19-0.23
	c0.07-0.07,0.15-0.13,0.23-0.18c0.08-0.06,0.17-0.1,0.26-0.14c0.09-0.04,0.18-0.07,0.28-0.09c0.19-0.03,0.39-0.03,0.58,0
	c0.1,0.02,0.2,0.05,0.29,0.09s0.17,0.08,0.26,0.14c0.08,0.05,0.15,0.11,0.22,0.18c0.07,0.07,0.13,0.15,0.19,0.23
	c0.05,0.08,0.1,0.17,0.14,0.26C73.98,56.21,74.01,56.31,74.03,56.4z M69.53,56.4c0.02,0.1,0.03,0.2,0.03,0.29
	c0,0.2-0.04,0.4-0.11,0.58c-0.08,0.18-0.19,0.34-0.33,0.48c-0.14,0.15-0.3,0.26-0.48,0.33c-0.19,0.08-0.38,0.11-0.58,0.11
	s-0.39-0.03-0.57-0.11c-0.18-0.07-0.35-0.18-0.49-0.33c-0.14-0.14-0.25-0.3-0.33-0.48c-0.07-0.18-0.11-0.38-0.11-0.58
	c0-0.09,0.01-0.19,0.03-0.29c0.02-0.09,0.05-0.19,0.09-0.28c0.03-0.09,0.08-0.18,0.13-0.26c0.06-0.08,0.12-0.16,0.19-0.23
	c0.07-0.07,0.15-0.13,0.23-0.18c0.08-0.06,0.17-0.1,0.26-0.14c0.09-0.04,0.18-0.07,0.28-0.09c0.48-0.09,1,0.07,1.35,0.41
	c0.07,0.07,0.13,0.15,0.19,0.23c0.05,0.08,0.1,0.17,0.14,0.26C69.48,56.21,69.51,56.31,69.53,56.4z M65.03,56.4
	c0.02,0.1,0.03,0.2,0.03,0.29c0,0.2-0.04,0.4-0.11,0.58c-0.08,0.18-0.19,0.34-0.33,0.48c-0.14,0.15-0.3,0.25-0.48,0.33
	c-0.19,0.07-0.38,0.11-0.58,0.11c-0.4,0-0.78-0.15-1.06-0.44c-0.14-0.14-0.25-0.3-0.33-0.48c-0.07-0.18-0.11-0.38-0.11-0.58
	c0-0.09,0.01-0.19,0.03-0.29c0.02-0.09,0.05-0.19,0.09-0.28c0.03-0.09,0.08-0.18,0.13-0.26c0.06-0.08,0.12-0.16,0.19-0.23
	c0.35-0.35,0.87-0.5,1.35-0.41c0.1,0.02,0.19,0.05,0.28,0.09c0.1,0.04,0.18,0.08,0.26,0.14c0.09,0.05,0.16,0.11,0.23,0.18
	c0.07,0.07,0.13,0.15,0.19,0.23c0.05,0.08,0.1,0.17,0.14,0.26C64.98,56.21,65.01,56.31,65.03,56.4z M47.69,31.51
	c-0.06-0.15-0.11-0.3-0.14-0.46c-0.03-0.17-0.05-0.33-0.05-0.49c0-0.17,0.02-0.33,0.05-0.49s0.08-0.32,0.14-0.47
	c0.06-0.15,0.14-0.29,0.23-0.43c0.09-0.14,0.2-0.26,0.31-0.38c0.12-0.11,0.25-0.22,0.38-0.31c0.14-0.09,0.28-0.17,0.43-0.23
	c0.15-0.06,0.31-0.11,0.47-0.14c0.32-0.07,0.66-0.07,0.98,0c0.16,0.03,0.31,0.08,0.47,0.14c0.15,0.06,0.29,0.14,0.43,0.23
	c0.13,0.09,0.26,0.2,0.38,0.31c0.11,0.12,0.22,0.24,0.31,0.38s0.16,0.28,0.23,0.43c0.06,0.15,0.11,0.31,0.14,0.47
	c0.03,0.16,0.05,0.32,0.05,0.49c0,0.16-0.02,0.32-0.05,0.49c-0.03,0.16-0.08,0.31-0.14,0.46c-0.07,0.15-0.14,0.3-0.23,0.44
	c-0.09,0.13-0.2,0.26-0.31,0.38c-0.47,0.46-1.11,0.73-1.77,0.73c-0.66,0-1.3-0.27-1.77-0.73c-0.11-0.12-0.22-0.25-0.31-0.38
	C47.83,31.81,47.75,31.66,47.69,31.51z M60.52,76.6c-2.73-1.89-5.98-1.43-7.71,1.09c-0.64,0.92-0.94,1.94-0.94,2.95
	c-0.6-0.14-1.23-0.21-1.87-0.21c-0.64,0-1.27,0.08-1.87,0.22c0-1.01-0.3-2.03-0.94-2.96c-0.88-1.27-2.18-2.06-3.67-2.21
	c-1.36-0.14-2.79,0.26-4.04,1.12c-2.73,1.89-3.45,5.08-1.72,7.6c0.88,1.27,2.18,2.06,3.67,2.21c0.15,0.02,0.3,0.02,0.44,0.02
	c-0.22,0.72-0.36,1.47-0.38,2.25c-0.02,0.83,0.63,1.52,1.46,1.54c0.83,0.05,1.52-0.63,1.54-1.46c0.08-2.94,2.55-5.34,5.5-5.34
	c3.04,0,5.51,2.47,5.51,5.51c0,3.04-2.47,5.52-5.51,5.52c-1.36,0-2.62-0.48-3.64-1.38c-0.62-0.54-1.57-0.49-2.12,0.14
	c-0.55,0.62-0.49,1.57,0.14,2.12c1.56,1.37,3.55,2.12,5.62,2.12c4.69,0,8.51-3.82,8.51-8.52c0-0.87-0.13-1.71-0.38-2.5
	c0.14,0,0.29-0.01,0.43-0.02c1.49-0.15,2.79-0.94,3.67-2.21c0.88-1.27,1.15-2.77,0.77-4.22C62.65,78.66,61.77,77.46,60.52,76.6z
	 M40.23,82.49c-0.89-1.29-0.17-2.65,0.95-3.42c0.58-0.4,1.22-0.62,1.8-0.62c0.08,0,0.15,0,0.23,0.01c0.62,0.06,1.12,0.38,1.51,0.93
	c0.89,1.29,0.17,2.65-0.95,3.42c-0.66,0.46-1.38,0.68-2.03,0.61C41.12,83.36,40.62,83.05,40.23,82.49z M59.77,82.49
	c-0.38,0.55-0.89,0.87-1.51,0.93c-0.65,0.07-1.37-0.15-2.03-0.61c-1.12-0.77-1.84-2.13-0.95-3.42c0.38-0.55,0.89-0.87,1.51-0.93
	c0.65-0.07,1.37,0.15,2.03,0.61C59.93,79.84,60.66,81.2,59.77,82.49z M95.14,85.93L95.14,85.93c0,0.84-0.67,1.51-1.5,1.51
	s-1.5-0.67-1.5-1.5s0.67-1.5,1.5-1.5S95.14,85.1,95.14,85.93z M16.96,83.36c-1.37,0.72-2.4,1.99-2.83,3.48
	c-0.16,0.55-0.62,0.97-1.19,1.07c-0.09,0.02-0.17,0.02-0.26,0.02c-0.48,0-0.94-0.23-1.22-0.63c-1.64-2.29-4.66-3.06-7.19-1.82
	c-0.74,0.36-1.64,0.06-2.01-0.69c-0.36-0.74-0.06-1.64,0.69-2.01c3.1-1.52,6.7-1.05,9.28,1.01c0.81-1.29,1.95-2.37,3.32-3.09
	c0.73-0.38,1.64-0.1,2.03,0.63C17.97,82.07,17.69,82.97,16.96,83.36z"/>
</svg>
