<?xml version="1.0" encoding="utf-8"?>
<!-- Generator: Adobe Illustrator 24.1.0, SVG Export Plug-In . SVG Version: 6.00 Build 0)  -->
<svg version="1.1" id="Layer_1" xmlns="http://www.w3.org/2000/svg" xmlns:xlink="http://www.w3.org/1999/xlink" x="0px" y="0px"
	 viewBox="0 0 100 100" style="enable-background:new 0 0 100 100;" xml:space="preserve">
<path d="M89.01,24.9c2.76,0,5-2.24,5-5s-2.24-5-5-5s-5,2.24-5,5S86.25,24.9,89.01,24.9z M89.01,17.9c1.1,0,2,0.9,2,2s-0.9,2-2,2
	s-2-0.9-2-2S87.91,17.9,89.01,17.9z M11.87,32.76c2.76,0,5-2.24,5-5s-2.24-5-5-5s-5,2.24-5,5S9.12,32.76,11.87,32.76z M11.87,25.76
	c1.1,0,2,0.9,2,2s-0.9,2-2,2s-2-0.9-2-2S10.77,25.76,11.87,25.76z M67.23,85.6c-2.76,0-5,2.24-5,5s2.24,5,5,5s5-2.24,5-5
	S69.98,85.6,67.23,85.6z M67.23,92.6c-1.1,0-2-0.9-2-2s0.9-2,2-2s2,0.9,2,2S68.33,92.6,67.23,92.6z M50.81,19.96
	c-0.28-0.28-0.43-0.66-0.43-1.06c0-0.1,0-0.2,0.02-0.29c0.02-0.1,0.05-0.19,0.09-0.28c0.04-0.09,0.08-0.18,0.14-0.26
	c0.05-0.09,0.11-0.16,0.18-0.23c0.07-0.07,0.15-0.13,0.23-0.19c0.08-0.05,0.17-0.1,0.26-0.14c0.09-0.03,0.18-0.06,0.28-0.08
	c0.19-0.04,0.39-0.04,0.59,0c0.09,0.02,0.19,0.05,0.28,0.08c0.09,0.04,0.17,0.09,0.26,0.14c0.08,0.06,0.15,0.12,0.22,0.19
	s0.14,0.14,0.19,0.23c0.06,0.08,0.1,0.17,0.14,0.26c0.04,0.09,0.07,0.18,0.08,0.28c0.02,0.09,0.03,0.19,0.03,0.29
	c0,0.39-0.16,0.78-0.44,1.06c-0.07,0.07-0.14,0.13-0.22,0.19c-0.09,0.05-0.17,0.1-0.26,0.14c-0.09,0.03-0.19,0.06-0.28,0.08
	c-0.1,0.02-0.2,0.03-0.3,0.03c-0.09,0-0.19-0.01-0.29-0.03c-0.1-0.02-0.19-0.05-0.28-0.08c-0.09-0.04-0.18-0.09-0.26-0.14
	C50.96,20.09,50.88,20.03,50.81,19.96z M82.51,92.9c0,1.38-1.12,2.5-2.5,2.5s-2.5-1.12-2.5-2.5c0-1.38,1.12-2.5,2.5-2.5
	S82.51,91.52,82.51,92.9z M26.67,25.26c1.38,0,2.5,1.12,2.5,2.5c0,1.38-1.12,2.5-2.5,2.5c-1.38,0-2.5-1.12-2.5-2.5
	C24.17,26.38,25.29,25.26,26.67,25.26z M80.01,7.4c0-1.38,1.12-2.5,2.5-2.5s2.5,1.12,2.5,2.5c0,1.38-1.12,2.5-2.5,2.5
	S80.01,8.78,80.01,7.4z M76.01,26.64c0-1.38,1.12-2.5,2.5-2.5s2.5,1.12,2.5,2.5c0,1.38-1.12,2.5-2.5,2.5S76.01,28.02,76.01,26.64z
	 M15.17,14.19c0-0.83,0.67-1.5,1.5-1.5h3.5v-3.5c0-0.83,0.67-1.5,1.5-1.5s1.5,0.67,1.5,1.5v3.5h3.5c0.83,0,1.5,0.67,1.5,1.5
	s-0.67,1.5-1.5,1.5h-3.5v3.5c0,0.83-0.67,1.5-1.5,1.5s-1.5-0.67-1.5-1.5v-3.5h-3.5C15.84,15.69,15.17,15.02,15.17,14.19z
	 M91.51,80.1c0,0.83-0.67,1.5-1.5,1.5h-3.5v3.5c0,0.83-0.67,1.5-1.5,1.5s-1.5-0.67-1.5-1.5v-3.5h-3.5c-0.83,0-1.5-0.67-1.5-1.5
	s0.67-1.5,1.5-1.5h3.5v-3.5c0-0.83,0.67-1.5,1.5-1.5s1.5,0.67,1.5,1.5v3.5h3.5C90.84,78.6,91.51,79.27,91.51,80.1z M63.73,29.14
	v5.26c0,2.59-1.75,4.82-4.27,5.43c-0.12,0.03-0.24,0.04-0.36,0.04c-0.68,0-1.29-0.46-1.46-1.15c-0.2-0.8,0.3-1.62,1.1-1.81
	c1.17-0.28,1.98-1.32,1.98-2.52v-5.26c0-0.83,0.67-1.5,1.5-1.5S63.73,28.31,63.73,29.14z M41.39,74.46
	c-0.17,0.69-0.78,1.15-1.46,1.15c-0.12,0-0.24-0.01-0.36-0.04c-2.51-0.61-4.27-2.84-4.27-5.43v-0.88c0-0.83,0.67-1.5,1.5-1.5
	s1.5,0.67,1.5,1.5v0.88c0,1.2,0.81,2.23,1.98,2.52C41.09,72.84,41.58,73.65,41.39,74.46z M89.15,41.02h-1.58
	c0.05-0.16,0.08-0.32,0.08-0.5c0-2.76-2.24-5-5-5h-4.55c-2.79,0-5.14,1.92-5.81,4.5h-2.11c-2.76,0-5,2.24-5,5
	c0,1.96,1.14,3.64,2.78,4.46c-5.93,6.53-14.93,9.28-23.49,7.18v-2.59c1.99-0.64,3.44-2.49,3.44-4.69c0-2.73-2.22-4.94-4.94-4.94
	h-2.04c2.75-2.69,4.9-5.94,6.3-9.51c0.84,1.42,2.13,2.56,3.71,3.21v1.9c0,2,0.78,3.89,2.2,5.3l3.71,3.71
	c0.29,0.29,0.68,0.44,1.06,0.44s0.77-0.15,1.06-0.44l6.82-6.82c2.36-2.36,3.66-5.5,3.66-8.84V20.39c2.73-0.03,4.95-2.25,4.95-5
	c0-2.76-2.24-5-5-5h-2.11c-0.67-2.58-3.02-4.5-5.81-4.5h-9.55c-2.76,0-5,2.24-5,5c0,0.18,0.04,0.34,0.09,0.5h-2.89
	c-2.76,0-5,2.24-5,5c0,2.24,1.49,4.12,3.53,4.75c0.11,2.1,1.51,3.85,3.43,4.48l-0.01,0.18c-0.22,7.35-3.87,14.28-9.78,18.63h-3.4
	v-0.06c0-2.73-2.22-4.94-4.94-4.94h-6.61c-2.73,0-4.94,2.22-4.94,4.94v0.06h-1.06c-2.73,0-4.94,2.22-4.94,4.94
	c0,2.2,1.45,4.05,3.44,4.69v3.99c-2.02,0.64-3.5,2.51-3.5,4.74c0,0.18,0.04,0.34,0.09,0.5H8.87c-2.48,0-4.5,2.02-4.5,4.5
	c0,2.07,1.41,3.8,3.32,4.32v3.59c0,3.34,1.3,6.48,3.66,8.84l6.82,6.82c0.28,0.28,0.66,0.44,1.06,0.44s0.78-0.16,1.06-0.44l1.37-1.37
	l1.1,1.1c2.12,2.12,4.94,3.29,7.94,3.29s5.82-1.17,7.94-3.29l7.15-7.15c1.19-1.19,2.01-2.63,2.44-4.21
	c0.41,0.02,0.82,0.03,1.23,0.03c4.06,0,8.04-1.06,11.58-3v3.58c0,0.83,0.67,1.5,1.5,1.5s1.5-0.67,1.5-1.5v-5.52
	c0.39-0.29,0.77-0.6,1.13-0.92v0.17c0,0.83,0.67,1.5,1.5,1.5s1.5-0.67,1.5-1.5v-3.29c2.41-3.04,4-6.65,4.64-10.57l2.43,2.43
	c0.29,0.29,0.68,0.44,1.06,0.44s0.77-0.15,1.06-0.44c0.59-0.59,0.59-1.54,0-2.12l-3.21-3.21c-0.45-0.45-0.83-0.97-1.13-1.52
	c-0.01-0.02-0.02-0.03-0.02-0.05c-0.49-0.93-0.75-1.97-0.75-3.03v-2.73h2.76v2.74c0,0.83,0.67,1.5,1.5,1.5s1.5-0.67,1.5-1.5v-2.74
	h3.04v4.76c0,0.8-0.36,1.54-0.99,2.03c-0.65,0.51-0.76,1.46-0.25,2.11c0.3,0.38,0.74,0.57,1.18,0.57c0.33,0,0.65-0.11,0.93-0.32
	c1.35-1.07,2.13-2.67,2.13-4.39v-4.76h2.51v7.81c0,1.73-0.68,3.36-1.91,4.6l-2.71,2.71l-0.98-0.98c-0.59-0.59-1.54-0.59-2.12,0
	s-0.59,1.54,0,2.12l2.04,2.04c0.29,0.29,0.68,0.44,1.06,0.44s0.77-0.15,1.06-0.44l3.77-3.77c1.8-1.81,2.79-4.19,2.79-6.72v-7.85
	c2.28-0.22,4.07-2.12,4.07-4.46C93.65,43.04,91.64,41.02,89.15,41.02z M63.69,40.12l-5.76,5.76l-2.65-2.65
	c-0.84-0.84-1.32-2-1.32-3.18v-8.24c0-0.83-0.67-1.5-1.5-1.5s-1.5,0.67-1.5,1.5v2.87c-1.11-0.89-1.8-2.23-1.8-3.73V25.9h6.75v4.82
	c0,0.83,0.67,1.5,1.5,1.5s1.5-0.67,1.5-1.5v-5.22c1.8-0.76,3.06-2.54,3.06-4.61v-0.5h4.51v13C66.47,35.94,65.48,38.33,63.69,40.12z
	 M45.56,20.4c0.06-0.16,0.09-0.32,0.09-0.5c0-0.83-0.67-1.5-1.5-1.5c-1.1,0-2-0.9-2-2s0.9-2,2-2h9.8c0.83,0,1.5-0.67,1.5-1.5
	s-0.67-1.5-1.5-1.5h-4.09c0.06-0.16,0.09-0.32,0.09-0.5c0-1.1,0.9-2,2-2h9.55c1.65,0,3,1.35,3,3c0,0.83,0.67,1.5,1.5,1.5h3.42
	c1.1,0,2,0.9,2,2s-0.9,2-2,2H56.87c-0.83,0-1.5,0.67-1.5,1.5s0.67,1.5,1.5,1.5h2.08v0.5c0,1.1-0.9,2-2,2h-9.3c-1.1,0-2-0.9-2-2
	C45.65,20.72,45.62,20.56,45.56,20.4z M67.66,53.95c-1.43,4.35-4.93,7.02-8.26,8.15c-3.52,1.2-8.25,1.14-12.17-1.92
	c0.99,0.11,1.98,0.18,2.96,0.18C56.56,60.36,62.76,58.11,67.66,53.95z M15.37,47.44h7.59c0.83,0,1.5-0.67,1.5-1.5s-0.67-1.5-1.5-1.5
	h-3.54v-0.06c0-1.07,0.87-1.94,1.94-1.94h6.61c1.07,0,1.94,0.87,1.94,1.94v1.56c0,0.83,0.67,1.5,1.5,1.5h5.31
	c0.03,0,0.05,0.01,0.08,0.01c0.02,0,0.04-0.01,0.06-0.01h6.11c1.07,0,1.94,0.87,1.94,1.94c0,1.07-0.87,1.94-1.94,1.94h-2.56
	c-0.83,0-1.5,0.67-1.5,1.5v1.56c0,1.07-0.87,1.94-1.94,1.94h-3.61c-1.07,0-1.94-0.87-1.94-1.97l0-0.03h3.28c0.83,0,1.5-0.67,1.5-1.5
	s-0.67-1.5-1.5-1.5H15.37c-1.07,0-1.94-0.87-1.94-1.94C13.43,48.31,14.3,47.44,15.37,47.44z M36.53,88.99
	c-1.55,1.55-3.62,2.41-5.82,2.41s-4.27-0.86-5.82-2.41l-1.1-1.1l0.22-0.22c1.42-1.42,2.2-3.3,2.2-5.3v-4.24c0-0.83-0.67-1.5-1.5-1.5
	s-1.5,0.67-1.5,1.5v4.24c0,1.18-0.48,2.34-1.32,3.18l-2.65,2.65l-5.76-5.76c-1.79-1.79-2.78-4.18-2.78-6.72V72.3h3.41v3.82
	c0,2.59,1.76,4.82,4.27,5.43c0.12,0.03,0.24,0.04,0.36,0.04c0.68,0,1.29-0.46,1.46-1.15c0.2-0.8-0.3-1.62-1.1-1.81
	c-1.16-0.28-1.98-1.32-1.98-2.52V72.3h2.66c0.83,0,1.5-0.67,1.5-1.5s-0.67-1.5-1.5-1.5H8.87c-0.83,0-1.5-0.67-1.5-1.5
	s0.67-1.5,1.5-1.5h7.11c0.83,0,1.5-0.67,1.5-1.5s-0.67-1.5-1.5-1.5h-2.7c0.06-0.16,0.09-0.32,0.09-0.5c0-1.1,0.9-2,2-2h2.55
	c1.65,0,3,1.35,3,3c0,0.83,0.67,1.5,1.5,1.5h3.42c1.1,0,2,0.9,2,2s-0.9,2-2,2h-1.07c-0.83,0-1.5,0.67-1.5,1.5s0.67,1.5,1.5,1.5h1.07
	c2.76,0,5-2.24,5-5s-2.24-5-5-5h-2.11c-0.67-2.58-3.02-4.5-5.81-4.5h-1.05v-3.48h6.25v2.56c0,0.83,0.67,1.5,1.5,1.5
	s1.5-0.67,1.5-1.5v-2.56h2.31l0,0.06c0,2.73,2.22,4.94,4.94,4.94h1.93v4.93c0,0.83,0.67,1.5,1.5,1.5s1.5-0.67,1.5-1.5v-5.13
	c1.42-0.4,2.58-1.4,3.17-2.72v8.07c0,0.4,0.16,0.78,0.44,1.06l3.67,3.67v8.04c0,0.23-0.01,0.46-0.04,0.68
	c0,0.02-0.01,0.04-0.01,0.06c0,0.01,0,0.02,0,0.03c-0.17,1.44-0.81,2.78-1.85,3.82L36.53,88.99z M63.47,71.46
	c-4.03,3.58-9.51,5.51-14.88,5.3v-8.18c0-0.4-0.16-0.78-0.44-1.06l-3.67-3.67v-2.12c2.19,1.96,4.8,3.25,7.6,3.78v3.73
	c0,0.83,0.67,1.5,1.5,1.5s1.5-0.67,1.5-1.5v-3.42c1.75,0,3.53-0.29,5.28-0.88c4.43-1.5,7.81-4.67,9.59-8.69
	c0.06,0.15,0.13,0.29,0.19,0.44C70.02,62.49,67.67,67.73,63.47,71.46z M89.15,47.02h-1.04c-0.01,0-0.03,0-0.04,0s-0.03,0-0.04,0
	H70.81c-0.01,0-0.03,0-0.04,0s-0.03,0-0.04,0h-0.54c-1.1,0-2-0.9-2-2s0.9-2,2-2h3.42c0.83,0,1.5-0.67,1.5-1.5c0-1.65,1.35-3,3-3
	h4.55c1.1,0,2,0.9,2,2c0,0.18,0.03,0.34,0.08,0.5h-2.69c-0.83,0-1.5,0.67-1.5,1.5s0.67,1.5,1.5,1.5h7.11c0.83,0,1.5,0.67,1.5,1.5
	S89.98,47.02,89.15,47.02z M33.08,74.83v11.06c0,0.83-0.67,1.5-1.5,1.5s-1.5-0.67-1.5-1.5V74.83c0-0.83,0.67-1.5,1.5-1.5
	S33.08,74.01,33.08,74.83z M38.31,79.57v3.06c0,0.83-0.67,1.5-1.5,1.5s-1.5-0.67-1.5-1.5v-3.06c0-0.83,0.67-1.5,1.5-1.5
	S38.31,78.74,38.31,79.57z"/>
</svg>
