<?xml version="1.0" encoding="utf-8"?>
<!-- Generator: Adobe Illustrator 24.1.0, SVG Export Plug-In . SVG Version: 6.00 Build 0)  -->
<svg version="1.1" id="Layer_1" xmlns="http://www.w3.org/2000/svg" xmlns:xlink="http://www.w3.org/1999/xlink" x="0px" y="0px"
	 viewBox="0 0 100 100" style="enable-background:new 0 0 100 100;" xml:space="preserve">
<path d="M7.95,76.36c2.76,0,5-2.24,5-5s-2.24-5-5-5s-5,2.24-5,5S5.19,76.36,7.95,76.36z M7.95,69.36c1.1,0,2,0.9,2,2s-0.9,2-2,2
	s-2-0.9-2-2S6.85,69.36,7.95,69.36z M8.59,84.14c0,1.38-1.12,2.5-2.5,2.5c-1.38,0-2.5-1.12-2.5-2.5s1.12-2.5,2.5-2.5
	C7.48,81.64,8.59,82.76,8.59,84.14z M92.05,62.81c0-1.38,1.12-2.5,2.5-2.5c1.38,0,2.5,1.12,2.5,2.5s-1.12,2.5-2.5,2.5
	C93.17,65.31,92.05,64.19,92.05,62.81z M3.59,27.02c0-1.38,1.12-2.5,2.5-2.5c1.38,0,2.5,1.12,2.5,2.5c0,1.38-1.12,2.5-2.5,2.5
	C4.71,29.52,3.59,28.4,3.59,27.02z M83.77,10.29c0-1.38,1.12-2.5,2.5-2.5c1.38,0,2.5,1.12,2.5,2.5s-1.12,2.5-2.5,2.5
	C84.89,12.79,83.77,11.67,83.77,10.29z M19.79,6.2c0-1.38,1.12-2.5,2.5-2.5c1.38,0,2.5,1.12,2.5,2.5c0,1.38-1.12,2.5-2.5,2.5
	C20.91,8.7,19.79,7.58,19.79,6.2z M4.59,12.07c0-0.83,0.67-1.5,1.5-1.5h3.5v-3.5c0-0.83,0.67-1.5,1.5-1.5s1.5,0.67,1.5,1.5v3.5h3.5
	c0.83,0,1.5,0.67,1.5,1.5s-0.67,1.5-1.5,1.5h-3.5v3.5c0,0.83-0.67,1.5-1.5,1.5s-1.5-0.67-1.5-1.5v-3.5h-3.5
	C5.27,13.57,4.59,12.9,4.59,12.07z M98.05,77.36c0,0.83-0.67,1.5-1.5,1.5h-3.5v3.5c0,0.83-0.67,1.5-1.5,1.5s-1.5-0.67-1.5-1.5v-3.5
	h-3.5c-0.83,0-1.5-0.67-1.5-1.5s0.67-1.5,1.5-1.5h3.5v-3.5c0-0.83,0.67-1.5,1.5-1.5s1.5,0.67,1.5,1.5v3.5h3.5
	C97.38,75.86,98.05,76.53,98.05,77.36z M29.92,12.46c-0.02-0.1-0.03-0.2-0.03-0.29c0-0.1,0.01-0.2,0.03-0.3
	c0.02-0.09,0.04-0.19,0.08-0.28s0.09-0.18,0.14-0.26c0.05-0.08,0.12-0.16,0.19-0.23c0.55-0.55,1.56-0.55,2.12,0
	c0.28,0.28,0.44,0.67,0.44,1.07c0,0.09-0.01,0.19-0.03,0.29s-0.05,0.19-0.09,0.28s-0.08,0.18-0.14,0.26
	c-0.05,0.08-0.11,0.16-0.18,0.23c-0.28,0.28-0.67,0.44-1.06,0.44c-0.1,0-0.2-0.01-0.3-0.03c-0.09-0.02-0.19-0.05-0.28-0.09
	c-0.09-0.04-0.17-0.08-0.26-0.14c-0.08-0.05-0.15-0.11-0.22-0.18c-0.07-0.07-0.14-0.15-0.19-0.23c-0.05-0.08-0.1-0.17-0.14-0.26
	S29.94,12.56,29.92,12.46z M29.65,85.25l-3.13,9.39c-0.2,0.61-0.78,1.03-1.42,1.03h-13c-0.9,0-1.71-0.46-2.16-1.24
	c-0.45-0.78-0.46-1.71-0.02-2.49l3.28-5.8c0.41-0.72,1.32-0.98,2.04-0.57c0.72,0.41,0.97,1.32,0.57,2.04l-2.86,5.05h11.06l2.79-8.36
	c0.26-0.79,1.11-1.21,1.9-0.95C29.49,83.61,29.91,84.46,29.65,85.25z M79.53,73.34c0.5-0.54,0.99-1.09,1.45-1.65
	c0.87-1.06,1.65-2.09,2.37-3.17c0.46-0.69,0.28-1.62-0.41-2.08c-0.69-0.46-1.62-0.28-2.08,0.41c-0.27,0.4-0.56,0.8-0.85,1.2
	l-4.01-6.94h8.04c-0.12,0.27-0.23,0.53-0.36,0.8c-0.35,0.75-0.03,1.64,0.72,2c0.21,0.1,0.42,0.14,0.64,0.14
	c0.56,0,1.1-0.32,1.36-0.86c0.5-1.08,0.93-2.08,1.29-3.06c0.38-1.05,0.72-2.1,1.02-3.13c0.99-3.53,1.5-7.19,1.5-10.9
	c0-3.7-0.5-7.37-1.5-10.9c-0.29-1.02-0.63-2.07-1.02-3.13c-1.55-4.18-3.79-8.05-6.65-11.5c-0.01-0.02-0.02-0.03-0.04-0.05
	c0,0-0.01-0.01-0.01-0.01c-0.74-0.9-1.46-1.71-2.21-2.47c-2.6-2.66-5.52-4.93-8.68-6.75c-3.17-1.84-6.6-3.24-10.19-4.16
	c-1.12-0.29-2.16-0.5-3.16-0.65c-0.01,0-0.03,0-0.04-0.01c-0.01,0-0.03-0.01-0.04-0.01c-0.01,0-0.03,0-0.04-0.01
	c-4.3-0.73-9-0.72-13.22,0c-0.02,0-0.04,0.01-0.06,0.01c0,0,0,0-0.01,0c-1.03,0.16-2.09,0.38-3.25,0.67
	c-1.33,0.34-2.65,0.75-3.93,1.22c-0.78,0.29-1.18,1.15-0.89,1.93c0.29,0.78,1.15,1.17,1.93,0.89c0.02-0.01,0.04-0.01,0.05-0.02
	l-3.72,6.43h-6.59c-0.04,0-0.07,0.01-0.11,0.01h-0.69c0.43-0.36,0.84-0.72,1.29-1.06c0.66-0.51,0.78-1.45,0.27-2.1
	c-0.51-0.65-1.45-0.78-2.1-0.27c-1.55,1.2-3.02,2.51-4.38,3.89c-0.79,0.81-1.53,1.64-2.2,2.46c-0.01,0.01-0.02,0.02-0.03,0.04
	c-0.01,0.01-0.01,0.01-0.02,0.02c-2.83,3.42-5.05,7.27-6.61,11.43c-0.01,0.02-0.01,0.04-0.02,0.05c0,0.01-0.01,0.02-0.01,0.02
	c-0.39,1.05-0.73,2.1-1.01,3.12c-0.01,0.03-0.02,0.06-0.02,0.09C10.3,38.76,9.8,42.4,9.8,46.09c0,3.69,0.5,7.34,1.49,10.82
	c0.01,0.04,0.02,0.07,0.03,0.11c0.28,1.02,0.62,2.07,1.01,3.1c0,0.01,0.01,0.01,0.01,0.02c0.01,0.02,0.02,0.04,0.03,0.06
	c0.77,2.07,1.73,4.1,2.86,6.03c0.28,0.48,0.78,0.75,1.3,0.75c0.26,0,0.52-0.07,0.75-0.2c0.72-0.42,0.96-1.33,0.54-2.05
	c-0.68-1.17-1.29-2.39-1.84-3.62h8.03l-2.41,4.17c-0.41,0.72-0.17,1.63,0.55,2.05c0.24,0.14,0.49,0.2,0.75,0.2
	c0.52,0,1.02-0.27,1.3-0.75l2.41-4.18l5.2,9.01h-2.5c-0.83,0-1.5,0.67-1.5,1.5s0.67,1.5,1.5,1.5h4.23l3.7,6.4
	c-2.02-0.74-3.97-1.63-5.82-2.71c-2.95-1.69-5.64-3.79-8.02-6.24c-0.78-0.8-1.45-1.54-2.06-2.29c-0.09-0.11-0.18-0.22-0.27-0.34
	c-0.51-0.66-1.45-0.78-2.1-0.27c-0.66,0.51-0.78,1.45-0.27,2.1c0.11,0.15,0.23,0.29,0.34,0.42c0.44,0.54,0.93,1.08,1.45,1.65
	l-4.27,7.54c-0.41,0.72-0.15,1.64,0.57,2.04c0.23,0.13,0.49,0.2,0.74,0.2c0.52,0,1.03-0.27,1.31-0.76l3.86-6.82
	c2.21,2.06,4.63,3.87,7.24,5.37c2.08,1.21,4.29,2.21,6.57,3.03L35.38,94c-0.05,0.42,0.09,0.85,0.38,1.16
	c0.28,0.32,0.69,0.5,1.12,0.5h15.51c0.83,0,1.5-0.67,1.5-1.5s-0.67-1.5-1.5-1.5H38.54l0.84-7.81c0.2,0.05,0.4,0.11,0.61,0.16
	c0.03,0.01,0.06,0.02,0.09,0.03c0.42,0.11,0.83,0.2,1.23,0.28c0.13,0.03,0.26,0.06,0.39,0.09c0.19,0.04,0.37,0.07,0.56,0.1
	c0.36,0.07,0.71,0.14,1.07,0.2c0.02,0,0.04,0,0.05,0.01c0.52,0.09,1.05,0.16,1.57,0.23c0.02,0,0.03,0,0.05,0.01
	c0.27,0.03,0.53,0.06,0.8,0.08c0.29,0.03,0.58,0.07,0.88,0.09c0.19,0.02,0.38,0.02,0.57,0.04c0.36,0.02,0.73,0.05,1.09,0.07
	c0.35,0.01,0.69,0.02,1.04,0.02c0.21,0,0.41,0.01,0.62,0.01c0,0,0.01,0,0.01,0c0.53,0,1.05-0.01,1.58-0.03c0.04,0,0.07,0,0.11,0
	c0.56-0.02,1.12-0.06,1.67-0.1c0.1-0.01,0.2-0.02,0.3-0.03c1-0.09,2-0.22,2.99-0.38c0.42-0.07,0.83-0.15,1.24-0.23
	c0.12-0.02,0.23-0.04,0.36-0.07c0.24-0.05,0.47-0.11,0.71-0.16c0.31-0.07,0.62-0.13,0.95-0.22c0.02-0.01,0.04-0.01,0.06-0.02
	c0.09-0.02,0.18-0.04,0.27-0.07l0.83,7.71h-2.7c-0.83,0-1.5,0.67-1.5,1.5s0.67,1.5,1.5,1.5h4.37c0.43,0,0.83-0.18,1.12-0.5
	s0.42-0.74,0.38-1.16l-1.08-9.95c2-0.7,3.93-1.55,5.79-2.55l4.14,13.12c0.2,0.62,0.78,1.05,1.43,1.05h13.03
	c0.89,0,1.7-0.46,2.15-1.23c0.45-0.77,0.47-1.69,0.04-2.48L79.53,73.34z M72.04,76.02c-0.36,0.27-0.73,0.54-1.1,0.8
	c-0.34,0.23-0.69,0.45-1.04,0.67c-0.44,0.28-0.87,0.56-1.31,0.82c-1.85,1.07-3.8,1.97-5.82,2.7l3.69-6.4h7.38
	c-0.3,0.25-0.6,0.52-0.91,0.76C72.64,75.59,72.34,75.8,72.04,76.02z M41.42,82.28l-4.43-7.68H47.4l-4.6,7.97
	c-0.02,0-0.04-0.01-0.06-0.01c-0.15-0.03-0.31-0.05-0.46-0.09c-0.06-0.01-0.12-0.03-0.17-0.04C41.88,82.39,41.65,82.33,41.42,82.28z
	 M19.99,24.13L24,31.08h-8.03C17.05,28.63,18.4,26.3,19.99,24.13z M80,24.13c1.6,2.17,2.95,4.5,4.03,6.95h-8.04L80,24.13z
	 M77.04,71.6h-8.85l5.2-9.01l4.6,7.97C77.68,70.91,77.37,71.26,77.04,71.6z M27.4,44.59h-6l5.2-9.01l6.07,10.51L26.6,56.6l-5.2-9h6
	c0.83,0,1.5-0.67,1.5-1.5S28.23,44.59,27.4,44.59z M85.2,34.08c0.15,0.45,0.29,0.89,0.42,1.33l-4.43,7.68l-5.2-9.01H85.2z
	 M72.52,58.1H60.39l5.2-9.01l3.52,6.1c0.28,0.48,0.78,0.75,1.3,0.75c0.25,0,0.51-0.06,0.75-0.2c0.72-0.41,0.96-1.33,0.55-2.05
	l-3.52-6.1h10.4L72.52,58.1z M42.2,35.58l1.14,1.98c0.28,0.48,0.78,0.75,1.3,0.75c0.25,0,0.51-0.06,0.75-0.2
	c0.72-0.41,0.96-1.33,0.55-2.05l-1.14-1.98h10.4l-5.2,9l-1.04-1.82c-0.41-0.72-1.33-0.97-2.05-0.56c-0.72,0.41-0.97,1.33-0.56,2.05
	l1.05,1.83h-10.4L42.2,35.58z M34.4,43.09l-5.2-9.01h10.4L34.4,43.09z M44.79,31.08l5.2-9.01l5.2,9.01H44.79z M63,47.59l-5.2,9.01
	l-5.2-9.01H63z M55.2,58.1H44.79l5.2-9.01L55.2,58.1z M78.59,44.59h-10.4l5.2-9.01L78.59,44.59z M52.59,44.59l5.2-9.01l5.2,9.01
	H52.59z M52.59,20.58H63l-5.2,9.01L52.59,20.58z M35.48,23.95c0.28,0.48,0.78,0.75,1.3,0.75c0.25,0,0.51-0.06,0.75-0.2
	c0.72-0.41,0.96-1.33,0.55-2.05L37,20.58h10.39l-5.19,9l-1.08-1.87c-0.41-0.72-1.33-0.96-2.05-0.55c-0.72,0.41-0.96,1.33-0.55,2.05
	l1.08,1.87H29.2l5.2-9L35.48,23.95z M47.4,47.59l-5.2,9.01l-5.2-9.01H47.4z M44.8,61.1h10.39l-5.19,9L44.8,61.1z M47.4,71.6h-10.4
	l5.2-9.01L47.4,71.6z M70.79,61.1l-5.19,9l-5.2-9H70.79z M81.19,49.09l4.43,7.68c-0.13,0.44-0.27,0.88-0.43,1.33h-9.21L81.19,49.09z
	 M87.19,46.09c0,2.16-0.21,4.3-0.57,6.4l-3.7-6.4l3.7-6.4C86.98,41.8,87.19,43.94,87.19,46.09z M68.6,34.08h2.2l-5.2,9.01l-5.2-9.01
	h2.2c0.83,0,1.5-0.67,1.5-1.5s-0.67-1.5-1.5-1.5h-2.2l5.2-9l5.2,9h-2.2c-0.83,0-1.5,0.67-1.5,1.5S67.77,34.08,68.6,34.08z
	 M31.8,20.58l-5.2,9L22,21.62c0.3-0.35,0.61-0.69,0.94-1.03H31.8z M24,34.08l-5.2,9.01l-4.43-7.67c0.13-0.44,0.27-0.89,0.42-1.34H24
	z M12.8,46.09c0-2.16,0.21-4.3,0.57-6.4l3.69,6.4l-3.7,6.4C13.01,50.39,12.8,48.25,12.8,46.09z M14.37,56.77l4.43-7.68l5.2,9.01
	h-9.21C14.64,57.66,14.5,57.21,14.37,56.77z M31.39,58.1h-2.19l5.2-9.01l5.2,9.01h-2.21c-0.83,0-1.5,0.67-1.5,1.5s0.67,1.5,1.5,1.5
	h2.2l-5.19,9l-5.2-9h2.19c0.83,0,1.5-0.67,1.5-1.5S32.22,58.1,31.39,58.1z M49.99,76.1L54,83.05c-2.64,0.29-5.38,0.29-8.02,0
	L49.99,76.1z M57.66,82.49c-0.11,0.02-0.21,0.04-0.32,0.06c-0.05,0.01-0.1,0.02-0.15,0.03l-4.6-7.97h2.21c0.83,0,1.5-0.67,1.5-1.5
	s-0.67-1.5-1.5-1.5h-2.2l5.2-9.01L63,71.6h-2.2c-0.83,0-1.5,0.67-1.5,1.5s0.67,1.5,1.5,1.5h2.2l-4.43,7.67
	c-0.16,0.04-0.32,0.07-0.47,0.11C57.95,82.42,57.8,82.46,57.66,82.49z M68.59,13.88c2.92,1.68,5.63,3.78,8.04,6.25
	c0.46,0.46,0.91,0.96,1.36,1.48l-4.6,7.97l-5.21-9.01h1.51c0.83,0,1.5-0.67,1.5-1.5s-0.67-1.5-1.5-1.5h-3.24l-2.05-3.55
	c-0.42-0.72-1.33-0.96-2.05-0.55s-0.96,1.33-0.55,2.05l1.18,2.04H52.6l4.6-7.97c0.63,0.12,1.27,0.26,1.97,0.43
	C62.48,10.88,65.65,12.18,68.59,13.88z M54.01,9.13L50,16.08l-4.02-6.95C48.62,8.84,51.36,8.84,54.01,9.13z M41.44,9.9
	c0.46-0.11,0.91-0.21,1.35-0.29l4.61,7.97H37L41.44,9.9z M75.62,92.67l-4.01-12.7c0.17-0.11,0.34-0.23,0.51-0.34
	c0.19-0.13,0.38-0.25,0.57-0.38c0.65-0.45,1.3-0.91,1.92-1.39c0.07-0.05,0.13-0.11,0.19-0.16c0.59-0.46,1.16-0.94,1.72-1.44
	c0.14-0.12,0.28-0.25,0.42-0.37c0.12-0.11,0.25-0.22,0.37-0.33l9.38,17.11H75.62z"/>
</svg>
